<svg id="Layer_1" data-name="Layer 1" xmlns="http://www.w3.org/2000/svg" viewBox="0 0 271.88 210.81"><defs><style>.cls-1{fill:#1371b6;}</style></defs><title>logo-kafedra</title><path class="cls-1" d="M11.59,139.56a1.58,1.58,0,0,1-1.12-.45A1.53,1.53,0,0,1,10,138V117.34a1.51,1.51,0,0,1,.47-1.12,1.55,1.55,0,0,1,1.12-.46,1.57,1.57,0,0,1,1.58,1.58v9.15L23.26,116.4a2.52,2.52,0,0,1,.65-.5,1.59,1.59,0,0,1,.66-.14,1.28,1.28,0,0,1,1,.38,1.34,1.34,0,0,1,.35.93,1.84,1.84,0,0,1-.58,1.37l-7.77,7.8L25.48,137a1.61,1.61,0,0,1,.31,1,1.59,1.59,0,0,1-.4,1.08,1.23,1.23,0,0,1-1,.47,1.48,1.48,0,0,1-1.31-.67l-7.72-10.45-2.19,2.19V138a1.55,1.55,0,0,1-1.58,1.58Zm26-16.79a8.31,8.31,0,0,1,4.26,1.11,8.16,8.16,0,0,1,3,3.05A8.51,8.51,0,0,1,46,131.24V138a1.55,1.55,0,1,1-3.1,0v-1.13a7.34,7.34,0,0,1-2.59,2,7.53,7.53,0,0,1-3.3.74,7.41,7.41,0,0,1-4-1.1,7.68,7.68,0,0,1-2.81-3,9.12,9.12,0,0,1-1-4.32,8.61,8.61,0,0,1,1.1-4.31,8,8,0,0,1,3-3.05,8.46,8.46,0,0,1,4.28-1.11Zm0,14.17a5.22,5.22,0,0,0,4.7-2.79,6.08,6.08,0,0,0,.7-2.91,6.17,6.17,0,0,0-.7-2.92,5.28,5.28,0,0,0-1.94-2.06,5.45,5.45,0,0,0-5.52,0,5.37,5.37,0,0,0-2,2.06,6.07,6.07,0,0,0-.71,2.92,6,6,0,0,0,.71,2.91,5.42,5.42,0,0,0,2,2,5.33,5.33,0,0,0,2.76.74ZM61.2,122.77a8.47,8.47,0,0,1,4.33,1.1,7.78,7.78,0,0,1,3,3,8.86,8.86,0,0,1,1.07,4.36,8.76,8.76,0,0,1-1.07,4.35,7.78,7.78,0,0,1-3,3,8.51,8.51,0,0,1-4.32,1.1v5.45a1.58,1.58,0,0,1-2.66,1.13,1.48,1.48,0,0,1-.44-1.13v-5.45a8.51,8.51,0,0,1-4.32-1.1,7.78,7.78,0,0,1-3-3,8.76,8.76,0,0,1-1.07-4.35,8.86,8.86,0,0,1,1.07-4.36,7.78,7.78,0,0,1,3-3,8.47,8.47,0,0,1,4.33-1.1v-5.46a1.46,1.46,0,0,1,.44-1.12,1.5,1.5,0,0,1,1.11-.43,1.46,1.46,0,0,1,1.55,1.55v5.46Zm-3.1,2.74a5.15,5.15,0,0,0-4.68,2.79,6.61,6.61,0,0,0,0,5.88,5,5,0,0,0,1.9,2,5.27,5.27,0,0,0,2.78.73V125.51Zm3.1,11.43a5.27,5.27,0,0,0,2.78-.73,5,5,0,0,0,1.9-2,6.61,6.61,0,0,0,0-5.88,5.15,5.15,0,0,0-4.68-2.79v11.43Zm28-6a1.29,1.29,0,0,1-.39,1,1.42,1.42,0,0,1-1,.38H76.17a5.36,5.36,0,0,0,1.93,3.44A6,6,0,0,0,82,137.07a6.07,6.07,0,0,0,1.91-.34,5.77,5.77,0,0,0,1.63-.82,1.53,1.53,0,0,1,1-.34,1.3,1.3,0,0,1,.92.31,1.34,1.34,0,0,1,.55,1,1.13,1.13,0,0,1-.49.92A8.47,8.47,0,0,1,85,139.17a9.31,9.31,0,0,1-2.94.52,9.12,9.12,0,0,1-4.48-1.09,7.82,7.82,0,0,1-3.09-3,8.55,8.55,0,0,1-1.12-4.36,9,9,0,0,1,1.06-4.37,7.58,7.58,0,0,1,2.92-3,8.37,8.37,0,0,1,4.25-1.08,7.69,7.69,0,0,1,4.06,1,6.8,6.8,0,0,1,2.62,2.89,9.54,9.54,0,0,1,.91,4.27Zm-7.59-5.58A5.29,5.29,0,0,0,78,126.61a5.47,5.47,0,0,0-1.75,3.26H86.35a5.39,5.39,0,0,0-1.52-3.26,4.5,4.5,0,0,0-3.27-1.22Zm19.11-2.62a8.6,8.6,0,0,1,4.32,1.08,7.74,7.74,0,0,1,3,3,8.72,8.72,0,0,1,1.09,4.39v6.59a9.17,9.17,0,0,1-1.07,4.39,7.9,7.9,0,0,1-3,3.12,8.47,8.47,0,0,1-4.38,1.14,9.64,9.64,0,0,1-4.08-.87,8.47,8.47,0,0,1-3.17-2.48,1.4,1.4,0,0,1-.34-.85,1.34,1.34,0,0,1,.64-1.1,1.62,1.62,0,0,1,.86-.28,1.53,1.53,0,0,1,1.25.64,5.36,5.36,0,0,0,2.07,1.64,6.91,6.91,0,0,0,2.83.56,5.27,5.27,0,0,0,2.72-.72,5.1,5.1,0,0,0,2-2.1,7.09,7.09,0,0,0,.73-3.31v-1.49a7,7,0,0,1-2.5,2.62,6.62,6.62,0,0,1-3.51.95,7.54,7.54,0,0,1-4-1.09,7.39,7.39,0,0,1-2.78-3,9.37,9.37,0,0,1-1-4.36,8.92,8.92,0,0,1,1.07-4.39,7.63,7.63,0,0,1,3-3,8.72,8.72,0,0,1,4.35-1.08Zm0,14.17a5.33,5.33,0,0,0,2.79-.73,5,5,0,0,0,1.92-2,6.14,6.14,0,0,0,.69-2.94,6.23,6.23,0,0,0-.69-3,4.94,4.94,0,0,0-1.92-2,5.68,5.68,0,0,0-5.57,0,5.11,5.11,0,0,0-1.94,2,6.12,6.12,0,0,0-.7,3,6,6,0,0,0,.7,2.94,5.12,5.12,0,0,0,1.94,2,5.32,5.32,0,0,0,2.78.73Zm21.4-14.17a8.46,8.46,0,0,1,4.28,1.11,8,8,0,0,1,3,3.05,8.51,8.51,0,0,1,1.1,4.31,9.12,9.12,0,0,1-1,4.32,7.66,7.66,0,0,1-2.8,3,7.72,7.72,0,0,1-7.27.36,7.25,7.25,0,0,1-2.59-2v8.23a1.51,1.51,0,0,1-.43,1.13,1.54,1.54,0,0,1-1.13.43,1.56,1.56,0,0,1-1.11-.43,1.52,1.52,0,0,1-.44-1.13v-13.9a8.51,8.51,0,0,1,1.11-4.31,8.19,8.19,0,0,1,3-3.05,8.29,8.29,0,0,1,4.25-1.11Zm0,14.17a5.28,5.28,0,0,0,2.76-.74,5.42,5.42,0,0,0,2-2,5.87,5.87,0,0,0,.72-2.91,6,6,0,0,0-.72-2.92,5.37,5.37,0,0,0-2-2.06,5.3,5.3,0,0,0-7.45,2.06,6.06,6.06,0,0,0-.7,2.92,6,6,0,0,0,.7,2.91,5.22,5.22,0,0,0,1.93,2,5.28,5.28,0,0,0,2.76.74Zm20.6-14.17a8.31,8.31,0,0,1,4.26,1.11,8.16,8.16,0,0,1,3,3.05,8.42,8.42,0,0,1,1.12,4.31V138a1.56,1.56,0,1,1-3.11,0v-1.13a7.34,7.34,0,0,1-2.59,2,7.53,7.53,0,0,1-3.3.74,7.44,7.44,0,0,1-4-1.1,7.68,7.68,0,0,1-2.81-3,9.12,9.12,0,0,1-1-4.32,8.61,8.61,0,0,1,1.1-4.31,8,8,0,0,1,3-3.05,8.46,8.46,0,0,1,4.28-1.11Zm0,14.17a5.22,5.22,0,0,0,4.7-2.79,6.08,6.08,0,0,0,.7-2.91,6.17,6.17,0,0,0-.7-2.92,5.36,5.36,0,0,0-7.45-2.06,5.32,5.32,0,0,0-2,2.06,6.07,6.07,0,0,0-.71,2.92,6,6,0,0,0,.71,2.91,5.37,5.37,0,0,0,2,2,5.27,5.27,0,0,0,2.75.74ZM29,177.22a1.52,1.52,0,0,1-1.13-.46,1.54,1.54,0,0,1-.46-1.12V158.39L12.87,176.67a1.59,1.59,0,0,1-.55.4,1.66,1.66,0,0,1-.67.15,1.62,1.62,0,0,1-1.18-.46,1.51,1.51,0,0,1-.47-1.12V155a1.51,1.51,0,0,1,.47-1.12,1.62,1.62,0,0,1,1.18-.46,1.46,1.46,0,0,1,1.09.44,1.57,1.57,0,0,1,.43,1.14v17.28L27.8,154a1.56,1.56,0,0,1,.55-.41,1.39,1.39,0,0,1,.67-.17A1.51,1.51,0,0,1,30.6,155v20.64a1.52,1.52,0,0,1-.44,1.12,1.48,1.48,0,0,1-1.14.46Zm21.39-16.67a1.44,1.44,0,0,1,1.09.43,1.57,1.57,0,0,1,.41,1.13v13.56a1.58,1.58,0,0,1-.41,1.13,1.47,1.47,0,0,1-1.09.42,1.54,1.54,0,0,1-1.11-.44,1.51,1.51,0,0,1-.44-1.11v-5.73H39.44v5.73a1.47,1.47,0,0,1-1.55,1.55,1.43,1.43,0,0,1-1.08-.42,1.55,1.55,0,0,1-.42-1.13V162.11a1.53,1.53,0,0,1,.42-1.13,1.4,1.4,0,0,1,1.08-.43A1.51,1.51,0,0,1,39,161a1.53,1.53,0,0,1,.42,1.13v5.08h9.42v-5.08A1.51,1.51,0,0,1,49.3,161a1.53,1.53,0,0,1,1.11-.43Zm21,0a1.44,1.44,0,0,1,1.09.43,1.57,1.57,0,0,1,.41,1.13v13.56a1.58,1.58,0,0,1-.41,1.13,1.47,1.47,0,0,1-1.09.42,1.54,1.54,0,0,1-1.11-.44,1.51,1.51,0,0,1-.44-1.11v-5.73H60.44v5.73a1.49,1.49,0,0,1-1.55,1.55,1.43,1.43,0,0,1-1.08-.42,1.55,1.55,0,0,1-.42-1.13V162.11a1.53,1.53,0,0,1,.42-1.13,1.4,1.4,0,0,1,1.08-.43,1.48,1.48,0,0,1,1.55,1.56v5.08h9.42v-5.08A1.51,1.51,0,0,1,70.3,161a1.53,1.53,0,0,1,1.11-.43ZM86,177.34a8.76,8.76,0,0,1-4.36-1.08,7.61,7.61,0,0,1-3-3,8.83,8.83,0,0,1-1.07-4.36,8.92,8.92,0,0,1,1.07-4.39,7.61,7.61,0,0,1,3-3A8.76,8.76,0,0,1,86,160.43a8.6,8.6,0,0,1,4.32,1.08,7.74,7.74,0,0,1,3,3,9.48,9.48,0,0,1,0,8.75,7.65,7.65,0,0,1-3,3A8.66,8.66,0,0,1,86,177.34Zm0-2.74a5.33,5.33,0,0,0,2.79-.73,5.08,5.08,0,0,0,1.92-2,6.14,6.14,0,0,0,.69-2.94,6.27,6.27,0,0,0-.69-3,5.1,5.1,0,0,0-1.92-2,5.7,5.7,0,0,0-5.58,0,5.2,5.2,0,0,0-1.93,2,6.16,6.16,0,0,0-.7,3,6,6,0,0,0,.7,2.94,5.17,5.17,0,0,0,1.93,2,5.38,5.38,0,0,0,2.79.73Zm24.87-6.13a5,5,0,0,1,2.12,1.64,3.89,3.89,0,0,1,.78,2.39,4.28,4.28,0,0,1-.73,2.44,4.88,4.88,0,0,1-2,1.67,6.83,6.83,0,0,1-3,.61h-7.47a1.51,1.51,0,0,1-1.11-.44,1.47,1.47,0,0,1-.44-1.11v-13.6a1.72,1.72,0,0,1,.48-1.09,1.44,1.44,0,0,1,1.07-.43h7.65a5.19,5.19,0,0,1,3.54,1.23,4,4,0,0,1,1.4,3.16,3.71,3.71,0,0,1-.61,2.09,4.08,4.08,0,0,1-1.68,1.44Zm-.61-3.23a1.69,1.69,0,0,0-.58-1.31,2.11,2.11,0,0,0-1.46-.51h-6.09v3.93h6.4a1.52,1.52,0,0,0,1.24-.6,2.27,2.27,0,0,0,.49-1.51ZM108,174.33a3.11,3.11,0,0,0,2-.6,1.85,1.85,0,0,0,.76-1.54,2,2,0,0,0-.76-1.64,3,3,0,0,0-2-.64h-5.91v4.42Zm17.1-13.9a8.22,8.22,0,0,1,7.27,4.16,8.51,8.51,0,0,1,1.11,4.31v6.8a1.56,1.56,0,1,1-3.11,0v-1.13a7.69,7.69,0,0,1-9.86,1.68,7.69,7.69,0,0,1-2.8-3,9,9,0,0,1-1-4.31,8.61,8.61,0,0,1,1.1-4.31,8,8,0,0,1,3-3.05,8.47,8.47,0,0,1,4.29-1.11Zm0,14.17a5.24,5.24,0,0,0,4.69-2.79,6,6,0,0,0,.7-2.91,6,6,0,0,0-.7-2.92,5.21,5.21,0,0,0-4.69-2.81,5.2,5.2,0,0,0-2.76.75,5.3,5.3,0,0,0-2,2.06,5.93,5.93,0,0,0-.72,2.92,5.87,5.87,0,0,0,.72,2.91,5.3,5.3,0,0,0,4.71,2.79Zm29.59,0a1.52,1.52,0,0,1,1.59,1.59v4.87a1.69,1.69,0,0,1-.4,1.15,1.27,1.27,0,0,1-1,.44,1.37,1.37,0,0,1-1.06-.46,1.56,1.56,0,0,1-.43-1.13v-3.84h-.46a3,3,0,0,1-1.85-.5,2.21,2.21,0,0,1-.77-1.57,6.2,6.2,0,0,1-2.25,1.65,7.51,7.51,0,0,1-3,.57,7.24,7.24,0,0,1-3.79-1,6.91,6.91,0,0,1-2.61-2.77,8.48,8.48,0,0,1-.94-4v-7.5a1.46,1.46,0,0,1,.44-1.12,1.5,1.5,0,0,1,1.11-.43,1.46,1.46,0,0,1,1.55,1.55v7.5a5,5,0,0,0,1.36,3.6,4.67,4.67,0,0,0,3.49,1.4,4.83,4.83,0,0,0,3.29-1.1,3.5,3.5,0,0,0,1.28-2.8v-8.6a1.5,1.5,0,0,1,.44-1.12,1.54,1.54,0,0,1,1.12-.43,1.47,1.47,0,0,1,1.55,1.55V174.6Zm18.53-14.08a1.48,1.48,0,0,1,1.56,1.55v13.6a1.49,1.49,0,0,1-1.56,1.55,1.54,1.54,0,0,1-1.11-.44,1.51,1.51,0,0,1-.44-1.11v-.34a6.66,6.66,0,0,1-2.32,1.51,7.57,7.57,0,0,1-2.86.53,7.77,7.77,0,0,1-3.78-.91,6.42,6.42,0,0,1-2.62-2.67,8.77,8.77,0,0,1-1-4.22v-7.5a1.56,1.56,0,1,1,3.11,0v7.5a4.5,4.5,0,0,0,4.85,5,5.14,5.14,0,0,0,2.33-.52,4,4,0,0,0,1.64-1.4,3.45,3.45,0,0,0,.6-2v-8.6a1.5,1.5,0,0,1,.44-1.12,1.53,1.53,0,0,1,1.11-.43Zm14.6,16.82a8.76,8.76,0,0,1-4.36-1.08,7.61,7.61,0,0,1-3-3,8.83,8.83,0,0,1-1.07-4.36,8.92,8.92,0,0,1,1.07-4.39,7.61,7.61,0,0,1,3-3,8.76,8.76,0,0,1,4.36-1.08,8.6,8.6,0,0,1,4.32,1.08,7.74,7.74,0,0,1,3,3,9.48,9.48,0,0,1,0,8.75,7.65,7.65,0,0,1-3,3,8.66,8.66,0,0,1-4.35,1.08Zm0-2.74a5.33,5.33,0,0,0,2.79-.73,5.08,5.08,0,0,0,1.92-2,6.14,6.14,0,0,0,.69-2.94,6.27,6.27,0,0,0-.69-3,5.1,5.1,0,0,0-1.92-2,5.7,5.7,0,0,0-5.58,0,5.2,5.2,0,0,0-1.93,2,6.16,6.16,0,0,0-.7,3,6,6,0,0,0,.7,2.94,5.17,5.17,0,0,0,1.93,2,5.38,5.38,0,0,0,2.79.73Zm27-14a1.43,1.43,0,0,1,1.08.43,1.57,1.57,0,0,1,.41,1.13v13.56a1.58,1.58,0,0,1-.41,1.13,1.46,1.46,0,0,1-1.08.42,1.55,1.55,0,0,1-1.12-.44,1.51,1.51,0,0,1-.44-1.11v-5.73h-9.42v5.73a1.47,1.47,0,0,1-1.55,1.55,1.43,1.43,0,0,1-1.08-.42,1.54,1.54,0,0,1-.41-1.13V162.11a1.53,1.53,0,0,1,.41-1.13,1.4,1.4,0,0,1,1.08-.43,1.51,1.51,0,0,1,1.13.43,1.53,1.53,0,0,1,.42,1.13v5.08h9.42v-5.08a1.51,1.51,0,0,1,.44-1.13,1.54,1.54,0,0,1,1.12-.43Zm21,0a1.43,1.43,0,0,1,1.08.43,1.57,1.57,0,0,1,.41,1.13v13.56a1.58,1.58,0,0,1-.41,1.13,1.46,1.46,0,0,1-1.08.42,1.55,1.55,0,0,1-1.12-.44,1.51,1.51,0,0,1-.44-1.11v-5.73h-9.42v5.73a1.47,1.47,0,0,1-1.55,1.55,1.43,1.43,0,0,1-1.08-.42,1.54,1.54,0,0,1-.41-1.13V162.11a1.53,1.53,0,0,1,.41-1.13,1.4,1.4,0,0,1,1.08-.43,1.51,1.51,0,0,1,1.13.43,1.53,1.53,0,0,1,.42,1.13v5.08h9.42v-5.08a1.51,1.51,0,0,1,.44-1.13,1.54,1.54,0,0,1,1.12-.43Zm14.53,16.79a8.72,8.72,0,0,1-4.35-1.08,7.63,7.63,0,0,1-3-3A8.83,8.83,0,0,1,242,168.9a8.92,8.92,0,0,1,1.07-4.39,7.63,7.63,0,0,1,3-3,8.72,8.72,0,0,1,4.35-1.08,8.6,8.6,0,0,1,4.32,1.08,7.74,7.74,0,0,1,3,3,8.72,8.72,0,0,1,1.09,4.39,8.83,8.83,0,0,1-1.07,4.36,7.65,7.65,0,0,1-3,3,8.66,8.66,0,0,1-4.35,1.08Zm0-2.74a5.33,5.33,0,0,0,2.79-.73,5,5,0,0,0,1.92-2,6.14,6.14,0,0,0,.69-2.94,6.27,6.27,0,0,0-.69-3,5,5,0,0,0-1.92-2,5.68,5.68,0,0,0-5.57,0,5.15,5.15,0,0,0-1.94,2,6.16,6.16,0,0,0-.7,3,6,6,0,0,0,.7,2.94,5.12,5.12,0,0,0,1.94,2,5.32,5.32,0,0,0,2.78.73Zm26.76-14.08a1.48,1.48,0,0,1,1.56,1.55v13.6a1.49,1.49,0,0,1-1.56,1.55,1.54,1.54,0,0,1-1.11-.44,1.51,1.51,0,0,1-.44-1.11v-.34a6.66,6.66,0,0,1-2.32,1.51,7.54,7.54,0,0,1-2.86.53,7.77,7.77,0,0,1-3.78-.91,6.42,6.42,0,0,1-2.62-2.67,8.77,8.77,0,0,1-.95-4.22v-7.5a1.56,1.56,0,1,1,3.11,0v7.5a4.5,4.5,0,0,0,4.85,5,5.14,5.14,0,0,0,2.33-.52,4.13,4.13,0,0,0,1.65-1.4,3.52,3.52,0,0,0,.59-2v-8.6A1.5,1.5,0,0,1,276,161a1.53,1.53,0,0,1,1.11-.43Zm-6.09-2.16a7.09,7.09,0,0,1-2.82-.54,4.71,4.71,0,0,1-2-1.48,3.34,3.34,0,0,1-.72-2.07,1.5,1.5,0,0,1,.4-1.07,1.34,1.34,0,0,1,1.95,0,1.54,1.54,0,0,1,.4,1.07,1.51,1.51,0,0,0,.79,1.31,4,4,0,0,0,4,0,1.51,1.51,0,0,0,.79-1.31,1.5,1.5,0,0,1,.4-1.07,1.34,1.34,0,0,1,1.95,0,1.54,1.54,0,0,1,.4,1.07,3.34,3.34,0,0,1-.72,2.07,4.71,4.71,0,0,1-2,1.48,7.09,7.09,0,0,1-2.82.54ZM11.59,214.88A1.57,1.57,0,0,1,10,213.3V192.66a1.48,1.48,0,0,1,.46-1.14,1.53,1.53,0,0,1,1.13-.44H27.8a1.51,1.51,0,0,1,1.58,1.58V213.3a1.52,1.52,0,0,1-.44,1.12,1.48,1.48,0,0,1-1.14.46,1.52,1.52,0,0,1-1.13-.46,1.54,1.54,0,0,1-.46-1.12V193.88h-13V213.3a1.56,1.56,0,0,1-.44,1.12,1.51,1.51,0,0,1-1.14.46Z" transform="translate(-10 -10.98)"/><path class="cls-1" d="M50.14,206.29a1.28,1.28,0,0,1-.4,1,1.4,1.4,0,0,1-1,.38H37.16a5.32,5.32,0,0,0,1.93,3.44,6.22,6.22,0,0,0,5.82,1,5.64,5.64,0,0,0,1.63-.83,1.61,1.61,0,0,1,1-.33,1.3,1.3,0,0,1,.91.3,1.33,1.33,0,0,1,.55,1,1.09,1.09,0,0,1-.49.91A8.2,8.2,0,0,1,46,214.48a9.3,9.3,0,0,1-7.42-.56,7.92,7.92,0,0,1-3.1-3,8.54,8.54,0,0,1-1.11-4.36,9,9,0,0,1,1-4.37,7.6,7.6,0,0,1,2.93-3,8.37,8.37,0,0,1,4.25-1.08,7.62,7.62,0,0,1,4.05,1,6.85,6.85,0,0,1,2.63,2.9,9.54,9.54,0,0,1,.91,4.27Zm-7.59-5.58a5.23,5.23,0,0,0-3.61,1.22,5.41,5.41,0,0,0-1.75,3.26H47.34a5.4,5.4,0,0,0-1.53-3.26,4.44,4.44,0,0,0-3.26-1.22Zm19.11-2.62A8.57,8.57,0,0,1,66,199.17a7.77,7.77,0,0,1,3,3A8.79,8.79,0,0,1,70,206.56v6.58A9.11,9.11,0,0,1,69,217.53a8,8,0,0,1-3,3.13,8.43,8.43,0,0,1-4.37,1.14,9.64,9.64,0,0,1-4.08-.87,8.58,8.58,0,0,1-3.17-2.48,1.37,1.37,0,0,1-.34-.86,1.31,1.31,0,0,1,.64-1.09,1.54,1.54,0,0,1,.86-.28,1.48,1.48,0,0,1,1.24.64,5.3,5.3,0,0,0,2.08,1.63,6.72,6.72,0,0,0,2.83.57,5.13,5.13,0,0,0,4.67-2.82,7.12,7.12,0,0,0,.73-3.31v-1.49a7.16,7.16,0,0,1-2.5,2.62,6.64,6.64,0,0,1-3.51.94,7.66,7.66,0,0,1-4-1.08,7.37,7.37,0,0,1-2.77-3,9.37,9.37,0,0,1-1-4.36,8.89,8.89,0,0,1,1.07-4.39,7.61,7.61,0,0,1,3-3,8.76,8.76,0,0,1,4.36-1.08Zm0,14.17a5.33,5.33,0,0,0,2.79-.73,5.14,5.14,0,0,0,1.92-2,6.14,6.14,0,0,0,.69-2.94,6.27,6.27,0,0,0-.69-3,5.1,5.1,0,0,0-1.92-2,5.7,5.7,0,0,0-5.58,0,5.13,5.13,0,0,0-1.93,2,6.16,6.16,0,0,0-.7,3,6,6,0,0,0,.7,2.94,5.17,5.17,0,0,0,1.93,2,5.38,5.38,0,0,0,2.79.73Zm20.57-14.17a8.31,8.31,0,0,1,4.26,1.11,8.16,8.16,0,0,1,3,3.05,8.42,8.42,0,0,1,1.12,4.31v6.8A1.58,1.58,0,0,1,88,214.47a1.54,1.54,0,0,1-.44-1.11v-1.13A7.49,7.49,0,0,1,81.63,215a7.44,7.44,0,0,1-4-1.09,7.78,7.78,0,0,1-2.81-3,9.11,9.11,0,0,1-1-4.31,8.61,8.61,0,0,1,1.1-4.31,8,8,0,0,1,3-3.05,8.46,8.46,0,0,1,4.28-1.11Zm0,14.17a5.2,5.2,0,0,0,2.76-.75,5.29,5.29,0,0,0,1.94-2,6,6,0,0,0,.7-2.91,6.1,6.1,0,0,0-.7-2.93,5.33,5.33,0,0,0-9.4,0,6,6,0,0,0-.72,2.93,5.87,5.87,0,0,0,.72,2.91,5.31,5.31,0,0,0,2,2,5.19,5.19,0,0,0,2.75.75ZM100.4,215a9.51,9.51,0,0,1-3.44-.59,5.57,5.57,0,0,1-2.38-1.66,3.93,3.93,0,0,1,.82-5.66,12.27,12.27,0,0,1,4.91-1.84,7,7,0,0,0,2.77-1,1.86,1.86,0,0,0,.76-1.58,1.57,1.57,0,0,0-.92-1.42,4.87,4.87,0,0,0-2.31-.5,6.91,6.91,0,0,0-2.15.35,4.68,4.68,0,0,0-1.72,1,2.24,2.24,0,0,1-.68.47,1.87,1.87,0,0,1-.72.17.8.8,0,0,1-.49-.12,1.56,1.56,0,0,1-.56-.55,1.33,1.33,0,0,1-.2-.67,1.09,1.09,0,0,1,.31-.79A6.28,6.28,0,0,1,97,198.77a9.64,9.64,0,0,1,3.65-.68,7.56,7.56,0,0,1,4.44,1.23,4,4,0,0,1,1.75,3.43c0,2.36-1.93,4-5.79,4.82a9.93,9.93,0,0,0-3.26,1.11,1.82,1.82,0,0,0-1,1.54,1.65,1.65,0,0,0,.9,1.52,5.41,5.41,0,0,0,2.67.52c2.15,0,3.64-.44,4.45-1.31a1.79,1.79,0,0,1,1.22-.64,1.43,1.43,0,0,1,.88.36,1.33,1.33,0,0,1,.52,1,1.39,1.39,0,0,1-.46,1,7.38,7.38,0,0,1-2.83,1.67,11.12,11.12,0,0,1-3.78.64Zm18.44,0a8.73,8.73,0,0,1-4.36-1.08,7.7,7.7,0,0,1-3-3,9.56,9.56,0,0,1,0-8.75,7.7,7.7,0,0,1,3-3,8.73,8.73,0,0,1,4.36-1.08,8.59,8.59,0,0,1,4.31,1.08,7.77,7.77,0,0,1,3,3,9.44,9.44,0,0,1,0,8.75,7.65,7.65,0,0,1-3,3,8.65,8.65,0,0,1-4.34,1.08Zm0-2.74a5.33,5.33,0,0,0,2.79-.73,5.14,5.14,0,0,0,1.92-2,6.13,6.13,0,0,0,.68-2.94,6.27,6.27,0,0,0-.68-3,5.1,5.1,0,0,0-1.92-2,5.7,5.7,0,0,0-5.58,0,5.13,5.13,0,0,0-1.93,2,6.17,6.17,0,0,0-.71,3,6,6,0,0,0,.71,2.94,5.17,5.17,0,0,0,1.93,2,5.33,5.33,0,0,0,2.79.73ZM137,215a9.54,9.54,0,0,1-3.44-.59,5.57,5.57,0,0,1-2.38-1.66,3.93,3.93,0,0,1,.83-5.66,12.16,12.16,0,0,1,4.9-1.84,7.09,7.09,0,0,0,2.78-1,1.89,1.89,0,0,0,.76-1.58,1.56,1.56,0,0,0-.93-1.42,4.86,4.86,0,0,0-2.3-.5,6.87,6.87,0,0,0-2.15.35,4.6,4.6,0,0,0-1.72,1,2.29,2.29,0,0,1-.69.47,1.79,1.79,0,0,1-.71.17.78.78,0,0,1-.49-.12,1.59,1.59,0,0,1-.57-.55,1.31,1.31,0,0,1-.19-.67,1.13,1.13,0,0,1,.3-.79,6.28,6.28,0,0,1,2.59-1.82,9.73,9.73,0,0,1,3.66-.68,7.52,7.52,0,0,1,4.43,1.23,4,4,0,0,1,1.76,3.43c0,2.36-1.93,4-5.8,4.82a9.93,9.93,0,0,0-3.26,1.11,1.8,1.8,0,0,0-.94,1.54,1.65,1.65,0,0,0,.9,1.52,5.39,5.39,0,0,0,2.66.52c2.16,0,3.64-.44,4.45-1.31a1.81,1.81,0,0,1,1.22-.64,1.46,1.46,0,0,1,.89.36,1.36,1.36,0,0,1,.52,1,1.43,1.43,0,0,1-.46,1,7.42,7.42,0,0,1-2.84,1.67A11,11,0,0,1,137,215Zm24.63-16.82a1.51,1.51,0,0,1,1.13.43,1.53,1.53,0,0,1,.43,1.12v13.6a1.57,1.57,0,0,1-.43,1.11,1.65,1.65,0,0,1-2.24,0,1.5,1.5,0,0,1-.44-1.11V213a6.8,6.8,0,0,1-2.32,1.51,7.57,7.57,0,0,1-2.86.53,7.72,7.72,0,0,1-3.78-.91,6.37,6.37,0,0,1-2.62-2.67,8.66,8.66,0,0,1-.95-4.22v-7.5a1.52,1.52,0,0,1,.44-1.11,1.63,1.63,0,0,1,2.23,0,1.52,1.52,0,0,1,.44,1.11v7.5a4.51,4.51,0,0,0,4.85,5,5.14,5.14,0,0,0,2.33-.52,4,4,0,0,0,1.64-1.4,3.45,3.45,0,0,0,.6-2v-8.6a1.46,1.46,0,0,1,.44-1.12,1.5,1.5,0,0,1,1.11-.43Zm20.67,14.45a1.38,1.38,0,0,1,.39.91,1.3,1.3,0,0,1-.49,1,1.74,1.74,0,0,1-2.22-.06l-6.28-6.73h-2v5.64a1.54,1.54,0,0,1-.44,1.11,1.58,1.58,0,0,1-1.14.44,1.37,1.37,0,0,1-1.07-.43,1.55,1.55,0,0,1-.4-1.12v-13.6a1.55,1.55,0,0,1,.4-1.12,1.37,1.37,0,0,1,1.07-.43,1.58,1.58,0,0,1,1.14.44,1.52,1.52,0,0,1,.44,1.11v5.09H174l5.51-6.15a1.66,1.66,0,0,1,1.28-.49,1.3,1.3,0,0,1,.95.3,1.58,1.58,0,0,1,.52,1.1,1.26,1.26,0,0,1-.34.82l-5.52,5.92,5.86,6.28Zm17.95-14.45a1.46,1.46,0,0,1,1.55,1.55v13.6a1.57,1.57,0,0,1-.42,1.11,1.54,1.54,0,0,1-1.13.44,1.52,1.52,0,0,1-1.56-1.55V213a6.86,6.86,0,0,1-2.31,1.51,7.62,7.62,0,0,1-2.87.53,7.77,7.77,0,0,1-3.78-.91,6.48,6.48,0,0,1-2.62-2.67,8.77,8.77,0,0,1-.94-4.22v-7.5a1.48,1.48,0,0,1,.44-1.11,1.56,1.56,0,0,1,2.67,1.11v7.5a4.5,4.5,0,0,0,4.84,5,5.14,5.14,0,0,0,2.33-.52,4.13,4.13,0,0,0,1.65-1.4,3.44,3.44,0,0,0,.59-2v-8.6a1.47,1.47,0,0,1,.45-1.12,1.5,1.5,0,0,1,1.11-.43Z" transform="translate(-10 -10.98)"/><path class="cls-1" d="M103.14,11h0a13.38,13.38,0,0,1,13.34,13.34V71.67A13.38,13.38,0,0,1,103.14,85h0A13.39,13.39,0,0,1,89.8,71.67V24.32A13.39,13.39,0,0,1,103.14,11Z" transform="translate(-10 -10.98)"/><path class="cls-1" d="M50,24.32h0A13.38,13.38,0,0,1,63.36,11h0A13.38,13.38,0,0,1,76.69,24.32h0A13.37,13.37,0,0,1,63.36,37.66h0A13.38,13.38,0,0,1,50,24.32Z" transform="translate(-10 -10.98)"/><path class="cls-1" d="M131,48h0a13.38,13.38,0,0,1,13.34-13.34h0A13.37,13.37,0,0,1,157.69,48h0a13.37,13.37,0,0,1-13.33,13.33h0A13.37,13.37,0,0,1,131,48Z" transform="translate(-10 -10.98)"/><path class="cls-1" d="M210.82,24.32h0A13.38,13.38,0,0,1,224.16,11h0A13.38,13.38,0,0,1,237.5,24.32h0a13.38,13.38,0,0,1-13.34,13.34h0a13.38,13.38,0,0,1-13.34-13.34Z" transform="translate(-10 -10.98)"/><path class="cls-1" d="M50,73.37h0A13.38,13.38,0,0,1,63.36,60h0A13.37,13.37,0,0,1,76.69,73.37h0A13.38,13.38,0,0,1,63.36,86.71h0A13.38,13.38,0,0,1,50,73.37Z" transform="translate(-10 -10.98)"/><path class="cls-1" d="M183,11h0a13.38,13.38,0,0,1,13.33,13.34V71.67A13.38,13.38,0,0,1,183,85h0a13.38,13.38,0,0,1-13.34-13.34V24.32A13.38,13.38,0,0,1,183,11Z" transform="translate(-10 -10.98)"/><path class="cls-1" d="M265.37,11h0a13.38,13.38,0,0,1,13.34,13.34V71.67A13.38,13.38,0,0,1,265.37,85h0A13.39,13.39,0,0,1,252,71.67V24.32A13.39,13.39,0,0,1,265.37,11Z" transform="translate(-10 -10.98)"/><path class="cls-1" d="M23.34,11h0A13.39,13.39,0,0,1,36.68,24.32V71.67A13.39,13.39,0,0,1,23.34,85h0A13.38,13.38,0,0,1,10,71.67V24.32A13.38,13.38,0,0,1,23.34,11Z" transform="translate(-10 -10.98)"/><path class="cls-1" d="M281.88,201.54c0-10.86-9.58-13.34-12.59-13.34H221.14c-1.95,0-13.28,1.81-13.28,13s10.44,13.65,13.28,13.65h48.15c2.83,0,12.59-2.48,12.59-13.34Zm-52,6.22a.91.91,0,0,1-.29.68,1,1,0,0,1-1.35,0,.93.93,0,0,1-.27-.68v-9.13l-4.45,9.06a1,1,0,0,1-.82.47.93.93,0,0,1-.89-.57l-4.39-8.79v9a1,1,0,1,1-1.9,0V195.33a.93.93,0,0,1,.27-.68.9.9,0,0,1,.68-.28.91.91,0,0,1,.84.51l5.46,10.93,5.31-10.93a.91.91,0,0,1,.84-.51.9.9,0,0,1,.68.28.94.94,0,0,1,.28.68v12.43Zm16.86-6.23a4.88,4.88,0,0,1-.75,2.66,5.48,5.48,0,0,1-2.09,1.92,8,8,0,0,1-3.1.9v.75a.92.92,0,0,1-.26.68,1,1,0,0,1-1.64-.68V207a8.22,8.22,0,0,1-3.14-.91,5.67,5.67,0,0,1-2.12-1.93,5.07,5.07,0,0,1,0-5.31,5.57,5.57,0,0,1,2.12-1.92,8.21,8.21,0,0,1,3.14-.9v-.73a.92.92,0,0,1,.95-1,.93.93,0,0,1,.69.27.91.91,0,0,1,.26.69v.75a8,8,0,0,1,3.1.9A5.48,5.48,0,0,1,246,198.9a4.83,4.83,0,0,1,.75,2.63Zm13-6.28a.86.86,0,0,1-.25.64.88.88,0,0,1-.63.24h-4v11.63a.9.9,0,0,1-.28.68.93.93,0,0,1-.68.27.94.94,0,0,1-.68-.27.93.93,0,0,1-.27-.68V196.13h-4a.84.84,0,0,1-.88-.88.84.84,0,0,1,.25-.63.82.82,0,0,1,.63-.25h9.83a.85.85,0,0,1,.63.25.84.84,0,0,1,.25.63Zm14.52,12.51a.92.92,0,0,1-.26.68,1,1,0,0,1-1.64-.68v-10.4l-8.78,11a1,1,0,0,1-1.45.06.9.9,0,0,1-.28-.68V195.33a.9.9,0,0,1,.28-.68,1,1,0,0,1,.71-.28.87.87,0,0,1,.66.27,1,1,0,0,1,.26.69v10.41l8.81-11a1.11,1.11,0,0,1,.34-.25,1,1,0,0,1,.4-.1.93.93,0,0,1,.69.27.91.91,0,0,1,.26.69v12.43Zm-30.53-3.56a3.64,3.64,0,0,0,0-5.31,5.15,5.15,0,0,0-3-1.27v7.84a5.09,5.09,0,0,0,3-1.26Zm-7.86,0a5.24,5.24,0,0,0,3.1,1.26V197.6a5.31,5.31,0,0,0-3.1,1.27,3.64,3.64,0,0,0,0,5.35Z" transform="translate(-10 -10.98)"/></svg>