<?xml version="1.0" encoding="utf-8"?>
<!-- Generator: Adobe Illustrator 23.0.6, SVG Export Plug-In . SVG Version: 6.00 Build 0)  -->
<svg version="1.1" id="s" xmlns="http://www.w3.org/2000/svg" xmlns:xlink="http://www.w3.org/1999/xlink" x="0px" y="0px"
	 viewBox="0 0 175 175" style="enable-background:new 0 0 175 175;" xml:space="preserve">
<style type="text/css">
	.st0{fill-rule:evenodd;clip-rule:evenodd;fill:#1371B6;}
</style>
<g>
	<path class="st0" d="M86.3,89.8c0.28,1.92,1.02,4.97,0.73,8.06c8.09-0.36,13.72,1.51,17.4,5.49c-0.34,2.88,1.55,5.37,0.73,8.42
		c-0.41,1.52-4.58,3.52-6.59,4.21c-4.99,1.72-8.44,2.36-14.47,2.93c-2.09,0.2-4.42,0.14-6.41,0c-2.93-0.21-5.89-0.27-8.42-0.55
		c-2.03-0.23-4.41-1.03-6.59-1.47c-2.4-0.48-4.67-1.04-6.41-1.65c-0.77-3.36-1.3-8.25,0-10.8c2.49-4.9,12.42-4.98,18.31-6.96
		c-0.09-2.84-0.46-5.4-1.1-7.69c-6.53,0-13.37,0-20.14,0c-6.92,0-14.02,0.73-20.14,0c-1.72-0.2-3.41-1.18-5.31-1.65
		c-2.06-0.5-4.24-0.45-5.68-1.28c-1.16-0.67-1.9-1.99-2.75-3.3c-0.76-1.18-2.01-2.63-2.2-3.66c-0.32-1.77,0.18-4.58,0.18-7.14
		c0-11.67,0-24.25,0-36.07c0-6.02-1.12-13.81,0.73-18.13c1.28-3,4.5-6.23,8.06-6.77c3.39-0.52,7.75,0.18,11.72,0.18
		c25.64,0,50.37,0,76.55,0c2.4,0,5.13,0.3,6.23-0.55c2.46,1.13,5.48-0.66,8.61,0c2.61,0.56,5.89,4.79,6.59,7.88
		c0.88,3.86,0.18,8.88,0.18,13.55c0,9.21,0,18.54,0,27.83c0,4.77,0.5,9.69,0,13.92c-0.13,1.13-0.66,3-1.1,4.76
		c-0.7,2.81-0.8,5.19-2.2,6.96c-4.12,5.22-17.39,3.48-26.74,3.48C99.58,89.8,93.11,89.8,86.3,89.8z M50.6,15.63
		c-0.38,2.43-1.47,4.15-3.66,4.76c-0.05-0.37-0.49-0.36-0.55-0.73c0.63-1.57,2-2.39,2.56-4.03c-0.73,0-1.47,0-2.2,0
		c-2.24,2.41-4.72,4.82-6.41,7.51c-0.55,0.87-0.84,2.44-2.2,2.56c-1.32-0.63-0.24-1.97,0.18-2.75c1.13-2.06,2.51-3.42,3.85-4.94
		c0.72-0.82,1.59-1.67,1.46-2.38c-1.96-0.13-3.13,1.86-4.03,3.11c-2.04,2.86-4.09,5.56-5.86,8.42c-0.87,1.4-1.33,3.82-3.48,3.85
		c-0.04-0.2-0.2-0.28-0.37-0.37c1.04-2.81,2.95-5.32,4.58-7.88c1.21-1.9,2.64-3.84,3.85-5.49c0.36-0.49,1.29-0.98,0.91-1.65
		c-4.43,0.56-8.34-0.64-11.54-0.37c-3.73,0.32-6.62,3.94-6.78,7.69c-0.65,15.12,0.87,37.26,0.18,52.37c1.88-0.5,2.22-4.13,4.94-4.39
		c0.04,0.21,0.2,0.29,0.37,0.37c-0.78,3.68-4.36,4.55-5.31,8.06c2.22-1.26,2.43-4.53,5.31-5.13c0.68,2.95-3,4.52-4.03,6.96
		c0.77,1.92,2.2,3.17,4.94,3.11c2.89-3.77,5.66-7.78,8.42-11.54c0.88-1.2,1.71-3.13,3.48-3.3c0.74,1.56-0.86,3.09-1.65,4.21
		c-2.67,3.79-6.2,7.57-8.06,11.35c0.76-0.09,1.24,0.1,1.65,0.37c0.89-1.69,2.03-3.26,3.11-4.94c0.99-1.54,1.69-3.95,3.85-4.39
		c0.7,1.87-1.08,3.51-2.01,4.94c-1.06,1.63-2.23,3.18-2.93,4.94c9.16,0.42,19.1,0.06,28.57,0.18c0.43-2.01,1.31-3.57,3.3-4.03
		c1.42,1.63-1.91,3.22-1.28,4.03c2.56,0,5.13,0,7.69,0c1.54-1.86,2.87-3.89,4.39-5.86c1.46-1.88,2.54-4.54,5.13-5.31
		c0.97,1.08-0.33,2.21-0.91,2.93c-2.17,2.68-4.45,5.31-6.04,8.24c1.04,0,2.08,0,3.11,0c1.46-1.69,2.85-3.43,4.21-5.31
		c1.26-1.75,2.38-4.1,4.76-4.76c0.97,1.8-1.55,3.52-2.75,5.13c-0.63,0.85-1.25,1.78-1.83,2.56c-0.61,0.83-1.7,1.54-1.46,2.38
		c0.43,0,0.86,0,1.28,0c0.87-1.17,2.01-2.85,3.11-4.39c0.9-1.25,2.13-3.98,4.03-2.56c-1.29,2.62-3.51,4.3-4.76,6.96
		c1.04,0,2.08,0,3.11,0c1.18-1.58,3.01-6.28,5.49-4.76c-0.35,1.99-3.33,3.25-2.93,4.76c3.26-0.1,2.6-4.11,5.49-4.58
		c1.68,1.62-2.05,3.55-1.47,4.58c1.55,0.51,1.13-0.95,1.65-1.47c0.86-0.47,2.14-2.65,3.3-1.1c0.26,1.39-2.19,1.91-1.46,2.56
		c3.36,0,6.71,0,10.07,0c2.37-2.75,5.16-6.27,7.87-8.79c0.75-0.69,2.07-2.7,3.3-1.28c-0.24,1.74-2.13,2.5-3.3,3.66
		c-1.49,1.5-2.8,3.48-4.03,4.94c-0.36,0.43-1.31,0.83-0.92,1.47c1.04,0,2.08,0,3.11,0c2.62-4.12,5.83-7.81,8.97-11.17
		c1.05-1.13,1.98-2.67,3.48-3.3c1.88,0.96-0.91,3.41-1.83,4.39c-3.05,3.27-6.43,6.99-8.42,10.07c0.85,0,1.71,0,2.56,0
		c0.86-3.05,2.97-4.87,4.76-6.96c1.38-1.61,2.7-3.6,4.76-4.21c0.04,0.26,0.3,0.31,0.37,0.55c-0.43,2.14-2.63,3.42-4.03,5.13
		c-1.46,1.78-2.96,3.51-4.03,5.49c4.03,0.18,7.52-0.17,9.89-1.65c0.5-0.6,0.7-1.5,1.28-2.01c-0.01-2.91,1.27-5.57,1.65-8.61
		c0.76-6.11,0-14.32,0-22.34c0-7.72-0.3-15.74,0-22.34c0.28-6.11,0.48-11.66-3.85-14.1C103.59,16.25,76.5,15.35,50.6,15.63z
		 M79.16,101.15c0.76,0.4,1.5,0,2.2-0.18c-0.3-4.03-1.34-7.33-1.83-11.17c-0.73,0-1.46,0-2.2,0C78.2,93.33,77.9,98.02,79.16,101.15z
		 M78.06,104.81c-0.89-0.3-1.44-1.24-2.38-1.83c-0.64-0.33-0.18-1.77-1.1-1.83c-2.28,1.31-5.35,1-8.61,1.83
		c-2.02,0.52-6.55,1.93-6.59,4.03c-0.03,1.31,1.79,2.74,2.93,3.3c2.96,1.44,7.87,1.59,12.64,2.01c5.6,0.5,11.71,0.06,15.93-0.91
		c2.07-2.04,4.61-6.01,4.03-9.34c-1.57-0.69-4.29-0.23-6.41-0.37c0.12,1.42,0.4,2.77,0,4.03c-0.61,1.91-3.3,4.4-4.76,3.3
		c0.48-2.64,4.23-2.76,2.93-6.59C84.65,102.98,81.35,105.93,78.06,104.81z M94.18,110.67c2.01-0.24,6.76-3.1,6.23-5.68
		c-0.29-1.4-2.6-1.52-3.66-2.57C97.08,106.38,95.36,108.25,94.18,110.67z M65.79,115.07c-2.8-0.37-5.22-1.62-6.77-2.75
		c-0.44-0.32-0.97-0.91-1.47-0.73c-0.02,0.76,0.32,1.15,0.18,2.01c12.89,4.48,35.98,5.47,45.6-2.56c-0.09-0.88,0.11-2.06-0.55-2.38
		C98.06,117.54,78.27,116.7,65.79,115.07z"/>
	<path class="st0" d="M130.25,16.92c-0.01,1.86-1.85,2.87-2.93,4.03c-2.24,2.4-3.96,4.93-6.04,7.69c-0.82,1.08-1.8,3.23-3.66,2.75
		c-0.29-1.69,1.36-2.73,2.2-3.85c0.91-1.21,1.84-2.47,2.75-3.66c1.99-2.63,4.27-4.78,6.23-7.33
		C129.49,16.46,129.96,16.6,130.25,16.92z"/>
	<path class="st0" d="M129.89,21.13c-0.1,2.74-2.98,4.52-4.58,6.59c-0.83,1.07-1.68,2.29-2.56,3.3c-0.81,0.92-1.67,2.37-2.93,2.38
		c-1.27-0.97,0.29-2.57,0.92-3.3c2.21-2.57,4.89-5.79,7.32-8.06c-0.01-0.56,0.39-0.71,0.55-1.1
		C129.09,20.95,129.65,20.87,129.89,21.13z"/>
	<path class="st0" d="M105.53,22.59c1.04,9.03,3.58,16.82,4.94,26.19c0.62,4.27,0.87,8.04,1.1,13.18c0.09,2.06,0.81,5.63-0.55,7.14
		c-1.96,0.05-3.2-2.16-6.23-1.65c0.03,0.6,2.51-0.04,2.2,1.65c-0.34,1.79-4.64-0.56-6.04-0.73c-6.54-0.81-15.47-0.16-20.51,0.37
		c-0.59,2.14-5.06,3.19-5.86,0.55c-6.21,0.06-13.31-3.27-19.41-1.65c-1.37,0.37-2.22,1.96-3.85,1.1c0.01-1.76,1.43-2.11,2.75-2.56
		c-2.97-1.02-4.13,1.37-6.41,1.65c-3.54-10.41-5.69-22.75-6.41-35.71c-0.07-1.35-0.66-3.35,0.55-4.21
		c7.72,0.83,18.78-3.54,26.19-0.91c2.74,0.97,4.74,2.7,6.59,4.76c5.99-5.26,16.11-9.05,26.37-9.89
		C102.47,21.74,104.41,21.72,105.53,22.59z M99.49,24.06c-9.33,1.4-17.8,3.73-23.26,8.79c0.53,11.5,1.77,22.28,2.01,34.06
		c8.38-2.85,22.77-2.94,31.5-0.37c0.5-16.74-3.75-28.73-6.04-42.67C102.28,23.78,100.35,23.93,99.49,24.06z M74.22,34.31
		c-1.11-0.72-1.23-1.75-2.01-2.56c-5.82-5.99-20.07-2.33-29.12-1.65c0.07,13.42,2.84,24.14,5.49,34.98
		c8.14-3.4,18.15,1.79,27.47,1.65C76.18,55.18,74.99,44.95,74.22,34.31z"/>
	<path class="st0" d="M132.09,25.52c-0.12,2.41-2.11,4.46-4.39,5.31c-0.1-0.26-0.29-0.45-0.55-0.55c0.74-2.13,2.67-3.07,3.66-4.94
		C131.29,25.34,131.85,25.27,132.09,25.52z"/>
	<path class="st0" d="M99.12,29.18c-0.79,1.69-3.21,1.21-4.76,1.47c-3.59,0.58-6.63,1.53-9.52,2.93c-1.16,0.56-2.76,2.36-4.03,0.92
		c0.16-1.26,1.9-1.98,3.11-2.56c3.28-1.59,8.56-3.32,13-3.48C97.77,28.42,98.82,27.94,99.12,29.18z"/>
	<path class="st0" d="M71.29,34.86c-1.04,1.14-2.73-0.03-4.03-0.37c-3.02-0.79-7.13-1.43-11.54-1.1c-1.8,0.14-2.71,0.59-4.76,0.91
		c-0.95,0.15-4.29,0.68-4.39-0.73c-0.11-1.49,2.07-0.93,3.66-1.1c3.25-0.33,7.43-1.46,11.9-1.1c1.82,0.15,3.7,0.87,5.31,1.28
		C68.94,33.05,71.48,33.07,71.29,34.86z"/>
	<path class="st0" d="M80.81,39.26c0.27-1.59,2.29-1.99,3.66-2.56c3.97-1.66,9.58-3.76,14.65-3.85c0.94-0.02,1.95-0.3,2.01,0.73
		c0.1,1.54-4.14,1.48-5.13,1.65c-4.06,0.68-7.17,1.77-10.44,3.11C84.14,38.93,82.22,40.4,80.81,39.26z"/>
	<path class="st0" d="M69.82,39.07c-1.48,0.93-2.61-0.52-4.03-0.73c-1.95-0.29-4.77-0.16-7.14,0c-2.57,0.17-4.82,1.16-6.41,1.28
		c-1.17,0.09-5.03-0.14-5.13-1.28c-0.17-1.98,3.87-0.53,5.68-0.73c2.59-0.29,7.92-1.73,12.27-1.28
		C66.96,36.52,69.7,37.11,69.82,39.07z"/>
	<path class="st0" d="M101.5,38.89c-0.11,1.61-2.03,1-3.11,1.1c-4.36,0.39-9.05,1.64-12.82,3.11c-1.12,0.44-2.5,1.56-3.66,0.73
		c0.68-2.63,4.43-2.99,7.33-3.85c3-0.89,6.28-1.56,9.16-1.83C99.34,38.07,101.13,37.45,101.5,38.89z"/>
	<path class="st0" d="M69.64,43.1c-1.41,1.39-3.39-0.17-4.94-0.37c-3.89-0.49-7.2,0.79-10.62,1.1c-1.29,0.11-5.93,0.43-6.04-0.92
		c-0.16-1.86,5.51-0.96,6.78-1.1c2.26-0.24,5.27-1.37,8.79-1.1C65.99,40.9,69.06,41.42,69.64,43.1z"/>
	<path class="st0" d="M83.37,48.23c-0.28-1.83,1.82-1.88,3.11-2.38c3.51-1.35,8.88-2.63,13.18-2.75c1.01-0.03,2.12-0.29,2.2,0.73
		c0.1,1.38-3.41,1.29-4.58,1.46c-3.53,0.52-6.82,1.01-9.7,2.01C86.23,47.79,84.77,48.92,83.37,48.23z"/>
	<path class="st0" d="M70.56,48.05c-0.99,1.45-2.34-0.16-3.85-0.37c-4.4-0.61-9.98,1.37-13.55,1.65c-1.67,0.13-4.12,0.15-4.21-0.91
		c-0.15-1.78,3.25-0.97,4.94-1.1c2.8-0.21,8.05-2.03,12.09-1.65C67.74,45.83,70.49,46.29,70.56,48.05z"/>
	<path class="st0" d="M104.98,48.6c-0.59,1.84-3.86,1.03-5.49,1.1c-4.12,0.18-8.73,0.81-12.27,2.01c-1.19,0.4-2.32,1.2-3.48,0.91
		c-0.52-2.65,4.1-3.23,6.41-3.66c3.03-0.56,6.44-0.89,9.34-1.1C101.26,47.73,104.01,46.97,104.98,48.6z"/>
	<path class="st0" d="M71.11,53.36c-2.66,0.7-4.9-0.85-8.61-0.55c-2.02,0.16-4.22,0.91-6.59,1.1c-1.24,0.1-5.75,0.39-5.86-0.91
		c-0.15-1.81,5.17-0.99,6.59-1.1c1.78-0.14,4.76-1.24,7.87-1.1C66.77,50.89,71.4,51.51,71.11,53.36z"/>
	<path class="st0" d="M106.08,53.36c-0.2,1.64-2.47,1.05-3.66,1.1c-2.94,0.13-6.27,0.53-9.34,0.92c-3.09,0.39-5.91,1.43-8.24,1.1
		c0.49-2.49,4.91-2.58,7.69-2.93c3.24-0.41,6.81-0.67,9.7-0.92C103.54,52.51,105.46,51.85,106.08,53.36z"/>
	<path class="st0" d="M70.56,57.57c-1.25,0.77-2.8-0.24-4.58-0.37c-3.8-0.28-9.1-0.37-12.45,0.18c-0.93,0.15-1.76,1.01-2.56,0.18
		c-0.32-2.57,3.8-2.13,5.86-2.38c2.05-0.25,5.19-0.11,7.69,0C67.23,55.31,70.65,55.56,70.56,57.57z"/>
	<path class="st0" d="M85.21,61.78c0.51-2.52,4.5-2.88,7.69-3.11c3.19-0.23,6.38-0.06,8.97-0.18c1.36-0.06,4.27-0.68,4.39,0.73
		c0.13,1.57-4.45,1.18-5.68,1.28c-3.62,0.3-8.11-0.18-11.35,0.55C87.8,61.37,86.37,62.66,85.21,61.78z"/>
	<path class="st0" d="M72.2,61.23c-1.77,1.38-4.84,0.04-7.69-0.18c-2.4-0.18-5.31-0.23-7.51,0c-1.71,0.17-2.99,1.34-4.39,0.55
		c-0.01-2.08,3.07-2.39,5.31-2.56c3.88-0.3,7.11,0.38,10.44,0.73C69.91,59.93,72.5,59.43,72.2,61.23z"/>
	<path class="st0" d="M113.77,75.33c-0.65,2.08-2.6,3.74-4.03,5.31c-0.7,0.77-1.58,1.48-2.2,2.38c-0.54,0.78-0.93,2.5-2.38,1.83
		c-0.38-1.62,1.29-3.71,2.75-5.31C109.44,77.87,111.88,74.45,113.77,75.33z"/>
	<path class="st0" d="M41.26,78.44c-0.47,1.75-1.76,3.85-2.93,5.31c-0.77,0.97-2.31,2.63-3.66,1.46c-0.14-1.27,1.2-1.49,1.83-2.2
		c1.28-1.44,1.99-3.46,3.3-4.94C40.49,77.99,40.96,78.13,41.26,78.44z"/>
	<path class="st0" d="M72.2,80.46c-0.03,0.21,0.04,0.33,0.18,0.37c-1.16,2.02-2.1,4.25-4.58,4.94c-1.14-2.05,2.22-3.71,3.11-5.49
		C71.41,80.28,71.97,80.21,72.2,80.46z"/>
	<path class="st0" d="M126.22,82.29c-0.55,1.1-1.06,2.24-2.75,2.2c-0.08-0.16-0.16-0.33-0.37-0.37
		C123.07,82.48,125.3,80.7,126.22,82.29z"/>
	<path class="st0" d="M92.35,102.25c0.56,3.99-1.71,6.71-4.21,8.24c-0.18-0.25-0.49-0.37-0.73-0.55c0.82-2.78,3.47-3.73,3.48-7.32
		c-0.05-0.3,0.17-0.32,0.18-0.55C91.55,102.07,92.11,102,92.35,102.25z"/>
	<path class="st0" d="M149.65,104.91c5.87-1.13,10.19,4.05,13.73,7.33c3.07,2.83,6.59,6.75,8.42,9.34c1.92,2.71,4.56,8.95,2.2,13.18
		c-0.68,1.22-4.58,4.21-6.41,4.58c-6.98,1.39-13.76-2.21-16.85-5.31c-2.14-2.15-3.76-4.75-5.68-7.14c-2.54-3.17-6.09-8.14-4.4-14.65
		c0.93-3.56,4.87-5.83,8.42-7.33C149.24,104.85,149.49,104.94,149.65,104.91z M148.55,109.12c2.71,2.17,5.04,4.73,5.86,8.79
		c1.88-1.23,4.97-1.26,6.96-2.38C158.16,112.66,154.55,106.82,148.55,109.12z M152.58,118.83c0.69-2.8-3.86-7.86-6.23-8.42
		c-4.03,2.62-2.04,11.41,1.1,13.37C148.15,121.83,152.14,120.59,152.58,118.83z M170.89,132.74c1.39-7.86-4.51-11.44-8.06-15.56
		c-2.84,1.37-7.33,1.1-8.79,3.85c-2.65,0.64-3.96,2.64-5.49,4.39c1.03,1,2.23,3.73,3.3,3.48c0.45-1.56,0.12-3.91,2.01-4.03
		c1.41,1.52-1.99,7.46,1.28,7.69c0.22-2.22,0.13-4.75,1.83-5.49c1.89,1.48-0.71,4.11,0,6.78c0.51,0.34,1.11,0.6,1.65,0.92
		c-0.01-2.7,0.4-4.97,2.2-5.86c0.16,0.32,0.67,0.3,0.73,0.73c-0.18,1.91-1.67,3.43-0.91,5.68c0.33,0.4,1.5-0.03,1.83,0.37
		c0.21-1.92,0.51-3.76,1.65-4.76c2.35,0.62,0.08,3.09,0.18,4.76C167.99,136.2,169.01,134.04,170.89,132.74z"/>
	<path class="st0" d="M144.17,159.57c-2.53,0.99-5.44,0.55-8.06,0.55c-42.07,0-86.1,0.31-127.82-0.37
		c-0.87-0.82-0.37-2.02-0.55-3.29c-0.14-1.01-0.85-2-0.73-2.93c0.12-1.01,1.43-2,1.83-2.93c1.56-3.62,2.88-7.86,4.58-11.9
		c1.69-4.01,3.14-8.06,4.76-11.54c0.9-0.32,1.61-0.84,2.38-1.28c35.57-0.34,72.72-0.18,109.32-0.18c2.45,0,5.98-0.22,6.78,0.37
		c0.72,0.53,1.69,4.37,2.2,6.04c1.49,4.9,2.5,7.77,3.66,12.82c0.55,2.38,1.82,4.67,2.01,6.23c0.09,0.71-0.37,1.22-0.37,2.01
		C144.19,154.65,145.2,157.78,144.17,159.57z M12.32,151.51c42.79,0,85.58,0,128.37,0c-2.18-7.47-4.03-15.26-6.78-22.16
		c-37.48,0-74.96,0-112.44,0C18,136.31,15.14,143.88,12.32,151.51z M11.23,155.9c0.88,1,2.37,0.55,3.48,0.55
		c40.81,0,82.16,0,122.69,0c1.15,0,3.43,0.55,3.48-0.73c-0.48-1.01-2.47-0.55-3.48-0.55c-41.97,0-84.26,0-125.99,0
		C11.14,155.21,11.24,155.61,11.23,155.9z"/>
	<path class="st0" d="M24.59,130.63c21.74,1.09,46.02-0.36,67.76,0.73c0.72,1.17,0.38,3.41,1.65,4.03
		c-0.07,4.66,3.16,8.38,2.93,13.19c-21.2,0.36-48.06,0.18-71.78,0.18c-2.57,0-5.36,0.54-7.69-0.55c0.56-1.87,1.15-3.8,1.83-5.68
		c0.89-2.46,2.57-4.51,2.01-7.14c1.78-0.53,2.48-2.15,2.75-4.21C24.15,130.92,24.33,130.74,24.59,130.63z M24.96,134.85
		c0.85,0,1.71,0,2.56,0c0.1-0.7,0.38-1.2,0.55-1.83C26.4,132.29,24.92,133.26,24.96,134.85z M29.54,134.85c1.1,0,2.2,0,3.3,0
		c0.06-0.85-0.14-1.44-0.37-2.01c-0.79,0-1.59,0-2.38,0C30.06,133.66,29.7,134.16,29.54,134.85z M34.66,134.85c1.04,0,2.08,0,3.11,0
		c-0.06-0.67,0.16-1.62-0.18-2.01C35.82,132.71,34,132.53,34.66,134.85z M39.61,134.85c1.4,0,2.81,0,4.21,0
		c-0.06-0.67,0.16-1.62-0.18-2.01C41.78,132.99,38.75,131.97,39.61,134.85z M45.65,134.85c1.22,0,2.44,0,3.66,0
		c-0.19-0.6-0.09-1.5-0.37-2.01c-1.1,0-2.2,0-3.3,0C45.65,133.5,45.65,134.18,45.65,134.85z M51.14,134.85c0.86,0,1.71,0,2.56,0
		c-0.06-0.67,0.16-1.62-0.18-2.01c-0.86,0-1.71,0-2.56,0C50.62,133.31,51.32,133.97,51.14,134.85z M55.54,134.85
		c0.73,0,1.46,0,2.2,0c-0.14-0.8,0.23-1.7,0-2.01c-0.67,0-1.34,0-2.02,0C55.38,133.22,55.6,134.17,55.54,134.85z M59.57,133.01
		c0.05,0.62,0.29,1.05,0.18,1.83c1.53-0.12,3.54,0.24,4.76-0.18c-0.43-0.42-0.32-1.39-0.73-1.83
		C62.42,132.94,60.63,132.61,59.57,133.01z M66.53,134.85c0.67,0,1.34,0,2.01,0c-0.1-0.69-0.44-1.14-0.37-2.01c-0.73,0-1.46,0-2.2,0
		C65.96,133.71,66.32,134.2,66.53,134.85z M70.37,134.85c1.04,0,2.08,0,3.11,0c0-0.79-0.43-1.16-0.37-2.01c-0.98,0-1.95,0-2.93,0
		C69.87,133.28,70.45,134.06,70.37,134.85z M75.68,134.85c0.73,0,1.46,0,2.2,0c0.06-0.85,0-1.59-0.37-2.01c-0.79,0-1.59,0-2.38,0
		C75.06,133.76,75.42,134.26,75.68,134.85z M79.71,133.01c0,0.61,0,1.22,0,1.83c0.61,0,1.22,0,1.83,0
		c-0.39-0.61-0.29-1.54-0.37-2.01C80.65,132.85,79.98,132.73,79.71,133.01z M83.56,134.85c0.55,0,1.1,0,1.65,0
		c-0.16-0.69-0.52-1.18-0.55-2.01c-0.55,0-1.1,0-1.65,0C82.8,133.27,83.47,134.12,83.56,134.85z M87.22,134.85c1.34,0,2.69,0,4.03,0
		c0.04-0.77-0.28-1.18-0.37-1.83c-1.28-0.19-2.71-0.22-4.21-0.18C86.59,133.77,87.17,134.04,87.22,134.85z M22.94,139.06
		c1.28,0,2.56,0,3.85,0c0.06-0.51,0.21-1.32,0.18-2.38C24.36,136.09,22.83,137.52,22.94,139.06z M28.99,136.68
		c0.05,0.97-0.32,1.51-0.37,2.38c1.28,0,2.56,0,3.85,0c-0.07-0.78,0.18-1.89-0.18-2.38C31.18,136.68,30.09,136.68,28.99,136.68z
		 M34.3,138.87c0.47,0.29,1.91,0.29,2.38,0c0.07-0.92-0.11-1.6-0.36-2.2c-0.61,0-1.22,0-1.83,0
		C34.48,137.47,34.54,138.32,34.3,138.87z M38.69,139.06c1.1,0,2.2,0,3.3,0c0.29-0.47,0.29-1.91,0-2.38c-1.16,0-2.32,0-3.48,0
		C38.42,136.99,38.43,138.51,38.69,139.06z M44.19,139.06c0.92,0,1.83,0,2.75,0c0.29-0.47,0.29-1.91,0-2.38
		C44.84,136.19,43.16,137.03,44.19,139.06z M49.13,139.06c1.1,0,2.2,0,3.3,0c-0.05-0.81-0.29-1.42-0.18-2.38
		C50.13,136.29,47.98,136.78,49.13,139.06z M56.27,136.86c0.01,0.78,0.31,1.28,0.18,2.2c0.79,0,1.59,0,2.38,0
		c-0.16-0.81-0.18-1.77-0.55-2.38C57.61,136.74,56.66,136.52,56.27,136.86z M61.03,139.06c1.1,0,2.2,0,3.3,0
		c-0.07-1.03-0.59-1.61-0.91-2.38c-0.98,0-1.95,0-2.93,0C60.35,137.79,60.66,138.45,61.03,139.06z M66.53,139.06
		c0.85,0,1.71,0,2.56,0c-0.08-0.78,0.18-1.89-0.18-2.38c-1.04,0-2.08,0-3.11,0C65.58,137.28,66.16,138.46,66.53,139.06z
		 M71.29,139.06c0.92,0,1.83,0,2.75,0c-0.06-0.98-0.29-1.79-0.73-2.38C71.12,136,70.3,137.65,71.29,139.06z M75.5,136.86
		c0.12,0.73,0.46,1.25,0.37,2.2c1.22,0,2.44,0,3.66,0c-0.02-1.02-0.52-1.56-0.73-2.38C77.73,136.77,76.27,136.47,75.5,136.86z
		 M80.81,137.04c0.52,0.46,0.48,1.47,0.92,2.02c0.67,0,1.34,0,2.01,0c-0.05-0.87-0.42-1.41-0.37-2.38
		C82.55,136.83,81.07,136.32,80.81,137.04z M85.75,139.06c0.98,0,1.95,0,2.93,0c0.26,1.57,0.48,3.18,0.91,4.58c1.46,0,2.93,0,4.39,0
		c-0.45-2.6-1.46-4.65-2.2-6.96c-2.14,0-4.27,0-6.41,0C85.39,137.6,85.53,138.37,85.75,139.06z M54.08,137.78
		c0.28,2,0.62,0,0.18-0.92C54.32,137.28,54.23,137.56,54.08,137.78z M20.93,143.64c1.04,0,2.08,0,3.11,0
		c0.2-0.77,0.21-1.74,0.18-2.75C21.6,140.27,21.43,142.12,20.93,143.64z M25.87,143.64c1.4,0,2.81,0,4.21,0c0-0.92,0-1.83,0-2.75
		c-1.28,0-2.56,0-3.85,0C26.34,142.03,25.95,142.68,25.87,143.64z M31.92,143.64c1.77,0,3.54,0,5.31,0c0-0.92,0-1.83,0-2.75
		c-1.77,0-3.54,0-5.31,0C31.92,141.8,31.92,142.72,31.92,143.64z M39.06,143.64c1.28,0,2.56,0,3.85,0c0-0.92,0-1.83,0-2.75
		c-1.28,0-2.56,0-3.85,0C39.06,141.8,39.06,142.72,39.06,143.64z M44.92,143.64c0.79,0,1.59,0,2.38,0c0-0.92,0-1.83,0-2.75
		c-0.79,0-1.59,0-2.38,0C45.02,141.86,44.76,143.2,44.92,143.64z M49.31,143.64c0.61,0,1.22,0,1.83,0c0.03-0.95-0.11-2.07,0.18-2.75
		c-0.67,0-1.34,0-2.01,0C49.31,141.8,49.31,142.72,49.31,143.64z M53.16,143.64c0.73,0,1.47,0,2.2,0c0-0.92,0-1.83,0-2.75
		c-0.79,0-1.59,0-2.38,0C53.08,141.76,53.24,142.58,53.16,143.64z M57.19,143.64c0.67,0,1.34,0,2.01,0c0-0.92,0-1.83,0-2.75
		c-0.67,0-1.34,0-2.01,0C57.19,141.8,57.19,142.72,57.19,143.64z M61.03,143.64c0.85,0,1.71,0,2.56,0c0-0.92,0-1.83,0-2.75
		c-0.86,0-1.71,0-2.56,0C61.03,141.8,61.03,142.72,61.03,143.64z M65.43,143.64c1.53,0,3.05,0,4.58,0c-0.05-0.96-0.58-1.9-0.18-2.75
		c-1.47,0-2.93,0-4.39,0C65.43,141.8,65.43,142.72,65.43,143.64z M72.02,143.64c0.98,0,1.95,0,2.93,0
		c-0.08-0.96-0.47-1.61-0.37-2.75c-1.1,0-2.2,0-3.3,0C71.7,141.63,71.78,142.72,72.02,143.64z M76.97,143.64c1.1,0,2.2,0,3.3,0
		c-0.15-0.95-0.15-2.05-0.55-2.75c-1.1,0-2.2,0-3.3,0C76.47,141.93,76.77,142.74,76.97,143.64z M82.28,143.64
		c0.8-0.12,2.07,0.24,2.56-0.18c-0.57-0.6-0.7-1.62-0.92-2.56c-0.73,0-1.46,0-2.2,0C81.99,141.72,81.91,142.9,82.28,143.64z
		 M85.75,143.64c0.55,0,1.1,0,1.65,0c-0.03-0.95,0.11-2.07-0.18-2.75c-0.43,0-0.85,0-1.28,0C86.02,142.03,86.63,142.95,85.75,143.64
		z M20.02,146.93c1.18-0.1,2.78,0.21,3.66-0.18c0-0.37,0-0.73,0-1.1C22.44,145.36,19.69,145.06,20.02,146.93z M25.51,146.93
		c1.04,0,2.08,0,3.11,0c0-0.49,0-0.98,0-1.46C27.05,145.43,25.28,145.18,25.51,146.93z M30.64,146.93c0.74-0.12,1.95,0.24,2.38-0.18
		c-0.43-0.12,0.03-1.13-0.37-1.28c-0.67,0-1.34,0-2.01,0C30.64,145.95,30.64,146.44,30.64,146.93z M34.48,146.93
		c0.59-0.01,0.92-1.42,0.37-1.46C34.6,145.83,34.67,146.51,34.48,146.93z M37.05,146.02c0.04,0.35-0.21,0.4-0.18,0.73
		c8.96,0.33,19.49,0.18,28.57,0.18c1.26,0,3.26,0.45,3.66-0.55c-0.1-1.56-2.21-0.92-3.11-0.92c-9.42,0-19.5,0-28.57,0
		C37.18,145.54,37.04,145.7,37.05,146.02z M70.92,146.93c1.1-0.12,2.68,0.24,3.48-0.18c-0.46-0.15-0.26-0.96-0.55-1.28
		C72.49,145.57,70.32,144.87,70.92,146.93z M75.5,146.93c1.28,0,2.56,0,3.85,0c0.04-0.71-0.39-0.95-0.55-1.46
		C77.07,145.33,75.48,145.32,75.5,146.93z M81.36,146.93c0.86,0,1.71,0,2.56,0c-0.1-0.51-0.27-0.95-0.37-1.46c-0.86,0-1.71,0-2.57,0
		C80.88,146.2,81.48,146.2,81.36,146.93z M85.75,146.93c1.22,0,2.44,0,3.66,0c-0.05-0.56-0.19-1.04-0.37-1.46c-1.16,0-2.32,0-3.48,0
		C85.44,146.15,85.88,146.25,85.75,146.93z M91.43,146.93c1.16,0,2.32,0,3.48,0c-0.1-0.51-0.27-0.95-0.37-1.46c-1,0.45-2-0.19-3.3,0
		C91.02,145.71,91.27,146.53,91.43,146.93z"/>
	<path class="st0" d="M136.66,148.77c-4.21,1.65-9.59-0.03-14.28,0.91c-2.14-2.39-2.01-6.73-3.3-10.07
		c-0.59-1.54-1.28-2.95-1.83-4.21c-0.3-0.68-1.12-1.36-0.91-2.2c0.38-1.56,10.45-1.43,13.37-1.65c0.29-0.02,0.43-0.25,0.73-0.18
		c1.83,0.42,2.79,5.01,3.66,7.33C135.63,142.74,137.09,145.25,136.66,148.77z M130.8,138.87c0.16,0.45,0.43,0.79,0.37,1.47
		c0.72-0.05,1.27,0.07,1.46,0.55c0.34,1.19-0.7,1.01-0.91,1.65c0.55,1.65,0.79,3.61,1.65,4.94c0.43-0.24,1.26-0.08,1.65-0.37
		c-0.63-2.43-1.5-4.9-2.38-7.32c-0.82-2.27-1.41-5.04-3.3-6.41c-0.17,0.83,0.61,2.16,0.73,3.3
		C131.67,136.59,131.86,138.19,130.8,138.87z M124.94,134.11c0.58,0.58,0.67,1.65,1.28,2.2c0.82-0.14,1.1,0.24,1.83,0.18
		c0.07-1.71-1.26-2.04-2.2-2.75C125.4,133.72,124.97,133.71,124.94,134.11z M120.55,138.14c-0.17-1.88,1.59-1.83,3.3-1.83
		c-0.3-0.77-0.36-1.79-0.36-2.38c-1.53,0-3.05,0-4.58,0C119.18,135.61,119.7,137.04,120.55,138.14z M122.93,147.48
		c1.07,0.06,3.47-0.04,5.13,0c-0.32-1.75-0.89-3.26-1.28-4.94c-1.73-0.29-4.82,0.79-4.94-1.1c0.28-1.25,2.5-0.55,3.85-0.73
		c0.29-0.78-0.49-1.9-0.91-2.56c-1.9-0.25-3.31,0.65-4.21,0.37C121.52,141.32,122.4,144.23,122.93,147.48z M127.69,140.52
		c0.68,0.01,1.27-0.08,1.65-0.37c-0.36-0.43-0.46-1.13-0.73-1.65c-0.44-0.11-0.84-0.26-1.46-0.18
		C127.3,139.08,127.63,139.67,127.69,140.52z M128.79,142.9c0.92,1.52,0.29,4.59,2.38,4.95c-0.65-1.79-0.76-4.13-1.65-5.68
		c-0.18,0-0.37,0-0.55,0C128.91,142.42,128.71,142.52,128.79,142.9z"/>
	<path class="st0" d="M113.77,132.47c0.3,2.99,2.03,4.57,2.2,7.69c-1.09,1.43-3.08,0.34-4.94,0.18c-3.62-0.3-8.09,0.52-11.17-0.37
		c-0.61-2.2-0.63-4.98-1.28-7.14c0.95-0.82,2.29-0.29,3.66-0.37C105.93,132.26,110.58,131.17,113.77,132.47z M105.17,133.93
		c-0.38,0.4,0.29,0.79,0.18,1.47c0.98-0.12,2.44,0.24,3.11-0.18c-0.42-0.19-0.38-0.84-0.37-1.46
		C107.28,133.97,106.22,133.95,105.17,133.93z M110.48,135.21c0.86,0.12,1.18-0.29,1.83-0.37c0.13-0.56-0.32-0.54-0.18-1.1
		c-0.73,0-1.46,0-2.2,0C109.88,134.46,110.32,134.7,110.48,135.21z M101.14,135.4c0.73-0.4,1.31,0.05,2.2,0
		c-0.06-0.56-0.71-0.51-0.73-1.1c-0.55,0-1.1,0-1.65,0C100.93,134.75,100.93,135.18,101.14,135.4z M110.84,137.04
		c0.1,0.51,0.27,0.95,0.37,1.47c0.9,0.08,1.71,0.24,2.57,0.37C113.78,136.8,112.73,136.46,110.84,137.04z M101.5,138.51
		c0.86,0,1.71,0,2.56,0c0.26-0.26-0.04-0.89-0.18-1.28c-1.11,0.07-2.06-0.01-2.75-0.37C101.38,137.29,101.21,138.13,101.5,138.51z
		 M106.27,138.51c0.98,0,1.95,0,2.93,0c0.13-0.56-0.19-0.67-0.18-1.1c-0.66-0.38-1.98-0.1-2.93-0.18
		C105.82,137.49,106.12,138.12,106.27,138.51z"/>
	<path class="st0" d="M110.66,142.72c0.45,0.64,0.49,1.7,0.73,2.56c3.21-1.79,6.37,0.02,5.49,3.66c-2.47,0.6-7.04,1.56-9.52,0.37
		c-0.82,0.44-2.35,0.81-3.48,0.37c-0.34-1.18-0.89-2.16-0.92-3.66c0.52-0.65,2.05-0.27,3.11-0.37c0.14-1.06-0.27-1.56-0.18-2.56
		C106.7,142.19,109.33,142.52,110.66,142.72z M107.91,144.55c-0.13,0.56,0.32,0.54,0.18,1.1c0.43,0,0.86,0,1.28,0
		c0-0.37,0-0.73,0-1.1C109.11,144.28,108.18,144.28,107.91,144.55z M112.31,147.3c0.4,1.03,1.67,0.24,2.56,0.18
		c0-0.31,0-0.61,0-0.92C113.81,146.6,112.8,146.69,112.31,147.3z M105.17,147.85c0.32,0.27,1.1-0.12,1.46-0.37
		C106.08,147.54,105.21,147.28,105.17,147.85z M110.29,147.67c-0.22-0.21-0.65-0.21-1.1-0.18
		C109.1,148.3,110.04,147.97,110.29,147.67z"/>
</g>
</svg>
