<?xml version="1.0" encoding="utf-8"?>
<!-- Generator: Adobe Illustrator 23.0.6, SVG Export Plug-In . SVG Version: 6.00 Build 0)  -->
<svg version="1.1" id="s" xmlns="http://www.w3.org/2000/svg" xmlns:xlink="http://www.w3.org/1999/xlink" x="0px" y="0px"
	 viewBox="0 0 175 175" style="enable-background:new 0 0 175 175;" xml:space="preserve">
<style type="text/css">
	.st0{fill-rule:evenodd;clip-rule:evenodd;fill:#1371B6;}
</style>
<g>
	<path class="st0" d="M159.16,92.04c9.36-0.24,11.09,6.41,10.2,17.07c-0.22,2.67-0.97,6.07-1.25,9.58
		c-0.5,6.32,0.17,13.2-1.67,17.49c-0.27,0.63-1.02,1.94-1.25,2.29c-1,1.49-3.76,2.77-4.16,4.16c-0.78,2.67,0,7.15,0,10.83
		c0,1.52,1.33,8.42-1.87,8.54c-3.83,0.14-1.44-6.6-2.08-9.58c-3.21,0.86-5.38,6.64-9.58,5.83c-0.32-2.52,3.51-2.56,4.37-4.58
		c1.61-1.45,3.1-3.01,5.2-3.96c0-2.98,0-5.97,0-8.95c3.66-3.31,6.47-6.41,7.08-13.74c0.24-2.9-0.26-6.3,0-9.58
		c0.43-5.45,1.94-10.12,1.25-15.82c-0.43-3.56-2.08-5.46-5.41-5.62c-0.42,1.73-0.21,5.06-0.21,8.33c0,2.08,0.85,6.87-1.25,7.29
		c-4.3,0.85-2.39-8.64-2.71-12.91c-0.39-5.3-0.71-9.46-6.25-7.7c-0.38,3.23-0.21,6.86-0.21,11.04c0,2.57,0.52,8.85-2.29,8.95
		c-2.97,0.11-1.98-3.72-1.67-6.45c0.87-7.51,0.68-17.43-4.79-18.53c-1.23-0.25-2.03,0-3.33,0.21c-0.7,0.35-0.9,1.18-1.67,1.46
		c0.36,5.08-0.35,9.92,0,15.41c0.14,2.2,0.84,7.23-2.91,5.83c-1.88-0.7-1.04-8.48-1.04-11.24c0-4.43,0.3-7.87,0-11.87
		c-0.48-6.49,0.09-15.17-1.66-21.24c-0.63-2.16-1.92-5.44-4.16-5.21c-2.35,0.25-1.63,3.72-1.87,7.08
		c-0.42,5.84-1.1,12.33-1.67,19.15c-0.49,5.88,0.05,13.19-0.42,18.74c-0.93,11.22-0.27,24.07,2.71,29.57
		c1.23,2.27,2.75,2.66,3.96,5.21c1.81,3.81,1.77,10.32,2.29,15.62c0.3,3.05-0.09,5.89-2.5,5.62c-2.65-0.29-1.53-4.67-1.67-6.66
		c-0.26-3.83-0.71-9.34-1.67-12.08c-0.76-2.18-3.08-3.52-4.16-5.62c-2.46-4.78-2.6-9.76-2.91-17.28c-3.5-0.59-7.11,0.07-10.62-0.21
		c-7.11-0.56-13.65,0.24-20.82,0.83c-6.17,0.51-13.1-0.91-20.2-0.42c-3.56,0.25-8.66,0.42-13.12,0.62
		c-9.13,0.42-18.2,0.31-26.44-1.67c-5.76-1.38-9.73-2.12-12.28-7.08c-0.06-0.12-0.2-0.39-0.21-0.42
		c-3.06-8.39-4.88-20.73-5.83-32.48c-0.27-3.33-1.02-6.51-1.25-9.58c-0.28-3.73-0.77-11.12,0-13.95c0.72-2.64,3.86-4.39,5.2-6.66
		c1.81-3.04,2.55-7.26,4.37-10.62c0.46-0.84,1.32-1.46,1.87-2.29c2.65-3.98,6.01-7.75,11.24-9.79c3.9-1.52,9.81-1.55,14.37-2.08
		c5.01-0.59,10.02-1.32,14.78-1.66c4.99-0.36,9.87,0.12,14.78-0.42c7.92-0.86,15.13-1.84,24.57-1.25c11.25,0.7,23.13-0.62,32.9,0.42
		c12.41,1.31,21.99,10.63,23.53,23.11c0.41,3.35-0.27,6.89,0,10.41c0.18,2.35,0.64,4.74,0.83,7.29c0.41,5.41,0.03,11.63,0.42,16.45
		c0.25,3.15-0.6,6.53,0,9.37C156.51,88.9,158.58,89.11,159.16,92.04z M151.66,62.06c-0.19-2.32-0.65-4.61-0.83-7.08
		c-0.24-3.27,0.42-6.84,0-10.41c-0.91-7.78-5.49-14.8-11.66-17.91c-10.23-5.16-31.57-2.61-45.81-3.54
		c-7.22-0.47-13.58,1.66-20.61,2.08c-3.82,0.23-7.87-0.27-11.87,0c-4.59,0.31-9.91,1.11-14.99,1.66
		c-5.33,0.59-11.05,0.65-14.58,2.08c-2.85,1.16-7.87,4.48-8.74,6.87c-0.38,1.04-0.85,4.35-0.62,6.25c0.1,0.85,0.66,1.51,0.83,2.5
		c0.14,0.79-0.1,1.58,0,2.5c0.68,6.49,2.34,12.35,3.33,18.95c0.61,4.05,1.59,8.19,2.08,12.28c1.25,10.44,0.3,22.98,8.95,24.99
		c0.34-1.58-2.75-8.16-0.62-8.54c2.39-0.43,2.06,8.49,3.33,9.37c1.22,0.17,2.47,0.3,3.54,0.62c0.14-1.25-2.82-8.98,0-8.75
		c1.52,0.13,0.8,2.11,1.04,3.75c0.26,1.78,1.26,4.1,1.66,5.41c0.74,0.24,2.63,0.41,3.12,0.21c-0.62-1.29-2.58-7.09,0-6.87
		c2,0.17,0.66,6.1,2.5,7.29c8.63,0.98,18.04,0.23,27.28-0.42c2.58-0.18,5.15,0.19,7.7,0c6.95-0.53,13.65-1.62,19.78-2.08
		c2.66-0.2,5.93,0.38,8.33-0.42c0.79-0.26,1-0.86,1.67-1.25c0.6-0.35,1.54-0.12,1.87-1.04c-0.68-11.22,0.9-25.05,1.67-35.4
		c0.17-2.28-0.46-4.37,0.21-6.25c0.94-2.66,4.53-4.01,7.91-3.54c7.7,3.69,7.08,15.68,7.08,27.07c3.95-0.82,7.04-0.66,9.16,0.62
		c2.93,1.78,3.6,5.67,7.7,3.33C151.4,78.17,152.3,70.09,151.66,62.06z M11.33,55.6c-0.33,3.14-0.36,7.69,0,10.83
		c1.63-0.97,1.28-6.38,3.33-6.25c1.93,0.12,0.21,4.09-0.42,5.41c-1.52,3.22-3.94,6.11-1.87,9.99c1.54-2.83,3.07-5.67,4.37-8.74
		c-0.03-1.62-0.12-3.03,1.25-2.91c2.07,0.17,0.45,4.85-0.21,6.25c-1.99,4.21-6.21,8.81-4.79,13.74c1.49-1.6,2.18-4.46,3.54-6.66
		c0.49-0.8,1.31-1.32,1.66-2.08c0.26-0.56,0.19-2.54,1.46-2.5c0.87,0.03,1.12,1.1,0.83,2.5c-0.47,2.28-2.62,3.97-3.96,6.66
		c-2.06,4.14-3.73,8.38-1.87,12.7c1.17-2.83,3.63-6.07,4.79-8.95c0.23-0.56,0.17-2.57,1.46-2.5c2.6,0.14-1.33,7.06-1.67,7.7
		c-2.02,3.84-5.22,6.76-3.12,10.62c0.82-1.57,1.34-2.72,2.5-4.58c0.54-0.87,2.02-4.25,3.12-4.16c2.4,0.18-0.88,4.91-1.46,5.83
		c-2.18,3.44-4.49,6.31-2.29,9.99c2.69-2.1,2.75-6.82,6.04-8.33c1.63,1.91-0.79,3.69-1.67,5.2c-1.04,1.81-1.73,3.86-2.71,5.41
		c0.41,0.84,1.43,1.06,2.08,1.66c2.7-1.47,3.03-5.3,6.04-6.45c1.76,2.79-2.55,4.57-3.12,7.08c1.36,0.38,2.82,0.65,4.16,1.04
		c1.28-1.98,1.74-4.78,4.58-5.21c1.33,2.42-2.18,3.28-2.29,5.62c0.81,0.3,1.74,0.48,2.92,0.42c1.73-1.67,2.2-4.6,4.58-5.62
		c1.87,2.26-1.58,4.12-2.08,6.04c1.41-0.11,3.3,0.24,4.37-0.21c1.22-2.11,2.6-4.06,3.96-6.04c-6.14-1.28-11.66-1.53-14.99-5
		c-4.55-4.73-4.75-15.74-5.62-24.15c-1.13-10.9-4.38-22.26-5.41-31.65c-0.2-1.8,0-2.83-0.83-3.75
		C16.84,49.32,13.99,52.36,11.33,55.6z M111.06,114.53c1.01-0.1,2.44,0.22,3.12-0.21c1.14-2.82,3.09-4.82,3.75-8.12
		C113.52,106.86,112.97,111.37,111.06,114.53z M105.65,113.9c0.94,0.31,2.09,0.4,3.12,0.62c0.73-2.88,2.58-4.64,3.54-7.29
		C107.37,106.74,107.94,111.75,105.65,113.9z M102.73,108.28c-0.67,2.31-2.23,3.73-3.12,5.83c1.18,0,2.36,0,3.54,0
		c0.86-2.17,3.46-5.02,3.33-6.66C105.25,107.74,103.62,107.64,102.73,108.28z M96.07,108.49c-0.81,2.24-2.22,3.89-3.12,6.04
		c5.06,0.48,5.7-3.46,7.5-6.25C99.36,107.95,97.67,108.66,96.07,108.49z M89.61,109.11c-0.55,2.37-2.88,4.06-3.12,6.04
		c4.74,0.3,5.3-3.58,7.08-6.25C92.2,108.92,90.7,108.81,89.61,109.11z M43.18,115.57c1.07,0.17,2.23,0.27,3.54,0.21
		c1.4-1.93,2.52-4.14,3.96-6.04c-1.82,0.15-3.07-0.26-4.58-0.42C46.66,112.15,43.87,113.31,43.18,115.57z M75.04,114.94
		c1.31-0.13,2.2,0.16,3.33,0.21c0.9-2.23,2.49-3.76,3.54-5.83C77.23,108.81,76.85,112.59,75.04,114.94z M80.87,115.36
		c0.83,0,1.67,0,2.5,0c1.4-1.87,2.62-3.9,3.75-6.04C82.77,108.93,82.28,113.5,80.87,115.36z M71.08,110.15
		c-1.23,1.33-2.23,2.9-2.91,4.79c1.32,0,2.64,0,3.96,0c1.16-1.75,2.6-3.23,3.54-5.2C73.98,109.72,72.88,110.29,71.08,110.15z
		 M52.97,109.94c-0.81,2.18-2.64,3.33-3.33,5.62c0.98-0.27,2.28-0.21,3.54-0.21c1.17-1.47,2.03-3.24,2.91-5
		C55.24,110.03,54.21,109.88,52.97,109.94z M56.09,115.36c4.34,0.72,4.94-3.38,6.04-5.2c-1.32,0-2.64,0-3.96,0
		C57.97,112.37,56.55,113.38,56.09,115.36z M61.92,115.36c1.24-0.15,2.25-0.53,3.75-0.42c0.36-1.88,2.27-3.26,2.29-4.79
		C63.48,109.42,63.46,113.14,61.92,115.36z M116.89,114.53c1.5,0.52,1.14-1.91,0.83-2.5C117.44,112.79,116.6,113.86,116.89,114.53z"
		/>
	<path class="st0" d="M113.14,24.99c1.63-0.47,2.32,3.02,3.54,5c0.82,1.32,3.21,4.15,1.25,4.58c-1.45,0.32-2.92-3.71-4.16-5.83
		C113.19,27.76,110.88,25.64,113.14,24.99z"/>
	<path class="st0" d="M129.17,34.57c-2.21,0.57-2.4-1.92-3.33-3.75c-0.49-0.97-4.32-5.39-1.87-5.62c0.86-0.08,2.22,1.76,2.29,1.87
		C127.53,28.95,129.31,32.79,129.17,34.57z"/>
	<path class="st0" d="M134.38,33.32c-0.25,0.31-0.52,0.59-0.83,0.83c-1.1-0.2-2.74-1.67-3.75-3.54c-0.89-1.64-3.08-6.34,0.21-5.21
		C131.04,28.47,132.82,30.79,134.38,33.32z"/>
	<path class="st0" d="M123.34,34.99c-2.69,1.2-3.26-4.55-4.16-6.25c-0.45-0.84-2.93-3.66,0.21-3.12c1.87,0.32,2.24,4.2,3.12,6.45
		C122.91,33.09,123.92,33.74,123.34,34.99z"/>
	<path class="st0" d="M110.23,49.77c0.42,5.48-0.42,11.98-0.83,16.86c-0.54,6.4,0.98,12.65-3.75,14.78
		c-3.72-0.26-7.53-0.39-9.16-2.92c-1.69-2.6-1.5-9.55-1.87-13.95c-0.13-1.59,0.12-3.23,0-4.79c-0.27-3.42-1.11-5.91-0.83-9.58
		c-0.78-0.68-2.56-0.35-2.91-1.46c0-0.62,0-1.25,0-1.87c1.58-1.94,10.61-2.79,10.2,0.83c-0.18,1.6-1.5,1.57-3.33,1.87
		c0.85,8.66,0.83,18.18,2.29,26.23c0.96,0.84,2.19,1.42,3.96,1.46c2.32-2.22,1.1-7.2,1.46-11.66c0.37-4.69,1.2-10.01,0.83-15.82
		c-1.71-0.25-3.4-1.97-2.08-3.96c2.39-0.38,7.83-1.57,8.33,1.04C112.82,48.42,111.83,49.21,110.23,49.77z"/>
	<path class="st0" d="M72.96,77.46c-0.65-9.14-1.71-17.86-2.5-26.86c-0.84-0.34-2.93,0.42-3.75-0.42c-2.6-4.34,6.15-5.06,11.45-4.37
		c4.57,0.59,9.09,4.85,9.99,9.99c0.21,1.21-0.11,3.29,0,4.58c0.41,5.03,1.51,10.95,0.83,15.2c-0.35,2.2-2.16,5.33-4.16,6.04
		c-2.16,0.76-4.49-0.3-6.87,0.21c-1.13,0.24-1.09,1.21-2.5,1.25c-0.87,0.02-1.14-0.8-2.5-1.25c-2-0.67-6.42-0.72-4.16-3.75
		C69.48,77.17,70.72,77.21,72.96,77.46z M84.2,61.85c-0.14-1.74,0.19-3.37,0-4.58c-0.79-4.89-4.04-7.64-9.37-7.5
		c-0.26,0.09-0.43,0.27-0.42,0.62c1.16,8.84,1.79,18.19,2.71,27.28c1.61,0.39,4.41,0.28,6.04,0C86.43,74.8,84.7,68.02,84.2,61.85z"
		/>
	<path class="st0" d="M58.38,47.69c1.47,2.26,2.42,9.94-1.04,9.79c-2.59-0.12-1.91-2.95-1.87-5.83c-3.12,0.01-6.56,1.48-10.83,1.04
		c-0.39,3.66,0.67,7.65,0.62,11.66c1.04,0.16,3.18-0.26,4.58-0.42c-0.02-1.44-0.92-1.99-0.62-3.75c0.58-0.74,1.36-1.28,2.91-1.04
		c1.79,0.32,1.54,4.54,1.87,7.91c0.26,2.64,1.56,5.63-2.5,5.21c-1.26-0.68-1.2-2.68-1.66-4.16c-1.56,0.11-3.03,0.3-4.16,0.83
		c-0.29,3.9,0.5,6.72,0.42,10.41c3.73-0.29,6.62-1.43,11.04-1.04c0.36-0.89,0.36-2.14,1.04-2.71c0.7-0.3,2.01-0.3,2.71,0
		c2.64,2.92,0.8,11.04-3.54,6.66c-5.63-0.41-9.62,1.88-14.37,1.67c-0.94,0.38-1.51,1.12-3.12,0.83c-2.37-1.69-0.22-5.05,2.29-5
		c-0.52-8.99-1.16-17.86-1.66-26.86c-0.87-0.45-2.69,0.06-3.33-0.62c-0.56-0.73-0.56-2.39,0-3.12
		C44.59,49.07,51.52,47.47,58.38,47.69z"/>
	<path class="st0" d="M160.41,120.56c-0.17,2-1.93,3.46-3.12,4.58c-1.2,1.13-2.62,2.65-4.37,3.12c-0.12-0.3-0.32-0.51-0.62-0.62
		c1.32-3.47,4.75-4.83,6.87-7.5C159.88,119.98,160.04,120.38,160.41,120.56z"/>
	<path class="st0" d="M161.66,125.77c-0.52,1.49-2.16,3.05-3.54,4.16c-1.06,0.85-2.55,1.9-3.75,2.71c-1.08,0.72-2.99,2.28-4.16,0.83
		c0.05-1.62,1.99-1.85,2.91-2.5c2.45-1.72,4.53-3.9,6.87-5.83C160.83,125.07,161.51,125.15,161.66,125.77z"/>
	<path class="st0" d="M160.82,130.97c1.25,1.53-0.34,2.65-1.46,3.54c-1.05,0.83-2.2,1.85-3.12,2.5c-1.99,1.39-4.9,4.25-7.29,2.71
		c0.86-1.95,3.21-2.43,4.79-3.54c1.54-1.08,3.15-2.32,4.58-3.54C159.07,132,159.5,130.76,160.82,130.97z"/>
	<path class="st0" d="M144.79,149.92c0.17-1.76,2.06-2.82,3.75-3.96c1.6-1.08,3.5-2.68,4.58-2.91c1.08-0.24,2.39-0.13,2.29,1.04
		c-0.07,0.76-2.68,1.83-3.12,2.08c-1.27,0.74-2.21,1.18-3.12,1.87C147.95,148.98,146.69,151.18,144.79,149.92z"/>
	<path class="st0" d="M156.24,146.59c-0.37,1.91-2.49,2.56-3.75,3.54c-1.56,1.21-2.89,3.06-5,3.54c-1.18-2.18,1.4-3.3,2.71-4.37
		c1.45-1.19,3.18-2.3,4.37-3.33C155.41,145.89,156.1,145.97,156.24,146.59z"/>
</g>
</svg>
