<?xml version="1.0" encoding="utf-8"?>
<!-- Generator: Adobe Illustrator 23.0.6, SVG Export Plug-In . SVG Version: 6.00 Build 0)  -->
<svg version="1.1" id="s" xmlns="http://www.w3.org/2000/svg" xmlns:xlink="http://www.w3.org/1999/xlink" x="0px" y="0px"
	 viewBox="0 0 175 175" style="enable-background:new 0 0 175 175;" xml:space="preserve">
<style type="text/css">
	.st0{fill-rule:evenodd;clip-rule:evenodd;fill:#1371B6;}
</style>
<g>
	<path class="st0" d="M111.41,38.24c-0.04,1.66-1.35,2.76-2.2,4.04c-0.82,1.23-1.56,2.66-2.39,3.85c-1.61,2.34-2.84,5.46-5.69,6.61
		c-0.1-0.26-0.29-0.45-0.55-0.55c-0.14-1.33,1.02-1.59,1.65-2.38c2.93-3.68,4.84-8.48,7.89-11.93
		C110.79,37.76,111.1,38,111.41,38.24z"/>
	<path class="st0" d="M118.01,38.98c-0.73,2.01-2.06,3.9-3.3,5.69c-2.39,3.42-5.15,6.62-7.52,10.27c-1.02,1.58-1.89,4.17-4.04,4.4
		c-0.39-2.24,1.51-3.88,2.57-5.5c3.25-4.97,7.15-9.97,10.64-14.86C116.62,38.43,117.74,38.55,118.01,38.98z"/>
	<path class="st0" d="M124.62,38.98c-0.51,1.98-1.92,3.62-3.12,5.14c-2.35,2.97-4.85,5.82-7.34,8.81c-1.22,1.47-2.15,3.18-3.67,4.4
		c-1.69-1.62,0.45-3.54,1.47-4.77c1.14-1.37,2.58-2.79,3.67-4.04c2.88-3.28,5.11-7.09,7.71-9.91
		C124,38.49,124.31,38.73,124.62,38.98z"/>
	<path class="st0" d="M138.93,40.45c-0.54,2.01-1.81,3.86-3.12,5.14c-0.54,0.53-1.36,1.08-2.2,1.1c-0.1-0.26-0.29-0.45-0.55-0.55
		c1.18-2.36,3.19-3.9,4.59-6.05C138.32,39.96,138.62,40.2,138.93,40.45z"/>
	<path class="st0" d="M45.54,67.78c0.1-0.26,0.29-0.45,0.55-0.55c2.17,0.38,1.04,5.08,0.92,7.71c-0.08,1.83-0.37,5.18-0.74,7.89
		c-0.27,2-0.38,6.85-1.83,6.61c-1.64-0.28-0.01-6.21,0.18-7.89C45.12,77.2,44.96,72.18,45.54,67.78z"/>
	<path class="st0" d="M49.21,91.27c-0.29-0.01-0.7,0.09-0.73-0.18c-0.96-1.41-0.01-4.46,0.18-7.89c0.13-2.27-0.8-8.13,0.92-8.26
		c1.69-0.13,1.16,5.11,1.1,6.61C50.53,84.77,50.33,89.31,49.21,91.27z"/>
	<path class="st0" d="M54.53,78.61c0.98,0.67,0.27,2.4,0.18,3.49c-0.22,2.83,0.81,8.11-0.92,8.26c-2.18,0.18-0.78-9.54-0.55-11.19
		c0.07-0.24,0.32-0.29,0.37-0.55C53.92,78.61,54.22,78.61,54.53,78.61z"/>
	<path class="st0" d="M95.26,78.98c0.71,2.83-1,5.93-1.84,8.81c-0.4,1.38-0.88,3-1.28,4.4c-0.35,1.23-0.36,3.35-2.02,3.49
		c-1.09-1.1-0.16-2.82,0.18-4.04c1.06-3.74,2.6-8.15,3.67-12.11c0.07-0.24,0.32-0.29,0.37-0.55C94.65,78.98,94.96,78.98,95.26,78.98
		z"/>
	<path class="st0" d="M92.69,79.71c0.37,3.93-1.8,7.91-3.12,12.11c-0.34,1.09-0.81,3.66-1.83,3.49c-1.37-0.23-0.41-3.12-0.18-3.85
		c1.2-3.81,3.04-7.77,3.85-11.19c0.06-0.24,0.32-0.29,0.37-0.55C92.08,79.71,92.39,79.71,92.69,79.71z"/>
	<path class="st0" d="M57.83,83.38c0.73,1.3,1.18,6.05-0.37,6.79C55.84,89.8,55.48,83.21,57.83,83.38z"/>
	<path class="st0" d="M114.34,100.08c-0.03-1.6,1.42-1.21,2.2-1.47c3.73-1.21,7.66-3.67,10.09-6.42c3.42,0.53,0.08,2.58-1.28,3.67
		c-1.27,1.01-2.18,1.57-3.3,2.2C119.4,99.56,116.55,101.46,114.34,100.08z"/>
	<path class="st0" d="M40.22,102.09c0.96-0.24,1.78,0.67,2.75,0.92c2.61,0.65,7.21-0.28,7.34,1.28
		C50.5,106.59,37.5,105.01,40.22,102.09z"/>
	<path class="st0" d="M38.93,109.43c0.95-2.64,4.13-0.46,7.71-0.18c1.94,0.15,5.21-0.44,5.32,0.92c0.15,1.73-3.89,1.01-4.95,0.92
		c-2.12-0.19-4.26-0.74-5.32-0.92C40.53,109.98,39.22,110.47,38.93,109.43z"/>
	<path class="st0" d="M51.41,114.94c-1.26,2.64-6.15,0.93-9.36,0.37c-1.01-0.18-2.03,0.2-2.39-0.73c0.53-2.58,4.74-0.41,7.89-0.18
		C49.32,114.51,50.75,113.79,51.41,114.94z"/>
	<path class="st0" d="M53.43,118.98c-0.83,1.7-4.02,1.26-6.24,1.1c-2.42-0.17-5.32-0.5-6.42-1.47c0.24-2.32,3.13-0.73,5.5-0.55
		C49.02,118.27,52.54,117.32,53.43,118.98z"/>
	<path class="st0" d="M54.71,124.85c-0.84,2.69-5.92,1.06-9.36,0.73c-1.48-0.14-2.79,0.19-3.49-0.73c-0.06-0.74,0-1.34,0.55-1.47
		c2.31,0.14,4.91,0.74,7.52,0.92C51.48,124.4,53.56,123.79,54.71,124.85z"/>
	<path class="st0" d="M43.34,129.98c0.5-2.29,3.35-0.51,6.6-0.18c1.82,0.18,7.58-0.16,7.71,1.28c0.17,1.97-4.43,0.78-4.95,0.73
		C49.31,131.5,45.17,131.58,43.34,129.98z"/>
	<path class="st0" d="M46.46,134.39c1.69,1.17,12.31-0.45,12.48,1.47C59.1,137.81,43.39,137.52,46.46,134.39z"/>
	<path class="st0" d="M48.29,139.89c1.83,0.54,9.74,0.08,9.72,1.83c-0.01,1.66-3.43,0.56-6.06,0.37
		C49.92,141.95,46.37,142.03,48.29,139.89z"/>
	<path class="st0" d="M163.33,78.43c1.68,3.91-1.75,5.65-1.84,8.99c1.14-1.86,3.71-3.11,3.85-5.32c0.18-2.76-3.77-4.42-3.3-7.89
		c-2.02,0.85-0.44,4.53-2.57,4.95c-2.23,0.44-2.66-2.23-2.2-4.4c0.62-2.93,4.91-5.58,4.77-8.44c-0.69,0.15-1,0.91-2.02,0.92
		c-1.95,0.02-7.01-4.83-7.52-7.71c-0.22-1.25,0.18-2.43,0-3.3c-6.74,5.55-13.01,13.17-19.08,20c1.06,2.38,0.38,6.66,0.55,10.46
		c0.36,8.08,1.09,17.23,1.47,25.87c0.23,5.37,0,14.56-0.37,20.37c-0.07,1.14,0.1,2.01-0.18,2.75c-0.35,0.93-2.67,2.83-4.04,3.85
		c-2.42,1.81-6.45,4.59-9.36,5.69c-0.97,0.37-2.22,0.41-3.3,0.73c-2.78,0.84-6.07,2.12-9.17,2.94c-6.86,1.81-14.01,2.37-22.39,2.02
		c-16.11-0.68-30.8-2.45-44.03-5.5c-2.88-1.94-3.71-8.45-4.77-12.84c-2.61-10.83-4.89-24.02-6.42-35.78
		c-6.88-2.17-13.93-4.17-23.3-3.85c-1.81-1.61-3.03-5.86-3.49-8.62c-0.3-1.8-0.18-2.98,0.74-4.04c0.44-0.5,1.51-0.96,2.2-1.47
		c1.58-1.16,2.66-3.03,4.22-4.4c1.49-1.32,2.93-2.7,4.59-3.85c3.37-2.34,6.24-5.18,9.17-7.89c5.93-5.48,12.62-10.3,18.53-15.41
		c1.8-1.55,3.41-3.4,5.32-5.14c3.57-3.25,6.88-5.94,11.19-9.36c1.86-1.48,4.54-3.97,6.06-4.22c0.94-0.15,1.58,0.24,2.57,0.37
		c10.52,1.33,21.43,3.15,33.21,3.67c9.71,0.43,20.49,2.2,29.54,2.94c2.1,0.17,4.08,0.05,5.87,0.37c2.5,0.44,4.76,1.21,7.16,1.47
		c2.17,0.23,4.09,0.03,5.87,0.37c1.19,0.23,2.29,0.95,3.49,1.1c0.79,0.1,2.29-0.19,2.93,0c1.45,0.43,3.05,4.28,3.49,6.97
		c0.44,2.72-0.41,4.24-2.02,4.95c1.68,1.82,4.68,4.24,5.5,7.89c0.19,0.85-0.14,1.69,0,2.57c0.31,1.94,1.92,3.56,1.28,6.97
		c-0.32,1.72-1.78,2.86-2.57,4.4c0.96-0.1,1.66,0.05,2.2,0.37c0.73,4.16,4.51,5.28,3.67,11.01c-0.91,1.41-1.86,2.79-2.94,4.04
		c2.43,1.51,3.16,5.97,2.57,10.27c-0.27,2-1.78,3.49-2.39,4.95c-0.4,0.98-0.9,2.7-0.73,3.49c0.24,1.11,2.35,1.75,2.94,2.75
		c0.93,1.6,0.74,2.81,0.18,4.95c2.9,3.12,5.19,10.85,2.39,15.78c-0.47,0.19-1.26,0.66-1.84,0.18c-0.8,0.73-1.12,2.92-2.39,2.57
		c-2.18-1.03,0.62-2.7,0.92-4.04c-2.98-2.73-4.23-8.22-3.49-13.58c-1.04,0.66-0.71,2.33-0.73,3.49c-0.05,2.7,0.03,4.94,0.73,6.97
		c0.57,1.65,2.39,3.16,1.1,4.4c-2.28-0.46-3.14-4.08-3.67-6.79c-0.3-1.56-0.14-3.89-0.18-6.05c-2.31,4.73-0.26,12.72,3.3,13.94
		c0.33,0.93,0.34,2.67-0.55,2.94c-5.2-2.99-8.16-15.34-2.75-20.37c-0.97-1.49-0.42-3.71,0.73-4.59c-2.09-2.09-3.88-10.28-0.18-12.11
		c-3.42-1.83-4.83-6.45-3.85-11.93c0.4-2.24,2.69-3.9,2.39-6.24C160.56,77.87,162.54,77.84,163.33,78.43z M110.67,74.76
		c-1.42,4.96-2.46,10.33-4.4,14.49c0.07,0.7,2.31-2.44,2.39-2.75c0.5-2.02,1.43-4.52,2.2-6.97c0.73-2.31,0.75-5.74,3.12-6.05
		c0.53,2.84-1.65,6.02-2.2,8.99c2.43-0.69,2.83-5,4.77-6.79c0.78-0.09,0.99,0.53,1.47,0.37c0.5-0.17,2.41-2.96,3.3-4.04
		c3.53-4.27,7.2-8.13,10.83-11.56c6.5-6.15,12.11-13.11,18.53-18.9c-4.94-0.81-10.36-1.14-15.05-2.2c-0.46,0.18,0.25,0.7,0,1.28
		c-1.58,1.24-2.58,3.01-3.85,4.59c-1.19,1.48-2.33,3.85-4.4,4.22c-0.7-2.19,1.7-3.79,2.94-5.32c1.37-1.69,2.51-3.85,4.22-4.95
		c-1.64-0.37-4.09,0.06-5.5-0.55c-0.22,0.32,0.2,1.28-0.18,1.84c-2.38,3.44-5.25,6.79-7.52,10.09c-0.77,1.13-1.21,2.91-2.75,3.3
		c-1.62-1.25,0.44-2.87,1.1-3.85c2.58-3.86,5.62-7.71,7.89-11.38c-7.18-0.65-14.3-1.35-21.28-2.2c-0.93,0.42-0.55,2.14-2.2,1.84
		c-1.14-0.21,0.11-1.84-0.55-1.84c-12.9-0.56-24.14-2.77-36.14-4.22c-5.48,4.21-11.19,8.47-16.15,13.03
		c-1.71,1.57-3.21,3.45-4.95,4.95c-5.96,5.14-12.33,9.74-18.16,15.05c-2.93,2.66-5.61,5.39-8.81,7.71
		c-3.11,2.25-6.17,4.86-8.26,8.07c7.12,1.5,14.03,3.22,20.73,5.14c0.06-1.58,0.56-3.51,0.74-5.51c0.17-1.88-0.42-4.68,1.65-4.95
		c0.92,1.28,0.38,3.48,0.18,5.32c-0.21,1.94-0.52,3.88-0.74,5.5c0.99,0.17,1.85,0.47,2.75,0.73c0.59-2.04-0.29-9.14,1.65-8.99
		c2.66,0.2-1.69,10.41,1.47,10.27c0.36-5.27,1.22-11.9,1.47-17.43c0.06-1.36-0.8-8.78,1.1-8.62c1.41,0.12,1,4.9,0.92,6.79
		c-0.26,5.73-1.39,13.76-1.47,20.18c4.26,1.98,9.61,2.08,14.86,3.3c3.16,0.73,6.17,2.06,9.36,2.75c8.38,1.81,16.98,3.01,25.69,3.85
		c3.8-9.21,6.61-20.32,9.91-29.72c0.4-1.16,0.52-3.3,2.2-3.49c1.1,1.17,0.04,2.89-0.37,4.04c-3.45,9.8-6.27,20.54-9.91,29.91
		c0.84,0.01,1.25,0.47,2.2,0.37c1.13-4.14,2.17-7.48,3.67-11.38c1.94-5.05,3.34-10.12,4.95-15.6c0.29-0.98,1.77-7.39,2.94-7.34
		c1.55,0.06,0.33,3.14,0.18,3.67c-2.86,10.08-6.22,19.28-9.18,28.62c1.27-0.81,3.1-2.65,4.22-4.22c1.88-4.27,3.38-8.2,4.77-12.84
		c0.59-1.96,1.14-4.1,1.65-6.05c0.46-1.76,0.64-4.36,2.57-5.14C112.47,71.49,111.08,73.34,110.67,74.76z M155.81,42.46
		c-7.22,5.62-13.41,12.28-19.27,19.27c-13.91,12.02-24.05,27.82-37.06,40.73c-0.16,1.75,0.24,2.94,0.37,4.4
		c1.45-0.92,2.19-2.49,3.12-3.85c0.96-1.41,2.12-2.78,3.3-4.04c7.19-7.57,14.33-15.06,21.65-22.38c4.89-4.89,9.14-10.47,13.94-15.41
		c4.9-5.05,9.8-9.75,15.41-13.94C156.7,45.74,156.45,43.9,155.81,42.46z M161.5,63.93c-0.35-2.92-8.46-6.05-2.39-8.07
		c-0.82-0.34-1.53-0.8-2.57-0.92C154.62,59.68,158.82,62.72,161.5,63.93z M161.86,57.88c-0.43-0.12-0.14-0.96-0.92-0.73
		C160.89,57.64,161.8,58.11,161.86,57.88z M101.5,111.64c-2.48,2.1-4.98,0.53-8.07-0.18c-2.09-0.48-4.31-0.54-6.05-0.92
		c-2-0.44-3.99-1.42-6.06-2.02c-2.07-0.6-4.23-1.21-6.42-1.65c-13.55-2.72-26.37-6.65-39.63-8.99c2.07,15.65,4.77,30.45,8.62,43.85
		c11.64,3.07,26.74,4.86,41.28,5.5c3.25,0.14,6.7,0.2,9.91,0c6.95-0.43,13.73-2.24,19.26-3.85c2.04-0.59,4.34-0.97,6.06-1.65
		c4.41-1.75,7.88-5.22,11.01-7.89c0.04-1.24,0.11-2.46,0.37-3.49c-3.94,2.94-8.43,5.64-13.21,7.89c-0.58,0.27-4.23,1.72-4.04-0.18
		c0.11-1.1,1.82-0.83,2.94-1.28c4.87-1.95,10.75-5.83,14.49-9.54c0-0.8,0-1.59,0-2.38c-3.95,4.54-11.46,6.44-17.8,9.17
		c-1.16,0.5-2.85,2.04-4.04,0.73c0.22-1.61,2.16-1.89,3.3-2.39c6.93-3.01,14.72-4.84,18.53-10.64c-0.07-1.22,0.11-3.02,0-3.67
		c-5.04,3.07-11,8.1-18.35,9.54c-0.44,0.09-3.63,0.69-3.49-0.92c0.12-1.28,1.77-0.65,3.3-0.92c1.39-0.25,3.2-1.04,4.77-1.65
		c3.06-1.19,4.98-2.71,7.16-4.22c2.28-1.58,4.85-2.7,6.6-4.4c-0.06-1.28,0.21-2.9-0.37-3.67c-3.93,3.99-9.4,6.64-15.23,8.99
		c-0.62,0.25-5.52,2.85-5.87,0.92c-0.21-1.17,4.49-2.4,5.87-2.94c4.44-1.73,7.67-3.26,11.01-5.87c2.1-1.65,5.6-3.31,4.04-6.42
		c-3.69,3-8.6,5.93-14.13,7.34c-1.59,0.4-4.23,1.72-5.5-0.18c1.56-1.5,3.81-1.15,5.69-1.65c5.64-1.51,10.13-4.97,14.13-8.07
		c-0.25-1.22-0.18-2.75-0.18-4.22c-3.75,2.18-7.72,5.35-12.66,6.61c-1.31,0.33-4.06,1.65-4.77-0.37c1.27-1.27,3.23-1.25,4.77-1.65
		c5.16-1.35,8.86-4.49,12.48-7.15c-0.56-5.68-0.89-11.58-1.1-17.61C120.67,90.31,109.2,99.09,101.5,111.64z M9.94,89.43
		c14.71-0.07,25.1,5.1,37.61,7.34c6.15,1.1,11.68,2.94,17.43,4.22c11.09,2.46,20.65,5.07,31.56,7.52c-0.36-1.29-0.49-2.81-0.73-4.22
		c-10.3-2.13-20.13-3.29-29.91-4.95c-3.2-0.54-6.07-2.04-9.18-2.94c-3.64-1.06-7.5-0.85-11.19-1.65c-3.66-0.8-7.42-3.31-11.19-4.4
		c-8.36-2.43-17.91-4.07-25.87-6.42C8.71,86.02,9.38,87.67,9.94,89.43z M164.98,94.39c-0.16-1.06-0.18-2.27-0.73-2.94
		c-0.76,0.34-2.01,0.22-2.57-0.18C161.96,93.03,163.78,94.16,164.98,94.39z M164.25,99.34c-0.05-0.54,0.42-0.56,0.37-1.1
		c-0.18,0-0.37,0-0.55,0C164.17,98.56,163.84,99.32,164.25,99.34z M168.29,126.31c0.33-4.55-0.4-8.04-2.02-10.64
		C165.44,119.51,165.77,124.67,168.29,126.31z"/>
</g>
</svg>
