<svg id="s" xmlns="http://www.w3.org/2000/svg" viewBox="0 0 175 175"><defs><style>.cls-1{fill:#1371b6;fill-rule:evenodd;}</style></defs><title>3642 [Converted]</title><path class="cls-1" d="M101,60.45c0,.81-.67,1.35-1.09,2s-.76,1.3-1.17,1.89C98,65.47,97.37,67,96,67.57a.49.49,0,0,0-.27-.28c-.07-.65.5-.78.81-1.17,1.44-1.81,2.38-4.16,3.87-5.85A.7.7,0,0,1,101,60.45Z"/><path class="cls-1" d="M104.26,60.81a13.07,13.07,0,0,1-1.62,2.79c-1.18,1.68-2.53,3.25-3.7,5.05-.5.77-.92,2-2,2.16-.19-1.1.74-1.91,1.26-2.7,1.6-2.44,3.52-4.9,5.23-7.3C103.57,60.54,104.13,60.59,104.26,60.81Z"/><path class="cls-1" d="M107.5,60.81A7.14,7.14,0,0,1,106,63.33c-1.15,1.46-2.38,2.86-3.6,4.33a13.82,13.82,0,0,1-1.81,2.16c-.83-.8.22-1.74.73-2.34s1.26-1.38,1.8-2c1.41-1.61,2.51-3.48,3.78-4.86A.67.67,0,0,1,107.5,60.81Z"/><path class="cls-1" d="M114.53,61.53A5.81,5.81,0,0,1,113,64.05a1.73,1.73,0,0,1-1.08.54.45.45,0,0,0-.27-.27,31.69,31.69,0,0,1,2.25-3A.67.67,0,0,1,114.53,61.53Z"/><path class="cls-1" d="M68.66,75a.45.45,0,0,1,.27-.27c1.07.18.51,2.49.45,3.78,0,.9-.18,2.55-.36,3.88-.13,1-.19,3.36-.9,3.24s0-3,.09-3.87C68.46,79.58,68.38,77.11,68.66,75Z"/><path class="cls-1" d="M70.46,86.49c-.14,0-.34.05-.36-.09-.47-.69,0-2.19.09-3.87.06-1.12-.39-4,.45-4.06s.57,2.51.54,3.25C71.11,83.3,71,85.53,70.46,86.49Z"/><path class="cls-1" d="M73.08,80.27c.48.33.13,1.18.09,1.72-.11,1.39.39,4-.46,4.05-1.07.09-.38-4.68-.27-5.5,0-.11.16-.14.19-.27Z"/><path class="cls-1" d="M93.08,80.45c.35,1.39-.49,2.92-.9,4.33-.19.68-.43,1.48-.63,2.16s-.17,1.65-1,1.72c-.53-.55-.08-1.39.09-2,.52-1.83,1.28-4,1.8-6,0-.11.16-.14.18-.27Z"/><path class="cls-1" d="M91.82,80.81c.18,1.93-.88,3.89-1.53,6-.17.54-.4,1.8-.9,1.72-.68-.12-.2-1.54-.09-1.9.59-1.87,1.49-3.81,1.89-5.5,0-.11.16-.14.18-.27Z"/><path class="cls-1" d="M74.7,82.62c.36.63.58,3-.18,3.33C73.72,85.77,73.54,82.53,74.7,82.62Z"/><path class="cls-1" d="M102.46,90.82c0-.79.69-.6,1.08-.72a12,12,0,0,0,5-3.16c1.67.26,0,1.27-.63,1.81a12,12,0,0,1-1.63,1.08C104.94,90.56,103.54,91.5,102.46,90.82Z"/><path class="cls-1" d="M66.05,91.81c.47-.12.87.33,1.35.45,1.28.32,3.54-.14,3.6.63C71.1,94,64.71,93.24,66.05,91.81Z"/><path class="cls-1" d="M65.42,95.41c.46-1.29,2-.22,3.78-.09,1,.08,2.56-.21,2.61.46.08.85-1.91.49-2.43.45-1-.1-2.09-.37-2.61-.45S65.55,95.93,65.42,95.41Z"/><path class="cls-1" d="M71.54,98.12c-.62,1.29-3,.46-4.59.18-.5-.09-1,.1-1.17-.36.26-1.27,2.32-.2,3.87-.09C70.52,97.91,71.22,97.56,71.54,98.12Z"/><path class="cls-1" d="M72.54,100.1c-.41.84-2,.62-3.07.54a6.51,6.51,0,0,1-3.15-.72c.12-1.14,1.53-.36,2.7-.27C70.37,99.75,72.1,99.29,72.54,100.1Z"/><path class="cls-1" d="M73.17,103c-.42,1.32-2.91.52-4.6.36-.73-.07-1.37.09-1.71-.36,0-.37,0-.66.27-.73,1.13.07,2.41.37,3.69.46C71.58,102.77,72.6,102.47,73.17,103Z"/><path class="cls-1" d="M67.58,105.51c.24-1.13,1.64-.25,3.24-.09.9.09,3.73-.08,3.79.63.08,1-2.18.39-2.44.36C70.51,106.25,68.48,106.29,67.58,105.51Z"/><path class="cls-1" d="M69.11,107.67c.83.58,6-.22,6.13.72S67.61,109.21,69.11,107.67Z"/><path class="cls-1" d="M70,110.38c.9.26,4.78,0,4.78.9s-1.69.27-3,.18C70.81,111.39,69.07,111.43,70,110.38Z"/><path class="cls-1" d="M126.52,80.18c.83,1.92-.86,2.78-.9,4.42.56-.91,1.82-1.53,1.89-2.61.09-1.36-1.85-2.17-1.62-3.88-1,.42-.21,2.23-1.26,2.43s-1.31-1.09-1.08-2.16c.3-1.44,2.41-2.74,2.34-4.15-.34.08-.49.45-1,.46-1,0-3.44-2.38-3.7-3.79-.11-.61.09-1.19,0-1.62-3.31,2.73-6.39,6.47-9.37,9.82.52,1.17.19,3.27.27,5.14.18,4,.54,8.46.72,12.71.12,2.64,0,7.15-.18,10a4.93,4.93,0,0,1-.09,1.35,8.06,8.06,0,0,1-2,1.9A23.32,23.32,0,0,1,106,113c-.47.18-1.09.2-1.62.36-1.37.41-3,1-4.51,1.44a36,36,0,0,1-11,1,118.5,118.5,0,0,1-21.63-2.7c-1.42-1-1.83-4.15-2.35-6.31A176.77,176.77,0,0,1,61.72,89.2a32.09,32.09,0,0,0-11.45-1.9c-.89-.79-1.49-2.88-1.71-4.23a2.22,2.22,0,0,1,.36-2A9.62,9.62,0,0,1,50,80.36c.78-.57,1.31-1.48,2.08-2.16a23.93,23.93,0,0,1,2.25-1.89,44.26,44.26,0,0,0,4.51-3.88c2.91-2.69,6.19-5.06,9.1-7.57.88-.76,1.67-1.67,2.61-2.52,1.76-1.6,3.38-2.92,5.5-4.6.91-.72,2.23-2,3-2.07a4.06,4.06,0,0,1,1.27.18c5.16.65,10.52,1.55,16.31,1.8,4.77.21,10.06,1.08,14.51,1.44,1,.09,2,0,2.88.18,1.23.22,2.34.6,3.52.72s2,0,2.88.18c.59.12,1.13.47,1.72.55a11.52,11.52,0,0,1,1.44,0c.71.21,1.5,2.1,1.71,3.42s-.2,2.08-1,2.43c.82.9,2.3,2.09,2.7,3.88.1.42-.07.83,0,1.26.15,1,.94,1.75.63,3.43-.15.84-.87,1.4-1.26,2.16a1.74,1.74,0,0,1,1.08.18c.36,2,2.22,2.59,1.81,5.41a18,18,0,0,1-1.45,2c1.2.74,1.55,2.93,1.26,5a9.15,9.15,0,0,1-1.17,2.43,4.21,4.21,0,0,0-.36,1.71c.12.55,1.16.86,1.45,1.35a2.82,2.82,0,0,1,.08,2.44c1.43,1.53,2.56,5.33,1.18,7.75-.23.09-.62.32-.9.09-.4.36-.55,1.43-1.18,1.26-1.07-.5.31-1.33.45-2-1.46-1.34-2.07-4-1.71-6.67-.51.32-.35,1.14-.36,1.71a10.14,10.14,0,0,0,.36,3.43c.28.81,1.17,1.55.54,2.16-1.12-.23-1.54-2-1.8-3.34a21,21,0,0,1-.09-3c-1.14,2.33-.13,6.25,1.62,6.85.17.46.17,1.31-.27,1.44-2.55-1.47-4-7.53-1.35-10a1.82,1.82,0,0,1,.36-2.26c-1-1-1.91-5-.09-5.94-1.68-.9-2.38-3.17-1.89-5.86.2-1.1,1.32-1.92,1.17-3.07C125.16,79.91,126.13,79.9,126.52,80.18Zm-25.87-1.8a49.69,49.69,0,0,1-2.16,7.12c0,.34,1.14-1.2,1.17-1.35.25-1,.71-2.22,1.09-3.43s.36-2.82,1.53-3c.26,1.4-.81,3-1.08,4.42,1.19-.34,1.38-2.46,2.34-3.34.38,0,.48.26.72.18a15.55,15.55,0,0,0,1.62-2,63.84,63.84,0,0,1,5.32-5.68c3.19-3,6-6.44,9.1-9.28-2.42-.4-5.09-.56-7.39-1.08-.22.08.13.34,0,.63A12.81,12.81,0,0,0,111,63.87c-.59.73-1.15,1.89-2.16,2.07-.35-1.07.83-1.86,1.44-2.61a10.75,10.75,0,0,1,2.07-2.43,22,22,0,0,1-2.7-.27c-.11.15.1.62-.09.9-1.17,1.69-2.58,3.33-3.7,5-.38.56-.59,1.43-1.35,1.63-.8-.62.22-1.41.54-1.9,1.27-1.89,2.76-3.78,3.88-5.58-3.53-.32-7-.67-10.46-1.09-.45.21-.27,1.05-1.08.91-.56-.11,0-.91-.27-.91-6.34-.27-11.86-1.35-17.76-2.07-2.69,2.07-5.49,4.16-7.93,6.4-.84.77-1.57,1.7-2.43,2.43-2.93,2.53-6.06,4.79-8.92,7.39a51.73,51.73,0,0,1-4.33,3.79,15.61,15.61,0,0,0-4.05,4Q57,82.55,61.9,84c0-.78.27-1.73.36-2.71s-.21-2.3.81-2.43c.45.63.19,1.71.09,2.62s-.25,1.9-.36,2.7a10.64,10.64,0,0,1,1.35.36c.29-1-.14-4.49.81-4.42,1.31.1-.83,5.12.73,5,.17-2.59.6-5.84.72-8.56,0-.67-.39-4.32.54-4.24.69.06.49,2.41.45,3.34-.13,2.81-.68,6.76-.72,9.91,2.09,1,4.72,1,7.3,1.62,1.55.36,3,1,4.59,1.36a111.2,111.2,0,0,0,12.62,1.89c1.87-4.52,3.25-10,4.87-14.6.2-.57.25-1.62,1.08-1.71.54.57,0,1.41-.18,2-1.7,4.81-3.08,10.09-4.87,14.69.42,0,.62.23,1.08.18A54.5,54.5,0,0,1,95,85.41c1-2.48,1.64-5,2.43-7.66.14-.48.87-3.63,1.44-3.6.76,0,.17,1.54.09,1.8-1.4,5-3,9.47-4.5,14.06a9.07,9.07,0,0,0,2.07-2.08,51.76,51.76,0,0,0,2.34-6.3c.29-1,.56-2,.81-3s.32-2.14,1.26-2.52C101.54,76.78,100.85,77.68,100.65,78.38Zm22.18-15.86A63.21,63.21,0,0,0,113.36,72c-6.83,5.91-11.81,13.67-18.2,20a10.37,10.37,0,0,0,.18,2.16,6,6,0,0,0,1.53-1.89,16.09,16.09,0,0,1,1.62-2c3.53-3.72,7-7.4,10.64-11,2.4-2.4,4.49-5.14,6.85-7.57a63.7,63.7,0,0,1,7.57-6.85C123.26,64.13,123.14,63.22,122.83,62.52Zm2.79,10.54c-.17-1.43-4.15-3-1.17-4a4.37,4.37,0,0,0-1.26-.45C122.24,71,124.3,72.47,125.62,73.06Zm.18-3c-.21-.06-.07-.47-.45-.36C125.32,70,125.77,70.2,125.8,70.09ZM96.15,96.5c-1.22,1-2.45.26-4-.09-1-.24-2.12-.27-3-.45s-2-.7-3-1-2.08-.59-3.15-.81c-6.66-1.33-13-3.26-19.47-4.41a151,151,0,0,0,4.24,21.54A102,102,0,0,0,88.13,114,46.34,46.34,0,0,0,93,114a44.09,44.09,0,0,0,9.47-1.89c1-.29,2.13-.48,3-.81,2.17-.86,3.87-2.57,5.41-3.88a8.23,8.23,0,0,1,.18-1.71,38,38,0,0,1-6.49,3.87c-.29.14-2.08.85-2-.09,0-.54.89-.41,1.44-.63a23.9,23.9,0,0,0,7.12-4.68V103c-1.94,2.22-5.63,3.16-8.74,4.5-.57.25-1.4,1-2,.36.11-.79,1.06-.92,1.63-1.17,3.4-1.48,7.23-2.38,9.1-5.23,0-.59,0-1.48,0-1.8-2.47,1.51-5.41,4-9,4.69-.22,0-1.79.34-1.72-.45.06-.63.87-.32,1.63-.45a16.78,16.78,0,0,0,2.34-.81,16,16,0,0,0,3.52-2.08,25,25,0,0,0,3.24-2.16c0-.63.1-1.43-.18-1.8a21.68,21.68,0,0,1-7.48,4.41c-.31.13-2.72,1.4-2.89.45-.1-.57,2.21-1.17,2.89-1.44a19.87,19.87,0,0,0,5.41-2.88c1-.81,2.75-1.63,2-3.16a18.53,18.53,0,0,1-6.94,3.61c-.78.2-2.08.84-2.7-.09.76-.74,1.86-.57,2.79-.81a19.77,19.77,0,0,0,6.94-4,11.44,11.44,0,0,1-.09-2.07c-1.84,1.07-3.79,2.63-6.22,3.24-.65.17-2,.81-2.34-.18.62-.62,1.58-.61,2.34-.81,2.54-.66,4.35-2.21,6.13-3.51-.27-2.79-.44-5.69-.54-8.66C105.56,86,99.93,90.33,96.15,96.5Zm-45-10.91c7.23,0,12.34,2.51,18.48,3.61,3,.54,5.74,1.44,8.56,2.07,5.45,1.21,10.15,2.49,15.5,3.69-.17-.63-.24-1.38-.36-2.07-5.06-1-9.88-1.62-14.69-2.43A42,42,0,0,1,74.16,89c-1.79-.52-3.69-.42-5.5-.82S65,86.58,63.16,86c-4.1-1.19-8.8-2-12.71-3.15A13.81,13.81,0,0,0,51.17,85.59ZM127.33,88a3.22,3.22,0,0,0-.36-1.44,1.48,1.48,0,0,1-1.26-.09A2.06,2.06,0,0,0,127.33,88ZM127,90.46c0-.27.21-.28.18-.54h-.27C126.93,90.08,126.77,90.45,127,90.46Zm2,13.25a8.52,8.52,0,0,0-1-5.23C127.56,100.37,127.72,102.9,129,103.71Z"/></svg>