<svg id="s" xmlns="http://www.w3.org/2000/svg" viewBox="0 0 175 175"><defs><style>.cls-1{fill:#1371b6;fill-rule:evenodd;}</style></defs><title>3642 [Converted]</title><path class="cls-1" d="M78,48.36c2.29-.2,5.39-.07,8-.08a56.44,56.44,0,0,1,7.58.46,20.28,20.28,0,0,1,3.53.54A30,30,0,0,1,100,50.43c.87.38,1.66,1,2.53,1.53,3,1.73,4.29,4.74,5.28,8.73a27.93,27.93,0,0,1,.92,6.74c0,5.08.46,10,.46,14.87,0,2.49.15,4.76.39,7.28.43,4.61.32,9.62.84,14.48a35.24,35.24,0,0,1,.3,3.52c0,2.49.4,4.27-.53,6.13a5.35,5.35,0,0,1-1.38,1.84c-1.39.84-3.68.69-5.59,1-1.07.17-2,.18-2.91.38a31.51,31.51,0,0,1-5.83.69c-1,0-2,.28-2.91.3-2.23.07-4.4,0-6.2,0-2.1,0-4.18.31-6.29.31a54.23,54.23,0,0,1-6.13-.38c-3.77-.43-7.43-1.24-9.73-3.3-2.86-2.56-4.06-7.12-4.52-12.41-.21-2.54-.44-5.24-.61-7.89-.37-5.79.17-11.33-.38-16.55-.26-2.43-.82-4.76-1.23-7.2a42.56,42.56,0,0,1-1-7.43c0-2.89-.07-5.31.76-7.66,1.62-4.57,6.32-4.94,11.49-6A92.83,92.83,0,0,1,78,48.36Zm10.19,68.26a49.73,49.73,0,0,0,5.28-.46c.63,0,1.24,0,1.84,0,2.75-.24,5.37-1,8-1.22a18.48,18.48,0,0,0,4.44-.62c1.44-1.41,1.65-3.13,1.46-5.51-.06-.81.07-1.73,0-2.61-.09-1.06-.37-2.1-.46-3.14-.27-3.27-.23-5.94-.46-8.73-.34-4.13-.45-8.87-.77-13.56s0-9.57-.3-13.79a33,33,0,0,0-1.46-7.36c-.6-1.86-1.13-3.87-2.14-5A15.11,15.11,0,0,0,101,52.8c-.41-.27-.85-.67-1.31-.92-2.81-1.55-6.52-1.84-10.49-2.14a12.86,12.86,0,0,0-2.15,0c-2.34.24-5.57-.24-8.35,0-1.32.11-2.77.2-4.21.3-2.9.21-5.75.82-8.51,1.23a21.74,21.74,0,0,0-5.67,1.53c-3.15,1.5-3.77,6.69-3.37,11.65.17,2.12.76,4.31,1.15,6.51a62.12,62.12,0,0,1,1.15,6.51c.41,5.76,0,11.49.46,17.16.21,2.75.43,5.13.61,7.59.21,2.78.4,5.27,1.31,7.28.3.67.79,1.36,1.14,2a3.84,3.84,0,0,0,1.38,1.61c.43-1.06-1.27-.8-.84-1.84.55-.3.76.34,1.15.46.15-.26.18-.64.69-.54.26.7-.16,1.43.77,1.61.35-.54.32-1.46,1.22-1.46.44.71-.5,1.2-.53,1.92.31,0,.3.41.68.38.25-.68.64-1.43.92-2.22s.32-1.81,1.23-1.91c.19,1.23-.78,2.52-1.23,3.83-.24.72-.18,1.49-.69,1.84.54,0,1.07.51,1.54.38-.22,0-.14-.32-.16-.54a35.34,35.34,0,0,0,1.54-3.68c.32-.71.78-1.93,1.6-2.14.4.56-.22,1.13-.45,1.61s-.47,1.14-.69,1.69a12.69,12.69,0,0,1-1.61,3.21,18.44,18.44,0,0,0,1.91.38c.16-2,1.39-3.76,2.07-5.43.18-.44.2-1.26.84-1.31.51,1-.29,2-.69,2.76a26.7,26.7,0,0,0-1.6,4.14c.41,0,.62.14,1.07.08.56-1.67,1.49-3.28,2.14-4.75.22-.49.25-1.33.92-1.46.59.41,0,1.09-.15,1.53-.72,1.62-1.49,3.27-2.15,4.75a6.43,6.43,0,0,0,1.31.16,20.88,20.88,0,0,1,2.22-5.14c.24-.46.44-1.3,1.15-1.3.34.54-.16,1.18-.39,1.61a23.62,23.62,0,0,0-2.22,4.83c.51.12,1.14.13,1.69.22-.31-.84.16-1.39.53-2.22.22-.46.35-1,.54-1.38.41-.85.93-2,1.69-2.14.24,1-.68,1.86-1.08,2.76a18.75,18.75,0,0,0-1.15,3C81.4,116.57,84.79,116.53,88.23,116.62Zm-23.75-3a6.51,6.51,0,0,0,2.6,1.31c0-.18-.12-.29-.07-.54a7.57,7.57,0,0,1-2.15-1.3C64.83,113.37,64.61,113.46,64.48,113.63Z"/><path class="cls-1" d="M58.88,59c-.84-.3-.82-1.74-.61-2.45.36-1.18,1.88-3,2.68-3.14.39-.09.75,0,.77.3s-.6.53-.92.77A5.12,5.12,0,0,0,59,56.79C58.85,57.75,59.46,58.3,58.88,59Z"/><path class="cls-1" d="M103.32,65.83c.17.14.21-.5.69-.31a12.85,12.85,0,0,1,.46,3.06A1,1,0,0,1,104,69c.22.75.31,1.63.46,2.45.15.16.61,0,.61.31.35,2.1.66,4.51.84,7,.1,1.24-.09,2.47,0,3.68.06.72.42,1.6.08,2.29-.86.07-.83-1.51-.92-2.52-.19-2.33.08-4.9-.3-6.9a58.05,58.05,0,0,0,.53,9.42c.07.81-.06,1.64,0,2.46.33,4.29.71,8.59,1.07,12.64.22,2.39.27,4.85-1.3,6,.06.23.23.34.16.69a7.72,7.72,0,0,0-.69,1.61c-.17.5-.2,1.31-.85,1.38-.56-.92.38-2.13.62-3-.94.42-1.2,2-1.61,3.22-.14.41-.23,1.06-.62,1-.71-.12,0-1.5.08-1.84a9.68,9.68,0,0,1,.69-1.84c-1.07.26-1.28,1.58-1.69,2.53-.2.48-.37,1-.53,1.53s-.16,1.24-.77,1.3c-.55-.84.08-1.79.39-2.53s.68-1.61.91-2.37a7.61,7.61,0,0,0-2.83.23c-.3.85-1.17,1.79-1.46,2.76-.12.42,0,1.49-.46,1.6-.87.22-.31-1.8-.15-2.22.32-.79.86-1.28,1.07-2-.4.13-.9.17-1.3.31,0,.39.06,1.34-.53,1.22s-.25-.61-.16-1.15a52.15,52.15,0,0,1-12.41.85c-1.27-.11-2.5-.36-3.75-.46s-2.44.09-3.68,0c-2.36-.18-5.68-.61-7.28-1.54-1.83-1.05-2.13-3.91-2.37-6.66a45.46,45.46,0,0,0-1.46-7.66c-.27-1-.73-2-.92-3-.71-3.92-1.25-8-1.61-12.49-.22-2.79.11-5.67-.15-8.58a8.7,8.7,0,0,1,0-1.84c.19-2-.79-4-.46-6.36.45-3.16,4.41-4.76,7.66-5.59a21.31,21.31,0,0,1,3.22-.46c5.47-.46,11.76-.31,17.93-.31,2.86,0,5.16-.22,6.89.85a10.23,10.23,0,0,1,4.21,4.44c.18.37.23.84.39,1.23s.37.59.46.84c.27.78.35,1.48.61,2.22S103,65.07,103.32,65.83Zm-30.57-10c-2.94.24-6.91,1.3-8.81,2.83-2.41,1.95-.4,5.84-.61,9.12a38.68,38.68,0,0,0,0,5.28c.09,1.28-.1,2.53,0,3.61.41,4.51.93,9,1.68,12.87.18.93.59,1.75.85,2.68s.46,2.16.76,3.22c.82,2.82.68,5.94,1.38,8.88.8-1,1.29-2.33,2.07-3.37.18,0,.29-.12.54-.07-.21-1.3-.44-2.59-.69-3.84.86-.71,2.51-.28,4-.38,1.32-.09,2.64-.47,3.29,0-.5,1.59-.06,3.49.16,5.13.38-.71.87-1.43,1.3-2.14s.71-1.65,1.61-1.84c.36.84-.54,1.48-.92,2.07-1.3,2-2.41,4.25-3.83,6,.37.49-.39.93-.15,1a20.39,20.39,0,0,0,3.9.15,1.79,1.79,0,0,1,.08-.69c.55-.77,1.18-1.74,1.76-2.68.48-.76,1-2.4,2.07-2.07a17.71,17.71,0,0,1-1.61,2.84A14.43,14.43,0,0,0,80,107.2,48.51,48.51,0,0,0,93.74,107c.63-2.54,1.58-4.76,2.38-7.13H94.51c-.69,1.9-2,4.08-2.6,5.83-.16.45,0,.92-.46.91-.78,0-.18-1.45-.08-1.68.74-1.77,1.61-3.46,2.3-5.06H91.6c-.62,1.64-1.22,3.65-1.76,5.29-.17.51-.22,1.4-.92,1.45-.47-.42,0-1.14.15-1.6.56-1.68,1.11-3.45,1.61-5.06-3,.09-5.84.39-8.81.54-.54.84-1.25,1.58-1.84,2.45a25.58,25.58,0,0,0-1.76,2.53c-.26.51-.1,1.38-.92,1.53-.42-.55,0-1.48.23-1.92.77-1.5,2.31-2.85,3.06-4.29-.23-.1-.54-.12-.46-.53a3.28,3.28,0,0,1,1.92-.62c2.71-.21,6-.35,8.89-.53.39-.14.2-.87.84-.77.42,0,0,.73.3.69h1.92c.49-.81.49-2.11,1.53-2.37.43.87-.53,1.58-.69,2.37h1.53c.36-.69.61-1.52.92-2.3s.45-1.78,1.23-2.07c.44.66-.1,1.54-.38,2.23s-.64,1.51-.92,2.14h1.91c.63-.7.48-2.18,1.61-2.37.39.83-.54,1.57-.69,2.37.49,0,1.12-.09,1.38.15a.65.65,0,0,1-.15.69c.91.4-.07,1.27-.38,2a14.75,14.75,0,0,0-.62,1.69c-.14.51.1,1-.53,1.15-.75-.59-.07-1.74.23-2.53.16-.42.35-.84.53-1.22s.5-.8.46-1.08H99.64c-.74,2.22-1.8,4.13-2.45,6.44,1.17-.49,3.18-.06,4.29-.46,1.74-.62,3-.86,3.45-2.61a7.81,7.81,0,0,0-.08-1.53c0-2.45-.37-4.68-.53-6.89-.08-1,.08-1.94,0-2.91-.12-1.4-.35-2.78-.46-4.22-.17-2.18-.08-4-.31-6-.3-2.55-.1-5.61-.31-8.2a42.22,42.22,0,0,0-2.07-9.27c-.18,0-.17.74-.76.53-.49-.59.27-1.13.3-1.76.06-.83-.51-1.49-.76-2.22-.7,1.45-1.47,3-2.07,4.6-.17.45-.15,1.3-.84,1.38-.54-.54,0-1.28.23-1.77a35.61,35.61,0,0,1,2.3-5.13,5.27,5.27,0,0,0-1.38-2,11.61,11.61,0,0,1-.85,2.37c1.6,0,.57,1.74-.61,1.38a20.83,20.83,0,0,0-.92,2.61c-.26.85-.36,2.18-1.15,2.45-.49-.34-.11-1,0-1.38.42-1.52.92-2.94,1.38-4.21-.68.11-1.23.35-1.91.46a35.59,35.59,0,0,0-1.92,4.82c-.12.46,0,1.53-.76,1.38-.38-.95.18-2.09.53-3.06s.76-2.09,1.15-3a7.9,7.9,0,0,0-2.07-.15,33.44,33.44,0,0,0-1.84,5c-.12.47-.1,1.51-.92,1.39-.09-2.23,1.23-4.34,1.84-6.36-2.19-.15-1.35,2.73-2.76,3.37-.72-.88.61-2,.69-3.07-2.35,0-5.22-.09-7.81-.3-.78-.07-1.59.09-2.3,0a6.38,6.38,0,0,0-2.14-.31c-.71.14-1.35,1.18-2.07.61.16-.78,1.28-1.22,1.91-1.38a6.27,6.27,0,0,1,2.3.23c2.46.31,5.53,0,7.89.31.28-.88.56-2.4,1.53-2.83.54.89-.62,1.94-.84,2.83h1.92c.75-1.7,1.12-3.78,1.91-5.44C84.37,55.58,78,55.42,72.75,55.87Zm18.46-.31a46.13,46.13,0,0,0-1.76,5.21,5.93,5.93,0,0,1,1.15-.08c.75-1.8,1.66-3.44,2.53-5.13Zm2.61.46a49.8,49.8,0,0,0-2.37,4.67c.82,0,1.3.24,2.14.16.67-1.58,1.13-3.37,1.84-4.91a3.31,3.31,0,0,0-1.76-.38A1.55,1.55,0,0,0,93.82,56Zm.69,4.6a13,13,0,0,1,2-.39c.5-.9.61-2.2,1.38-2.83-.63-.35-1.17-.77-1.76-1.15C95.52,57.65,95.1,59.22,94.51,60.62ZM70.84,97.54c.3,1.28.41,2.76.69,4.07.78-.39.81-1.54,1.76-1.77.62.91-.82,1.59-1.08,2.38H74c.62-1.62,2.28-2.58,2.14-4.83C74.26,97.34,72.76,97.65,70.84,97.54ZM97,99.84a69.74,69.74,0,0,0-2.3,6.9c.75,0,1.37-.22,2.07-.31-.29-1.35.43-2.55.92-3.75a28.66,28.66,0,0,0,1.15-2.84ZM74.9,102.22a5.38,5.38,0,0,1,1.61.15c-.16-.74,0-1.8-.31-2.37C75.78,100.75,75.3,101.45,74.9,102.22Zm-6.29,3.14c.21,0,.19.32.46.31.23-1.5,2.38-2.49,1.54-4.06A18.33,18.33,0,0,0,68.61,105.36Zm2.92-2.3A18.8,18.8,0,0,0,69.76,106a4.94,4.94,0,0,0,1.69.39c.7-1.06,1.3-2.23,2-3.3Zm2.83,0c-.68,1.18-1.45,2.28-2.07,3.52.79.09,1.51.24,2.3.31-.26-1.46,1.49-2.58,1.76-3.75A11.57,11.57,0,0,0,74.36,103.06Z"/><path class="cls-1" d="M71,60.16c.32,1.19,1.11,2.61.77,4a17,17,0,0,1-5.52.31c-.35-1.29-.94-2.73-1.15-3.91A12.25,12.25,0,0,1,67,60.08c.12-.11-.13-.58.15-.69.51-.08.62.25.84.46.91,0,1.85-.73,2.53-.46,1-1,2-2,3-3.06,1.24.4-.43,1.57-1,2.14A18.55,18.55,0,0,0,71,60.16Zm-2.38.46c.3.21.31.72.69.84.08-.48.44-.68.54-1.15C69.49,60.47,68.86,60.35,68.61,60.62Zm.69,2.22c-.78,0-.78-1.8-1.68-2.07-.43.18-1.08.15-1.53.31.06.75.61,1.67.69,2.68,1.44-.06,2.85-.16,4.29-.23A8.92,8.92,0,0,0,70.38,61C69.85,61.42,70,62.82,69.3,62.84Z"/><path class="cls-1" d="M103,61.69c-.71,0-.58-1-.84-1.76s-.83-1.29-.76-1.76a.48.48,0,0,1,.46-.46c.45,0,.77,1.52.91,1.91C103,60.3,103.54,61.17,103,61.69Z"/><path class="cls-1" d="M59.11,62.46c.35.31.66,1.67-.07,1.6C58.62,64,58.07,62.37,59.11,62.46Z"/><path class="cls-1" d="M103.63,64.6c-.77,0-.82-1.22-.23-1.22C103.84,63.37,104.15,64.34,103.63,64.6Z"/><path class="cls-1" d="M73.82,65.06c.18,1.62-1.84,2-2.06,3.22-.2,1.06.81,2.59.68,3.75-1.21.67-3.13.64-5,.69-.7-.73-.83-2.22-1-3.91-.06-.62-.1-1.22.23-1.53-.06-.27-.43-.23-.31-.69.3-.32.7-.15,1.15-.08,0,0-.23-.55.08-.68.74-.11.92.35,1.22.68,1.06.07,2.53-.27,2.76.62a16.51,16.51,0,0,0,1.76-2.22C73.61,64.87,73.66,65,73.82,65.06Zm-6,6.74a14.29,14.29,0,0,0,3.83-.23A21.26,21.26,0,0,0,71,69c-.33.42-.44,1-1,1-.85,0-1.06-2.13-1.61-2.68a3.51,3.51,0,0,1-1.15-.08A41.94,41.94,0,0,0,67.77,71.8ZM70.07,69c.2-.58,1-.86.69-1.68H69.3C69.58,67.9,69.75,68.55,70.07,69Z"/><path class="cls-1" d="M60.26,75.17c-.71.14-.59-.79-.69-1.38a23.13,23.13,0,0,1-.38-5.13.37.37,0,0,1,.23-.23c.72,0,.63,1.68.69,2.38,0,.51,0,1.1,0,1.68C60.2,73.58,60.79,74.73,60.26,75.17Z"/><path class="cls-1" d="M98,69.35c-.31.75-1.31.46-1.92.46a68.84,68.84,0,0,0-6.89,0c-.91.09-1.76.39-2.69.46a23.86,23.86,0,0,1-4.82.15c-.44,0-.84-.38-1.3-.46a8.43,8.43,0,0,0-2.07,0c-.7.09-1.5.8-2.07.16.22-.67,1.58-.92,2.37-1a7.91,7.91,0,0,1,1.46,0c.5,0,1,.38,1.46.46,2.61.42,5.69-.39,7.81-.61s4.59,0,6.82,0C96.74,69,97.6,68.74,98,69.35Z"/><path class="cls-1" d="M76.2,73.56c-.41,1.13-2.16,1.84-2.45,3.15-.25,1.1.73,2.22.15,3.52-1.65.42-3.71.43-5.36.84-.37-.38-.17-.92-.23-1.38-.22-1.54-.93-3-1-4.36a16.85,16.85,0,0,1,2.76-.08c.08-.79-1-.81-.54-1.53.92-.23,1.19.78,1.38,1.53.87.07,2.06-.16,2.68.15C74.35,74.8,75,73,76.2,73.56Zm-7,6.67a10.7,10.7,0,0,1,3.9-.54,2.44,2.44,0,0,0-.23-1.91c-.36.44-.45,1.2-1.07,1.15-.83-.08-.87-2.14-1.3-2.84a13.14,13.14,0,0,0-2.3.08C68.67,77.42,68.89,78.88,69.23,80.23ZM72,77.78c.24-.63,1-.74.92-1.69H71.37A6.88,6.88,0,0,0,72,77.78Z"/><path class="cls-1" d="M95.66,77.47c.51,0,4.92-.38,5,.31s-1.54.46-2.15.46a87.21,87.21,0,0,0-9.57.46c-.72.08-1.54.39-2.38.46-2.59.2-5.51-.3-7.81-.16-.55,0-1.57.35-1.61-.23s1.15-.59,1.3-.61c2.75-.28,6,.35,8.43.15.67,0,1.57-.38,2.3-.46C91.2,77.66,93.41,77.69,95.66,77.47Z"/><path class="cls-1" d="M60.34,78.54c.9-.12.46,2.5.54,3.45.2,2.49.57,4.82.76,7.2.06.75.51,1.76-.23,2.23-.69-.19-.41-1-.46-1.54-.26-2.59-.68-5.26-.92-8a20.59,20.59,0,0,1,.08-3.15A.4.4,0,0,1,60.34,78.54Z"/><path class="cls-1" d="M74.59,82.83c0,1.49.8,2.53.54,4-.41.58-1.19.39-1.84.46-1.36.14-2.69.86-4,.69-.24-1.67-1.09-3.14-1-4.9C70.27,83,72.9,82.46,74.59,82.83Zm-5.44.92c0,1.39.69,2.12.77,3.45,1.5-.23,2.65-.82,4.44-.76.08-1.26-.54-1.81-.54-3C72.25,83.53,70.84,83.79,69.15,83.75Z"/><path class="cls-1" d="M98.72,83.6c.3,0,1.49-.31,1.46.38,0,.54-.93.34-1.38.39s-1,.29-1.38.3c-.62,0-1.19-.19-1.84-.15-.88,0-1.66.5-2.45.61-2.62.37-6.63-.35-9.42-.15-1.22.09-3.23.7-4.68.92.61-.09-1.24.45-1.3-.23,0-.32,0-.29.69-.46a5.52,5.52,0,0,1,1-.15c1.69-.3,3.79-1.08,6-.92a47.18,47.18,0,0,0,7.74.15,24.93,24.93,0,0,1,2.68-.61A23.08,23.08,0,0,0,98.72,83.6Z"/><path class="cls-1" d="M106.31,87.13c.12.63.89,4.08.15,4.13s-.67-2.89-.76-3.83C105.84,87.27,105.92,87,106.31,87.13Z"/><path class="cls-1" d="M75.43,89.27c-.19,1.81.9,3.58.46,5.36-1.81.28-4,.92-5.9.62,0-2.07-.94-3.7-.69-5.83A42.94,42.94,0,0,1,74.67,89,1,1,0,0,1,75.43,89.27Zm-.92.61a26.44,26.44,0,0,1-4.44.16c-.11,1.82.7,2.72.61,4.52,1.61-.08,2.95-.43,4.52-.54A28.6,28.6,0,0,0,74.51,89.88Z"/><path class="cls-1" d="M100,91.72c-.68.52-1.5.07-2.69.16-1,.07-2.07.25-3.14.38s-1.93.43-2.91.53c-2.83.31-5.87,0-8.5.16a11.52,11.52,0,0,0-2.22.23c-.45.13-.64.59-1.15.61-.67-1.68,2.28-1.58,3.75-1.68,2.46-.18,5.73.14,8.28-.16,2.19-.25,4.12-.76,6-.92C98.48,90.94,99.65,90.85,100,91.72Z"/><path class="cls-1" d="M106.92,94.48a9.88,9.88,0,0,1,.38,3.06c0,.28.35,1.2-.22,1.23-.77,0-.74-3.35-.7-4.06,0-.1.14-.12.16-.23Z"/><path class="cls-1" d="M61.18,95a.4.4,0,0,1,.23-.23c.78-.13.54,1.42.54,2.45s.17,2.4-.38,2.45C60.7,99.77,61.22,95.64,61.18,95Z"/><path class="cls-1" d="M107.38,101.22c.39.59.43,2.75-.3,2.61s-.15-1.53-.31-2.3C106.91,101.36,107,101.14,107.38,101.22Z"/><path class="cls-1" d="M63.1,111.11c-1-.37-1.41-2.57-1.53-4.07-.08-.84.06-1.69,0-2.45,0-.56-.31-1.15-.08-1.6a.39.39,0,0,1,.23-.24c.6-.17.64,1.31.69,1.92a34,34,0,0,0,.15,3.68C62.8,109.5,63.55,110.46,63.1,111.11Z"/><path class="cls-1" d="M84.55,104.13a7.2,7.2,0,0,1-.92,2.3h-.38C83,105.66,83.55,103.67,84.55,104.13Z"/><path class="cls-1" d="M106.92,105.36c-.16.79-.24,2.42-.92,2.38s.1-2,.38-2.53A.58.58,0,0,1,106.92,105.36Z"/><path class="cls-1" d="M100.33,108.12A14,14,0,0,1,99,110.8c-.22.49-.2,1.47-1,1.45-.2-1.62,1-3.11,1.77-4.29A.6.6,0,0,1,100.33,108.12Z"/><path class="cls-1" d="M81.64,111.18c-.26,1.33-.75,2.43-1.15,3.91-.11.39-.17,1.12-.54,1.15-.84.07-.07-2,.08-2.45a14.42,14.42,0,0,1,.92-2.53c0-.1.13-.12.15-.23A.59.59,0,0,1,81.64,111.18Z"/><path class="cls-1" d="M85,112.79v-.69c.61-.78,3-.24,4.6-.38.68-.06,2-.63,2.22.3.31,1.43-1.92,1.15-3.14,1.15C87.15,113.17,85.61,113.47,85,112.79Z"/><path class="cls-1" d="M82.71,112.87a6.62,6.62,0,0,1-.61,1.91c-.13.35-.32,1.78-.84,1.69-.94-.16.65-3.25.76-3.53,0-.1.14-.12.15-.23A.62.62,0,0,1,82.71,112.87Z"/><path class="cls-1" d="M83.17,115q.1.8-.69.69C82,115.29,82.73,114.52,83.17,115Z"/></svg>