<?xml version="1.0" encoding="utf-8"?>
<!-- Generator: Adobe Illustrator 23.0.6, SVG Export Plug-In . SVG Version: 6.00 Build 0)  -->
<svg version="1.1" id="s" xmlns="http://www.w3.org/2000/svg" xmlns:xlink="http://www.w3.org/1999/xlink" x="0px" y="0px"
	 viewBox="0 0 175 175" style="enable-background:new 0 0 175 175;" xml:space="preserve">
<style type="text/css">
	.st0{fill-rule:evenodd;clip-rule:evenodd;fill:#1371B6;}
</style>
<g>
	<path class="st0" d="M82.92,16.22c4.6-0.4,10.83-0.14,16.01-0.15c5.4-0.01,10.53,0.28,15.23,0.92c2.65,0.36,4.85,0.35,7.08,1.08
		c1.96,0.64,3.71,1.42,5.69,2.31c1.74,0.77,3.34,2.09,5.08,3.08c6.14,3.48,8.61,9.52,10.62,17.54c1.01,4.05,1.82,8.61,1.85,13.54
		c0.05,10.2,0.92,20.09,0.92,29.85c0,5,0.3,9.56,0.77,14.62c0.86,9.27,0.65,19.33,1.69,29.08c0.25,2.31,0.58,4.57,0.61,7.08
		c0.08,5,0.79,8.57-1.08,12.31c-0.65,1.31-1.88,3.16-2.77,3.69c-2.79,1.68-7.39,1.39-11.23,2c-2.14,0.34-4.09,0.37-5.85,0.77
		c-3.53,0.8-7.2,1.22-11.69,1.38c-2.02,0.07-3.96,0.56-5.85,0.62c-4.47,0.12-8.85,0-12.46,0c-4.2,0-8.38,0.62-12.62,0.62
		c-4.17,0-8.24-0.3-12.31-0.77c-7.58-0.87-14.93-2.49-19.54-6.61c-5.76-5.16-8.17-14.3-9.08-24.93c-0.44-5.11-0.89-10.54-1.23-15.85
		c-0.74-11.62,0.33-22.77-0.77-33.24c-0.51-4.88-1.64-9.57-2.46-14.46c-0.82-4.88-2-9.52-2-14.93c0-5.8-0.13-10.66,1.54-15.39
		c3.24-9.17,12.69-9.91,23.08-12C68.84,17.03,75.62,16.85,82.92,16.22z M103.39,153.33c3.47,0.09,7.12-0.64,10.62-0.92
		c1.25-0.1,2.49,0.1,3.69,0c5.52-0.49,10.77-2.01,16-2.46c3.68-0.32,6.18-0.32,8.92-1.23c2.88-2.85,3.31-6.29,2.92-11.08
		c-0.13-1.63,0.15-3.47,0-5.23c-0.18-2.13-0.75-4.21-0.92-6.31c-0.55-6.57-0.45-11.93-0.92-17.54c-0.69-8.29-0.91-17.81-1.54-27.24
		c-0.63-9.45,0.07-19.22-0.62-27.7c-0.44-5.41-1.61-10.75-2.92-14.77c-1.22-3.73-2.27-7.77-4.31-10c-1.45-1.58-3.55-2.44-5.38-3.69
		c-0.8-0.55-1.7-1.35-2.62-1.85c-5.65-3.11-13.09-3.7-21.08-4.31c-1.36-0.1-2.94-0.14-4.31,0c-4.7,0.49-11.19-0.47-16.77,0
		c-2.66,0.23-5.56,0.41-8.46,0.62c-5.81,0.42-11.54,1.64-17.08,2.46c-4.33,0.64-8.54,1.73-11.39,3.08c-6.34,3-7.58,13.43-6.77,23.39
		c0.35,4.27,1.53,8.65,2.31,13.08c0.75,4.24,1.98,8.51,2.31,13.08c0.83,11.56,0.06,23.08,0.92,34.47c0.42,5.52,0.86,10.3,1.23,15.23
		c0.42,5.59,0.8,10.6,2.62,14.62c0.61,1.35,1.6,2.73,2.31,4c0.71,1.26,1.54,2.61,2.77,3.23c0.85-2.12-2.56-1.6-1.69-3.69
		c1.11-0.6,1.53,0.69,2.31,0.92c0.3-0.52,0.37-1.27,1.38-1.07c0.51,1.4-0.31,2.87,1.54,3.23c0.71-1.09,0.65-2.94,2.46-2.93
		c0.88,1.41-1.01,2.4-1.08,3.85c0.63,0.09,0.61,0.82,1.38,0.77c0.49-1.38,1.28-2.88,1.85-4.46c0.5-1.41,0.64-3.64,2.46-3.85
		c0.38,2.48-1.58,5.08-2.46,7.69c-0.49,1.46-0.37,2.99-1.38,3.7c1.08,0.1,2.14,1.04,3.08,0.77c-0.44-0.02-0.28-0.64-0.31-1.07
		c1.31-2.14,1.97-4.96,3.08-7.39c0.65-1.43,1.57-3.89,3.23-4.31c0.79,1.13-0.44,2.26-0.92,3.23c-0.52,1.06-0.94,2.29-1.38,3.39
		c-0.92,2.28-1.82,4.75-3.23,6.46c1.18,0.36,2.57,0.51,3.85,0.77c0.32-3.96,2.79-7.56,4.15-10.93c0.36-0.88,0.4-2.53,1.69-2.62
		c1.02,1.94-0.58,3.91-1.38,5.54c-1.3,2.65-2.35,5.38-3.23,8.31c0.84-0.07,1.26,0.27,2.15,0.15c1.14-3.35,2.99-6.57,4.31-9.54
		c0.43-0.97,0.49-2.66,1.85-2.92c1.18,0.83,0.08,2.19-0.31,3.08c-1.44,3.26-2.99,6.56-4.31,9.54c0.76,0.21,1.68,0.27,2.62,0.31
		c0.89-3.88,2.84-7.24,4.46-10.31c0.49-0.93,0.88-2.62,2.31-2.62c0.68,1.09-0.31,2.38-0.77,3.23c-1.66,3.1-3.48,6.12-4.46,9.7
		c1.02,0.26,2.29,0.27,3.39,0.46c-0.61-1.69,0.33-2.81,1.08-4.46c0.42-0.93,0.69-1.97,1.08-2.77c0.82-1.72,1.87-3.95,3.39-4.31
		c0.49,2.07-1.36,3.73-2.16,5.54c-0.87,1.96-1.77,3.86-2.31,6C89.67,153.23,96.48,153.15,103.39,153.33z M55.68,147.33
		c1.43,1.19,3.16,2.07,5.23,2.62c-0.05-0.36-0.24-0.58-0.15-1.08c-1.75-0.56-2.98-1.64-4.31-2.62
		C56.39,146.81,55.96,146.99,55.68,147.33z"/>
	<path class="st0" d="M44.45,37.61c-1.7-0.6-1.66-3.5-1.23-4.92c0.71-2.36,3.77-5.94,5.39-6.31c0.77-0.18,1.49-0.02,1.54,0.62
		c0.05,0.73-1.21,1.06-1.85,1.54c-1.09,0.81-3.21,2.97-3.54,4.62C44.37,35.08,45.61,36.2,44.45,37.61z"/>
	<path class="st0" d="M133.7,51.31c0.34,0.28,0.43-1.01,1.38-0.62c0.79,1.57,0.55,4.16,0.92,6.16c-0.21,0.36-0.55,0.58-0.92,0.77
		c0.44,1.51,0.62,3.28,0.92,4.92c0.29,0.32,1.23,0,1.23,0.62c0.69,4.22,1.31,9.07,1.69,14c0.19,2.5-0.19,4.97,0,7.39
		c0.12,1.46,0.84,3.22,0.15,4.61c-1.72,0.14-1.68-3.03-1.84-5.08c-0.38-4.66,0.15-9.83-0.62-13.85c-0.47,6.15,0.51,12.52,1.08,18.92
		c0.14,1.63-0.13,3.29,0,4.93c0.65,8.63,1.42,17.27,2.15,25.39c0.43,4.81,0.54,9.75-2.61,12c0.11,0.45,0.46,0.67,0.31,1.38
		c-0.55,0.89-0.98,2.03-1.39,3.23c-0.34,1-0.4,2.64-1.69,2.77c-1.14-1.84,0.75-4.27,1.23-6c-1.88,0.83-2.41,4.04-3.23,6.46
		c-0.28,0.82-0.45,2.13-1.23,2c-1.43-0.23-0.08-3.01,0.15-3.69c0.54-1.6,0.76-2.64,1.39-3.7c-2.15,0.53-2.56,3.17-3.39,5.08
		c-0.42,0.97-0.76,2.09-1.08,3.08c-0.29,0.89-0.32,2.5-1.54,2.62c-1.12-1.69,0.16-3.6,0.77-5.08c0.65-1.6,1.37-3.24,1.85-4.77
		c-1.97-0.54-3.9,0.31-5.69,0.46c-0.6,1.71-2.34,3.6-2.92,5.54c-0.26,0.86,0.01,3-0.92,3.23c-1.76,0.43-0.64-3.63-0.31-4.46
		c0.64-1.6,1.71-2.58,2.15-4c-0.81,0.27-1.82,0.34-2.62,0.62c0.09,0.8,0.12,2.69-1.08,2.46c-0.99-0.19-0.5-1.24-0.31-2.31
		c-7.32,1.14-15.79,2.42-24.93,1.69c-2.56-0.21-5.02-0.72-7.54-0.93c-2.42-0.2-4.9,0.19-7.39,0c-4.75-0.36-11.4-1.22-14.62-3.08
		c-3.67-2.12-4.28-7.86-4.77-13.38c-0.48-5.51-1.67-10.66-2.92-15.39c-0.55-2.09-1.47-3.91-1.85-6c-1.44-7.88-2.51-16.14-3.23-25.09
		C50,68.64,50.68,62.84,50.14,57c-0.12-1.33-0.14-2.26,0-3.69c0.39-4.02-1.58-8.15-0.92-12.77c0.91-6.35,8.87-9.56,15.39-11.24
		c2.15-0.55,4.63-0.77,6.46-0.92c10.99-0.93,23.63-0.62,36.01-0.62c5.76,0,10.36-0.44,13.85,1.69c3.58,2.19,6.49,4.79,8.46,8.92
		c0.36,0.75,0.46,1.68,0.77,2.46c0.24,0.62,0.74,1.18,0.92,1.69c0.55,1.57,0.7,2.97,1.23,4.46
		C132.81,48.39,133.05,49.79,133.7,51.31z M72.3,31.3c-5.9,0.5-13.87,2.61-17.7,5.7c-4.84,3.9-0.8,11.72-1.23,18.31
		c-0.2,3.04-0.28,6.91,0,10.62c0.19,2.57-0.2,5.08,0,7.23c0.84,9.06,1.88,17.97,3.38,25.85c0.36,1.87,1.18,3.51,1.69,5.39
		c0.58,2.11,0.93,4.35,1.54,6.46c1.64,5.68,1.37,11.95,2.77,17.85c1.61-2.04,2.6-4.69,4.15-6.77c0.36-0.05,0.58-0.25,1.08-0.16
		c-0.41-2.61-0.87-5.18-1.38-7.69c1.73-1.44,5.04-0.57,8-0.77c2.64-0.18,5.3-0.95,6.62,0c-1.02,3.19-0.14,7.01,0.31,10.31
		c0.76-1.44,1.74-2.89,2.61-4.31c0.83-1.35,1.43-3.31,3.23-3.7c0.72,1.68-1.09,2.97-1.85,4.15c-2.61,4.11-4.83,8.53-7.69,12.16
		c0.74,0.98-0.78,1.87-0.31,2c2.12,0.6,5.25,0.19,7.85,0.31c-0.05-0.56,0.02-1,0.15-1.38c1.1-1.55,2.36-3.5,3.54-5.39
		c0.95-1.53,2.04-4.83,4.15-4.15c-0.78,2.03-2.1,3.84-3.23,5.69c-1.12,1.83-2.6,3.48-3.23,5.39c8.69,1.33,19.43,0.86,27.7-0.46
		c1.26-5.1,3.16-9.56,4.77-14.31c-1.08,0-2.15,0-3.23,0c-1.38,3.82-4.07,8.19-5.23,11.69c-0.3,0.91,0.05,1.87-0.92,1.85
		c-1.55-0.03-0.35-2.93-0.15-3.39c1.49-3.56,3.23-6.95,4.62-10.16c-1.38,0-2.77,0-4.15,0c-1.24,3.29-2.44,7.32-3.54,10.62
		c-0.34,1.02-0.43,2.81-1.85,2.92c-0.93-0.86,0-2.3,0.31-3.23c1.13-3.37,2.23-6.93,3.23-10.16c-6.07,0.19-11.74,0.78-17.7,1.08
		c-1.08,1.69-2.5,3.19-3.69,4.92c-1.14,1.66-2.66,3.35-3.54,5.08c-0.52,1.03-0.2,2.78-1.85,3.08c-0.85-1.11,0.02-2.97,0.46-3.84
		c1.54-3.03,4.65-5.74,6.16-8.62c-0.46-0.2-1.09-0.25-0.92-1.08c0.97-0.86,2.4-1.12,3.85-1.23c5.45-0.42,12.09-0.72,17.85-1.08
		c0.8-0.28,0.42-1.74,1.69-1.54c0.86-0.02,0.06,1.47,0.62,1.38c1.28,0,2.56,0,3.85,0c0.98-1.63,0.99-4.24,3.08-4.77
		c0.85,1.75-1.07,3.18-1.38,4.77c1.03,0,2.05,0,3.08,0c0.71-1.38,1.22-3.05,1.85-4.62c0.61-1.51,0.9-3.59,2.46-4.15
		c0.89,1.31-0.21,3.08-0.77,4.46c-0.6,1.47-1.28,3.04-1.85,4.31c1.28,0,2.56,0,3.85,0c1.25-1.42,0.96-4.37,3.23-4.77
		c0.77,1.67-1.09,3.15-1.38,4.77c0.97,0.05,2.24-0.18,2.77,0.31c0.17,0.63,0.03,0.94-0.31,1.38c1.83,0.8-0.14,2.54-0.77,4
		c-0.45,1.04-0.97,2.47-1.23,3.39c-0.29,1.02,0.2,2.06-1.08,2.31c-1.49-1.19-0.13-3.49,0.46-5.08c0.32-0.86,0.71-1.7,1.08-2.46
		c0.4-0.83,1-1.6,0.92-2.15c-0.92,0-1.85,0-2.77,0c-1.5,4.45-3.62,8.28-4.92,12.93c2.35-0.98,6.37-0.12,8.62-0.92
		c3.49-1.25,6.05-1.73,6.92-5.23c0.21-0.81-0.13-1.88-0.15-3.08c-0.09-4.92-0.74-9.4-1.08-13.85c-0.15-1.93,0.16-3.89,0-5.84
		c-0.24-2.81-0.7-5.57-0.92-8.47c-0.33-4.39-0.16-8.14-0.62-12c-0.6-5.12-0.19-11.25-0.61-16.47c-0.57-7.07-2.52-13.25-4.16-18.62
		c-0.36-0.1-0.36,1.49-1.54,1.08c-0.97-1.19,0.54-2.28,0.61-3.54c0.11-1.67-1.03-3-1.54-4.46c-1.4,2.9-2.95,6.09-4.15,9.23
		c-0.35,0.91-0.31,2.61-1.69,2.77c-1.08-1.07,0.09-2.55,0.46-3.54c1.39-3.65,2.85-7.27,4.62-10.31c-0.8-1.46-1.41-3.1-2.77-4
		c-0.35,1.81-1.06,3.25-1.69,4.77c3.2-0.08,1.13,3.49-1.23,2.77c-0.72,1.52-1.27,3.37-1.85,5.23c-0.53,1.71-0.73,4.38-2.31,4.92
		c-0.99-0.68-0.23-1.93,0-2.77c0.83-3.04,1.84-5.9,2.77-8.46c-1.36,0.22-2.48,0.7-3.85,0.92c-1.2,2.7-3.01,6.54-3.85,9.69
		c-0.24,0.91,0,3.08-1.54,2.77c-0.76-1.9,0.37-4.21,1.08-6.15c0.75-2.05,1.53-4.19,2.31-6c-1.21-0.28-2.61-0.36-4.15-0.31
		c-1.34,2.95-2.78,6.57-3.69,10c-0.25,0.93-0.22,3.03-1.85,2.77c-0.19-4.47,2.46-8.71,3.69-12.77c-4.4-0.29-2.72,5.49-5.54,6.77
		c-1.45-1.76,1.21-4.04,1.38-6.15c-4.72-0.06-10.48-0.18-15.69-0.62c-1.56-0.13-3.2,0.2-4.62,0c-1.61-0.22-2.85-0.91-4.31-0.62
		c-1.41,0.28-2.7,2.37-4.15,1.23c0.33-1.57,2.57-2.46,3.85-2.77c1.63-0.4,2.94,0.25,4.62,0.46c4.93,0.61,11.11-0.04,15.85,0.62
		c0.56-1.77,1.12-4.82,3.08-5.7c1.08,1.79-1.25,3.92-1.69,5.7c1.28,0,2.57,0,3.85,0c1.51-3.42,2.25-7.6,3.85-10.93
		C95.63,30.72,82.89,30.41,72.3,31.3z M109.39,30.69c-1.4,3.26-2.49,6.84-3.54,10.47c0.73-0.09,1.42-0.22,2.31-0.16
		c1.51-3.62,3.34-6.92,5.08-10.31C111.95,30.69,110.67,30.69,109.39,30.69z M114.62,31.61c-1.78,2.94-3.27,6.17-4.77,9.38
		c1.65-0.11,2.61,0.47,4.31,0.31c1.35-3.17,2.27-6.76,3.69-9.85c-0.98-0.46-2-0.87-3.54-0.77C114.36,31.05,114.5,31.32,114.62,31.61
		z M116,40.84c1.3-0.29,2.52-0.66,4-0.77c1-1.82,1.22-4.42,2.77-5.69c-1.26-0.69-2.35-1.55-3.54-2.31
		C118.04,34.88,117.19,38.03,116,40.84z M68.45,115.01c0.62,2.57,0.83,5.53,1.38,8.16c1.58-0.78,1.64-3.08,3.54-3.54
		c1.25,1.82-1.65,3.2-2.15,4.77c1.18,0,2.36,0,3.54,0c1.24-3.24,4.59-5.17,4.31-9.69C75.33,114.61,72.31,115.23,68.45,115.01z
		 M120.93,119.63c-1.55,4.61-3.47,8.84-4.62,13.85c1.5-0.09,2.74-0.44,4.16-0.62c-0.58-2.71,0.86-5.13,1.85-7.54
		c0.8-1.96,1.76-3.8,2.31-5.7C123.39,119.63,122.16,119.63,120.93,119.63z M76.61,124.4c1.27-0.09,2.25,0.11,3.23,0.31
		c-0.31-1.49,0.02-3.61-0.62-4.77C78.39,121.46,77.43,122.86,76.61,124.4z M63.99,130.71c0.42,0.09,0.38,0.64,0.92,0.61
		c0.46-3,4.77-4.99,3.08-8.15C66.53,125.55,64.96,127.83,63.99,130.71z M69.84,126.1c-1.3,1.83-2.54,3.71-3.54,5.85
		c1.09,0.29,1.95,0.82,3.38,0.77c1.42-2.13,2.61-4.47,4-6.62C72.4,126.1,71.12,126.1,69.84,126.1z M75.53,126.1
		c-1.37,2.37-2.9,4.58-4.15,7.08c1.57,0.17,3.02,0.47,4.62,0.62c-0.52-2.93,2.99-5.18,3.54-7.54
		C78.39,126.01,76.9,126.11,75.53,126.1z"/>
	<path class="st0" d="M68.76,39.92c0.65,2.4,2.24,5.24,1.54,8c-2.97,0.78-7.91,1.05-11.08,0.62c-0.71-2.6-1.89-5.47-2.31-7.85
		c1.12-0.47,2.57-0.62,3.85-0.92c0.24-0.22-0.25-1.16,0.31-1.39c1.03-0.15,1.25,0.5,1.69,0.93c1.82-0.01,3.72-1.48,5.08-0.93
		c2.01-2.04,3.99-4.12,6-6.15c2.5,0.8-0.86,3.17-2,4.31C70.45,37.93,69.45,39.02,68.76,39.92z M63.99,40.84
		c0.6,0.42,0.6,1.45,1.38,1.69c0.16-0.97,0.88-1.37,1.08-2.31C65.74,40.54,64.49,40.31,63.99,40.84z M65.38,45.31
		c-1.57,0.04-1.58-3.62-3.39-4.15c-0.87,0.36-2.17,0.29-3.08,0.62c0.13,1.52,1.24,3.37,1.38,5.39c2.91-0.12,5.74-0.32,8.62-0.46
		c-0.34-1.81-0.62-3.69-1.38-5.08C66.48,42.46,66.81,45.27,65.38,45.31z"/>
	<path class="st0" d="M133.08,43c-1.44,0.05-1.17-2.1-1.69-3.54c-0.54-1.49-1.66-2.58-1.54-3.54c0.07-0.56,0.51-0.96,0.92-0.92
		c0.91,0.08,1.55,3.06,1.85,3.84C133.14,40.22,134.14,41.95,133.08,43z"/>
	<path class="st0" d="M44.91,44.54c0.7,0.64,1.32,3.35-0.16,3.23C43.92,47.7,42.82,44.37,44.91,44.54z"/>
	<path class="st0" d="M134.31,48.85c-1.53-0.06-1.63-2.44-0.46-2.46C134.74,46.37,135.37,48.32,134.31,48.85z"/>
	<path class="st0" d="M74.45,49.77c0.36,3.26-3.7,3.99-4.15,6.46c-0.4,2.14,1.64,5.2,1.38,7.54c-2.45,1.35-6.3,1.29-10,1.38
		c-1.41-1.48-1.69-4.47-2-7.85c-0.12-1.24-0.21-2.46,0.46-3.08c-0.13-0.54-0.86-0.47-0.62-1.38c0.59-0.64,1.39-0.31,2.31-0.16
		c0.11-0.09-0.46-1.11,0.15-1.38c1.49-0.21,1.85,0.71,2.46,1.38c2.13,0.13,5.07-0.55,5.54,1.24c1.25-1.42,2.52-2.82,3.54-4.46
		C74.02,49.39,74.13,49.68,74.45,49.77z M62.3,63.31c2.56,0.42,5.33-0.2,7.69-0.46c-0.53-1.57-0.53-3.68-1.23-5.08
		c-0.65,0.84-0.88,2.05-2,2c-1.71-0.07-2.14-4.28-3.23-5.39c-0.8-0.02-1.74,0.1-2.31-0.15C61.25,57.52,62.02,60.77,62.3,63.31z
		 M66.91,57.77c0.39-1.17,1.95-1.73,1.39-3.39c-0.98,0-1.95,0-2.92,0C65.94,55.47,66.26,56.78,66.91,57.77z"/>
	<path class="st0" d="M47.22,70.08c-1.42,0.27-1.18-1.6-1.38-2.77c-0.45-2.61-1.08-7.35-0.77-10.31c0.09-0.22,0.24-0.38,0.46-0.46
		c1.44,0.09,1.26,3.38,1.38,4.77c0.1,1.03-0.09,2.22,0,3.39C47.09,66.88,48.29,69.18,47.22,70.08z"/>
	<path class="st0" d="M122.93,58.39c-0.62,1.5-2.63,0.92-3.85,0.92c-4.34,0-9.34-0.46-13.85,0c-1.83,0.19-3.54,0.78-5.39,0.93
		c-2.91,0.22-6.43,0.73-9.69,0.31c-0.89-0.11-1.68-0.76-2.62-0.92c-1.23-0.22-2.97-0.15-4.15,0c-1.4,0.18-3.01,1.61-4.16,0.31
		c0.44-1.34,3.17-1.85,4.77-2c0.91-0.08,1.99-0.1,2.92,0c1,0.11,1.9,0.76,2.92,0.93c5.25,0.84,11.43-0.79,15.7-1.23
		c4.27-0.44,9.23,0,13.69,0C120.49,57.62,122.22,57.16,122.93,58.39z"/>
	<path class="st0" d="M79.22,66.85c-0.81,2.26-4.34,3.68-4.92,6.31c-0.49,2.22,1.47,4.46,0.31,7.08c-3.32,0.84-7.45,0.86-10.77,1.69
		c-0.73-0.76-0.33-1.86-0.46-2.77c-0.45-3.1-1.86-6.04-2-8.77c1.18-0.42,3.67-0.02,5.54-0.15c0.17-1.58-2.03-1.63-1.08-3.08
		c1.84-0.47,2.39,1.58,2.77,3.08c1.75,0.15,4.12-0.33,5.39,0.31C75.51,69.32,76.87,65.72,79.22,66.85z M65.22,80.24
		c2.22-0.76,4.76-1.19,7.85-1.08c0.35-1.2,0.17-3.12-0.46-3.84c-0.73,0.89-0.92,2.42-2.15,2.31c-1.68-0.15-1.75-4.3-2.62-5.7
		c-1.49,0.1-3.38-0.2-4.62,0.15C64.1,74.59,64.56,77.52,65.22,80.24z M70.76,75.31c0.47-1.27,2.01-1.48,1.85-3.39
		c-1.03,0-2.05,0-3.08,0C69.96,73.04,70.08,74.46,70.76,75.31z"/>
	<path class="st0" d="M118.31,74.7c1.03-0.1,9.88-0.77,10,0.62c0.12,1.31-3.09,0.92-4.31,0.92c-6.83,0-13.29,0.27-19.24,0.93
		c-1.44,0.16-3.09,0.79-4.77,0.92c-5.21,0.4-11.07-0.59-15.7-0.31c-1.09,0.07-3.16,0.69-3.23-0.46c-0.06-0.97,2.31-1.2,2.62-1.23
		c5.52-0.57,12.06,0.7,16.93,0.31c1.36-0.11,3.16-0.78,4.62-0.92C109.36,75.07,113.8,75.13,118.31,74.7z"/>
	<path class="st0" d="M47.37,76.85c1.8-0.26,0.92,5.01,1.08,6.92c0.4,5.01,1.16,9.67,1.54,14.47c0.12,1.5,1.02,3.53-0.46,4.46
		c-1.39-0.38-0.82-2.05-0.92-3.08c-0.52-5.21-1.37-10.56-1.85-16.01c-0.18-2.04,0.01-4.34,0.15-6.31
		C47,77.09,47.15,76.94,47.37,76.85z"/>
	<path class="st0" d="M75.99,85.47c-0.06,2.99,1.6,5.07,1.08,8c-0.82,1.17-2.38,0.78-3.69,0.92c-2.72,0.28-5.4,1.73-8,1.38
		c-0.5-3.35-2.2-6.31-2-9.85C67.32,85.74,72.6,84.71,75.99,85.47z M65.07,87.32c0.05,2.77,1.39,4.25,1.54,6.92
		c3.01-0.47,5.32-1.65,8.92-1.54c0.15-2.51-1.08-3.64-1.08-6C71.29,86.87,68.47,87.38,65.07,87.32z"/>
	<path class="st0" d="M124.47,87.01c0.6-0.09,2.99-0.63,2.92,0.77c-0.05,1.09-1.87,0.67-2.77,0.77c-0.95,0.11-1.96,0.6-2.77,0.62
		c-1.24,0.04-2.39-0.38-3.69-0.31c-1.77,0.1-3.34,1.01-4.92,1.23c-5.27,0.74-13.32-0.71-18.93-0.31c-2.44,0.18-6.48,1.42-9.39,1.85
		c1.23-0.18-2.49,0.9-2.61-0.46c-0.06-0.65,0.03-0.58,1.38-0.92c1.42-0.36,0.81-0.1,2-0.31c3.4-0.6,7.62-2.17,12-1.85
		c4.69,0.35,11.48,0.83,15.54,0.31c1.73-0.22,3.54-1.19,5.39-1.23C120.82,87.11,122.43,87.3,124.47,87.01z"/>
	<path class="st0" d="M139.7,94.09c0.24,1.27,1.79,8.2,0.31,8.31c-1.5,0.11-1.35-5.81-1.54-7.69
		C138.75,94.37,138.92,93.92,139.7,94.09z"/>
	<path class="st0" d="M77.69,98.4c-0.39,3.64,1.8,7.18,0.92,10.77c-3.64,0.56-8.06,1.83-11.85,1.23c-0.12-4.15-1.88-7.43-1.38-11.69
		c2.75-0.41,7.59-0.79,10.77-0.77C76.71,97.94,77.3,98,77.69,98.4z M75.84,99.63c-2.44,0.64-6,0.16-8.93,0.31
		c-0.22,3.66,1.41,5.46,1.23,9.08c3.24-0.15,5.91-0.86,9.08-1.08C77.1,104.83,76.31,102.39,75.84,99.63z"/>
	<path class="st0" d="M127.08,103.32c-1.36,1.05-3.01,0.14-5.39,0.31c-2,0.14-4.17,0.51-6.31,0.77c-1.99,0.24-3.88,0.86-5.85,1.07
		c-5.7,0.62-11.8-0.07-17.08,0.31c-1.37,0.1-3.16,0.08-4.46,0.46c-0.9,0.26-1.28,1.18-2.31,1.23c-1.34-3.37,4.59-3.17,7.54-3.38
		c4.93-0.36,11.51,0.28,16.62-0.31c4.41-0.51,8.29-1.53,12-1.85C123.97,101.75,126.33,101.57,127.08,103.32z"/>
	<path class="st0" d="M140.93,108.86c0.7,1.28,0.63,4.15,0.77,6.15c0.04,0.55,0.7,2.4-0.46,2.46c-1.53,0.08-1.47-6.74-1.39-8.16
		c0.05-0.2,0.27-0.24,0.31-0.46C140.42,108.86,140.68,108.86,140.93,108.86z"/>
	<path class="st0" d="M49.06,109.94c0.09-0.22,0.24-0.38,0.46-0.46c1.56-0.26,1.08,2.86,1.08,4.93c0,2,0.35,4.82-0.77,4.92
		C48.1,119.48,49.13,111.2,49.06,109.94z"/>
	<path class="st0" d="M141.86,122.4c0.77,1.17,0.87,5.52-0.61,5.23c-1.3-0.25-0.3-3.07-0.62-4.62
		C140.91,122.69,141.08,122.24,141.86,122.4z"/>
	<path class="st0" d="M52.91,142.25c-1.93-0.73-2.82-5.15-3.08-8.16c-0.14-1.69,0.12-3.4,0-4.92c-0.09-1.12-0.62-2.31-0.15-3.23
		c0.08-0.22,0.24-0.38,0.46-0.46c1.21-0.34,1.28,2.61,1.38,3.84c0.19,2.29-0.13,5.26,0.31,7.39
		C52.31,139.04,53.81,140.95,52.91,142.25z"/>
	<path class="st0" d="M96,128.25c-0.41,1.75-1.01,3.3-1.85,4.62c-0.26,0-0.51,0-0.77,0C92.92,131.31,93.99,127.33,96,128.25z"/>
	<path class="st0" d="M140.93,130.71c-0.32,1.59-0.48,4.86-1.85,4.77c-1.57-0.11,0.2-4.03,0.77-5.08
		C140.42,130.3,140.68,130.5,140.93,130.71z"/>
	<path class="st0" d="M127.7,136.25c-0.39,1.89-1.77,3.52-2.61,5.38c-0.45,0.99-0.39,2.97-2,2.93c-0.42-3.26,2.03-6.26,3.54-8.62
		C127.18,135.84,127.44,136.05,127.7,136.25z"/>
	<path class="st0" d="M90.15,142.41c-0.52,2.68-1.5,4.87-2.31,7.85c-0.21,0.79-0.33,2.25-1.08,2.31c-1.7,0.14-0.15-3.94,0.15-4.92
		c0.69-2.3,1.17-3.79,1.85-5.08c0.06-0.2,0.27-0.24,0.31-0.46C89.64,142,89.9,142.2,90.15,142.41z"/>
	<path class="st0" d="M96.92,145.64c0-0.46,0-0.93,0-1.39c1.23-1.57,6.1-0.48,9.23-0.77c1.37-0.13,4.05-1.27,4.46,0.62
		c0.63,2.87-3.86,2.31-6.31,2.31C101.22,146.41,98.13,146.99,96.92,145.64z"/>
	<path class="st0" d="M92.31,145.79c-0.12,1.54-0.66,2.27-1.23,3.85c-0.26,0.7-0.65,3.56-1.69,3.38c-1.88-0.32,1.32-6.53,1.54-7.08
		c0.05-0.2,0.27-0.24,0.31-0.46C91.79,145.38,92.05,145.59,92.31,145.79z"/>
	<path class="st0" d="M93.23,150.1c0.14,1.06-0.33,1.52-1.38,1.38C90.95,150.66,92.35,149.11,93.23,150.1z"/>
</g>
</svg>
