<?xml version="1.0" encoding="utf-8"?>
<!-- Generator: Adobe Illustrator 23.0.6, SVG Export Plug-In . SVG Version: 6.00 Build 0)  -->
<svg version="1.1" id="s" xmlns="http://www.w3.org/2000/svg" xmlns:xlink="http://www.w3.org/1999/xlink" x="0px" y="0px"
	 viewBox="0 0 175 175" style="enable-background:new 0 0 175 175;" xml:space="preserve">
<style type="text/css">
	.st0{fill-rule:evenodd;clip-rule:evenodd;fill:#1371B6;}
</style>
<g>
	<path class="st0" d="M55.04,26.98c0.38,1.28-1.11,1.67-1.79,2.14c-0.8,0.57-1.7,1.93-2.86,1.43C50.05,28.33,53.1,26.31,55.04,26.98
		z"/>
	<path class="st0" d="M65.58,29.66c0.48,1.19,1.7,3.82-0.18,3.93C63.51,33.7,62.92,29.01,65.58,29.66z"/>
	<path class="st0" d="M56.83,31.26c0.03,1.52,0.08,2.66-0.89,2.86C53.23,34.66,53.97,27.8,56.83,31.26z"/>
	<path class="st0" d="M60.76,32.69c1.52,1.1,0.7,4.54,2.14,5.71c-0.65,1.09-3.89,3.54-4.46,0.89c0.39-0.68,1.4-0.74,2.14-1.07
		C60.11,37.13,58.91,33.28,60.76,32.69z"/>
	<path class="st0" d="M63.97,40.01c1.09,1.97-1.55,3.41-3.57,3.57c-1.61,0.12-5.26-1.19-4.82-2.86c0.54-2.07,2.68,1.13,4.46,1.07
		C62.31,41.73,61.87,40.14,63.97,40.01z"/>
	<path class="st0" d="M63.97,64.48c0.15,1.11-0.19,1.72-1.07,1.79C61.38,65.75,62.62,63.04,63.97,64.48z"/>
	<path class="st0" d="M63.97,70.73c-0.72-0.88-0.4-2.01,0.36-2.14C65.56,68.37,66.09,71,63.97,70.73z"/>
	<path class="st0" d="M85.58,72.34c-0.07,1.82-1.74,2.7-2.68,3.75c-1.01,1.13-1.6,2.69-3.03,3.39c-0.03-0.21-0.33-0.15-0.54-0.18
		c-0.1-3.51,3.41-4.91,5-7.32C84.99,71.87,85.28,72.1,85.58,72.34z"/>
	<path class="st0" d="M65.04,74.84c-0.21-0.03-0.32,0.04-0.36,0.18c-0.97,0.02-1.3-0.61-1.43-1.43C63.78,72.06,66,73.4,65.04,74.84z
		"/>
	<path class="st0" d="M88.44,74.13c-0.09,1.93-1.66,3.56-2.86,4.82c-1.01,1.07-2.51,3.42-4.29,2.5c1.15-3.2,4.26-4.44,5.71-7.32
		c0.05-0.19,0.36-0.12,0.36-0.36C87.93,73.68,88.07,74.02,88.44,74.13z"/>
	<path class="st0" d="M35.57,74.66c-0.88,3.35-3.49,5.82-5.36,8.4c-0.94,1.29-1.73,2.76-2.68,4.11c-0.86,1.22-1.68,3.07-3.39,3.39
		c-0.83-1.55,0.82-3.17,1.61-4.29c2.76-3.89,5.85-8,8.57-11.97C34.98,74.19,35.28,74.43,35.57,74.66z"/>
	<path class="st0" d="M91.65,76.09c0.11,1.77-1.53,3.66-2.68,5c-1.08,1.27-2.55,3.37-4.29,3.22c-0.48-1.92,1.67-2.92,2.68-4.11
		c1.14-1.33,1.93-2.96,3.03-4.29C90.88,75.91,91.43,75.84,91.65,76.09z"/>
	<path class="st0" d="M65.76,77.7c0.09,0.68-0.05,1.14-0.36,1.43c-0.65,0.12-0.95-0.12-1.25-0.36C63.8,77.58,65.02,77.23,65.76,77.7
		z"/>
	<path class="st0" d="M66.29,81.45c0.09,0.68-0.05,1.14-0.36,1.43c-0.65,0.12-0.95-0.12-1.25-0.36
		C64.34,81.33,65.55,80.98,66.29,81.45z"/>
	<path class="st0" d="M34.68,81.98c-0.49,2.07-2.16,3.88-3.39,5.72c-0.52,0.77-1.33,1.81-1.97,2.68c-0.55,0.77-1.17,2.43-2.5,1.25
		c0.38-1.89,1.82-3.31,2.86-4.82c1.18-1.72,2.21-3.47,3.57-5C33.77,81.83,34.42,81.71,34.68,81.98z"/>
	<path class="st0" d="M96.83,82.88c-0.22,1.51-1.65,2.71-2.5,3.93c-0.79,1.12-1.36,3.18-3.21,2.68c-0.45-1.49,1.08-2.54,1.78-3.57
		c0.78-1.13,1.58-2.38,2.32-3.39c0.04-0.19,0.35-0.12,0.36-0.36C96.36,82.04,96.57,82.49,96.83,82.88z"/>
	<path class="st0" d="M37.18,85.2c-0.36,2.04-2.08,3.65-3.22,5.36c-0.99,1.49-1.63,4.4-3.93,4.11c-0.03-1.79,1.36-3.53,2.32-5
		c1.14-1.74,2.45-3.33,3.57-5C36.64,84.55,36.9,84.89,37.18,85.2z"/>
	<path class="st0" d="M136.3,86.27c-0.62,1.86-2.35,3.22-3.57,4.82c-1.09,1.43-1.92,3.9-3.93,3.93c-0.45-1.5,1.08-3.39,2.14-4.82
		c1.21-1.63,2.89-3.26,4.11-4.47C135.77,85.62,136.02,85.96,136.3,86.27z"/>
	<path class="st0" d="M67.9,94.84c-0.29,0.31-0.75,0.44-1.43,0.36C64.61,93.74,68.27,92.06,67.9,94.84z"/>
	<path class="st0" d="M77.55,107.7c1.08-2.28,5.72-4.24,7.86-1.97c0.79,0.84,1.84,3.5,1.25,4.82c-0.54,1.22-4.91,2.35-6.97,1.79
		C77.77,111.82,77.37,109.95,77.55,107.7z M81.3,109.31c0.79,0.35,2.14,0.27,2.14-0.71C82.58,107.95,81.23,107.43,81.3,109.31z"/>
	<path class="st0" d="M135.24,109.13c2.83,1.89,3.62,5.51,5.36,8.39c1.72,2.85,3.62,5.51,5.72,7.86c0.83,1.65,1.02,3.49,1.61,5.18
		c0.51,1.48,1.83,2.52,1.96,4.11c-4.2,1.71-9.01,0.94-13.57,1.25c-12.81,0.87-26.26,2.11-40.18,2.5
		c-6.84,0.19-13.56,1.25-20.36,1.25c-7.14,0-14.3-0.18-21.25,0.36c-3.26,0.25-6.49,0.92-9.64,1.25c-5.58,0.58-11.18,1.02-16.43,0.54
		c0.24-4.45,1.62-9.27,2.14-14.11c0.51-4.76,1.73-9.4,3.39-13.04c7.75,0.37,17.81,0.31,26.61-0.36c3.9-0.3,7.81,0.09,11.61-0.18
		c4.62-0.32,9.22-1.17,13.75-0.89c3.23,0.2,6.44,1.11,9.64,0.89c6.69-0.46,13.37-1.47,19.83-2.14
		C122.19,111.28,129.19,109.97,135.24,109.13z M134.52,110.92c-1.31,0.95-3.89,0.63-5.72,1.07c0.6,2.2,1.46,4.13,2.32,6.07
		c2.48-0.14,5.03-0.21,6.97-0.89C137.21,114.77,136.32,112.39,134.52,110.92z M117.37,113.6c0.44,1.82,1,3.52,1.78,5
		c3.32-0.08,6.67-0.12,9.82-0.36c-0.39-2.23-1.59-3.65-1.97-5.89C123.48,112.44,120.7,113.29,117.37,113.6z M105.76,114.85
		c0.27,1.76,0.69,3.36,1.25,4.82c3.66,0.09,6.38-0.76,10-0.71c-0.16-1.35-1.14-3.37-1.61-5
		C111.95,114.01,108.79,114.37,105.76,114.85z M72.72,115.92c0.12,1.9,0.38,3.66,0.71,5.36c3.77-0.32,7.36,0.49,10.54,0.18
		c-0.5-2.19-1.13-4.22-1.61-6.43C79.19,115.36,75.67,115.36,72.72,115.92z M84.33,115.2c0.4,2.27,1.1,4.26,1.61,6.43
		c2.83,0.03,5.03-0.56,7.86-0.54c-0.4-1.5-0.67-3.14-0.53-5.18C90.31,115.77,87.18,114.87,84.33,115.2z M95.05,115.92
		c-0.08,1.93,0.05,3.64,0.72,4.82c3.29-0.1,6.14-0.64,9.29-0.89c-0.46-1.56-0.76-3.29-1.25-4.82
		C100.82,115.26,98.13,115.78,95.05,115.92z M57.19,116.45c-0.29,1.43-0.19,3.26-0.54,4.64c5.05-0.05,9.69,0.32,14.82,0.18
		c-0.24-1.84-0.26-3.91-0.89-5.36C65.86,115.85,61.56,116.19,57.19,116.45z M35.04,116.63c-0.89,2.33-1.48,4.95-1.97,7.68
		c2.65-0.44,5.59-0.61,8.04-1.25c-0.08-2.34,0.1-4.42,0.36-6.43C39.33,116.63,37.18,116.63,35.04,116.63z M43.43,116.63
		c-0.29,1.77-0.82,4.13-0.36,6.07c1.98-0.37,4.34-0.29,6.25-1.07c0.51-0.21,0.68-0.63,1.25-0.71c1.35-0.19,2.79,0.5,4.47,0.18
		c-0.14-1.62,0.28-2.7,0.18-4.29C51.65,116.4,47.3,116.75,43.43,116.63z M138.8,119.49c-3.56,0.23-8.38,0.16-11.96,0.89
		c0.92,1.93,2.19,3.52,3.21,5.36c4.17-0.53,8.69-0.72,13.22-0.89c-1.34-2.05-2.69-4.1-4.29-5.89
		C138.99,119.2,138.9,119.35,138.8,119.49z M115.23,120.74c0.46,2.16,1.13,4.11,1.96,5.89c3.78-0.03,7.42-0.2,10.72-0.71
		c-0.63-1.57-2.45-3.5-3.04-5.71C121.53,120.26,118.55,120.67,115.23,120.74z M101.48,121.99c0.16,2.1,1.05,3.47,1.61,5.18
		c4.22,0.05,7.76-0.57,11.97-0.54c-0.7-1.86-0.92-4.2-2.14-5.54C109.12,121.42,105.29,121.7,101.48,121.99z M90.76,123.24
		c-0.1,1.82,0.11,3.34,0.71,4.47c3.11-0.22,6.52-0.14,9.47-0.54c-0.19-1.84-1.23-2.82-1.25-4.82
		C96.58,122.51,93.58,122.79,90.76,123.24z M51.47,123.06c0.23,2.39,0.4,4.84,1.07,6.79c4.35-0.47,9.22-0.42,13.22-1.25
		c0.08-2.28-0.29-4.12-1.07-5.54C60.52,122.94,55.58,122.65,51.47,123.06z M67.72,128.78c3.83-0.22,7.51-0.59,11.43-0.71
		c-0.61-0.64-1.42-2.63-1.07-4.82c-3.34-0.41-7.44-0.06-11.07-0.18C67.11,124.41,67.63,126.84,67.72,128.78z M80.05,128.06
		c3.14-0.08,6.61,0.18,9.47-0.18c-0.58-1.21-0.4-3.17-0.72-4.64c-2.61,0.34-6.3,0.23-8.93,0C79.31,125.59,81.18,126.7,80.05,128.06z
		 M49.68,123.6c-3.27,0.24-7.17,1.4-10.89,1.78c-0.1,1.71-0.91,3.59-0.36,5.36c4.02-0.27,7.6-0.97,11.97-0.89
		C50.23,127.7,49.83,125.77,49.68,123.6z M32.72,126.1c-0.45,1.34-0.4,3.17-0.53,4.82c1.43,0,2.86,0,4.29,0
		c-0.16-2,0.2-3.49,0.36-5.18C35.18,125.58,34.36,126.26,32.72,126.1z M135.77,126.99c0.73,2.66,2.17,4.61,3.03,7.14
		c2.96-0.08,5.87-0.2,8.57-0.54c-1.14-1.96-1.59-4.6-2.5-6.79C142.19,126.53,138.63,126.85,135.77,126.99z M124.7,128.24
		c0.22,1.8,0.28,3.77,1.07,5c1.07,0,0.94,1.21,1.61,1.61c3.02-0.43,6.68-0.23,9.47-0.89c-1.24-2.09-2.06-4.61-3.21-6.79
		C130.73,127.61,127.49,127.71,124.7,128.24z M112.55,128.42c0.8,2.3,2.86,4.28,2.32,7.32c3.49,0.04,6.12-0.79,9.64-0.71
		c-0.74-1.91-1.93-4.22-1.43-6.79C119.76,128.48,116.13,128.42,112.55,128.42z M63.26,130.92c-0.24,2.46,0.43,4.91,0,6.97
		c17.93,0.55,33.24-1.53,50.01-2.14c-0.17-3.04-1.71-4.72-2.68-6.97C95.24,129.47,78.82,129.72,63.26,130.92z M44.68,132.17
		c0.31,2.1-0.25,4.87-0.18,7.32c5.62-0.69,11.1-1.52,17.32-1.61c-0.45-1.93-0.36-4.41-0.36-6.79
		C56.01,131.59,49.84,131.37,44.68,132.17z M32,132.71c-0.87,2.23-1.15,5.04-1.79,7.5c3.59,0.01,8.52-0.17,12.32-0.54
		c0.33-2.29,0.37-5.82,0.54-7.68C39.92,132.77,35.94,132.71,32,132.71z"/>
	<path class="st0" d="M141.49,140.92c0.78,1.99-0.52,4.97-1.25,7.5c-0.34,1.17-0.78,2.53-1.07,3.75c-0.26,1.07-0.15,3.18-1.61,2.86
		c-1.07-1.89,0.1-4.9,0.72-6.97c0.66-2.22,1.47-4.5,1.96-6.61c0.06-0.24,0.31-0.28,0.36-0.54
		C140.89,140.92,141.19,140.92,141.49,140.92z"/>
	<path class="st0" d="M71.83,160.03c-0.96-2.37-2.28-7.47-0.89-10.54c0.67-1.47,4.31-2.96,6.43-3.57c3.23-0.94,9.55-1.83,13.04-2.14
		c2.89-0.26,7.98-0.56,10.36,0.18c2.79,0.86,3.58,4.53,4.82,7.5c0.6,1.44,1.25,2.34,0.89,3.75c-0.55,2.17-4.22,2.74-6.97,3.22
		c-3.39,0.59-6.12,1.21-8.75,1.43C83.55,160.46,78.03,160.13,71.83,160.03z M78.44,147.71c-0.06,2.32,0.29,4.23,1.43,5.36
		c-0.54,2.02,1,3.04,0.89,5.18c9.05,0,17.18-0.92,23.93-3.21c-0.72-3.93-2-7.29-4.47-9.47C91.87,145.19,84.99,146.28,78.44,147.71z
		 M72.37,153.43c1.72-0.12,3.26-0.43,4.82-0.71c-0.26-1.46-0.47-2.98-0.72-4.46C74.21,149.08,71.73,149.7,72.37,153.43z
		 M72.37,155.21c-0.08,1.51,0.82,2.04,0.89,3.39c1.95-0.01,4.06,0.13,5.54-0.36c0.11-1.66-0.68-2.42-0.89-3.75
		C76.04,154.72,74.42,155.18,72.37,155.21z"/>
	<path class="st0" d="M146.13,144.5c-0.02,1.89-1.17,3.42-1.79,5.18c-0.54,1.56-0.36,3.97-2.14,4.64c-1.2-1.08-0.21-3.34,0.36-5
		c0.66-1.93,1.48-3.8,2.32-5.18C145.53,144.02,145.83,144.26,146.13,144.5z"/>
	<path class="st0" d="M132.55,145.92c-0.98,3.66-1.89,7.39-3.39,10.54c-0.3,0-0.6,0-0.89,0c-0.44-3.62,1.74-7.65,2.86-10.9
		C131.81,145.48,132.27,145.62,132.55,145.92z"/>
	<path class="st0" d="M150.06,145.92c0.46,1.32-0.64,2.75-1.07,4.11c-0.41,1.28-0.12,3.37-1.61,3.75c-1.99-1.96,0.75-5.79,1.25-7.68
		c0.05-0.2,0.36-0.12,0.36-0.36C149.53,145.62,149.64,145.93,150.06,145.92z"/>
	<path class="st0" d="M140.59,96.09c6,5.23,9.71,13.59,14.47,21.43c2.18,3.59,4.94,7.19,6.61,11.25c2.32,5.64,5.95,11.73,4.64,20.36
		c-0.25,1.67-1.8,3.66-2.5,6.07c-0.39,1.38-0.17,3-0.71,4.11c-1.69,3.48-8.92,4.37-14.47,5.36c-6,1.07-12.04,1.38-17.68,1.97
		c-9.31,0.97-17.75,1.94-26.97,2.68c-6.21,0.5-12.23,0.89-18.04,1.79c-3.01,0.47-6.08,0.54-9.29,0.54c-6.39,0-12.79,0.36-19.29,0.36
		c-3.01,0-6.17-0.54-9.47-0.54c-3.17,0-6.45,0.18-9.64,0.18c-6.42,0-12.55-0.66-17.5-2.14c-1.81-0.54-3.32-3.14-4.29-5.89
		c-0.88-2.51-2.78-5.09-2.86-7.14c-0.16-4.49,0.48-8.93,1.43-13.22c1.76-7.97,3.16-16.91,4.64-25.36
		c1.61-9.13,1.62-16.59,11.07-17.68c-4.38-3.51-9.76-5.87-12.86-11.07c-1.37-2.3-2.81-5.83-3.22-9.11c-0.76-6.12,0.24-12.77,0-19.11
		c-0.44-11.94-4.58-21.59-3.21-34.65c0.53-5.13,2.79-11.09,5.36-13.75c1.55-1.6,4.86-2.99,7.5-3.93c5.75-2.04,12.34-2.9,20.18-2.68
		c3.62,0.1,7.11,0.64,10.71,0.36c7.16-0.56,14.76-0.89,21.97-0.89c7.58,0,14.73-0.39,21.43-0.89c5.58-0.41,11.67,0.46,16.97-0.18
		c5.68-0.68,15.16-0.21,19.11,1.79c2.66,1.34,5.32,3.64,6.43,6.25c0.72,1.7,0.7,4.22,1.07,6.61c1,6.35,0.68,14.25,1.07,21.79
		c0.49,9.62,0.55,21.76,1.07,31.97C144.83,82.18,144.84,90.65,140.59,96.09z M118.62,8.04c-1.73,3.25-4.04,6.28-6.07,9.11
		c-0.64,0.9-1.08,2.75-2.68,2.5c-0.8-1.1,0.34-2.24,0.89-3.04c2.02-2.89,4.22-5.66,5.72-8.75c-1.04,0.09-2,0.26-3.21,0.18
		c-0.22,1.61-1.46,2.78-2.32,3.93c-0.8,1.06-1.45,2.96-3.21,3.04c-0.72-2.85,2.93-4.29,3.57-6.97c-8.94-0.67-16.97,0.91-25.18,0.89
		c-7.45-0.01-16.2,0.12-24.11,0.72c-6.15,0.47-12.09,0.05-17.5-0.36c-1.54-0.12-3.2-0.12-4.64,0c-3.95,0.33-8.83,0.57-12.5,1.78
		c-2.99,0.99-6.4,2.4-8.04,4.11c-2.15,2.25-4.23,7.89-4.47,12.5c-0.6,12,2.88,20.9,3.39,32.51c0.47,10.65-1.63,22.24,3.39,27.86
		c0.93-0.68,0.79-2.42,2.5-2.32c1.02,1.52-0.7,3-1.61,3.75c2.69,3.15,6.67,5,10.18,7.32c1.03-1.65,1.36-4,3.39-4.64
		c1.48,1.98-1.57,3.52-1.78,5.54c4.83,1.36,8.71,3.67,15.18,3.39c-0.27-1.8-0.55-3.97-0.18-5.89c-3.06-0.4-6.51-0.88-6.25-4.11
		c0.07-0.92,0.99-0.82,0.71-1.79c-0.6-3.89-1.24-8-2.14-12.14c-1.35-6.22-4.34-13.86-1.25-19.82c-2.21-0.17-2.7-2.06-2.68-4.47
		c-1.38-0.47-2.56-1.69-4.11-2.32c-1-0.4-2.24-0.28-3.21-0.71c-1.67-0.75-3.53-2.34-3.75-3.93c-0.31-2.12,1.11-3.74,1.96-4.47
		c1.26-1.07,2.92-0.84,4.47-1.79c1.75-1.06,2.71-3.69,5.18-4.82c2.64-1.21,5.24-0.93,7.68-2.14c-0.65-0.24-0.95-0.84-0.89-1.79
		c-9.64,2.37-4.57-16.73,2.14-10.18c1.5-3.22,4.62-5.71,9.65-4.82c1.97-1.47,3.16-0.18,5,0.54c1.32,0.51,2.78,0.57,3.75,1.07
		c3,1.55,4.33,5.34,4.29,8.93c3.38,0.31,4.21-3,6.25-4.29c2.11-1.33,4.56-1.64,8.22-1.79c1.03,1.24,2.08,1.43,4.11,1.96
		c0.76,0.2,1.36,0.7,1.79,0.71c1.33,0.04,2.38-1.33,3.75-1.61c2.32-0.48,5.34,0.8,8.57,1.07c3.45,0.29,6.62-0.71,9.47,0.54
		c0.77-1.13,1.61-2.2,1.43-4.29c3.55-2.88,5.57-7.29,8.22-11.07C120.65,7.81,119.09,7.38,118.62,8.04z M124.34,7.69
		c-2.29,2.77-4.44,5.68-6.25,8.93c1.38-0.17,2.43-0.67,4.11-0.53c1.71-2.75,3.6-5.33,5.18-8.22C126.45,7.72,125.47,7.63,124.34,7.69
		z M129.7,8.22c-1.96,2.38-3.61,5.08-5.18,7.86c1.12-0.04,1.23,1.05,1.96,1.61c2.41,1.85,6.48,1.75,5.89,6.61
		c1.76,0.34,6.3-1.2,5.9,0.89c-0.25,1.3-4.5,0.92-6.25,0.89c-3.52,3.2-9.13,7.5-5,12.5c1.01,1.22,3.51,2.24,5,3.57
		c1.61,1.43,2.81,3.14,4.11,4.46c1.31,1.33,3.35,2.45,3.21,5c1.15-0.74,0.71-2.34,0.71-3.57c0-5.09,0.25-10.31-0.18-15.18
		c-0.85-9.73,0.37-20.79-6.97-23.57c-1.87,1.65-2.19,4.84-5,5.54c-0.05-0.36-0.48-0.35-0.54-0.71c0.91-2.18,2.8-3.39,3.57-5.71
		C130.33,8.54,130.26,8.14,129.7,8.22z M51.29,18.94c1.32-0.37,3.7-0.25,3.75,1.25c-0.01,0.23-0.23,0.25-0.18,0.54
		c-2.88,0.64-5.01,2.97-5.54,5.36c2.45-2.48,6.69-3.89,6.07-8.39C53.52,17.47,51.41,17.99,51.29,18.94z M116.66,18.94
		c-0.56,0.63-0.83,1.55-1.43,2.14c0.29,2.35-1.31,2.88-2.14,3.93c-0.52,0.65-0.26,1.96-1.43,1.61c-0.69-0.16-0.63-1.35-0.36-1.96
		c-3.02-0.87-6.3-0.08-9.47-0.36c-2.84-0.25-5.61-1.75-8.22-0.71c-0.14,3.33-0.73,5.62-1.61,8.04c-0.43,1.17-1.23,1.93-0.89,3.04
		c0.43,1.43,3.25,1.23,4.46,1.79c0.7,0.32,1.57,1.39,2.5,2.14c0.93,0.76,2.09,1.29,2.86,1.96c2.28,2.01,3.98,4.86,6.61,5.36
		c1.26-1.41,3.15-2.97,6.07-2.14c2.21-5.48,4.12-11.22,6.61-16.25c0.82-1.66,1.95-3.48,2.5-5.18c0.5-1.53,0.13-3.4,1.79-4.29
		c-2.65-0.85-1.69,3.42-4.29,3.22c-1.25-1.23,1.04-2.38,0.54-3.39C119.55,18.37,117.8,18.36,116.66,18.94z M59.69,18.76
		c3.04,1.07,5.69,3.48,8.04,4.64C66.97,20.13,63.76,17.53,59.69,18.76z M115.41,44.84c0.26-0.54,1.73-0.51,1.78,0.18
		c0.27,0.92-0.43,0.88-0.53,1.43c0.64-0.1,0.54,0.53,0.53,1.07c-0.57,0.8-1.45,1.28-2.14,1.96c0.15,0.69,0.8,0.87,0.72,1.79
		c-0.22,0.98-1.4,0.99-1.61,1.96c1.18-0.2,1.91,1.8,2.86,1.61c0.74-0.15,0.81-1.53,1.25-2.14c0.72-1.01,2.99-2.28,3.39-3.75
		c0.28-1.03-0.13-2.21,0-3.22c0.39-3.19,2.69-4.71,3.57-6.61c-1.94-3.17-2.09-6.91,0.36-9.65c1.49-1.67,4.47-2.91,5-4.64
		c0.98-3.21-2.74-4.46-5.18-5.71C122.74,28.23,117.76,35.99,115.41,44.84z M63.08,22.69c-1.98-1.25-3.09-2.44-5.72-2.14
		c-2.22,5.15-10.14,6.34-9.29,13.39c-1.26,0.76-0.52,2.76,0.36,3.39c0.53,0.24,0.93-0.11,1.79,0c1.14,2.02,1.14,4.39,2.5,5.89
		c2.72,2.99,7.47,3.01,11.25,1.43c3.21-1.34,3.28-7.71,5-10.36c-1.26-1.18-0.94-3.94-1.43-5.89c-1.33,0.32-3.67-0.96-4.28-2.5
		c0.31-0.16,0.29-0.66,0.72-0.71c1.52,0.32,2.47,1.22,3.57,1.96C66.92,24.78,65.1,23.97,63.08,22.69z M48.97,22.69
		c0.1-0.91,1.17-0.86,1.43-1.61C49.53,21.11,48.34,21.76,48.97,22.69z M42.54,28.94c-0.93-2.78-0.19-6.5,1.79-7.5
		C41.48,21.7,40.49,27.01,42.54,28.94z M87.9,24.12c-0.66-0.18-1.4,0.01-1.97-0.18c-1.05-0.35-1.64-1.58-2.5-1.79
		c-1.88-0.45-5.56,1-6.43,1.61c-0.73,0.51-0.97,1.51-1.61,2.14c-1.67,1.64-3.53,2.3-6.07,2.5c-0.15,2.65,1.94,4.66,1.43,7.14
		c-0.2,0.97-1.2,2.33-1.61,3.57c-0.85,2.58-1.61,4.42-2.86,6.07c1.17,0.14,1.61,1.01,2.32,1.61c3.11,0.16,6.98-0.43,9.29,0.53
		c1.09-1.83,3.25-2.58,4.82-3.93c-0.22-5.28,3.41-6.71,6.61-8.57c-0.1-4.26,2.56-5.78,2.32-10.18C89.86,25.34,88.93,24.4,87.9,24.12
		z M44.15,27.69c0.38-0.76,0.57-2.64,0.18-3.57C43.99,24.92,43.72,26.73,44.15,27.69z M45.22,34.83c-2.21,1.15-4.74,0.49-6.97,1.96
		c-1.66,1.1-2.51,3.22-4.11,4.29c-1.98,1.32-6.18,1.35-5.72,4.47c0.27,1.84,4.23,3.25,6.43,3.39c1.83,1.87,5.62,1.77,4.82,6.25
		c0.52,0.32,1.7-0.03,1.96,0.54c2.43-1.63,3.98-4.12,6.61-5.54c0.43-2.48,2.08-3.76,3.93-4.82c-1.37-1.67-2.61-3.46-3.03-6.07
		C46.38,39.27,45.96,36.9,45.22,34.83z M89.87,36.62c-1.66,1.3-4.51,2.01-5.18,4.29c-0.49,1.66,0.2,2.76-0.71,3.93
		c-1.03,1.31-2.47,1.07-3.57,2.68c5.07,3.27,8.78,7.89,13.22,11.79c4.73-3.31,8.02-8.06,11.97-12.14
		C100.34,43.65,97.14,38.11,89.87,36.62z M137.02,50.02c-0.29-0.89-1.74-1.69-2.5-2.5c-2.33-2.47-4.33-5.64-7.68-6.61
		c-2.24,1.16-3.89,4.44-3.39,8.93c-2.46,2.6-4.81,5.31-6.25,8.93c-0.79-0.14-1.07,0.24-1.78,0.18c-1.66,2.57-2.98,5.47-3.93,8.75
		c2.48,2.84,5.74-1.1,7.32-2.68c1.33-1.33,3.44-3.08,4.29-4.29c0.68-0.97,1.02-2.71,2.14-3.39c3.2-1.94,8.59,0.34,12.32-1.96
		C136.67,53.55,137.53,51.57,137.02,50.02z M50.22,50.37c1.35,0.44,2.8,0.78,4.11,1.25c-0.92-1.1-0.6-3.44-1.25-4.82
		C52.09,47.96,50.31,48.32,50.22,50.37z M55.22,47.16c-0.09,1.16,0.16,1.99,0.36,2.86c2.55-0.07,4.96-0.28,7.68-0.18
		c0.65-0.48,0.56-1.71,0.53-2.86C60.66,47.08,58.09,48.32,55.22,47.16z M62.9,51.8c1.03,1,1.63,2.42,2.5,3.57
		c-0.27-3.19,0.75-6.02,0.72-8.39c-0.18,0-0.36,0-0.54,0C65.85,49.75,65.09,51.49,62.9,51.8z M108.44,47.87
		c-0.87,0.32-1.67,0.71-2.14,1.43c1.46,0.98,2.25,2.63,3.75,3.57c-0.42-2.21,2.33-3.57,1.96-5.71
		C111.32,47.72,109.23,49.1,108.44,47.87z M96.66,59.12c-0.81,0.64-2.39,2.38-3.39,2.32c-0.78-0.04-2.27-1.89-3.04-2.68
		c-3.48-3.55-6.73-7-10.72-9.64c-3.61-0.28-8.15-1.06-11.79-0.18c-0.03,3.41-1.31,7.22-0.54,10.36c0.17,0.69,0.77,1.16,0.89,1.79
		c0.53,2.62,0.38,5.36,0.71,7.86c0.31,2.25,1.03,4.36,1.43,6.61c3.8-1.26,5.58-4.54,8.57-6.61c-0.6-1.21-3-5.13-0.72-5.72
		c1.35-0.34,3.09,2.58,4.82,3.22c0.54,0.2,1.19,0.06,1.43,0.18c3.09,1.56,4.8,5.35,6.96,6.43c7.04-4.94,12.11-12.24,18.04-18.04
		c-1.49-1.49-2.75-3.2-4.47-4.46C102.33,53.48,99.86,56.57,96.66,59.12z M55.4,51.8c2.76,1.47,5.58,2.87,8.22,4.46
		c-0.76-1.8-1.96-3.16-3.04-4.64C58.73,51.56,57.32,51.94,55.4,51.8z M67.01,69.3c-0.59-4.38-0.52-8.71-3.04-10.72
		c-3.13-2.5-8.21-4.31-11.97-5.89c-0.82-0.1-1.11,0.32-1.96,0.18c-0.49-0.16-0.76-0.55-1.25-0.71c-2.04,1.44-5.95,4.58-6.96,6.43
		c-2.3,4.21-0.43,8.82,0.54,12.86c1.49,6.29,2.68,14.09,3.75,20.18c1.89,2.04,6.03,2.14,9.47,1.79c6.03-0.62,12.72-3.24,18.39-3.93
		c-0.95-0.85-2.27-3.52-3.57-3.93c-1.35-0.43-4.02,0-6.43,0c-3.85,0-6.89-0.08-9.29,0.54c-1.88-2.44-2.61-6.4-3.22-10.18
		c-0.64-4.01-2.07-7.57-2.86-10.89c-0.21-0.89-0.93-3.11,0.71-3.39c1.31,0.61,0.8,2.12,1.07,3.21c0.74,2.95,2.33,5.99,2.86,9.29
		c0.56,3.53,0.85,6.94,2.14,10c4.03-0.73,9.33-0.19,13.93-0.36C69.08,78.62,67.63,73.99,67.01,69.3z M111.48,54.66
		c-0.16,0.39,0.02,0.77-0.18,1.43c-3.6,2.47-6.26,5.89-8.75,9.47c3.02-0.22,5.13,0.47,7.14,1.25c1.9-3.7,2.38-8.81,6.61-10.18
		C114.64,56.02,113.21,53.56,111.48,54.66z M126.3,58.77c-1.64,2.7-2.62,4.33-5.18,6.61c-1.32,1.17-2.45,2.66-3.39,3.39
		c-0.74,0.58-2.53,1.66-3.21,1.79c-2.27,0.42-3.31-0.66-4.82-1.43c-2.32-1.18-4.79-2.26-8.75-1.79c-2.89,2.17-5.63,4.49-8.04,7.14
		c1.67,1.69,3.6,2.3,5.89,3.93c0.69,0.49,5.07,3.79,4.82,5.18c-0.22,1.23-1.81,1.16-2.68,1.79c-1.61,1.17-4.51,4.56-5.72,6.43
		c-0.57,0.89-0.97,3.52-2.5,3.57c-0.97,0.03-1.76-1.64-2.32-2.14c-1.68-1.5-3.25-1.96-5.18-3.57c1.13,3.45,3.77,5.39,4.46,9.29
		c7.15-0.95,14.69-1.5,22.15-2.14c0.15-2.17,1.74-3.88,2.86-5.54c1.01-1.49,2.04-4.17,4.29-3.93c0.22,1.83-1.65,3.15-2.68,4.64
		c-1.07,1.55-2.5,3.19-2.32,4.82c1.6-0.36,2.16-2.21,3.04-3.39c1.86-2.53,3.74-4.82,5.54-7.32c0.77-1.07,1.61-3.2,3.39-2.86
		c0.32,1.45-0.9,2.75-1.61,3.75c-2.41,3.39-5.33,6.24-7.32,9.82c1.19,0,2.38,0,3.57,0c1.21-4.09,4.41-7.23,6.61-10.36
		c0.66-0.94,1.39-3.01,3.03-2.32c0.51,1.41-0.96,2.29-1.61,3.22c-2.19,3.15-4.56,6.03-6.25,9.46c3.38,0.12,5.31-0.67,8.39-1.07
		c2.15-0.28,4.67-0.21,6.07-0.89c1.94-0.94,4.08-7.95,4.29-11.07c0.69-10.3-0.75-20.62-1.25-29.47
		C139.23,59.67,131.21,57.66,126.3,58.77z M80.4,68.05c0.44-0.1,0.92-0.15,0.89-0.72c-0.65-0.18-1.07-0.59-1.61-0.89
		C79.86,67.04,80.26,67.43,80.4,68.05z M85.94,70.2c-0.56-0.52-2.27-1.89-2.86-1.61c-3.89,1.88-7.11,5.81-10.9,8.21
		c1,1.44,2.83,2.05,4.11,3.22c0.5-0.27,1.11-0.43,1.96-0.36c0.32,0.81,0.89,1.37,0.89,2.5c1.25-0.06,2.06,0.32,2.5,1.07
		c0.1,0.7-0.15,1.04-0.36,1.43c3.79,2.76,7.79,5.31,11.43,8.22c2.08-3.87,4.74-7.17,8.39-9.47c-1.24-2.27-3.85-4.12-6.07-4.82
		c0.27,0.03,0.17,0.43,0.18,0.71c-1.3,1.41-2.45,2.95-3.57,4.64c-1.03,1.56-1.89,3.9-4.11,4.29c-0.04-0.26-0.29-0.3-0.36-0.54
		c1.68-3.5,4.05-6.31,6.25-9.29c0.19-0.35,0.82-0.25,1.07-0.54C91.13,76.2,88.57,72.66,85.94,70.2z M70.76,83.77
		c1.36-0.85,2.57-1.84,3.57-3.04c-1.54-0.66-2.56-1.85-3.93-2.68C70.68,79.79,71.19,82.43,70.76,83.77z M72.72,84.84
		c0.54,1.78,2.26,2.38,3.39,3.57c1.53-0.55,2.89-1.28,4.64-1.61c0.27-0.6-0.99-1.09-0.36-2.14c-0.94-1.83-4.31,0.73-4.82-1.25
		c0.22-0.8,0.98-1.04,1.43-1.61C75.21,82.45,73.86,83.53,72.72,84.84z M82.37,88.06c-3.77,0.99-6.36,3.16-10.54,3.75
		c0.21,1.52,0.74,2.72,0.54,4.64c4.94-0.18,9.66-0.59,12.68-2.68C84.03,91.99,83.53,89.7,82.37,88.06z M51.29,95.2
		c-0.22,0.55-0.28,1.27-0.36,1.96c4.99,0.37,10.63,1.04,15.72,0.71c0.38-0.39-0.02-1.57,0.89-1.43c1.06-0.28,0.57,0.98,1.25,1.07
		c0.75,0.04,1.16-0.28,1.79-0.36c0.15-1.93-0.21-3.36-0.53-4.82C63.5,93,58.91,95.62,51.29,95.2z M85.94,95.38
		c-3.01,2.11-7.64,2.6-12.5,2.86c-0.76-0.1-0.34,0.97-1.25,0.71c-6.28,1.6-14.7,0.41-21.07,0.18c-0.04,0.75,0.27,1.15,0.36,1.79
		c12.23,1.04,25.91,0.48,36.44-1.79C87.32,97.82,87.14,96.08,85.94,95.38z M161.49,150.39c1.39-1.23,1.74-4.38,1.43-7.14
		c-0.26-2.29-1.3-5.1-2.14-7.32c-0.89-2.36-1.79-4.98-2.68-6.79c-2.03-4.14-6.21-9.33-8.57-13.75c-1.69-3.16-3.16-5.8-5.18-9.11
		c-1.21-1.98-5.24-8.17-7.14-7.5c-1.34,0.47-2.87,0.24-4.64,0.36c-2.63,0.18-5.49,1.07-7.86,1.25c-4.49,0.34-9.4-0.36-14.11,0
		c-4.31,0.33-7.99,0.72-12.14,1.07c-7.23,0.61-14.4,2.49-21.61,3.04c-7.82,0.59-15.5,0.5-23.39,0.36c0.48,1.22,2.82,2.91,1.43,4.29
		c-3-0.46-1.72-5.19-5.89-4.46c0.3,2.12,5.02,3.15,4.11,5.89c-1.87-0.14-2.98-2-4.29-3.21c-1.34-1.24-2.63-2.83-4.82-3.04
		c0.5,1.12,1.45,2.42,2.5,3.57c0.98,1.07,3.1,1.87,2.68,3.57c-2.33,0.25-3.57-2.1-4.82-3.57c-0.67-0.78-1.5-1.54-2.14-2.32
		c-0.57-0.7-1.04-2.34-2.32-1.79c0.91,1.59,2.32,3.62,3.93,5.18c0.87,0.84,2.77,1.31,2.32,2.86c-2.54,0.41-3.57-1.75-5-3.39
		c-1.16-1.32-2.82-4.24-4.29-4.64c-0.82-0.23-1.52,0.17-2.32,0c0.43,2.32,4.99,2.97,4.82,5.89c-1.15,0.53-2.12-0.64-2.86-1.25
		c-0.79-0.65-1.75-1.24-2.5-1.96c-0.91-0.87-1.53-2.46-2.86-2.68c-2.13-0.36-4.9,1.94-5.71,3.39c-1.28,2.27-1.68,7.05-2.32,10.72
		c-1.03,5.88-1.99,11.64-2.86,16.61c-1.2,6.9-2.69,12.95-3.03,20c6.82,9.64,24.63,8.74,40.18,8.04c7.41-0.34,15.05-0.03,22.33-0.36
		c15.1-0.69,29.03-3.53,43.4-4.29c1.01-2.76,2.1-6.01,2.86-8.93c0.22-0.87,0.38-2.59,1.78-2.32c0.84,1.49-0.13,3.83-0.71,5.71
		c-0.62,1.98-1.72,3.88-1.61,5.18c2.05-0.45,4.22-0.78,6.43-1.07c0.03-2.01,1.04-4.01,1.79-6.43c0.37-1.21,1.12-6.34,2.5-6.07
		c1.18,0.23,0.56,2.08,0.36,2.86c-0.88,3.39-2.19,6.26-2.86,9.29C142.75,154.3,155.77,155.46,161.49,150.39z M154.88,157.35
		c0.05,0.96-0.18,2.21,0.36,2.68c0.4-0.31,1-0.42,1.43-0.71c-0.12-0.89,0.17-1.38,0.18-2.14
		C155.99,157.04,155.7,157.46,154.88,157.35z M151.31,157.89c0,0.89,0,1.79,0,2.68c0.54-0.23,1.42-0.12,1.96-0.36
		c-0.17-0.78-0.31-1.59-0.36-2.5C152.36,157.75,151.61,157.59,151.31,157.89z M148.45,160.93c0.42,0,0.53-0.31,1.07-0.18
		c0-0.89,0-1.79,0-2.68c-0.3,0-0.6,0-0.89,0C148.59,159.04,148.34,159.81,148.45,160.93z M145.06,161.46
		c0.67,0.14,0.85-0.22,1.43-0.18c0.22-0.9,0.04-1.91,0.36-3.04c-0.53,0-1.07,0-1.61,0C145.18,159.33,145.38,160.65,145.06,161.46z
		 M140.24,158.78c-9.83,1.46-19.91,3.16-30.36,3.93c-10.29,0.76-20.61,2.59-31.26,3.04c-13.46,0.57-26.89,0.01-40.54,0.36
		c0.05,0.73,0.57,0.98,0.36,1.96c9.57-0.91,18.25,1.1,27.86,0.36c4.6-0.35,10.28-0.07,15.36-0.36c4.55-0.26,8.99-1.52,13.39-1.79
		c14.9-0.9,27.95-2.6,41.97-3.75c-0.31-0.68-0.86-3.03,0.53-3.04c1.68-0.01,0.49,2.64,0.72,3.04c1.85-0.29,3.68-0.6,5.54-0.89
		c-0.27-0.43-0.36-2.46-0.89-3.21C142.57,161.29,140.72,161.22,140.24,158.78z M24.5,166.46c-0.77-0.72-1.18-1.79-1.43-3.04
		c-0.44,0.03-0.55-0.28-0.89-0.36C22.76,164.28,23.07,166.7,24.5,166.46z M27.9,167.36c-0.55-1.18-1.05-3.35-2.68-2.86
		C26.04,165.52,26.62,166.78,27.9,167.36z M30.93,167.89c-0.44-1.05-0.47-2.51-1.79-2.68C29.57,166.28,29.61,167.72,30.93,167.89z
		 M32.9,168.07c0.54-0.11,1.54,0.23,1.79-0.18c-0.94-0.25-1.05-1.33-1.43-2.14c-0.36,0-0.71,0-1.07,0
		C32.3,166.65,33.04,166.91,32.9,168.07z M35.22,168.07c0.54,0,1.07,0,1.61,0c-0.51-0.68-0.47-1.91-1.43-2.14
		C35.77,166.45,36.05,167.83,35.22,168.07z"/>
</g>
</svg>
