<svg id="s" xmlns="http://www.w3.org/2000/svg" viewBox="0 0 175 175"><defs><style>.cls-1{fill:#1371b6;fill-rule:evenodd;}</style></defs><title>3642 [Converted]</title><path class="cls-1" d="M68.53,62.7c.17.58-.5.75-.8,1s-.76.86-1.28.64C66.29,63.31,67.66,62.4,68.53,62.7Z"/><path class="cls-1" d="M73.25,63.9c.21.53.76,1.71-.08,1.76S72.05,63.61,73.25,63.9Z"/><path class="cls-1" d="M69.33,64.62c0,.68,0,1.19-.4,1.28C67.72,66.14,68.05,63.07,69.33,64.62Z"/><path class="cls-1" d="M71.09,65.26c.68.49.31,2,1,2.56-.29.49-1.74,1.58-2,.4.17-.31.62-.33,1-.48C70.8,67.25,70.26,65.52,71.09,65.26Z"/><path class="cls-1" d="M72.53,68.54c.49.88-.7,1.53-1.6,1.6-.72,0-2.36-.54-2.16-1.28.24-.93,1.2.5,2,.48C71.78,69.31,71.58,68.59,72.53,68.54Z"/><path class="cls-1" d="M72.53,79.49c.07.5-.09.77-.48.8C71.37,80.06,71.92,78.85,72.53,79.49Z"/><path class="cls-1" d="M72.53,82.29c-.33-.39-.18-.9.16-1C73.24,81.23,73.47,82.41,72.53,82.29Z"/><path class="cls-1" d="M82.2,83c0,.81-.78,1.21-1.2,1.68s-.71,1.2-1.36,1.52c0-.1-.14-.07-.24-.08,0-1.57,1.53-2.2,2.24-3.28A.6.6,0,0,1,82.2,83Z"/><path class="cls-1" d="M73,84.13c-.1,0-.15,0-.16.08-.44,0-.59-.27-.64-.64C72.44,82.88,73.43,83.48,73,84.13Z"/><path class="cls-1" d="M83.48,83.81A3.71,3.71,0,0,1,82.2,86c-.45.48-1.12,1.53-1.92,1.12.52-1.43,1.91-2,2.56-3.28,0-.09.16-.06.16-.16C83.25,83.61,83.31,83.76,83.48,83.81Z"/><path class="cls-1" d="M59.81,84.05c-.39,1.5-1.56,2.6-2.39,3.76-.43.58-.78,1.23-1.2,1.83S55.47,91,54.7,91.16c-.37-.69.36-1.42.72-1.91,1.23-1.74,2.62-3.59,3.83-5.36A.59.59,0,0,1,59.81,84.05Z"/><path class="cls-1" d="M84.92,84.69c0,.79-.69,1.64-1.2,2.24s-1.14,1.5-1.92,1.44c-.22-.86.75-1.31,1.2-1.84s.87-1.33,1.36-1.92C84.57,84.61,84.82,84.58,84.92,84.69Z"/><path class="cls-1" d="M73.33,85.41a.73.73,0,0,1-.16.64.62.62,0,0,1-.56-.16C72.45,85.35,73,85.2,73.33,85.41Z"/><path class="cls-1" d="M73.57,87.09a.76.76,0,0,1-.16.64.62.62,0,0,1-.56-.16C72.69,87,73.23,86.88,73.57,87.09Z"/><path class="cls-1" d="M59.41,87.33a8.76,8.76,0,0,1-1.51,2.56c-.24.34-.6.8-.88,1.19s-.53,1.09-1.12.56a6.12,6.12,0,0,1,1.28-2.15,18.92,18.92,0,0,1,1.6-2.24C59,87.26,59.3,87.2,59.41,87.33Z"/><path class="cls-1" d="M87.24,87.73c-.1.67-.74,1.21-1.12,1.76s-.61,1.42-1.44,1.2c-.2-.67.48-1.14.8-1.6s.71-1.07,1-1.52c0-.09.16-.06.16-.16C87,87.35,87.12,87.55,87.24,87.73Z"/><path class="cls-1" d="M60.53,88.77a7,7,0,0,1-1.44,2.39c-.44.67-.73,2-1.75,1.84a4.42,4.42,0,0,1,1-2.24c.51-.77,1.1-1.49,1.6-2.23A.53.53,0,0,1,60.53,88.77Z"/><path class="cls-1" d="M104.91,89.25a8.59,8.59,0,0,1-1.6,2.15c-.49.65-.86,1.75-1.76,1.76-.2-.67.48-1.52,1-2.16a18.9,18.9,0,0,1,1.84-2A.53.53,0,0,1,104.91,89.25Z"/><path class="cls-1" d="M74.29,93.08a.7.7,0,0,1-.64.16C72.81,92.59,74.45,91.84,74.29,93.08Z"/><path class="cls-1" d="M78.6,98.84c.49-1,2.56-1.9,3.52-.88a2.65,2.65,0,0,1,.56,2.16c-.24.54-2.2,1-3.12.8S78.52,99.85,78.6,98.84Zm1.68.72c.36.15,1,.12,1-.32C80.86,99,80.25,98.72,80.28,99.56Z"/><path class="cls-1" d="M104.43,99.48c1.27.85,1.62,2.47,2.4,3.76a23.56,23.56,0,0,0,2.55,3.51,16.75,16.75,0,0,1,.72,2.32c.23.67.82,1.13.88,1.84-1.88.77-4,.42-6.07.56-5.74.39-11.76,1-18,1.12-3.06.09-6.07.56-9.12.56s-6.4-.08-9.51.16c-1.46.11-2.91.41-4.32.56a38.86,38.86,0,0,1-7.35.24c.1-2,.72-4.15,1-6.32A19.53,19.53,0,0,1,59.09,102,104.41,104.41,0,0,0,71,101.8c1.74-.14,3.49,0,5.19-.08a47.65,47.65,0,0,1,6.16-.4,33.36,33.36,0,0,0,4.32.4c3-.21,6-.66,8.87-1C98.59,100.44,101.72,99.85,104.43,99.48Zm-.32.8c-.59.43-1.74.28-2.56.48a18.7,18.7,0,0,0,1,2.72,12.3,12.3,0,0,0,3.12-.4A6.33,6.33,0,0,0,104.11,100.28Zm-7.68,1.2a10,10,0,0,0,.8,2.24c1.49,0,3-.06,4.4-.16-.17-1-.71-1.64-.88-2.64C99.17,101,97.92,101.34,96.43,101.48Zm-5.19.56a10.66,10.66,0,0,0,.55,2.16c1.64,0,2.86-.35,4.48-.32a19.08,19.08,0,0,0-.72-2.24A28.84,28.84,0,0,0,91.24,102Zm-14.8.48a21.43,21.43,0,0,0,.32,2.4c1.69-.15,3.3.22,4.72.08-.22-1-.51-1.89-.72-2.88C79.34,102.27,77.76,102.27,76.44,102.52Zm5.2-.32c.18,1,.49,1.91.72,2.88,1.27,0,2.25-.26,3.52-.24a6.93,6.93,0,0,1-.24-2.32A25,25,0,0,0,81.64,102.2Zm4.8.32a4.17,4.17,0,0,0,.32,2.16c1.47-.05,2.75-.29,4.16-.4-.21-.7-.34-1.48-.56-2.16C89,102.22,87.82,102.46,86.44,102.52Zm-17,.24c-.13.64-.09,1.46-.24,2.08,2.26,0,4.33.14,6.63.08a9.12,9.12,0,0,0-.4-2.4C73.37,102.48,71.45,102.64,69.49,102.76Zm-9.91.08a18.3,18.3,0,0,0-.88,3.43c1.18-.19,2.5-.27,3.59-.55a18.65,18.65,0,0,1,.16-2.88Zm3.75,0a7.47,7.47,0,0,0-.16,2.72,15.62,15.62,0,0,0,2.8-.48c.23-.1.3-.29.56-.32.6-.09,1.25.22,2,.08-.06-.73.12-1.21.08-1.92C67,102.73,65.07,102.89,63.33,102.84Zm42.7,1.28a42,42,0,0,0-5.36.4c.41.86,1,1.57,1.44,2.39,1.87-.23,3.89-.32,5.92-.39a23.48,23.48,0,0,0-1.92-2.64A.43.43,0,0,1,106,104.12Zm-10.56.56a12.49,12.49,0,0,0,.88,2.63,33.05,33.05,0,0,0,4.8-.32,18,18,0,0,1-1.36-2.55C98.29,104.46,97,104.64,95.47,104.68Zm-6.15.56a8.69,8.69,0,0,0,.72,2.31c1.89,0,3.47-.25,5.35-.24a7.58,7.58,0,0,0-1-2.47Zm-4.8.55a3.86,3.86,0,0,0,.32,2c1.39-.1,2.92-.06,4.24-.24-.09-.82-.55-1.26-.56-2.15A37.92,37.92,0,0,0,84.52,105.79Zm-17.59-.07a13.73,13.73,0,0,0,.48,3c2-.21,4.13-.19,5.92-.56a4.76,4.76,0,0,0-.48-2.47A46.77,46.77,0,0,0,66.93,105.72Zm7.28,2.55c1.71-.1,3.36-.26,5.11-.32a2.89,2.89,0,0,1-.48-2.16c-1.49-.18-3.33,0-5-.07C73.93,106.32,74.16,107.4,74.21,108.27Zm5.51-.32c1.41,0,3,.08,4.24-.08a10.68,10.68,0,0,1-.32-2.08,19.8,19.8,0,0,1-4,0C79.39,106.84,80.23,107.34,79.72,108Zm-13.59-2c-1.47.1-3.21.62-4.88.79a6.69,6.69,0,0,0-.16,2.4c1.8-.12,3.41-.43,5.36-.4C66.37,107.79,66.2,106.93,66.13,106Zm-7.59,1.11a10.19,10.19,0,0,0-.24,2.16h1.91a12.14,12.14,0,0,1,.16-2.32C59.64,106.84,59.27,107.15,58.54,107.07Zm46.13.4c.32,1.2,1,2.07,1.36,3.2,1.32,0,2.63-.09,3.83-.24a26.55,26.55,0,0,1-1.12-3A31,31,0,0,0,104.67,107.47Zm-5,.56a5.88,5.88,0,0,0,.48,2.24c.48,0,.42.54.72.72,1.35-.19,3-.1,4.24-.4-.56-.93-.93-2.06-1.44-3C102.41,107.75,101,107.79,99.71,108Zm-5.44.08c.36,1,1.28,1.92,1,3.28,1.56,0,2.74-.35,4.32-.32a5.38,5.38,0,0,1-.64-3C97.5,108.14,95.87,108.12,94.27,108.11Zm-22.06,1.12c-.11,1.1.19,2.2,0,3.12,8,.25,14.88-.68,22.38-1-.07-1.36-.76-2.11-1.2-3.12C86.52,108.59,79.17,108.7,72.21,109.23Zm-8.32.56c.14.94-.11,2.18-.08,3.28a68.93,68.93,0,0,1,7.76-.72,14.66,14.66,0,0,1-.16-3C69,109.53,66.2,109.44,63.89,109.79Zm-5.67.24a30.57,30.57,0,0,0-.8,3.36c1.6,0,3.81-.08,5.51-.24.15-1,.17-2.6.24-3.44A21.5,21.5,0,0,1,58.22,110Z"/><path class="cls-1" d="M107.23,113.71c.35.89-.24,2.22-.56,3.36-.16.52-.35,1.13-.48,1.68s-.07,1.42-.72,1.28c-.48-.85,0-2.2.32-3.12s.66-2,.88-3c0-.1.14-.13.16-.24Z"/><path class="cls-1" d="M76,122.27c-.43-1.07-1-3.35-.4-4.72.3-.66,1.93-1.32,2.88-1.6a39.75,39.75,0,0,1,5.84-1,15.89,15.89,0,0,1,4.64.08c1.25.39,1.6,2,2.16,3.36.26.64.55,1,.39,1.68-.24,1-1.88,1.22-3.11,1.44-1.52.26-2.74.54-3.92.64A81,81,0,0,1,76,122.27Zm3-5.52a3.25,3.25,0,0,0,.64,2.4c-.24.9.45,1.36.4,2.32A34.1,34.1,0,0,0,90.76,120a7.29,7.29,0,0,0-2-4.24A36.26,36.26,0,0,0,79,116.75Zm-2.72,2.56a20,20,0,0,0,2.16-.32c-.11-.66-.21-1.34-.32-2C77.11,117.36,76,117.64,76.28,119.31Zm0,.8c0,.67.37.91.4,1.52a9.21,9.21,0,0,0,2.48-.16c0-.75-.3-1.09-.4-1.68C77.93,119.88,77.2,120.09,76.28,120.11Z"/><path class="cls-1" d="M109.3,115.31a7.36,7.36,0,0,1-.8,2.32c-.24.7-.16,1.77-1,2.08-.53-.49-.09-1.5.16-2.24a13.29,13.29,0,0,1,1-2.32A.59.59,0,0,1,109.3,115.31Z"/><path class="cls-1" d="M103.23,116a28.36,28.36,0,0,1-1.52,4.72h-.4c-.2-1.63.78-3.43,1.28-4.88A.7.7,0,0,1,103.23,116Z"/><path class="cls-1" d="M111.06,116c.21.59-.28,1.23-.48,1.84s0,1.51-.72,1.68c-.89-.88.34-2.59.56-3.44,0-.09.16,0,.16-.16C110.83,115.81,110.87,116,111.06,116Z"/><path class="cls-1" d="M106.83,93.64c2.68,2.34,4.34,6.09,6.47,9.6a37.31,37.31,0,0,1,3,5c1,2.53,2.66,5.25,2.08,9.12-.11.74-.81,1.64-1.12,2.72a14.91,14.91,0,0,1-.32,1.84c-.76,1.55-4,2-6.48,2.39-2.68.48-5.38.62-7.91.88-4.17.44-8,.87-12.07,1.2-2.78.23-5.48.4-8.08.8a27,27,0,0,1-4.16.24c-2.86,0-5.72.16-8.63.16-1.35,0-2.76-.24-4.24-.24s-2.89.08-4.32.08a27.89,27.89,0,0,1-7.83-1c-.81-.24-1.49-1.4-1.92-2.64S50,121.59,50,120.67a23.88,23.88,0,0,1,.64-5.92c.79-3.57,1.41-7.57,2.08-11.35.72-4.09.72-7.43,5-7.92-2-1.57-4.37-2.63-5.76-5a11.33,11.33,0,0,1-1.44-4.07c-.34-2.74.11-5.72,0-8.56-.2-5.34-2.05-9.66-1.44-15.51a11.77,11.77,0,0,1,2.4-6.15,9.69,9.69,0,0,1,3.36-1.76,24.48,24.48,0,0,1,9-1.2c1.62,0,3.19.28,4.8.16,3.2-.25,6.61-.4,9.83-.4,3.39,0,6.6-.18,9.6-.4,2.49-.19,5.22.2,7.59-.08,2.55-.31,6.79-.1,8.56.8a6.21,6.21,0,0,1,2.88,2.8,14.47,14.47,0,0,1,.47,3c.45,2.85.31,6.38.49,9.76.22,4.3.24,9.74.47,14.31C108.72,87.41,108.73,91.21,106.83,93.64ZM97,54.23a36,36,0,0,1-2.72,4.07c-.28.41-.48,1.23-1.2,1.12-.36-.49.16-1,.4-1.36A29.16,29.16,0,0,0,96,54.15a8.17,8.17,0,0,1-1.44.08,4,4,0,0,1-1,1.76c-.35.47-.64,1.32-1.43,1.36-.33-1.28,1.31-1.93,1.59-3.12-4-.3-7.59.4-11.27.4-3.33,0-7.25,0-10.79.32a51.67,51.67,0,0,1-7.84-.16,12,12,0,0,0-2.08,0,25.81,25.81,0,0,0-5.59.8,9.59,9.59,0,0,0-3.6,1.84,10.21,10.21,0,0,0-2,5.59c-.27,5.37,1.29,9.36,1.52,14.55.21,4.77-.73,10,1.52,12.47.41-.3.35-1.08,1.12-1,.45.68-.32,1.34-.72,1.68,1.2,1.4,3,2.23,4.56,3.27.45-.74.6-1.79,1.51-2.08.67.89-.7,1.58-.8,2.48,2.17.61,3.9,1.65,6.8,1.52A8.32,8.32,0,0,1,66,93.24c-1.37-.18-2.91-.39-2.8-1.84,0-.41.45-.36.32-.8-.27-1.74-.55-3.58-1-5.43-.6-2.79-1.94-6.21-.56-8.88-1-.07-1.21-.92-1.2-2-.61-.2-1.14-.75-1.84-1-.44-.19-1-.13-1.43-.32a2.85,2.85,0,0,1-1.68-1.76,2.26,2.26,0,0,1,.88-2c.56-.48,1.3-.38,2-.8s1.21-1.65,2.31-2.16,2.35-.42,3.44-1c-.29-.11-.42-.37-.4-.8-4.32,1.06-2-7.49,1-4.56a3.74,3.74,0,0,1,4.32-2.16c.88-.65,1.41-.07,2.24.24.59.23,1.24.26,1.68.48a4.35,4.35,0,0,1,1.91,4c1.52.14,1.89-1.34,2.8-1.92a7.26,7.26,0,0,1,3.68-.8c.46.56.93.64,1.84.88.34.09.61.32.8.32.59,0,1.06-.59,1.68-.72,1-.21,2.39.36,3.84.48s3-.31,4.23.24A2.57,2.57,0,0,0,94.67,59c1.59-1.28,2.5-3.26,3.68-5C97.9,54.12,97.2,53.93,97,54.23Zm2.56-.16a26.39,26.39,0,0,0-2.8,4,7.91,7.91,0,0,1,1.84-.23c.77-1.24,1.61-2.39,2.32-3.68A5.89,5.89,0,0,0,99.55,54.07Zm2.4.24a23.29,23.29,0,0,0-2.32,3.52c.5,0,.55.46.88.71,1.08.83,2.9.79,2.64,3,.78.16,2.82-.53,2.64.4-.12.58-2,.41-2.8.4-1.58,1.43-4.09,3.36-2.24,5.6.45.55,1.57,1,2.24,1.6s1.25,1.4,1.84,2,1.5,1.09,1.44,2.23c.51-.33.31-1,.31-1.59,0-2.28.12-4.62-.07-6.8-.39-4.36.16-9.3-3.12-10.55-.84.73-1,2.16-2.24,2.48,0-.17-.22-.16-.24-.32.41-1,1.25-1.52,1.6-2.56C102.23,54.45,102.2,54.27,102,54.31ZM66.85,59.1c.59-.16,1.66-.11,1.68.56,0,.11-.1.11-.08.24A3.31,3.31,0,0,0,66,62.3c1.1-1.11,3-1.74,2.72-3.76C67.85,58.45,66.91,58.68,66.85,59.1Zm29.26,0c-.25.29-.37.7-.64,1,.13,1.06-.58,1.29-1,1.76-.23.29-.11.88-.64.72-.3-.07-.28-.6-.16-.88-1.35-.39-2.82,0-4.23-.16s-2.51-.78-3.68-.32a11.14,11.14,0,0,1-.72,3.6c-.19.52-.55.86-.4,1.36s1.45.55,2,.8a9,9,0,0,1,1.12,1c.41.34.93.57,1.28.88,1,.9,1.78,2.17,3,2.4a2.52,2.52,0,0,1,2.71-1c1-2.45,1.85-5,3-7.28a19,19,0,0,0,1.12-2.32c.22-.68.06-1.52.8-1.92-1.19-.38-.76,1.53-1.92,1.44-.56-.55.47-1.06.24-1.52C97.41,58.85,96.62,58.84,96.11,59.1ZM70.61,59a31.17,31.17,0,0,1,3.6,2.08A2.78,2.78,0,0,0,70.61,59ZM95.55,70.7c.12-.25.78-.23.8.08s-.19.39-.24.64c.29,0,.25.23.24.48a8.09,8.09,0,0,1-1,.88c.07.3.36.38.32.8s-.62.44-.72.87c.53-.08.86.81,1.28.72s.37-.68.56-1c.33-.45,1.34-1,1.52-1.67a9.89,9.89,0,0,0,0-1.44c.18-1.43,1.2-2.11,1.6-3a3.52,3.52,0,0,1,.16-4.32c.67-.74,2-1.3,2.24-2.08.44-1.44-1.23-2-2.32-2.56C98.83,63.26,96.6,66.74,95.55,70.7ZM72.13,60.78c-.89-.56-1.39-1.09-2.56-1-1,2.31-4.54,2.84-4.16,6-.56.34-.23,1.23.16,1.52.24.1.41,0,.8,0,.51.9.51,2,1.12,2.64,1.22,1.34,3.34,1.34,5,.64C74,70,74,67.16,74.77,66c-.57-.53-.43-1.76-.65-2.64a2,2,0,0,1-1.91-1.12c.14-.07.13-.29.32-.32a4.45,4.45,0,0,1,1.59.88C73.85,61.72,73,61.36,72.13,60.78Zm-6.32,0c0-.41.52-.38.64-.72C66.06,60.08,65.53,60.37,65.81,60.78Zm-2.88,2.8c-.42-1.24-.08-2.91.8-3.36C62.46,60.34,62,62.72,62.93,63.58Zm20.31-2.16c-.29-.08-.63,0-.88-.08-.47-.15-.73-.7-1.12-.8a5.27,5.27,0,0,0-2.88.72c-.32.23-.43.68-.72,1a4,4,0,0,1-2.72,1.12c-.06,1.19.87,2.09.65,3.2-.09.43-.54,1-.72,1.6a9.18,9.18,0,0,1-1.28,2.72c.52.06.72.45,1,.72,1.39.07,3.12-.2,4.15.24.49-.82,1.46-1.16,2.16-1.76-.1-2.37,1.53-3,3-3.84,0-1.91,1.15-2.59,1-4.56C84.12,62,83.7,61.55,83.24,61.42ZM63.65,63a2.48,2.48,0,0,0,.08-1.6A2.56,2.56,0,0,0,63.65,63Zm.48,3.2c-1,.52-2.12.22-3.12.88-.74.49-1.12,1.44-1.84,1.92-.88.59-2.76.6-2.55,2,.12.82,1.89,1.45,2.87,1.52.82.83,2.52.79,2.16,2.79.23.15.77,0,.88.24,1.09-.72,1.78-1.84,3-2.47a3,3,0,0,1,1.76-2.16,5.57,5.57,0,0,1-1.36-2.72C64.65,68.21,64.46,67.14,64.13,66.22Zm20,.8c-.74.58-2,.9-2.32,1.92-.22.74.09,1.24-.32,1.76s-1.1.47-1.6,1.2c2.27,1.46,3.93,3.53,5.92,5.27,2.11-1.48,3.59-3.6,5.36-5.43C88.81,70.17,87.37,67.68,84.12,67Zm21.11,6c-.13-.4-.78-.76-1.12-1.12-1-1.11-1.94-2.53-3.44-3-1,.52-1.74,2-1.52,4a12.63,12.63,0,0,0-2.8,4c-.35-.06-.48.11-.8.08a14.94,14.94,0,0,0-1.76,3.92c1.12,1.27,2.57-.49,3.28-1.2A21.69,21.69,0,0,0,99,77.81c.31-.43.46-1.21,1-1.52,1.43-.87,3.85.15,5.52-.88C105.07,74.6,105.45,73.71,105.23,73Zm-38.86.16c.6.19,1.25.34,1.84.55-.42-.49-.27-1.54-.56-2.15C67.21,72.1,66.41,72.25,66.37,73.18Zm2.24-1.44A3.83,3.83,0,0,0,68.77,73c1.14,0,2.22-.13,3.44-.08.29-.22.25-.77.24-1.28C71,71.7,69.9,72.26,68.61,71.74Zm3.44,2.07a13.87,13.87,0,0,1,1.12,1.6,33.54,33.54,0,0,1,.32-3.75h-.24C73.37,72.9,73,73.68,72.05,73.81Zm20.38-1.75a1.84,1.84,0,0,0-1,.64c.65.43,1,1.17,1.67,1.59-.18-1,1-1.59.88-2.55C93.72,72,92.79,72.61,92.43,72.06Zm-5.27,5c-.36.29-1.07,1.07-1.52,1s-1-.85-1.36-1.2a30.82,30.82,0,0,0-4.8-4.31,17.57,17.57,0,0,0-5.27-.08c0,1.52-.59,3.23-.24,4.63.07.31.34.52.4.8.23,1.17.16,2.4.31,3.52s.46,2,.65,3c1.7-.57,2.49-2,3.83-3-.27-.54-1.34-2.3-.32-2.56.61-.15,1.39,1.16,2.16,1.44.24.09.54,0,.64.08,1.38.7,2.15,2.4,3.12,2.88,3.15-2.21,5.42-5.48,8.07-8.08a17.9,17.9,0,0,0-2-2A28.71,28.71,0,0,1,87.16,77.09ZM68.69,73.81c1.23.66,2.5,1.29,3.68,2A11,11,0,0,0,71,73.73C70.18,73.71,69.55,73.88,68.69,73.81Zm5.2,7.84c-.27-2-.24-3.9-1.36-4.8a25,25,0,0,0-5.36-2.64c-.37,0-.5.15-.88.08-.22-.07-.34-.24-.56-.31a13.54,13.54,0,0,0-3.12,2.87c-1,1.89-.19,4,.24,5.76.67,2.81,1.2,6.31,1.68,9,.85.92,2.7,1,4.24.8,2.7-.27,5.69-1.45,8.23-1.75-.42-.39-1-1.58-1.59-1.76a13.66,13.66,0,0,0-2.88,0,18,18,0,0,0-4.16.24,10.62,10.62,0,0,1-1.44-4.56c-.29-1.8-.93-3.39-1.28-4.88-.09-.4-.42-1.39.32-1.52.59.28.36,1,.48,1.44.33,1.32,1,2.68,1.28,4.16a19.25,19.25,0,0,0,1,4.48,48.62,48.62,0,0,1,6.23-.16C74.81,85.82,74.17,83.75,73.89,81.65Zm19.9-6.56c-.07.18,0,.35-.08.64A16,16,0,0,0,89.8,80a6.76,6.76,0,0,1,3.19.56c.85-1.65,1.07-3.94,3-4.56C95.21,75.7,94.57,74.6,93.79,75.09Zm6.64,1.84a10.8,10.8,0,0,1-2.32,3c-.59.53-1.1,1.19-1.52,1.52a5.49,5.49,0,0,1-1.44.8c-1,.19-1.48-.3-2.16-.64a6.19,6.19,0,0,0-3.91-.8,25,25,0,0,0-3.6,3.2,18.6,18.6,0,0,0,2.64,1.76c.3.22,2.27,1.69,2.16,2.32s-.82.51-1.2.8a14.53,14.53,0,0,0-2.56,2.87c-.26.4-.44,1.58-1.12,1.6-.44,0-.79-.73-1-1-.75-.67-1.45-.87-2.32-1.6.51,1.55,1.69,2.42,2,4.16,3.2-.42,6.58-.67,9.91-1a5.42,5.42,0,0,1,1.28-2.48c.45-.66.91-1.86,1.92-1.75.1.81-.74,1.41-1.2,2.07s-1.12,1.43-1,2.16c.72-.16,1-1,1.36-1.52.84-1.13,1.68-2.15,2.48-3.27.34-.48.72-1.44,1.52-1.28.14.65-.4,1.23-.72,1.67A50.2,50.2,0,0,0,96.27,94h1.6c.54-1.83,2-3.24,3-4.63.29-.42.62-1.35,1.36-1,.23.63-.43,1-.72,1.44A33.66,33.66,0,0,0,98.67,94a19.52,19.52,0,0,0,3.76-.48,10.65,10.65,0,0,0,2.72-.4c.87-.42,1.82-3.56,1.92-5,.3-4.62-.34-9.23-.56-13.2C106.22,77.34,102.63,76.44,100.43,76.93ZM79.88,81.09c.2,0,.41-.07.4-.32a3,3,0,0,1-.72-.4C79.64,80.64,79.82,80.81,79.88,81.09Zm2.48,1c-.25-.23-1-.85-1.28-.72-1.74.84-3.18,2.6-4.88,3.68.45.64,1.27.92,1.84,1.44a1.47,1.47,0,0,1,.88-.16,2.61,2.61,0,0,1,.4,1.12,1.1,1.1,0,0,1,1.12.48.89.89,0,0,1-.16.64c1.7,1.23,3.49,2.37,5.12,3.67A10.84,10.84,0,0,1,89.16,88a5,5,0,0,0-2.72-2.16c.12,0,.07.19.08.32a16.11,16.11,0,0,0-1.6,2.08c-.46.7-.85,1.74-1.84,1.92,0-.12-.13-.14-.16-.24a25.22,25.22,0,0,1,2.8-4.16c.08-.16.37-.11.48-.24C84.68,84.74,83.54,83.15,82.36,82.05Zm-6.79,6.08a6.94,6.94,0,0,0,1.59-1.36,14.59,14.59,0,0,1-1.75-1.2A7.36,7.36,0,0,1,75.57,88.13Zm.87.48c.25.79,1,1.06,1.52,1.6A12.13,12.13,0,0,1,80,89.49c.12-.27-.44-.49-.16-1-.42-.82-1.93.32-2.16-.56.1-.36.44-.47.64-.72A4.46,4.46,0,0,0,76.44,88.61ZM80.76,90c-1.69.45-2.85,1.42-4.72,1.68a7,7,0,0,1,.24,2.08c2.21-.08,4.33-.26,5.68-1.2C81.51,91.8,81.28,90.78,80.76,90Zm-13.91,3.2a3.83,3.83,0,0,0-.16.88,51.48,51.48,0,0,0,7,.32c.17-.17,0-.7.39-.64.48-.12.26.44.56.48a3.15,3.15,0,0,0,.8-.16A6.56,6.56,0,0,0,75.24,92C72.31,92.26,70.26,93.43,66.85,93.24Zm15.51.08c-1.35,1-3.42,1.17-5.6,1.28-.34,0-.15.43-.56.32-2.81.72-6.58.18-9.43.08a3.15,3.15,0,0,0,.16.8A58.48,58.48,0,0,0,83.24,95C83,94.41,82.9,93.64,82.36,93.32ZM116.18,118c.62-.55.78-2,.64-3.2a15.3,15.3,0,0,0-1-3.28c-.4-1-.8-2.23-1.2-3-.91-1.85-2.78-4.17-3.84-6.15-.75-1.42-1.41-2.6-2.32-4.08-.54-.89-2.34-3.66-3.19-3.36a8.37,8.37,0,0,1-2.08.16c-1.18.08-2.46.48-3.52.56-2,.15-4.21-.16-6.32,0-1.93.15-3.57.32-5.43.48-3.24.27-6.45,1.12-9.68,1.36-3.5.27-6.94.23-10.47.16.21.55,1.26,1.31.64,1.92-1.34-.21-.77-2.32-2.64-2,.13,1,2.25,1.41,1.84,2.64-.84-.07-1.33-.9-1.92-1.44a3.73,3.73,0,0,0-2.16-1.36,6.88,6.88,0,0,0,1.12,1.6c.44.48,1.39.83,1.2,1.6-1,.11-1.6-.94-2.16-1.6-.3-.35-.67-.69-1-1s-.46-1-1-.8a11.2,11.2,0,0,0,1.76,2.32c.39.38,1.24.59,1,1.28-1.13.18-1.59-.79-2.24-1.52s-1.26-1.9-1.92-2.08c-.37-.1-.68.08-1,0,.2,1,2.24,1.33,2.16,2.64-.51.23-.94-.29-1.28-.56s-.78-.56-1.12-.88-.68-1.1-1.27-1.2a3.13,3.13,0,0,0-2.56,1.52c-.57,1-.75,3.16-1,4.8-.47,2.63-.89,5.21-1.28,7.43a69.19,69.19,0,0,0-1.36,9c3.05,4.31,11,3.91,18,3.59,3.31-.15,6.73,0,10-.16,6.76-.3,13-1.58,19.43-1.91.45-1.24.94-2.7,1.28-4,.1-.39.17-1.16.8-1,.38.67-.06,1.71-.32,2.56a8.61,8.61,0,0,0-.72,2.32c.92-.2,1.89-.35,2.88-.48a11,11,0,0,1,.8-2.88c.16-.54.5-2.84,1.12-2.72s.25.93.16,1.28c-.4,1.52-1,2.8-1.28,4.16C107.79,119.7,113.62,120.22,116.18,118Zm-3,3.12c0,.43-.08,1,.16,1.2.18-.14.45-.19.64-.32a5.64,5.64,0,0,1,.08-1C113.72,120.92,113.59,121.11,113.22,121.07Zm-1.6.24v1.19c.24-.1.64,0,.88-.15a7.55,7.55,0,0,1-.16-1.12C112.09,121.24,111.76,121.17,111.62,121.31Zm-1.28,1.35c.19,0,.24-.13.48-.07v-1.2h-.4A7.27,7.27,0,0,0,110.34,122.66Zm-1.51.24c.29.07.38-.09.63-.08.1-.4,0-.85.16-1.35h-.72A5.44,5.44,0,0,1,108.83,122.9Zm-2.16-1.19c-4.4.65-8.92,1.41-13.6,1.75s-9.22,1.16-14,1.36c-6,.26-12,0-18.15.16,0,.33.26.44.16.88,4.29-.4,8.17.49,12.48.16,2.05-.16,4.6,0,6.87-.16,2-.11,4-.68,6-.8,6.67-.4,12.51-1.16,18.79-1.68-.14-.3-.39-1.35.24-1.35s.22,1.18.32,1.35l2.48-.4c-.13-.19-.17-1.1-.4-1.43C107.71,122.83,106.88,122.8,106.67,121.71Zm-51.81,3.43a2.41,2.41,0,0,1-.64-1.36c-.2,0-.25-.12-.4-.16C54.08,124.17,54.21,125.25,54.86,125.14Zm1.52.4c-.25-.52-.47-1.5-1.2-1.28C55.55,124.72,55.81,125.29,56.38,125.54Zm1.36.24c-.2-.47-.21-1.12-.8-1.2C57.13,125.06,57.15,125.71,57.74,125.78Zm.88.08c.24,0,.68.11.79-.08-.42-.11-.46-.59-.63-1H58.3C58.35,125.23,58.68,125.34,58.62,125.86Zm1,0h.72c-.23-.3-.21-.85-.64-1C59.9,125.14,60,125.76,59.65,125.86Z"/></svg>