<?xml version="1.0" encoding="utf-8"?>
<!-- Generator: Adobe Illustrator 23.0.6, SVG Export Plug-In . SVG Version: 6.00 Build 0)  -->
<svg version="1.1" id="s" xmlns="http://www.w3.org/2000/svg" xmlns:xlink="http://www.w3.org/1999/xlink" x="0px" y="0px"
	 viewBox="0 0 175 175" style="enable-background:new 0 0 175 175;" xml:space="preserve">
<style type="text/css">
	.st0{fill-rule:evenodd;clip-rule:evenodd;fill:#1371B6;}
</style>
<g>
	<path class="st0" d="M93.91,32.21c8.53,2.02,16.5,3.7,23.07,7.64c3.31,1.98,6.31,3.7,9.17,6.11c2.72,2.3,5.47,4.64,7.79,7.49
		c2.06-0.66,3.95-1.48,6.26-2.29c1.52-0.54,4.96-2.64,6.26-1.68c1.28,0.95-0.27,3.74-0.61,5.19c-1.3,5.56-2.6,12.29-4.28,17.72
		c5.57,0.16,14.29-1.62,15.74,3.51c-0.03,11.1-2.7,20.26-5.04,29.48c-1.31,5.17-1.43,10.01-4.74,13.14
		c2.82,2.5,3.54,6.79,6.11,10.08c3.27,4.19,6.75,8.68,8.86,14.05c1.5,3.82,3.94,8.63,2.29,13.9c-0.4,1.27-1.35,1.88-1.68,3.36
		c-0.19,0.87,0.07,1.83-0.15,2.75c-1.7,7.15-15.18,5.24-23.99,5.96c-10.41,0.85-20.21,3.09-32.39,2.14
		c-2.34-0.18-5.6-0.09-8.71-0.31c-10.52-0.74-22.36,0.28-32.08-0.76c-1.1-1.49-2.06-3.26-3.06-5.19c-0.34-0.66-0.87-1.23-0.92-1.68
		c-0.08-0.8,0.5-1.55,0.61-2.29c0.11-0.74-0.06-1.59,0-2.29c0.25-2.83,1.41-5.4,2.29-8.1c0.87-2.66,1.49-5.36,2.29-8.1
		c0.8-2.72,1.87-5.33,2.44-8.1c0.97-4.7,1.84-9.35,4.13-12.68c-2.17-1.82-2.49-5.03-3.67-8.25c-1.75-4.78-2.59-10.56-4.43-15.43
		c-16.48,5.57-34.7,0.17-44.3-7.33C10.76,82.11,3.29,70.31,2.4,53.14c0.1-14.25,5.04-25.07,12.68-33.46
		C24.27,9.59,38.44,2.43,57.55,5.01c3.34,0.45,6.24,1.37,9.32,1.68c2.77,1.91,5.87,2.88,8.56,4.58
		C83.29,16.28,89.65,23.37,93.91,32.21z M57.09,24.41c0.74-0.33,2.3,0.16,2.75-0.46c-0.74,0.05-1.82-0.13-2.29-0.46
		c-0.65-0.46-2.35-3.9-2.29-4.28c0.14-0.9,1.97-1.53,2.75-1.99c1.16-0.68,2.01-1.25,2.9-1.83c-2.72-3.9-7.3-6.75-12.83-7.33
		C51.59,13.02,54.65,18.41,57.09,24.41z M62.29,14.03c-0.38-1.86-0.38-3.43,0.76-4.43c-2.83-0.63-6.06-1.68-9.17-1.53
		C57.77,8.97,59.55,11.98,62.29,14.03z M52.66,18c-0.45-0.89-1.43-1.8-1.99-2.75c-1.56-2.66-3.08-6.08-4.89-7.18
		C42.75,13.53,38.9,19,38,26.1c5.73-0.53,11.68-0.85,17.42-1.38C54.4,22.77,53.8,20.25,52.66,18z M43.65,8.99
		c0.06-0.29,0.33-0.38,0.31-0.76C43.5,8.04,43.3,8.87,43.65,8.99z M33.57,14.03c1.65-1.75,5.25-3.41,6.26-5.04
		c-0.01,0.02-0.13-0.02-0.15,0c-5.03,1.38-9.48,3.35-13.44,5.8c-0.11,2.9-1.72,4.29-1.99,7.03c0.49,0.42,0.86,0.97,1.37,1.38
		C27.79,20.12,30.67,17.09,33.57,14.03z M42.73,9.6c-2.97,1.46-5.75,3.17-7.94,5.5c-3.43,3.65-7.1,7.23-9.78,11.61
		c3.99,0.12,7.41-0.33,11.15-0.46c1.24-6.65,4.3-12.3,7.03-16.96C42.99,9.35,42.92,9.51,42.73,9.6z M71.45,13.11
		c-2.11-1.09-4.31-2.1-6.72-2.9c-1.81,0.66-0.33,3.66-1.37,5.04c2.55,2.24,4.62,4.96,6.88,7.49c3.37-1.06,6.82-2.04,8.86-4.43
		c-1.82-1.44-3.74-2.77-5.65-4.13c-0.62-0.06-0.62,0.5-1.38,0.31C71.72,14.17,71.64,13.59,71.45,13.11z M15.39,25.18
		c1.33,1.27,3.69,1.51,6.26,1.53c0.8-0.93,1.7-1.77,2.14-3.06c-2.72-1.41,0.65-6.08,0.46-7.49C20.99,18.87,17.54,21.37,15.39,25.18z
		 M62.14,16.32c-1.39,1.41-3.58,2.02-5.04,3.36c0.59,0.63,0.92,1.53,1.22,2.45c1.42,0.41,3.42,0.24,3.82,1.68
		c2.18-0.12,4.34-0.24,6.11-0.76C66.42,20.59,64.46,18.27,62.14,16.32z M80.16,19.53c-2.04,2.39-5.53,3.33-8.71,4.58
		c2.31,2.58,4.31,5.47,5.35,9.32c4.15-0.69,8.27-1.41,12.83-1.68C87.2,26.95,84.13,22.79,80.16,19.53z M69.62,24.57
		c-2.2,0.15-5.1,0.91-7.95,0.92c-0.61,1.38-1.54,2.44-2.9,3.06c0.3,1.18,0.69,2.26,0.92,3.51c1.07-0.2,2.99-2.22,3.67-0.46
		c-0.58,1.2-2.15,1.41-3.36,1.98c0.39,1.44,0.7,2.97,0.92,4.58c2.17,0.16,3.71-1.38,5.5-1.99c2.86-0.97,5.75-1.48,8.86-2.44
		c-0.46-1.99-1.39-3.5-2.29-5.04c-0.99,0.03-0.86,1.17-1.98,1.07c-0.22-0.09-0.37-0.24-0.46-0.46c-0.11-1.23,0.82-1.42,1.38-1.99
		C71.21,26.34,70.69,25.18,69.62,24.57z M57.7,26.1c0.24,0.21,0.39,0.53,0.46,0.92c0.62-0.24,1.19-0.55,1.37-1.22
		C58.96,25.93,58.16,25.84,57.7,26.1z M14.17,26.25c-4.72,7.15-8.44,15.3-8.25,27.35c3.53,1.11,7.85,1.42,11.76,2.14
		c-0.04-4.02-0.45-7.92-0.15-11.61c0.47-5.79,2.39-10.87,3.51-15.73C18.32,28.1,15.63,27.79,14.17,26.25z M37.39,27.78
		c-0.85,3.43-1.21,7.34-1.07,11.76c0.8-0.57,1.14-1.2,2.14-1.68c0.94-0.46,2.2-0.44,3.21-0.92c1.92-0.9,3.63-3.75,6.11-2.6
		c0.17,1.65-0.71,2.25-0.46,3.97c0.68,0.95,1.78,1.48,3.06,1.83c0.08-2.88-1.89-3.71-1.68-6.72c-3.8-0.97,0.66-3.26,2.6-3.97
		c2.16-0.8,4.56-0.89,5.35-1.99c-0.02-0.54-0.44-0.68-0.46-1.22C49.93,26.78,43.55,27.17,37.39,27.78z M23.64,28.39
		c-2.38,1.72-1.71,9.14,0.46,10.54c0.62,0.4,1.64,0.27,2.29,0.61c1.28,0.68,1.62,2.43,2.9,3.36c1.61,1.17,3.03,0.46,5.35,0.92
		c-0.12-5.78,0.04-11.27,1.07-15.89C31.54,27.94,27.98,28.55,23.64,28.39z M49.91,31.9c0.61,0.94,0.07,1.97,0.31,2.9
		c0.13,0.53,0.7,1.02,0.92,1.53c0.67,1.6,0.9,3.77,0.92,5.96c-0.51,0.16-0.49,1.04-1.07,1.38c-2.12,1.21-3.12-1.61-0.61-1.38
		c-1.95-1.52-5.62-2.11-4.43-6.26c-1.44,0.26-2.22,1.61-3.67,2.29c-1.01,0.48-2.28,0.43-3.21,0.92c-1.5,0.78-1.83,2.34-2.29,4.12
		c0.55,0.34,0.63,1.17,0.61,1.68c3.57-0.21,5,1.72,6.87,3.21c1.47,0.14,2.36-0.29,3.67-0.31c1.44,2.33,2.68,4.86,2.6,8.71
		c2.51-1.06,6.9-0.23,9.78-0.92c-0.09-4.55,0.24-9.51-0.31-13.59c-0.79,0.16-1.4-0.46-1.53-1.07c-0.24-1.15,0.74-1.28,0.92-2.29
		c0.22-1.25-0.6-3.35-0.92-4.89c-0.38-1.86-0.5-3.49-1.38-4.58C54.78,30.25,51.94,30.67,49.91,31.9z M98.65,38.47
		c0.01,0.95,1.45,2.07,0.31,2.75c-1.54-0.35-2.14-1.63-2.9-2.75c-1.62-0.52-2.91-1.37-4.28-2.14c-0.1,0.66,0.75,1.18,0.31,1.68
		c-1.48-0.86-2.79-1.9-4.13-2.9c-5.61,0.19-10.51,1.1-14.82,2.6c5.01-0.21,9.12,0.18,12.98,0.92c1.96,0.37,4.08,0.56,5.65,1.07
		c0.57,0.19,0.98,0.61,1.53,0.76c0.44,0.12,1.37,0.08,1.99,0.31c1.62,0.59,4.29,2.68,5.8,3.51c3.69,2.04,7.83,4.5,11.15,7.33
		c2.14,1.82,3.43,3.4,5.04,5.81c1.4,2.1,2.97,2.63,1.83,5.5c-4.92,1.6-9.6,3.43-14.36,5.2c10.42,5.06,18.36,12.61,29.03,17.41
		c1.73-2.95,2.47-6.9,3.97-10.08c-0.08-0.54-0.23-0.99-0.15-1.68c1.08-1.21,1.32-3.26,1.68-5.19c-0.3-0.21-0.71-0.31-0.76-0.76
		c-0.25-4.33-0.62-8.54-1.53-12.22c-1.45,0.43-2.86,0.91-4.13,1.53c0.32,2.74,0.61,6.17,0.61,9.47c0,1.1,0.39,2.85-0.92,3.05
		c-1.23-0.67-0.76-2.34-0.76-3.51c0-3.96-0.68-7.49-0.92-10.39c-0.03-0.39,0.14-0.86,0-1.22c-0.68-1.81-2.79-2.13-3.82-3.51
		c0.33,1.65,1.31,3.49,1.83,5.5c0.44,1.67,1.53,4.9,0,5.65c-1.43-1.58-1.13-4.2-1.83-6.26c-0.72-2.09-1.44-4.12-2.14-5.96
		c-0.09-0.5,0.1-0.71,0.15-1.07c-1.23-0.76-2.04-1.93-3.36-2.6c1.96,3.49,2.98,7.92,4.43,11.92c-1.44,1.85-2.07-0.73-2.45-2.14
		c-0.96-3.63-2.44-7.44-3.67-9.62c-0.26-0.77,0.71-0.77,0.31-1.22c-0.97-0.3-2.02-1.34-2.9-1.22c0.64,1.48,1.64,2.94,2.29,4.58
		c0.71,1.81,1.53,3.69,1.83,5.5c-1.45,0.6-1.8-0.88-2.14-1.68c-1.55-3.6-2.83-7.29-4.58-10.23c-0.69-0.23-1.1-0.74-1.83-0.92
		c0.76,1.2,1.21,2.18,1.98,3.82c0.31,0.65,2.25,3.51,0.76,3.82c-1.1,0.23-2.43-3.68-2.9-4.58c-1.46-2.79-2.33-5.16-5.5-5.35
		c0.86,1.2,1.48,2.5,2.29,3.67c0.78,1.12,2.16,2.02,2.29,3.67c-1.64,1-3.25-2.48-4.13-3.82c-1.23-1.89-2.37-3.25-3.21-4.43
		c-1.43-0.05-2.37-0.58-3.51-0.92c0.71,0.88,1.42,2.38,2.44,3.67c0.91,1.14,3.17,2.37,1.99,3.97c-1.79-0.78-2.76-2.67-3.82-4.13
		c-1.16-1.59-2.51-2.89-3.67-4.43c-2.32-0.18-3.41-1.58-5.81-1.68C93.85,36.35,96.97,36.68,98.65,38.47z M19.36,55.89
		c5.15,0.61,10.66,0.85,16.19,1.07c-0.41-3.82-0.43-8.02-1.07-11.61c-2.6-0.31-4.36,0.09-6.11-1.22c-1.26-0.95-1.68-2.61-2.75-3.21
		c-0.7-0.39-1.64-0.23-2.29-0.61c-1.76-1.02-1.69-3.06-2.6-4.89C19.05,40.92,18.95,48.79,19.36,55.89z M61.68,42.29
		c0.53,4.06,0.23,8.94,0.31,13.44c3.27,0.15,6.3-1.21,8.71-0.92c0.9,0.11,1.63,0.96,2.75,1.07c1.98,0.19,3.8-1.23,5.81-1.37
		c0.06-5.31-0.76-9.74-1.83-13.9C71.31,40.84,65.38,39.52,61.68,42.29z M80.93,54.05c5.38-1.14,9.93-3.11,13.59-5.96
		c-0.18-1.4-0.36-2.8-0.61-4.12c-3.96-2.05-9.6-2.42-14.67-3.36C79.91,44.99,80.97,48.96,80.93,54.05z M93.76,72.54
		c3.59,0.32,7.86,0.06,11.61-0.31c-0.87-0.61-1.68-1.5-2.9-2.14c-1.18-0.61-3.11-0.54-3.36-1.83c-0.29-1.5,0.53-1.44,1.53-1.99
		c3.94-2.16,11.72-3.61,15.12-5.5c-3.96-7.14-11.02-11.19-18.18-15.13C98.72,55.9,97.03,65.71,93.76,72.54z M43.35,56.19
		c1.38,0.96,3,1.69,5.35,1.68c0.81-3.46-0.51-6.11-1.53-8.25c-5.13,1.52-5.4-3.83-9.93-2.9C39.45,49.7,43.63,50.71,43.35,56.19z
		 M40.9,57.57c0.67-0.11,0.86,0.26,1.53,0.15c-0.34-0.48-0.86-2.09-0.61-3.67c-1.36-2.3-3.29-4.04-5.35-5.65
		C36.76,52.64,39.16,54.77,40.9,57.57z M94.52,50.08c-3.69,2.73-8.43,4.41-13.59,5.65c0.1,2.09-0.17,3.8-0.46,5.5
		c1.85,1,4.47,0.97,5.2,3.21c0.76,2.36,0.41,5.61-0.15,7.79c1.43,0,2.85,0,4.28,0C92.82,66.41,95.1,59.01,94.52,50.08z
		 M141.12,54.05c0.29,1.54,0.43,3.24,0.92,4.58c0.22-1.66,1.01-3.58,0.76-5.19C142.35,53.76,141.7,53.87,141.12,54.05z M37.23,57.11
		c0.56-0.05,0.99,0.02,1.38,0.15c-0.4-1.02-1.02-1.83-1.68-2.6C37.08,55.43,37.11,56.32,37.23,57.11z M141.27,62.3
		c-1.29-1.92-0.7-5.71-1.98-7.64c-0.14,0.27-0.54,0.28-0.76,0.46c0.71,3.21,1.25,6.59,1.37,10.39
		C140.74,64.83,140.72,63.28,141.27,62.3z M6.53,59.71c0.6-0.03,1.43-0.41,1.53,0.46c0.1,0.93-0.81,0.53-1.22,0.92
		c0.59,2.99,1.56,5.91,2.75,8.71c0.82,1.93,2.58,6.23,4.13,7.33c0.63,0.45,1.84,0.51,2.9,0.76c3.36,0.81,7.39,1.1,11.15,1.68
		c-4.08-6.05-8.2-13.39-9.93-22.3c-4.04-0.54-8.17-1-11.76-1.99C6.03,56.94,6.44,58.17,6.53,59.71z M75.12,57.11
		c0.82,1.18,1.9,3.39,3.82,3.97c0.1-1.63,0.45-3.01,0.31-4.89C77.77,56.39,76.68,56.99,75.12,57.11z M69.32,56.65
		c1.51-0.15-0.23-0.42-0.76,0.15C69.01,56.83,69.02,56.68,69.32,56.65z M64.58,57.26c0.78-0.2,0.83-0.09,0.15-0.15
		c-1.14-0.11-2.3,0.2-2.75,0.46C63.21,57.53,64.15,57.37,64.58,57.26z M51.75,58.18c3-0.11,6.49,0.28,8.55-0.76
		C57.88,58.1,53.87,57.19,51.75,58.18z M21.8,65.66c0.64,0.64,2.44,0.1,2.44,1.37c-0.08,0.63-0.62,0.8-1.37,0.76
		c2.02,4.65,4.59,8.75,7.64,12.37c3.86,0.32,7.19,1.16,11.3,1.22c-1.5-4.05-2.72-8.38-3.97-12.68c-1.4,0.65-2.63-1.89-0.31-1.68
		c-0.62-2.74-1.28-5.44-1.68-8.4c-5.4-0.36-10.94-0.57-16.19-1.07C20.04,60.6,21.14,62.91,21.8,65.66z M76.5,62
		c-0.8-1.95-2.21-3.29-3.97-4.28c-3.31,0.71-7.11,0.93-10.54,1.53c0.32,7.19-0.37,13.38-1.68,18.94c2.88-3.28,8.58-5.07,14.67-5.65
		c1.67-2.87,2.53-6.54,3.67-9.93C77.86,62.47,77.16,62.25,76.5,62z M38.92,66.43c2.18-0.93,2.2,1.6,0.46,1.68
		c1.26,4.6,2.48,9.23,4.28,13.29c2.46,0.07,4.76-0.03,6.72-0.46c-1.2-1.8,1.21-5.19,2.14-6.42c0.62-0.83,2.01-1.46,1.68-2.75
		c-2.36-2.08-7.77-0.29-9.17-2.75c-1.64-2.9,4.39-5.83,3.67-8.4c-0.54-1.91-4.01-0.7-5.96-1.22c-0.13,0.28,1.17,1.11,0.46,1.99
		c-2.27,0.04-2.42-3.26-5.65-2.75C37.7,61.53,38.6,63.69,38.92,66.43z M50.37,59.55c0.31,4.54-3.1,5.36-3.97,8.71
		c2.61,1.42,8.22,0.17,9.32,2.75c1.63,3.83-5.59,5.66-3.67,9.78c2.33-0.22,4.16-0.93,6.42-1.22c1.25-6.09,2.25-12.41,1.83-20.17
		C56.91,59.6,53.72,60.08,50.37,59.55z M76.95,72.54c2.14-0.1,4.01-0.47,6.42-0.31c0.01-0.9,0.82-1.02,1.07-1.68
		c-0.17-1.87-0.44-3.63-0.31-5.81c-0.97-0.96-2.43-1.44-3.97-1.83C79.27,66.19,77.91,69.82,76.95,72.54z M109.8,74.83
		c-2-0.18-3.67,0.46-5.65,0.61c-5.74,0.43-10.81-0.09-15.58,0.15c-1.68-0.64-4.94-0.65-7.49-0.46c-5.33,0.4-9.68,0.76-13.59,2.14
		c-2.11,0.74-5.38,2.31-5.5,4.58c-0.07,1.33,1.25,2.87,1.99,4.13c5.35,9.2,7.06,22.57,11,32.39c1.63,0.74,3.43,0.41,5.19,0.31
		c5.01-0.3,10.84,0,16.65,0c5.63,0,11.67-0.55,16.65,0c0.99,0.11,1.94,0.53,2.9,0.61c1.76,0.15,3.53-0.13,5.35,0
		c2.57,0.18,5.18,0.52,7.49,0.31c4.58-0.43,8.84-2.68,13.29-1.68c0.27-0.44,0.9-0.52,1.68-0.46c0.33-0.48,0.74-0.89,1.38-1.07
		c2.34-3.06,2.94-8.18,4.12-12.68c1.52-5.79,2.71-11.18,3.82-17.57c0.47-2.7,1.69-7.76,0.61-9.62c-1.79-3.08-9.36-0.38-13.14-1.07
		c-0.43,0.89-0.79,1.86-1.07,2.9c2.68-0.41,6.34-0.63,8.25,0.46c2.33,1.33,2.83,5.73,2.44,9.62c-0.3,2.99-1.21,6.63-1.99,10.39
		c-0.68,3.27-0.84,8.39-1.99,10.54c-0.74,1.39-3.98,2.89-6.42,3.51c-4.21,1.08-8.53,1.64-13.6,1.98c-6.7,0.46-13.54-0.47-19.86,0
		c-8.04,0.6-17.2,0.82-25.05,1.22c-0.56-0.64-2-0.84-2.9-1.53c-2.32-1.76-2.85-5.32-3.67-9.01c-0.56-2.54-1.03-5.6-1.99-7.49
		c-0.52-1.02-1.2-1.58-1.38-2.29c-0.17-0.69-0.08-2.37-0.15-3.06c-0.29-2.76-1.59-6.77-0.61-9.32c1.21-3.16,5.52-2.57,9.17-3.21
		c2.7-0.47,5.53-1.9,7.94-2.14c0.71-0.07,1.63,0.08,2.44,0c1.14-0.12,2.19-0.6,3.06-0.61c0.79-0.01,1.45,0.25,2.29,0.31
		c2.98,0.21,6.09-0.23,9.16,0c3.79,0.28,7.48,0.79,11.15,0.92C114.41,77.63,112.61,75.08,109.8,74.83z M49.76,96.37
		c-7.05-1.39-10.63-5.39-15.12-9.32c-0.79-0.69-1.83-1.62-2.75-2.6c-0.99-1.04-1.47-2.41-2.44-2.9c-0.97-0.49-3.07-0.75-4.58-0.92
		c-3.04-0.33-7.65-0.64-9.62-1.22C23.01,88.7,33.44,96.14,49.76,96.37z M86.27,80.02c-0.89,4.25-2.87,7.41-5.2,10.24
		c-0.61,0.56-0.19,2.15-1.53,1.98c-1.29-1.24,0.5-2.02,0.46-3.36c2.04-1.63,2.86-4.47,3.67-7.33c-0.9-0.92-2.08-0.07-3.21,0.15
		c-2.28,0.45-5.02,0.48-7.18,1.07c-0.97,0.92-1.1,2.4-0.92,4.28c0.4,4.18,0.98,7.86,2.44,11.15c1.7,3.84,1.5,8.23,3.06,11.61
		c0.1-1.28,0.91-1.86,1.53-3.06c0.42-0.82,0.6-2.97,1.68-2.9c1.38,0.09,0.26,2.53-0.15,3.36c-0.63,1.25-1.43,2.14-1.83,3.21
		c-0.5,0.09-0.71-0.1-1.07-0.15c0.39,0.83,0.45,2,1.37,2.29c0.39-1.3,1.22-2.59,1.83-3.82c0.57-1.15,1.03-2.9,2.6-3.05
		c0.67,2.67-3.22,5.47-2.75,7.79c1.85-2.38,3.27-5.18,4.89-7.79c-0.02-2.89,2.05-1.79,1.53,0.31c-0.65,2.59-4.12,5.71-4.43,8.1
		c0.56-0.1,1.52,0.2,1.83-0.15c0.69-3.17,2.94-6.15,4.58-9.01c0.52-0.91,0.44-2.45,1.83-2.6c1.11,0.82,0.12,2.13-0.31,2.9
		c-1.56,2.86-3.61,5.77-4.58,8.86c0.87-0.1,2.14,0.2,2.75-0.15c-0.56-0.01-0.67-0.45-0.61-1.07c0.71-1.49,1.44-2.65,2.44-4.28
		c0.32-0.51,1.66-4.18,2.6-4.13c1.74,0.11-0.53,3.6-0.92,4.28c-1.07,1.86-1.58,3.21-2.29,4.43c-0.28,0.47-0.95,0.7-0.61,0.92
		c4.88-0.44,10.28-0.16,15.58-0.61c8.69-0.73,17.89,0.08,25.82-0.61c3.36-0.29,8.47-1.19,11.46-2.44c0.53-0.22,1.84-0.91,2.14-1.22
		c1.4-1.48,1.26-6.08,1.68-8.4c0.68-3.73,2.18-9.02,2.44-12.37c0.29-3.59-0.06-6.53-1.37-8.25c-2.19-0.67-5.86-0.59-8.25-0.15
		c-0.66,1.46-1,3.25-1.83,5.04c-0.61,1.3-1.44,3.92-2.75,4.12c-2.14,0.34-3.73-2.18-5.65-2.75c-1,1.09-0.84,3.34-2.6,3.67
		c-1.71-1.47,2.21-3.71,0.46-4.74c-1.06,0.62-1.6,2.23-2.44,3.51c-0.81,1.25-1.53,2.82-2.75,3.51c-1.37-1.25,0.37-2.75,1.07-3.82
		c0.86-1.33,1.78-2.68,2.29-3.97c-0.69-0.44-1.16-1.09-2.14-1.22c-1.45,3.06-3.5,5.88-5.04,8.71c-0.47,0.87-0.71,2.44-1.98,2.6
		c-0.91-0.98-0.02-2.49,0.46-3.36c1.68-3.08,4.05-5.83,5.35-9.01c-0.81-0.41-1.25-1.19-2.29-1.38c-0.48,1.86-1.87,3.34-2.75,5.04
		c-0.81,1.56-0.89,4.07-2.6,4.74c-0.95-0.64-0.29-1.86,0-2.6c1.15-2.89,2.92-5.08,3.82-7.79c-0.92,0-1.83,0-2.75,0
		c-0.44,2.4-2.06,4.32-3.06,6.26c-0.41,0.81-0.33,2.37-1.68,2.44c-1.01-1.53,0.36-3.15,1.07-4.43c0.76-1.38,1.72-2.83,1.99-4.43
		C105.14,79.03,94.4,79.3,86.27,80.02z M58.01,81.4c-0.03-0.12-0.13-0.18-0.31-0.15c-1.79,0.5-3.66,0.92-5.65,1.22
		c-0.14,2-2.56,1.72-3.36,3.06c1.98,0.65,3.99,1.98,3.36,4.74c0.93-0.24,1.96-0.39,3.21-0.31C56.42,87.35,57.54,84.69,58.01,81.4z
		 M47.78,94.08c-1.83-2.96-3.97-6.92-5.19-11c-3.77,0-7.49-0.86-10.54-1.07C36.7,86.61,40.66,91.93,47.78,94.08z M44.26,83.23
		c1.67,4.44,3.38,8.84,6.72,11.61c0.25-0.21,0.38-0.54,0.92-0.46c0.46,0.15,0.61,0.62,1.07,0.76c0.38-1.25,1.2-2.06,1.38-3.51
		c-1.85-0.17-2.8,0.56-3.97,1.07c-0.14-0.27-0.56-0.25-0.61-0.61c0.01-1.62,1.18-2.1,0.76-3.51c-0.4-1.38-2.54-1.19-3.36-2.29
		c-0.65-2.19,1.34-3.03,2.9-3.51C48.05,82.84,46.19,83.07,44.26,83.23z M57.25,89.95c1.48-0.51,3.18-0.8,4.89-1.07
		c-0.88-1.82-2.29-3.11-2.9-5.19C58.78,85.88,57.53,88.09,57.25,89.95z M56.18,91.63c-0.46,1.07-0.8,2.25-1.37,3.21
		c3.63-0.24,5.53-2.21,7.49-4.12C59.8,90.58,58.35,91.47,56.18,91.63z M58.16,95.76c2.23-0.32,4.23-0.86,6.11-1.53
		c-0.33-0.74-0.45-1.69-0.92-2.29C61.8,93.39,60.23,94.82,58.16,95.76z M71,157.63c-0.49,0.36-1.47,0.74-1.83,0
		c0.34-1.44,1.66-1.91,2.6-2.75c0.74-0.19,0.51,0.61,1.07,0.61c1.46-1.02,2.37-4.1,4.58-3.36c-0.68,2.32-2.87,3.54-4.28,5.19
		c-1.5,1.76-2.83,3.55-4.28,5.35c0.8,0.07,1.34,0.39,2.14,0.46c2.65-2.51,5.01-6.03,7.48-8.71c0.73-0.79,1.87-2.42,3.21-1.68
		c-0.03,1.28-1.22,2.12-1.99,2.9c-2.46,2.51-4.78,5.33-6.57,7.94c0.96-0.04,1.81,0.03,2.6,0.16c1.21-2.71,3.35-4.81,5.19-6.72
		c0.63-0.66,1.15-1.92,2.29-1.84c0.67,1.92-1.5,3.17-2.6,4.43c-1.26,1.44-2.62,2.84-3.21,4.28c1.22-0.71,1.71-3.62,3.67-2.6
		c0.21,1.53-1.27,1.38-1.37,2.6c6.45-0.56,13.08,0.84,19.71,0.31c1.23-0.1,2.46-0.52,3.67-0.61c1.59-0.11,3.16,0.13,4.74,0
		c7.43-0.6,14.91,0.45,22.15-0.3c7.59-0.79,17.03-0.04,24.14-1.53c-0.07-0.55-0.25-0.88,0-1.37c0.93-1.76,2.28-3.18,3.51-4.73
		c1.14-1.43,2.24-3.6,4.13-4.13c0.64,2.05-1.66,3.3-2.75,4.74c-1.22,1.59-2.68,2.97-3.06,4.73c0.18-0.53,0.96-0.47,1.68-0.46
		c1.14-1.01,2.04-3.26,3.21-4.74c0.57-0.72,1.09-0.8,1.37-1.53c0.31-0.77,0.1-3.03-0.15-4.13c-0.59-2.55-2.1-6.19-3.21-8.4
		c-2.79-5.55-6.24-8.87-9.32-14.05c-1.26-2.12-2.53-6.5-4.89-6.87c-0.64-0.1-1.64,0.18-2.44,0.15c-0.91-0.04-1.78-0.32-2.45-0.31
		c-3.26,0.09-6.31,1.55-9.62,1.83c-2.29,0.2-5.2,0.23-7.79,0c-2.46-0.22-4.96-0.04-7.33-0.31c-0.92-0.1-1.79-0.52-2.75-0.61
		c-5.43-0.51-11.2,0-16.81,0c-5.55,0-11.1,0.13-16.65-0.15c-0.49,0.58-1.65,0.49-2.29,0.92c-0.3,0.52-0.59,1.04-1.07,1.37
		c-2.09,5.4-2.88,11.61-5.04,18.03c-0.91,2.69-1.76,5.81-2.75,8.86c-0.97,3.01-3.8,9.38-0.76,11.31
		C68.5,160.94,70.17,158.4,71,157.63z M155.17,164.66c0.68-0.28,1.81-0.12,2.14-0.76C156.57,164.12,155.68,164.2,155.17,164.66z
		 M73.9,167.26c5.52,0,12.11,0.12,16.8-0.15c-7.85-0.86-18.04,0.63-24.14-1.99C67.21,167.93,70.29,167.26,73.9,167.26z
		 M135.31,166.03c0.89-0.03,1.9,0.07,2.29-0.46C136.69,165.58,135.79,165.59,135.31,166.03z M132.26,165.88
		c-6.02,0.97-14.43-0.26-21.54,0.3c-4.39,0.35-8.86,0.7-13.14,0.92c2.41,1.01,5.47,0.21,8.25,0.46c9.45,0.83,20.4-0.15,28.72-1.68
		C133.78,165.88,133.02,165.88,132.26,165.88z"/>
	<path class="st0" d="M74.66,18.92c0.33,1.1-0.92,1.34-1.37,0.76C72.96,18.58,74.21,18.34,74.66,18.92z"/>
	<path class="st0" d="M75.88,23.65c-0.33,1.24-0.91,2.25-2.29,2.44C72.62,24.82,74.74,22.34,75.88,23.65z"/>
	<path class="st0" d="M69.32,30.22c0.3,2.09-4.16,2.47-4.28,1.07C64.94,30.1,68.52,29.91,69.32,30.22z"/>
	<path class="st0" d="M58.62,35.87c0.02,1.04-0.35,1.69-0.92,2.14C55.72,38.08,57,34.82,58.62,35.87z"/>
	<path class="st0" d="M56.33,38.78c-0.37,1.62-2.21,3.22-3.82,2.6C52.93,39.8,54.75,38.19,56.33,38.78z"/>
	<path class="st0" d="M46.55,42.75c-1.21,0.17-2.02-1.06-3.97-0.61c-0.8,0.02-0.39,1.24-1.37,1.07
		C37.93,40.15,48.04,39.21,46.55,42.75z"/>
	<path class="st0" d="M134.4,56.96c0.08-0.22,0.24-0.37,0.46-0.46c1.2-0.39,1.28,2.51,1.37,3.67c0.18,2.29,0.07,6.69,0.31,8.86
		c0.14,1.3,0.6,2.81-0.46,2.9c-1.22,0.1-1.41-5.12-1.53-6.57c-0.19-2.34,0.13-4.17,0-5.65C134.47,58.86,133.92,57.76,134.4,56.96z"
		/>
	<path class="st0" d="M11.72,62.15c-0.65,0.68-2.05,0.2-1.68-1.07C10.71,60.49,11.96,60.93,11.72,62.15z"/>
	<path class="st0" d="M43.8,62.3c1.26,1.75-0.12,5.64-2.29,4.43c-0.29-1.25,0.79-1.15,1.07-1.83C42.61,63.66,42.27,62.04,43.8,62.3z
		"/>
	<path class="st0" d="M17.83,64.9c-0.65,0.69-2.05,0.2-1.68-1.07C16.94,63.41,18.1,63.77,17.83,64.9z"/>
	<path class="st0" d="M31.58,68.72c-0.11,2.4-4.37,1.61-5.04,0.31c-0.15-1.4,1.61-0.88,2.14-0.46
		C29.79,68.77,30.93,68.03,31.58,68.72z"/>
	<path class="st0" d="M88.87,80.63c1.22,1.45-0.76,5.22-1.68,7.03c-0.32,0.62-2.38,5.35-3.21,5.19c-1.81-0.34,1.19-4.71,1.53-5.35
		C87.06,84.59,87.19,82.53,88.87,80.63z"/>
	<path class="st0" d="M80.16,82.77c1.07,0.49-1.12,6.21-2.14,6.26c-1.79,0.1-0.29-1.92,0-2.6c0.58-1.35,0.52-3.26,1.37-3.67
		C79.65,82.77,79.91,82.77,80.16,82.77z"/>
	<path class="st0" d="M130.88,96.52c-0.24,1.66-1.41,2.96-2.29,4.28c-1.68,2.54-3.5,5-5.04,7.79c-0.7,1.27-1.48,2.87-2.9,3.51
		c-1.02-1.45,0.68-2.94,1.37-4.13c2.25-3.83,5.35-8.12,7.79-11.76C130.37,96.12,130.63,96.32,130.88,96.52z"/>
	<path class="st0" d="M133.94,97.13c-0.17,1.51-1.34,2.67-2.14,3.97c-1.53,2.5-3.06,5.12-4.43,7.79c-0.56,1.1-1.15,3.3-2.9,2.9
		c-0.39-0.88,0.41-1.77,0.92-2.6c2.21-3.62,4.56-8.7,7.18-11.92C132.75,97.06,133.36,96.43,133.94,97.13z"/>
	<path class="st0" d="M136.08,99.27c0.23,1.08-0.79,1.41-1.22,2.14c-1.48,2.49-2.65,5.36-3.97,8.25c-0.35,0.76-0.74,2.15-1.99,1.99
		c-0.57-1.57,1.14-4.01,2.29-6.42C132.24,103.04,134.05,98.29,136.08,99.27z"/>
	<path class="st0" d="M137.3,102.63c-0.44,2.05-1.87,3.12-2.44,5.04c-0.53,0.07-0.86-0.06-1.22-0.15c-0.13-2.14,1.55-3.73,2.6-5.19
		C136.79,102.23,137.04,102.43,137.3,102.63z"/>
	<path class="st0" d="M95.74,107.22c0.86,0.84,0.02,2.24-0.76,2.75c-0.58,1.21-0.78,2.79-2.44,2.9c-0.6-2.12,1.77-3.8,2.44-5.65
		C95.24,107.22,95.49,107.22,95.74,107.22z"/>
	<path class="st0" d="M112.4,124.48c0.95,0.61,1.45,2.37,1.07,3.82c-1.79,0.93-5.31,1.26-5.81-0.76
		C107.01,124.88,109.76,124.26,112.4,124.48z M110.11,127.08c0.5,0.22,1.42,0.28,1.37-0.46
		C110.96,126.11,110.14,126.01,110.11,127.08z"/>
	<path class="st0" d="M145.24,129.21c2.54,3.32,3.55,8.16,6.42,11.15c0.4,2.2,1.46,4.54,1.83,6.26c-6.69,0.56-14.02,0.05-20.93,0.31
		c-4.37,0.16-9.01-0.31-13.6-0.31c-4.51,0-9.06,0.31-13.44,0c-4.46-0.31-8.91-0.81-13.29-0.76c-6.11,0.06-12.27,1.1-18.03-0.15
		c1.11-3.29,2.03-9.37,3.36-13.44c0.47-1.44,0.9-4.14,2.29-3.82c7.81,0.93,17.11,1.3,25.51,1.22c2.32-0.02,4.53-0.04,6.72,0.15
		c1.96,0.17,3.83,0.75,5.8,0.92c2.41,0.21,4.87-0.21,7.33-0.31C131.5,130.18,138.7,130.17,145.24,129.21z M79.55,129.83
		c-0.35,1.74-1.13,3.05-1.38,4.89c1.67-0.21,3.51-0.26,5.19-0.46c-0.02-1.6,0.3-2.86,0.61-4.12
		C82.54,129.99,81.06,129.89,79.55,129.83z M84.75,134.1c3.31-0.1,4.79-1.17,7.79-0.61c-0.17-1.19,0.44-1.59,0.31-2.75
		c-2.46-0.29-5.21-0.29-7.64-0.61C85.05,131.4,84.31,132.73,84.75,134.1z M144.48,130.44c-0.93,0.62-2.22,0.2-3.67,0.46
		c0.4,1.43,0.78,2.89,1.38,4.12c1.32-0.26,3.16,0,4.43-0.31C146.22,132.97,145.76,131.29,144.48,130.44z M94.22,130.59
		c-0.29,0.94-0.36,2.08-0.61,3.06c3.4,0.06,6.21,0.72,9.62,0.76c-0.04-1.23-0.11-2.43-0.31-3.51
		C100.13,130.61,96.71,130.74,94.22,130.59z M104.3,130.9c-0.09,0.83-0.03,2.76,0.31,3.67c2.49-0.04,4.52,0.37,6.72,0.61
		c-0.07-1.56-0.7-2.56-0.61-4.28C108.54,130.72,106.73,130.93,104.3,130.9z M112.55,135.17c1.81,0.27,3.33,0.02,5.19,0
		c-0.4-1.1-0.18-2.02-0.15-3.36c-1.98-0.21-3.66-0.71-5.65-0.92C111.79,132.09,112.42,133.76,112.55,135.17z M133.33,131.51
		c0.27,1.1,0.52,2.23,0.92,3.21c1.89,0.22,4.72,0.23,6.42,0.15c-0.06-1.51-0.87-2.28-0.92-3.82
		C137.4,130.99,135.37,131.26,133.33,131.51z M125.84,131.66c-0.19,0.84,0.32,2.2,0.46,3.21c2.17,0.26,4.1-0.13,6.72,0
		c-0.45-1.03-0.53-2.43-1.07-3.36C129.83,131.47,127.78,131.51,125.84,131.66z M118.81,131.96c-0.2,1.11-0.18,2.26,0.15,3.21
		c2.08,0,3.92-0.26,6.11-0.15c-0.15-1.12-0.37-2.18-0.61-3.21C122.42,131.7,120.77,131.99,118.81,131.96z M90.09,134.71
		c0.3,1.33-0.07,3.33,0.46,4.43c3,0.1,5.67-0.14,8.55-0.15c0.21-1.27,0.09-2.34-0.15-3.51C96.45,134.87,92.86,134.55,90.09,134.71z
		 M81.84,135.63c-0.4,0.92-0.47,2.18-0.61,3.36c2.26,0.18,5.25-0.12,7.94,0c-0.26-1.22-0.02-2.93-0.31-4.12
		C86.52,135.12,84.24,135.43,81.84,135.63z M100.33,138.99c2.56,0.23,5.26,0.22,7.79,0c-1.1-0.17-0.67-1.87-0.76-3.06
		c-2.3-0.25-4.67-0.42-7.18-0.46C100.42,136.79,100.38,137.53,100.33,138.99z M77.87,135.78c-0.33,0.94-0.49,2.06-0.61,3.21
		c1.07-0.1,1.8,0.14,2.75,0.15c0.12-1.15,0.31-2.24,0.46-3.36C79.6,135.78,78.74,135.78,77.87,135.78z M146.92,136.24
		c-2.66-0.26-4.83-0.06-7.64-0.15c0.34,1.55,1.24,2.53,1.83,3.82c2.22-0.48,6.26,0.31,8.55-0.31c-0.92-1.16-1.61-2.56-2.44-3.82
		C147.19,136,146.98,136.04,146.92,136.24z M108.88,138.53c0.03,0.26-0.87,0.6-0.15,0.61c1.95,0.09,3.72,0.36,5.81,0.31
		c-0.04-1-0.32-1.98,0-2.9c-1.96-0.23-4.3-0.08-5.96-0.61C108.38,136.98,108.45,137.79,108.88,138.53z M132.71,139.91
		c2.33,0.01,4.77,0.3,7.03-0.15c-0.94-0.99-1.15-2.72-2.14-3.67c-1.74-0.13-4.08-0.03-5.96-0.15
		C131.85,137.41,132.2,138.74,132.71,139.91z M122.63,136.24c0.14,1.29,0.47,2.38,0.92,3.36c2.31,0.02,5.26,0.36,7.79,0
		c-0.47-1.05-0.56-2.49-1.07-3.51C127.37,136.17,125.21,136.06,122.63,136.24z M115.76,136.4c-0.32,0.82-0.18,2.39,0.15,3.06
		c2.2-0.07,4.41,0.16,6.11,0.15c0.14-0.88-0.64-2.57-0.61-3.36C119.7,136.47,117.68,136.38,115.76,136.4z M75.58,144.95
		c2.51-0.03,5.15,0.22,8.1,0.15c0.18-1.71,0.31-3.46,0.76-4.89c-2.76-0.09-5.07,0.3-7.48-0.15
		C76.49,141.69,76.01,143.29,75.58,144.95z M85.36,140.37c0.16,1.23-0.46,3.01-0.46,4.58c3.82,0.06,7.56-0.64,11.31-0.15
		c-0.18-1.67-0.08-2.87,0-4.58C92.36,140.52,88.82,139.91,85.36,140.37z M97.58,140.21c-0.43,1.28-0.33,3.91-0.15,4.58
		c10.31,1.29,21.64,0.33,32.23,0.92c0.23-2.22-0.97-3-1.22-4.74C117.61,140.67,107.63,140.31,97.58,140.21z M129.51,141.13
		c0.76,1.22,1.47,2.5,1.38,4.58c2.48,0.07,3.83-0.19,6.11-0.15c-0.43-1.39-0.88-2.73-0.61-4.43
		C134.03,141.37,131.05,140.69,129.51,141.13z M137.45,141.13c0.09,1.01-0.02,2.38,0.46,3.36c0.33,0.33,0.99,0.33,0.76,1.22
		c2.03-0.21,4.11,0.02,6.42-0.15c-0.43-1.61-1.39-2.69-1.53-4.58C141.43,140.93,139.66,141.25,137.45,141.13z M146.46,145.71
		c1.76-0.01,3.61,0.11,5.5,0c-0.68-1.31-0.82-3.15-1.38-4.58c-1.86-0.08-4.01-0.28-5.96,0
		C145.27,142.63,145.82,144.22,146.46,145.71z"/>
	<path class="st0" d="M158.38,149.99c0.13,1.34-1.16,2.02-1.83,2.9c-1.95,2.58-3.65,5.54-6.11,7.79c-0.27,0.51-0.3,1.64-1.07,1.68
		c-2.01,0.09-0.02-2.63,0.46-3.21c2.54-3.1,5.38-6.98,7.48-9.47C157.87,149.59,158.12,149.79,158.38,149.99z"/>
	<path class="st0" d="M101.55,159.47c-0.46-2.47-0.91-5.1,0.31-6.88c1.4-2.04,7.96-2.72,12.53-2.75c1.68-0.01,5.49-0.07,6.87,0.46
		c1.51,0.57,2.31,3.31,2.9,5.2c0.26,0.84,0.66,1.97,0.31,2.75c-0.69,1.52-6.58,1.78-8.71,1.98c-2.19,0.21-4.39-0.29-6.42-0.31
		C106.5,159.9,103.81,160.36,101.55,159.47z M106.59,151.82c-0.47,1.98,0.53,2.86,0.76,3.82c0.22,0.92-0.09,2.01,0.31,3.21
		c3.99,0.18,8.28,0.13,12.07-0.31c1.17-0.13,2.64-0.15,3.51-0.91c-0.07-2.13-1.02-4.69-2.29-6.11
		C116.18,150.87,111.19,151.18,106.59,151.82z M105.06,152.13c-0.71,0.51-1.96,0.49-2.44,1.22c0.09,0.85-0.35,1.18-0.31,1.99
		c0.94-0.23,2.28-0.06,3.21-0.31C105.27,154.17,105.67,152.64,105.06,152.13z M102.31,156.56c-0.07,0.94,0.33,1.4,0.46,2.14
		c1.29-0.09,2.39,0.39,3.51,0c0.28-0.84-0.28-1.47-0.31-2.44C104.8,156.4,103.46,156.38,102.31,156.56z"/>
	<path class="st0" d="M148.3,152.13c-0.07,1.76-1.95,2.56-2.9,3.82c-0.91,1.2-1.44,3.62-3.51,3.21c-0.7-1.16,0.87-1.72,1.53-2.6
		c0.58-0.77,0.84-1.68,1.53-2.44C145.76,153.2,146.98,151.29,148.3,152.13z"/>
	<path class="st0" d="M151.35,153.66c-0.3,1.6-1.55,2.84-2.45,3.97c-0.88,1.11-1.86,2.61-3.36,3.05c-0.85-1.43,0.89-2.65,1.68-3.66
		c1.04-1.32,2.1-2.5,3.06-3.67C150.84,153.25,151.1,153.46,151.35,153.66z"/>
</g>
</svg>
