<svg id="s" xmlns="http://www.w3.org/2000/svg" viewBox="0 0 175 175"><defs><style>.cls-1{fill:#1371b6;fill-rule:evenodd;}</style></defs><title>3642 [Converted]</title><path class="cls-1" d="M86.48,60.25c3.91.93,7.58,1.7,10.59,3.51a31.09,31.09,0,0,1,4.21,2.8A26.33,26.33,0,0,1,104.85,70c1-.31,1.82-.68,2.88-1,.7-.25,2.28-1.22,2.87-.78s-.12,1.72-.28,2.39c-.59,2.55-1.19,5.64-2,8.13,2.56.08,6.56-.74,7.22,1.62,0,5.09-1.24,9.3-2.31,13.53-.6,2.37-.66,4.59-2.18,6,1.3,1.15,1.63,3.12,2.81,4.63A26.27,26.27,0,0,1,118,111c.68,1.75,1.8,4,1,6.38-.18.58-.62.86-.77,1.54-.09.4,0,.84-.07,1.27-.79,3.28-7,2.4-11,2.73-4.78.39-9.28,1.42-14.87,1-1.07-.08-2.57,0-4-.14-4.82-.34-10.26.13-14.72-.35a17.59,17.59,0,0,1-1.4-2.38c-.16-.3-.4-.56-.42-.77,0-.37.23-.72.28-1.06s0-.73,0-1.05a16.16,16.16,0,0,1,1-3.71c.4-1.23.68-2.47,1-3.72s.86-2.45,1.12-3.72c.45-2.15.85-4.29,1.9-5.82-1-.83-1.15-2.31-1.69-3.78-.8-2.2-1.19-4.85-2-7.09A23.1,23.1,0,0,1,53.1,86.9a22,22,0,0,1-2.8-32.4c4.22-4.63,10.72-7.92,19.49-6.73,1.54.21,2.87.63,4.28.77,1.27.88,2.69,1.32,3.93,2.1A23.38,23.38,0,0,1,86.48,60.25Zm-16.9-3.58c.34-.15,1.06.08,1.26-.21a1.86,1.86,0,0,1-1-.21,6.09,6.09,0,0,1-1.05-2c.07-.41.91-.7,1.26-.91.53-.31.93-.58,1.33-.84a8.17,8.17,0,0,0-5.89-3.37A37.13,37.13,0,0,1,69.58,56.67ZM72,51.91c-.18-.86-.18-1.58.35-2a16.2,16.2,0,0,0-4.21-.7C69.89,49.58,70.71,51,72,51.91Zm-4.42,1.82c-.21-.41-.66-.83-.91-1.26-.72-1.23-1.42-2.79-2.25-3.3-1.39,2.51-3.16,5-3.57,8.28,2.63-.25,5.36-.39,8-.64C68.35,55.92,68.07,54.76,67.55,53.73Zm-4.14-4.14c0-.13.15-.17.14-.35C63.34,49.16,63.25,49.54,63.41,49.59Zm-4.63,2.32c.76-.81,2.41-1.57,2.88-2.32,0,0-.06,0-.07,0a23.49,23.49,0,0,0-6.17,2.67c-.05,1.33-.79,2-.91,3.22.22.2.39.45.63.63A39.1,39.1,0,0,1,58.78,51.91Zm4.21-2a12.74,12.74,0,0,0-3.65,2.53,33.82,33.82,0,0,0-4.48,5.33c1.83.05,3.4-.16,5.12-.21a24.07,24.07,0,0,1,3.22-7.79C63.11,49.76,63.07,49.83,63,49.87Zm13.18,1.62a20.89,20.89,0,0,0-3.08-1.34c-.83.31-.15,1.69-.63,2.32a36.58,36.58,0,0,1,3.15,3.43c1.55-.48,3.13-.93,4.07-2C78.84,53.21,78,52.6,77.09,52c-.29,0-.29.23-.64.14A1.73,1.73,0,0,1,76.17,51.49ZM50.44,57a4.31,4.31,0,0,0,2.87.7,4.37,4.37,0,0,0,1-1.41c-1.26-.64.29-2.79.21-3.43A15.71,15.71,0,0,0,50.44,57ZM71.9,53c-.64.65-1.65.93-2.32,1.54a3,3,0,0,1,.56,1.12c.65.19,1.57.11,1.76.77A12.61,12.61,0,0,0,74.7,56,18.25,18.25,0,0,0,71.9,53Zm8.27,1.47c-.94,1.1-2.54,1.53-4,2.1a10.46,10.46,0,0,1,2.46,4.28A54.89,54.89,0,0,1,84.52,60,17.29,17.29,0,0,0,80.17,54.43Zm-4.84,2.32c-1,.06-2.34.41-3.64.42a2.66,2.66,0,0,1-1.34,1.4c.14.54.32,1,.42,1.61.49-.09,1.38-1,1.69-.21-.27.55-1,.65-1.55.91A14.59,14.59,0,0,1,71.33,63c1,.07,1.71-.64,2.53-.92,1.31-.44,2.64-.68,4.07-1.12a7.9,7.9,0,0,0-1.06-2.31c-.45,0-.39.54-.91.49a.36.36,0,0,1-.21-.21c0-.57.38-.65.63-.91A3.69,3.69,0,0,0,75.33,56.75Zm-5.47.7a.68.68,0,0,1,.21.42.87.87,0,0,0,.63-.56A3.59,3.59,0,0,0,69.86,57.45Zm-20,.07a20.81,20.81,0,0,0-3.79,12.55,48,48,0,0,0,5.4,1c0-1.85-.21-3.64-.07-5.33A48.44,48.44,0,0,1,53,58.5C51.78,58.37,50.55,58.22,49.88,57.52Zm10.66.7a19.64,19.64,0,0,0-.49,5.4,5.14,5.14,0,0,1,1-.77c.43-.21,1-.21,1.47-.43.88-.41,1.67-1.72,2.8-1.19.08.76-.32,1-.21,1.83a2.49,2.49,0,0,0,1.41.84c0-1.32-.87-1.7-.77-3.09C64,60.37,66,59.32,66.92,59s2.09-.41,2.45-.91c0-.25-.2-.32-.21-.56C66.29,57.76,63.37,57.94,60.54,58.22Zm-6.31.28c-1.1.79-.79,4.19.21,4.84.28.18.75.12,1.05.28.58.31.74,1.11,1.33,1.54s1.39.21,2.45.42a31.53,31.53,0,0,1,.5-7.29C57.85,58.29,56.22,58.57,54.23,58.5Zm12.06,1.61c.28.43,0,.9.14,1.33.06.24.32.47.42.7a7.66,7.66,0,0,1,.42,2.74c-.23.07-.23.48-.49.63-1,.55-1.44-.74-.28-.63-.9-.7-2.58-1-2-2.88-.66.12-1,.74-1.68,1.06-.46.21-1.05.19-1.47.42-.69.36-.84,1.07-1.05,1.89a.91.91,0,0,1,.28.77c1.63-.09,2.29.79,3.15,1.47a11.22,11.22,0,0,0,1.69-.14,6.86,6.86,0,0,1,1.19,4c1.15-.49,3.16-.11,4.48-.42a55.35,55.35,0,0,0-.14-6.24.62.62,0,0,1-.7-.49c-.11-.53.34-.59.42-1A7.55,7.55,0,0,0,70.21,61a4.87,4.87,0,0,0-.63-2.1A23.23,23.23,0,0,0,66.29,60.11Zm22.37,3c0,.43.66.95.14,1.26-.71-.16-1-.75-1.34-1.26a10.28,10.28,0,0,1-2-1c0,.31.34.55.14.78a20,20,0,0,1-1.89-1.34,22.87,22.87,0,0,0-6.8,1.2,25,25,0,0,1,6,.42,22.62,22.62,0,0,1,2.59.49c.26.08.45.28.7.35a6,6,0,0,1,.91.14,27,27,0,0,1,2.67,1.61,32.29,32.29,0,0,1,5.12,3.37,11.61,11.61,0,0,1,2.31,2.66c.64,1,1.36,1.21.84,2.53-2.25.73-4.41,1.57-6.59,2.38,4.78,2.32,8.43,5.79,13.32,8,.8-1.35,1.14-3.16,1.83-4.62a2.39,2.39,0,0,1-.07-.78,5.15,5.15,0,0,0,.77-2.38c-.14-.1-.33-.14-.35-.35a32.81,32.81,0,0,0-.7-5.61,12.89,12.89,0,0,0-1.9.7,38,38,0,0,1,.28,4.35c0,.5.18,1.31-.42,1.4-.56-.31-.35-1.07-.35-1.61,0-1.82-.31-3.44-.42-4.77a2.1,2.1,0,0,0,0-.56c-.31-.83-1.28-1-1.75-1.61.15.75.6,1.6.84,2.52.2.77.7,2.25,0,2.6-.66-.73-.52-1.93-.84-2.88s-.66-1.89-1-2.74a1.08,1.08,0,0,1,.07-.49c-.57-.34-.94-.88-1.55-1.19a37.27,37.27,0,0,1,2,5.47c-.66.85-1-.33-1.13-1a21.61,21.61,0,0,0-1.68-4.42c-.12-.35.33-.35.14-.56-.44-.14-.92-.61-1.33-.56.3.68.76,1.35,1,2.1a13.4,13.4,0,0,1,.84,2.53c-.66.27-.82-.41-1-.77a42.32,42.32,0,0,0-2.1-4.7c-.32-.11-.51-.34-.84-.42a15.49,15.49,0,0,1,.91,1.75c.14.3,1,1.61.35,1.75-.51.11-1.12-1.68-1.33-2.1-.67-1.28-1.07-2.37-2.53-2.45.4.55.68,1.14,1,1.68s1,.93,1.06,1.68c-.76.46-1.5-1.14-1.9-1.75-.56-.87-1.09-1.49-1.47-2a6.11,6.11,0,0,1-1.61-.42c.32.4.65,1.09,1.12,1.68s1.45,1.09.91,1.82c-.82-.36-1.26-1.22-1.75-1.89s-1.16-1.33-1.68-2c-1.07-.08-1.57-.72-2.67-.77C86.45,62.15,87.89,62.3,88.66,63.13Zm-36.4,8c2.37.28,4.89.39,7.43.49-.18-1.75-.19-3.68-.49-5.33-1.19-.14-2,0-2.8-.56-.58-.44-.77-1.2-1.26-1.47-.32-.18-.75-.11-1-.28-.81-.47-.78-1.4-1.2-2.25A29.5,29.5,0,0,0,52.26,71.12Zm19.43-6.24c.24,1.86.1,4.1.14,6.17,1.5.07,2.89-.55,4-.42.42.05.75.44,1.27.49.9.09,1.74-.56,2.66-.63a23.65,23.65,0,0,0-.84-6.38C76.1,64.21,73.38,63.61,71.69,64.88Zm8.83,5.4a15,15,0,0,0,6.24-2.74c-.08-.64-.16-1.28-.28-1.89-1.82-.94-4.4-1.11-6.73-1.54A36,36,0,0,1,80.52,70.28Zm5.89,8.48a29.85,29.85,0,0,0,5.33-.14,10.45,10.45,0,0,0-1.33-1c-.54-.28-1.43-.25-1.54-.84s.24-.66.7-.91c1.8-1,5.38-1.66,6.94-2.53-1.82-3.27-5.06-5.13-8.35-6.94A23.49,23.49,0,0,1,86.41,78.76Zm-23.14-7.5a4,4,0,0,0,2.46.77A5.43,5.43,0,0,0,65,68.24c-2.35.7-2.48-1.75-4.55-1.33C61.48,68.28,63.4,68.74,63.27,71.26Zm-1.12.63c.31,0,.39.12.7.07a2.74,2.74,0,0,1-.28-1.68,9.64,9.64,0,0,0-2.45-2.6C60.25,69.63,61.35,70.61,62.15,71.89Zm24.61-3.43a17.26,17.26,0,0,1-6.24,2.59,11,11,0,0,1-.21,2.52c.85.46,2,.45,2.39,1.48a7.18,7.18,0,0,1-.08,3.57h2A19,19,0,0,0,86.76,68.46Zm21.39,1.82a14.45,14.45,0,0,0,.42,2.1,9.45,9.45,0,0,0,.35-2.38A3.32,3.32,0,0,1,108.15,70.28Zm-47.68,1.4a1.54,1.54,0,0,1,.63.07,4.28,4.28,0,0,0-.77-1.19C60.4,70.91,60.41,71.32,60.47,71.68Zm47.75,2.38c-.59-.88-.32-2.62-.91-3.5-.07.12-.25.13-.35.21a25.49,25.49,0,0,1,.63,4.77C108,75.22,108,74.52,108.22,74.06ZM46.37,72.87c.28,0,.66-.19.7.21s-.37.25-.56.42a20.44,20.44,0,0,0,1.26,4c.38.88,1.19,2.86,1.9,3.37a4.9,4.9,0,0,0,1.33.35c1.54.37,3.39.5,5.12.77a27.78,27.78,0,0,1-4.56-10.24,43.4,43.4,0,0,1-5.4-.91C46.15,71.6,46.33,72.17,46.37,72.87Zm31.49-1.19c.37.54.87,1.55,1.75,1.82a13.2,13.2,0,0,0,.14-2.24C79.07,71.35,78.57,71.63,77.86,71.68Zm-2.67-.21c.7-.07-.1-.19-.35.07C75.05,71.55,75.05,71.48,75.19,71.47ZM73,71.75c.36-.09.38,0,.07-.07a2.42,2.42,0,0,0-1.26.21A6.35,6.35,0,0,0,73,71.75Zm-5.89.42c1.37,0,3,.13,3.92-.35C69.94,72.14,68.1,71.72,67.13,72.17ZM53.38,75.61c.3.29,1.13,0,1.13.63,0,.29-.29.37-.63.35a22.76,22.76,0,0,0,3.5,5.68c1.77.15,3.3.53,5.19.56C61.88,81,61.32,79,60.75,77c-.64.3-1.21-.87-.14-.77-.29-1.26-.59-2.5-.78-3.86-2.47-.16-5-.26-7.43-.49A33.09,33.09,0,0,0,53.38,75.61Zm25.11-1.69a4,4,0,0,0-1.83-2c-1.51.33-3.26.43-4.83.7a31.29,31.29,0,0,1-.78,8.7c1.33-1.51,3.94-2.33,6.74-2.6a25.48,25.48,0,0,0,1.68-4.55A5.37,5.37,0,0,1,78.49,73.92ZM61.24,76c1-.43,1,.73.21.77a43.55,43.55,0,0,0,2,6.1,13.06,13.06,0,0,0,3.09-.21c-.55-.83.55-2.38,1-3,.28-.37.92-.67.77-1.26-1.08-1-3.57-.13-4.21-1.26-.75-1.33,2-2.68,1.69-3.86-.25-.88-1.84-.32-2.74-.56-.06.13.54.51.21.91-1,0-1.11-1.49-2.59-1.26C60.68,73.71,61.09,74.7,61.24,76ZM66.5,72.8c.14,2.08-1.42,2.46-1.83,4,1.2.65,3.78.08,4.28,1.26.75,1.76-2.56,2.6-1.68,4.49,1.07-.1,1.91-.43,2.94-.56a34.1,34.1,0,0,0,.84-9.26A20.39,20.39,0,0,1,66.5,72.8Zm12.2,6a25,25,0,0,1,2.94-.14c0-.41.38-.46.49-.77A17.31,17.31,0,0,1,82,75.19a3.8,3.8,0,0,0-1.82-.84C79.76,75.85,79.14,77.52,78.7,78.76Zm15.07,1a15.22,15.22,0,0,0-2.59.29c-2.63.19-5,0-7.15.07A9.59,9.59,0,0,0,80.59,80a24,24,0,0,0-6.24,1c-1,.34-2.47,1.06-2.52,2.1,0,.61.57,1.32.91,1.89C75.2,89.15,76,95.29,77.79,99.8a4.9,4.9,0,0,0,2.38.14c2.3-.14,5,0,7.64,0s5.36-.25,7.65,0c.45,0,.89.24,1.33.28.81.07,1.62-.06,2.45,0a22.6,22.6,0,0,0,3.44.14c2.1-.2,4.06-1.23,6.1-.77.12-.2.41-.24.77-.21a1.12,1.12,0,0,1,.63-.49c1.08-1.41,1.35-3.76,1.9-5.82.69-2.66,1.24-5.13,1.75-8.07.21-1.23.77-3.56.28-4.41-.82-1.42-4.3-.18-6-.49a7.46,7.46,0,0,0-.49,1.33,6.89,6.89,0,0,1,3.79.21c1.07.61,1.3,2.63,1.12,4.42-.14,1.37-.56,3-.92,4.76-.31,1.51-.38,3.85-.91,4.84-.34.64-1.82,1.33-2.94,1.62a34.64,34.64,0,0,1-6.24.91c-3.08.21-6.22-.22-9.12,0-3.69.27-7.89.37-11.5.56-.26-.3-.92-.39-1.33-.7-1.07-.81-1.31-2.44-1.68-4.14A17.51,17.51,0,0,0,77,90.47c-.24-.46-.56-.72-.64-1s0-1.08-.07-1.4c-.13-1.27-.73-3.11-.28-4.28.56-1.45,2.54-1.18,4.21-1.47,1.24-.22,2.54-.87,3.65-1,.32,0,.75,0,1.12,0s1-.28,1.4-.28a10.11,10.11,0,0,1,1,.14c1.37.09,2.8-.11,4.21,0,1.74.13,3.44.36,5.12.42C95.89,81.1,95.07,79.93,93.77,79.81ZM66.22,89.7c-3.24-.64-4.89-2.47-6.95-4.28-.36-.31-.83-.74-1.26-1.19s-.67-1.1-1.12-1.33a8.19,8.19,0,0,0-2.1-.42,38.25,38.25,0,0,1-4.42-.56C53.94,86.18,58.73,89.6,66.22,89.7ZM83,82.2a10.65,10.65,0,0,1-2.39,4.7c-.28.25-.09,1-.7.91-.59-.57.23-.93.21-1.54a6.35,6.35,0,0,0,1.68-3.37c-.41-.42-1,0-1.47.07-1,.21-2.31.22-3.29.49a2.28,2.28,0,0,0-.43,2,16.52,16.52,0,0,0,1.13,5.12c.78,1.77.68,3.78,1.4,5.33,0-.58.42-.85.7-1.4.19-.38.28-1.36.77-1.33s.12,1.16-.07,1.54c-.29.57-.65,1-.84,1.47a1,1,0,0,1-.49-.07c.18.38.2.92.63,1.06a12.31,12.31,0,0,1,.84-1.76c.26-.52.47-1.33,1.19-1.4.31,1.23-1.47,2.51-1.26,3.58.85-1.1,1.5-2.38,2.25-3.58,0-1.32.94-.82.7.14-.3,1.19-1.89,2.62-2,3.72.26,0,.7.09.84-.07a15.73,15.73,0,0,1,2.11-4.14c.24-.42.2-1.12.84-1.19.51.37,0,1-.14,1.33a23.42,23.42,0,0,0-2.1,4.07c.39,0,1,.09,1.26-.07-.26,0-.31-.21-.28-.49a18.58,18.58,0,0,1,1.12-2c.14-.23.76-1.92,1.19-1.89.8,0-.24,1.65-.42,2-.49.85-.72,1.47-1,2-.13.21-.44.32-.28.42,2.24-.21,4.72-.08,7.15-.28,4-.34,8.21,0,11.85-.28a20.79,20.79,0,0,0,5.26-1.13,4.34,4.34,0,0,0,1-.56c.64-.68.58-2.79.77-3.85.32-1.72,1-4.14,1.13-5.68a5.7,5.7,0,0,0-.64-3.79,9.4,9.4,0,0,0-3.78-.07c-.3.67-.46,1.49-.84,2.31-.28.6-.67,1.8-1.27,1.9-1,.15-1.71-1-2.59-1.27-.46.5-.39,1.53-1.19,1.69-.79-.68,1-1.71.21-2.18-.49.29-.74,1-1.12,1.62a4.78,4.78,0,0,1-1.27,1.61c-.63-.58.18-1.26.49-1.75a11.62,11.62,0,0,0,1.06-1.83c-.32-.2-.53-.5-1-.56-.66,1.41-1.6,2.7-2.31,4-.22.4-.32,1.12-.91,1.19-.42-.45,0-1.14.21-1.54a44,44,0,0,0,2.45-4.14c-.37-.19-.57-.55-1-.63a12.08,12.08,0,0,1-1.26,2.31c-.37.72-.41,1.87-1.19,2.18-.44-.3-.14-.86,0-1.19.53-1.33,1.34-2.34,1.75-3.58H96.23a10.79,10.79,0,0,1-1.4,2.87c-.19.38-.15,1.09-.78,1.13-.46-.7.17-1.45.5-2a6.63,6.63,0,0,0,.91-2A60.57,60.57,0,0,0,83,82.2Zm-13,.63s-.06-.08-.14-.07a21.89,21.89,0,0,1-2.59.56c-.06.92-1.18.79-1.54,1.4.9.3,1.83.91,1.54,2.18a4.48,4.48,0,0,1,1.47-.14A14.27,14.27,0,0,0,70,82.83Zm-4.7,5.82a22.11,22.11,0,0,1-2.38-5.05c-1.73,0-3.44-.39-4.84-.49C60.22,85.22,62,87.66,65.3,88.65Zm-1.61-5c.77,2,1.55,4.06,3.09,5.33.11-.1.17-.25.42-.21s.28.28.49.35a8.3,8.3,0,0,0,.63-1.61A3.17,3.17,0,0,0,66.5,88c-.07-.12-.26-.12-.28-.28,0-.74.54-1,.35-1.61S65.4,85.58,65,85.07c-.29-1,.62-1.39,1.34-1.61C65.43,83.49,64.58,83.6,63.69,83.67Zm6,3.09a12.58,12.58,0,0,1,2.25-.49,15.35,15.35,0,0,1-1.34-2.39C70.35,84.89,69.78,85.9,69.65,86.76Zm-.49.77A13,13,0,0,1,68.53,89,5.09,5.09,0,0,0,72,87.11,15.93,15.93,0,0,0,69.16,87.53Zm.91,1.89a14.26,14.26,0,0,0,2.81-.7,5.23,5.23,0,0,0-.42-1A9.16,9.16,0,0,1,70.07,89.42ZM76,117.82c-.22.17-.67.34-.84,0,.16-.66.76-.87,1.19-1.26.35-.08.24.28.49.28.67-.47,1.09-1.88,2.11-1.54-.31,1.06-1.32,1.62-2,2.38s-1.3,1.63-2,2.46c.37,0,.62.17,1,.21,1.22-1.15,2.31-2.77,3.44-4,.33-.36.86-1.11,1.47-.77,0,.58-.56,1-.91,1.33a26.8,26.8,0,0,0-3,3.65,5.6,5.6,0,0,1,1.19.07,11.21,11.21,0,0,1,2.38-3.09c.29-.3.53-.88,1-.84.31.88-.68,1.45-1.19,2a8.4,8.4,0,0,0-1.47,2c.56-.33.78-1.66,1.68-1.2.1.71-.58.64-.63,1.2,3-.26,6,.38,9.05.14.56,0,1.13-.24,1.68-.28.73-.06,1.45.06,2.17,0,3.41-.28,6.84.2,10.17-.14,3.48-.37,7.82,0,11.08-.71,0-.25-.11-.4,0-.63a15.43,15.43,0,0,1,1.61-2.17c.52-.66,1-1.65,1.9-1.89.29.94-.76,1.51-1.27,2.17a6,6,0,0,0-1.4,2.17c.08-.24.44-.21.77-.21a19.86,19.86,0,0,0,1.47-2.17c.27-.33.5-.37.64-.7a4.9,4.9,0,0,0-.07-1.89,20.72,20.72,0,0,0-1.48-3.86c-1.28-2.55-2.86-4.07-4.27-6.45-.58-1-1.17-3-2.25-3.16-.29,0-.75.09-1.12.07s-.82-.15-1.12-.14c-1.5,0-2.9.71-4.42.84a21.38,21.38,0,0,1-3.58,0c-1.13-.1-2.27,0-3.36-.14-.42,0-.82-.24-1.26-.28-2.49-.23-5.15,0-7.72,0s-5.09.06-7.64-.07c-.23.27-.76.23-1.05.42a1.81,1.81,0,0,1-.49.63c-1,2.48-1.32,5.33-2.32,8.28-.41,1.23-.81,2.67-1.26,4.06s-1.75,4.31-.35,5.19A11.65,11.65,0,0,0,76,117.82Zm38.64,3.23c.32-.13.83-.06,1-.35A2.59,2.59,0,0,0,114.6,121.05Zm-37.3,1.19c2.53,0,5.55.05,7.71-.07-3.6-.4-8.28.29-11.08-.91C74.23,122.55,75.64,122.24,77.3,122.24Zm28.18-.56c.41,0,.88,0,1.06-.21A1.68,1.68,0,0,0,105.48,121.68Zm-1.4-.07c-2.76.45-6.62-.12-9.89.14-2,.16-4.06.32-6,.42,1.11.46,2.51.1,3.79.21a52.59,52.59,0,0,0,13.18-.77Z"/><path class="cls-1" d="M77.65,54.15a.36.36,0,0,1-.63.35A.36.36,0,0,1,77.65,54.15Z"/><path class="cls-1" d="M78.21,56.32c-.16.58-.42,1-1,1.13C76.71,56.86,77.68,55.72,78.21,56.32Z"/><path class="cls-1" d="M75.19,59.34c.14,1-1.91,1.13-2,.49S74.83,59.2,75.19,59.34Z"/><path class="cls-1" d="M70.28,61.93a1.15,1.15,0,0,1-.42,1C69,63,69.54,61.45,70.28,61.93Z"/><path class="cls-1" d="M69.23,63.27c-.17.74-1,1.47-1.75,1.19C67.67,63.74,68.51,63,69.23,63.27Z"/><path class="cls-1" d="M64.74,65.09c-.55.08-.92-.49-1.82-.28-.36,0-.18.57-.63.49C60.79,63.9,65.43,63.47,64.74,65.09Z"/><path class="cls-1" d="M105.06,71.61a.36.36,0,0,1,.21-.21c.56-.18.59,1.15.64,1.68.08,1.06,0,3.07.14,4.07.06.6.27,1.29-.22,1.33s-.64-2.35-.7-3c-.08-1.08.06-1.92,0-2.6C105.1,72.48,104.85,72,105.06,71.61Z"/><path class="cls-1" d="M48.76,74a.47.47,0,0,1-.78-.5A.48.48,0,0,1,48.76,74Z"/><path class="cls-1" d="M63.48,74.06c.58.81,0,2.59-1,2-.13-.58.36-.53.49-.84C62.93,74.69,62.78,74,63.48,74.06Z"/><path class="cls-1" d="M51.56,75.26a.46.46,0,0,1-.77-.49C51.15,74.57,51.69,74.74,51.56,75.26Z"/><path class="cls-1" d="M57.87,77c0,1.1-2,.74-2.31.14-.07-.64.74-.4,1-.21C57.05,77,57.57,76.69,57.87,77Z"/><path class="cls-1" d="M84.17,82.48c.56.66-.35,2.4-.77,3.23-.15.28-1.1,2.45-1.48,2.38-.83-.16.55-2.16.7-2.46C83.34,84.29,83.4,83.35,84.17,82.48Z"/><path class="cls-1" d="M80.17,83.46c.49.23-.51,2.85-1,2.88-.82,0-.13-.89,0-1.2.26-.61.24-1.49.63-1.68Z"/><path class="cls-1" d="M103.45,89.77a5.15,5.15,0,0,1-1,2c-.77,1.16-1.61,2.29-2.31,3.57a3.37,3.37,0,0,1-1.34,1.61c-.47-.66.31-1.34.63-1.89,1-1.76,2.46-3.73,3.58-5.4A.55.55,0,0,1,103.45,89.77Z"/><path class="cls-1" d="M104.85,90.05a4.8,4.8,0,0,1-1,1.83c-.7,1.14-1.4,2.34-2,3.57-.26.51-.53,1.52-1.33,1.33-.18-.4.19-.81.42-1.19a53.18,53.18,0,0,1,3.29-5.47C104.31,90,104.59,89.73,104.85,90.05Z"/><path class="cls-1" d="M105.83,91c.11.5-.36.65-.56,1-.67,1.14-1.21,2.46-1.82,3.78-.16.35-.34,1-.91.91-.26-.72.52-1.84,1-2.94S104.91,90.58,105.83,91Z"/><path class="cls-1" d="M106.4,92.58c-.21.94-.86,1.43-1.13,2.31a1.36,1.36,0,0,1-.56-.07c-.06-1,.72-1.71,1.2-2.38A.51.51,0,0,1,106.4,92.58Z"/><path class="cls-1" d="M87.32,94.68c.4.39,0,1-.35,1.26-.26.56-.36,1.28-1.12,1.34-.27-1,.81-1.75,1.12-2.6Z"/><path class="cls-1" d="M95,102.6a1.75,1.75,0,0,1,.49,1.76c-.83.43-2.44.57-2.67-.35C92.49,102.79,93.75,102.5,95,102.6Zm-1.06,1.2c.23.1.65.12.64-.21C94.31,103.35,93.93,103.31,93.91,103.8Z"/><path class="cls-1" d="M110,104.78c1.17,1.52,1.63,3.74,2.95,5.12.18,1,.67,2.08.84,2.87-3.07.26-6.43,0-9.61.14-2,.08-4.13-.14-6.24-.14s-4.16.14-6.17,0-4.09-.37-6.1-.35c-2.8,0-5.63.51-8.27-.07.5-1.51.93-4.3,1.54-6.17.21-.66.41-1.9,1-1.75a99.14,99.14,0,0,0,11.71.56c1.06,0,2.08,0,3.09.07s1.75.34,2.66.42a27.38,27.38,0,0,0,3.37-.14A90.39,90.39,0,0,0,110,104.78Zm-30.15.28c-.16.8-.52,1.4-.63,2.24.77-.09,1.61-.11,2.38-.21a7.16,7.16,0,0,1,.28-1.89C81.26,105.14,80.58,105.09,79.89,105.06Zm2.38,2c1.52,0,2.2-.54,3.58-.28-.08-.55.2-.73.14-1.26-1.13-.13-2.39-.13-3.51-.28C82.41,105.78,82.07,106.39,82.27,107Zm27.42-1.68c-.43.28-1,.09-1.68.21a11.32,11.32,0,0,0,.63,1.89c.61-.12,1.45,0,2-.14A3,3,0,0,0,109.69,105.34Zm-23.07.07c-.13.43-.17,1-.28,1.4,1.56,0,2.85.33,4.42.35a11.62,11.62,0,0,0-.14-1.61C89.33,105.42,87.77,105.48,86.62,105.41Zm4.63.14a5.12,5.12,0,0,0,.14,1.68,22.73,22.73,0,0,1,3.09.28,16.17,16.17,0,0,1-.29-2C93.19,105.47,92.36,105.57,91.25,105.55Zm3.79,2a13.51,13.51,0,0,0,2.38,0,4.08,4.08,0,0,1-.07-1.54c-.91-.09-1.68-.33-2.59-.42A11.41,11.41,0,0,0,95,107.51Zm9.53-1.68a12.07,12.07,0,0,0,.42,1.47,21.07,21.07,0,0,0,3,.07c0-.69-.4-1.05-.42-1.75A19.5,19.5,0,0,0,104.57,105.83Zm-3.43.07a5,5,0,0,0,.21,1.47c1,.12,1.88-.06,3.08,0a14.57,14.57,0,0,0-.49-1.54C103,105.81,102,105.83,101.14,105.9Zm-3.23.14a3,3,0,0,0,.07,1.47c1,0,1.8-.11,2.81-.07-.07-.51-.17-1-.28-1.47C99.57,105.92,98.81,106.05,97.91,106ZM84.73,107.3a11.73,11.73,0,0,0,.21,2c1.38,0,2.6-.07,3.93-.07a4.38,4.38,0,0,0-.07-1.62A15.56,15.56,0,0,0,84.73,107.3Zm-3.79.42a6,6,0,0,0-.28,1.55c1,.08,2.41-.06,3.65,0-.12-.56,0-1.35-.14-1.9C83.09,107.49,82,107.63,80.94,107.72Zm8.49,1.55a21.28,21.28,0,0,0,3.57,0c-.5-.08-.31-.86-.35-1.41-1.05-.11-2.14-.19-3.29-.21A6.61,6.61,0,0,1,89.43,109.27Zm-10.31-1.48a6.59,6.59,0,0,0-.28,1.48,8.47,8.47,0,0,1,1.26.07c.06-.53.14-1,.21-1.55Zm31.69.21c-1.22-.11-2.21,0-3.5-.07a8,8,0,0,0,.84,1.76c1-.22,2.87.14,3.93-.14-.43-.54-.75-1.18-1.13-1.76C110.94,107.89,110.84,107.91,110.81,108Zm-17.46,1.06c0,.12-.39.27-.07.28.9,0,1.71.16,2.67.14a3.55,3.55,0,0,1,0-1.34,15.48,15.48,0,0,1-2.74-.28A1.66,1.66,0,0,0,93.35,109.06Zm10.94.63a17.38,17.38,0,0,0,3.23-.07c-.44-.46-.53-1.25-1-1.69-.8-.05-1.87,0-2.74-.07A7.41,7.41,0,0,0,104.29,109.69ZM99.66,108a5,5,0,0,0,.43,1.55,25,25,0,0,0,3.57,0c-.22-.49-.26-1.15-.49-1.62C101.84,108,100.85,107.92,99.66,108Zm-3.15.07a2.18,2.18,0,0,0,.07,1.41c1,0,2,.07,2.8.07.07-.41-.29-1.18-.28-1.55A19.87,19.87,0,0,1,96.51,108.07ZM78.07,112c1.15,0,2.36.1,3.71.07a12.37,12.37,0,0,1,.35-2.24,22.68,22.68,0,0,1-3.43-.07C78.49,110.5,78.26,111.24,78.07,112Zm4.49-2.1c.07.56-.21,1.38-.22,2.1a47.44,47.44,0,0,1,5.19-.07,13.38,13.38,0,0,1,0-2.1C85.77,110,84.14,109.69,82.56,109.9Zm5.6-.07a5.64,5.64,0,0,0-.07,2.1c4.74.59,9.94.15,14.8.42.11-1-.45-1.38-.56-2.17C97.36,110,92.78,109.87,88.16,109.83Zm14.66.42a3.3,3.3,0,0,1,.63,2.1c1.14,0,1.76-.09,2.81-.07a4.11,4.11,0,0,1-.28-2C104.9,110.36,103.53,110.05,102.82,110.25Zm3.65,0a4.51,4.51,0,0,0,.21,1.54c.15.15.45.15.35.56.93-.1,1.88,0,2.94-.07a10.56,10.56,0,0,1-.7-2.1C108.29,110.16,107.48,110.3,106.47,110.25Zm4.13,2.1c.81,0,1.66.05,2.53,0-.31-.6-.38-1.45-.63-2.1a14.75,14.75,0,0,0-2.74,0C110.05,110.94,110.31,111.66,110.6,112.35Z"/><path class="cls-1" d="M116.07,114.31c.06.62-.53.93-.84,1.34a24.43,24.43,0,0,1-2.8,3.57c-.13.24-.14.76-.49.77-.93.05,0-1.2.21-1.47,1.16-1.42,2.46-3.2,3.43-4.35A.54.54,0,0,1,116.07,114.31Z"/><path class="cls-1" d="M90,118.66c-.22-1.13-.42-2.34.14-3.15s3.65-1.25,5.75-1.27a13.39,13.39,0,0,1,3.15.21c.7.27,1.06,1.52,1.34,2.39a2,2,0,0,1,.14,1.26c-.32.7-3,.82-4,.91a25.7,25.7,0,0,1-3-.14A10.32,10.32,0,0,1,90,118.66Zm2.31-3.5c-.21.91.25,1.31.35,1.75a10.76,10.76,0,0,0,.14,1.47,35.06,35.06,0,0,0,5.54-.14,3,3,0,0,0,1.62-.42,4.81,4.81,0,0,0-1.06-2.8A24.19,24.19,0,0,0,92.3,115.16Zm-.7.14c-.33.23-.9.22-1.12.56,0,.39-.16.54-.14.91.43-.11,1,0,1.47-.14C91.69,116.23,91.88,115.53,91.6,115.3Zm-1.26,2a3.15,3.15,0,0,0,.21,1c.59,0,1.09.18,1.61,0,.13-.38-.13-.67-.14-1.12C91.48,117.26,90.86,117.25,90.34,117.33Z"/><path class="cls-1" d="M111.44,115.3c0,.8-.89,1.17-1.33,1.75s-.66,1.66-1.61,1.47c-.32-.53.4-.79.7-1.19s.39-.77.7-1.12S110.84,114.91,111.44,115.3Z"/><path class="cls-1" d="M112.85,116a4.54,4.54,0,0,1-1.12,1.82c-.41.51-.86,1.2-1.55,1.4-.39-.65.41-1.21.77-1.68s1-1.15,1.41-1.68A.53.53,0,0,1,112.85,116Z"/></svg>