<?xml version="1.0" encoding="utf-8"?>
<!-- Generator: Adobe Illustrator 23.0.6, SVG Export Plug-In . SVG Version: 6.00 Build 0)  -->
<svg version="1.1" id="s" xmlns="http://www.w3.org/2000/svg" xmlns:xlink="http://www.w3.org/1999/xlink" x="0px" y="0px"
	 viewBox="0 0 175 175" style="enable-background:new 0 0 175 175;" xml:space="preserve">
<style type="text/css">
	.st0{fill-rule:evenodd;clip-rule:evenodd;fill:#1371B6;}
</style>
<g>
	<path class="st0" d="M71.17,90.49c0.21,2.63,0.46,6.57,0.63,9.76c3.45,0.65,6.95-0.03,9.76,0.94c2.45,0.85,4.08,2.64,5.82,3.93
		c-0.27,2.48,1.33,4.62,0.63,7.24c-0.38,1.4-4.03,3.01-5.82,3.62c-2.55,0.87-4.99,1.68-7.24,2.05c-5.54,0.9-12.49,0.59-17.79,0
		c-1.74-0.19-3.79-0.89-5.67-1.26c-2.08-0.4-4.01-0.89-5.51-1.42c-0.67-2.89-1.12-7.09,0-9.29c2.14-4.21,10.67-4.29,15.74-5.98
		c-0.26-3.36-0.48-6.76-1.26-9.6c-5.63,0-11.5,0-17.31,0c-5.93,0-12.05,0.63-17.31,0c-1.38-0.16-2.97-1.02-4.56-1.42
		c-1.74-0.43-3.32-0.46-4.57-1.1c-1.35-0.7-1.63-1.45-2.52-2.83c-0.68-1.05-1.86-2.14-2.04-3.15c-0.28-1.55,0.16-3.97,0.16-6.14
		c0-10.17,0-20.74,0-31.01c0-5.34-0.94-12.23,0.79-15.9c1.17-2.48,3.83-5.06,6.77-5.51c2.85-0.44,6.57,0.16,10.07,0.16
		c20.26,0,40.03,0,60.75,0c3.08,0,8.56,0.33,10.39-0.47c2.1,0.98,4.72-0.57,7.4,0c2.15,0.46,5.04,4.03,5.67,6.77
		c0.75,3.29,0.16,7.53,0.16,11.49c0,7.75,0,16.15,0,23.92c0,4.14,0.4,8.24,0,11.96c-0.13,1.19-0.59,2.68-0.94,4.09
		c-0.61,2.44-0.68,4.61-1.89,6.14c-3.54,4.49-14.68,2.99-23.14,2.99C82.53,90.49,76.79,90.49,71.17,90.49z M40.79,26.75
		c-0.28,1.96-1.62,4.41-3.46,3.78c-0.19-1.52,1.72-2.26,2.05-3.78c-0.63,0-1.26,0-1.89,0c-1.91,2.09-4.04,4.14-5.51,6.45
		c-0.48,0.75-0.72,2.1-1.89,2.2c-1.13-0.54-0.21-1.7,0.16-2.36c0.97-1.77,2.16-2.94,3.3-4.25c0.62-0.71,1.37-1.44,1.26-2.05
		c-1.78-0.17-2.65,1.7-3.46,2.83c-1.8,2.51-3.59,4.79-5.19,7.4C25.52,38,24.89,40.63,23,39.66c0.9-2.41,2.53-4.58,3.93-6.77
		c1.04-1.63,2.28-3.28,3.31-4.72c0.28-0.39,1.12-0.85,0.79-1.42c-3.81,0.48-7.17-0.55-9.92-0.31c-3.21,0.27-5.69,3.38-5.82,6.61
		c-0.55,13,0.75,32.03,0.16,45.01c1.61-0.43,1.91-3.55,4.25-3.78c0.03,0.18,0.17,0.25,0.31,0.32c-0.67,3.16-3.75,3.91-4.56,6.92
		c1.88-1.07,2.22-3.99,4.56-4.41c0.59,2.54-2.57,3.89-3.46,5.98c0.64,1.67,1.9,2.71,4.25,2.68c2.48-3.24,4.87-6.69,7.24-9.92
		c0.76-1.03,1.47-2.69,2.99-2.83c0.64,1.34-0.74,2.66-1.42,3.62c-2.3,3.26-5.33,6.5-6.93,9.76c0.63-0.11,0.9,0.15,1.42,0.16
		c0.95-1.32,1.76-2.8,2.68-4.25c0.83-1.3,1.57-3.21,3.31-3.62c0.6,1.61-0.93,3.01-1.73,4.25c-0.91,1.4-1.92,2.73-2.52,4.25
		c7.87,0.36,16.42,0.05,24.55,0.16c0.37-1.73,1.13-3.07,2.83-3.46c1.22,1.4-1.65,2.77-1.1,3.46c2.21,0,4.41,0,6.61,0
		c1.33-1.59,2.46-3.35,3.78-5.04c1.25-1.62,2.18-3.9,4.41-4.56c0.84,0.93-0.29,1.9-0.79,2.52c-1.85,2.32-3.83,4.55-5.19,7.08
		c0.89,0,1.78,0,2.68,0c1.25-1.45,2.45-2.95,3.62-4.56c1.09-1.5,2.05-3.52,4.09-4.09c0.83,1.55-1.33,3.02-2.36,4.41
		c-0.54,0.73-1.08,1.53-1.57,2.2c-0.53,0.72-1.46,1.33-1.26,2.05c0.37,0,0.74,0,1.1,0c0.75-1.01,1.73-2.45,2.68-3.78
		c0.77-1.08,1.83-3.42,3.46-2.2c-1.11,2.25-3.02,3.7-4.09,5.98c0.89,0,1.78,0,2.68,0c1.02-1.36,2.59-5.4,4.72-4.09
		c-0.31,1.69-2.86,2.79-2.52,4.09c2.8-0.08,2.24-3.54,4.72-3.94c1.45,1.39-1.76,3.05-1.26,3.94c1.33,0.44,0.97-0.81,1.42-1.26
		c0.74-0.4,1.84-2.28,2.83-0.94c0.23,1.2-1.88,1.65-1.26,2.2c2.89,0,5.77,0,8.66,0c2.02-2.37,4.44-5.39,6.77-7.55
		c0.64-0.6,1.77-2.32,2.83-1.1c-0.21,1.49-1.83,2.15-2.83,3.15c-1.29,1.29-2.41,2.99-3.46,4.25c-0.31,0.37-1.12,0.71-0.79,1.26
		c0.89,0,1.78,0,2.68,0c2.25-3.54,5.01-6.72,7.71-9.6c0.91-0.97,1.71-2.29,2.99-2.83c1.46,1.11-0.46,2.45-1.1,3.15
		c-2.73,2.97-5.6,6.17-7.71,9.29c0.74,0,1.47,0,2.2,0c0.74-2.62,2.56-4.19,4.09-5.98c1.18-1.38,2.32-3.1,4.09-3.62
		c0.04,0.23,0.26,0.27,0.32,0.47c-0.39,1.82-2.26,2.94-3.46,4.41c-1.25,1.53-2.54,3.02-3.46,4.72c3.46,0.16,6.47-0.15,8.5-1.42
		c0.43-0.52,0.6-1.29,1.1-1.73c-0.01-2.5,1.09-4.78,1.42-7.4c0.66-5.25,0-12.31,0-19.2c0-6.64-0.26-13.53,0-19.2
		c0.24-5.26,0.41-10.02-3.31-12.12C86.34,27.28,63.05,26.5,40.79,26.75z M65.97,103.4c0.73,0.1,1.01-0.25,1.57-0.31
		c-0.5-4.33-1.45-8.2-1.89-12.59c-0.63,0-1.26,0-1.89,0C64.81,94.49,64.13,100.21,65.97,103.4z M64.71,106.39
		c-1.39-0.47-2.28-2.07-2.99-3.15c-1.96,1.12-4.6,0.86-7.4,1.57c-1.74,0.45-5.63,1.66-5.67,3.46c-0.02,1.13,1.54,2.36,2.52,2.83
		c2.55,1.24,6.76,1.37,10.86,1.73c4.82,0.43,10.07,0.05,13.69-0.79c1.78-1.75,3.96-5.16,3.46-8.03c-1.34-0.6-3.68-0.2-5.51-0.31
		c0.11,1.22,0.34,2.38,0,3.46c-0.52,1.64-2.83,3.78-4.09,2.83c0.41-2.26,3.64-2.37,2.52-5.67
		C70.08,104.98,67.48,107.33,64.71,106.39z M78.56,111.43c1.83-0.21,5.8-2.72,5.35-4.88c-0.25-1.2-2.24-1.31-3.15-2.2
		C81.06,107.73,79.58,109.34,78.56,111.43z M54.17,115.2c-2.41-0.32-4.49-1.39-5.82-2.36c-0.38-0.27-0.83-0.78-1.26-0.63
		c-0.02,0.65,0.27,0.98,0.16,1.73c11.07,3.85,30.92,4.7,39.19-2.2c-0.08-0.76,0.09-1.77-0.47-2.05
		C81.9,117.33,64.89,116.61,54.17,115.2z"/>
	<path class="st0" d="M109.26,27.85c-0.01,1.61-1.58,2.46-2.52,3.46c-1.92,2.06-3.4,4.23-5.19,6.61c-0.7,0.93-1.55,2.78-3.15,2.36
		c-0.25-1.45,1.17-2.34,1.89-3.31c0.79-1.04,1.58-2.12,2.36-3.15c1.71-2.26,3.67-4.11,5.35-6.3C108.6,27.46,109,27.58,109.26,27.85z
		"/>
	<path class="st0" d="M108.94,31.47c-0.12,2.33-2.54,3.9-3.93,5.67c-0.72,0.91-1.45,1.97-2.2,2.83c-0.69,0.79-1.43,2.04-2.52,2.05
		c-1.09-0.84,0.25-2.21,0.79-2.83c1.9-2.21,4.2-4.98,6.29-6.93c-0.01-0.48,0.33-0.61,0.47-0.94
		C108.26,31.32,108.74,31.25,108.94,31.47z"/>
	<path class="st0" d="M110.83,35.25c-0.08,2.1-1.83,3.82-3.78,4.56c-0.09-0.23-0.25-0.38-0.47-0.47c0.61-1.85,2.31-2.62,3.15-4.25
		C110.15,35.09,110.63,35.03,110.83,35.25z"/>
	<path class="st0" d="M85.17,46.11c-0.59,2.71-2.98,0.35-4.72,0.32c-0.48-0.01-1.06,0.27-1.57,0.31c-1.62,0.15-3.26-0.31-5.04-0.31
		c-2.64-0.01-5.41,0.55-8.03,0.31c-0.93-0.09-1.74-0.66-2.68-0.79c-1.63-0.23-3.69-0.12-5.35,0c-1.23,0.09-2.36,0.57-3.62,0.47
		c-0.52-0.04-0.98-0.39-1.57-0.47c-1.93-0.26-4.41,1.15-6.14,0c0.37-1.62,2.97-1.46,4.56-1.57c1.46-0.11,2.51,0.43,3.62,0.47
		c0.77,0.03,1.43-0.38,2.2-0.47c1.89-0.23,4.56-0.31,6.3-0.16c1.15,0.1,2.14,0.89,3.15,0.94c0.7,0.04,1.48-0.32,2.2-0.31
		c1.95,0.01,4.02,0.82,5.67-0.16C77.64,45.85,82.41,44.05,85.17,46.11z"/>
	<path class="st0" d="M52.44,49.26c-0.02,0,0.06-0.15,0.16-0.16c2.07-0.15,4.17,0.52,6.14,0.79c1.42,0.19,2.8-0.19,4.25-0.31
		c3.79-0.33,8.59,0.15,12.43-0.16c1.26-0.1,2.67-0.45,3.78-0.32c0.85,0.1,1.35,0.6,2.68,0.79c2,0.28,4.75-1.04,4.88,0.47
		c0.14,1.53-4.17,1.21-5.04,1.1c-1.05-0.13-2-0.7-3.15-0.79c-0.89-0.07-1.81,0.26-2.68,0.31c-4.49,0.3-9.52,0.13-13.85,0.47
		c-4.06,0.32-6.2-0.9-10.07-0.63c-1.13,0.08-4.02,0.52-3.93-0.79C48.11,48.83,50.91,49.38,52.44,49.26z"/>
	<path class="st0" d="M88.01,55.55c-0.12,2.14-2.25,1.19-3.46,1.26c-3.47,0.21-7.34,1.03-11.02,0.47c-1.24-0.19-2.28-1.28-3.78-1.42
		c-1.93-0.18-4.2,0.47-6.45,0.32c-4.69-0.33-10.46-0.1-14.95-0.79c-0.04-0.67,0.01-1.25,0.47-1.42c4.4,0.27,10.16,0.42,14.95,0.63
		c2.61,0.11,4.79-0.71,7.08-0.16c1.04,0.25,2,1.08,3.15,1.26c2.81,0.42,5.93,0.06,8.5-0.16C84.26,55.41,86.24,54.54,88.01,55.55z"/>
	<path class="st0" d="M49.76,58.39c6.3-0.16,13.02,0.12,18.42,0.47c0.57,0.04,1.66-0.27,1.57,0.79c-0.09,1.13-3.06,0.9-4.56,0.79
		c-3.82-0.29-11.55-0.49-15.9-0.79C49.23,59.01,49.29,58.49,49.76,58.39z"/>
	<path class="st0" d="M95.09,78.06c-0.56,1.79-2.23,3.22-3.46,4.56c-0.6,0.66-1.37,1.3-1.89,2.05c-0.49,0.71-0.81,2.14-2.05,1.57
		c-0.33-1.38,1.11-3.19,2.36-4.56C91.36,80.24,93.49,77.3,95.09,78.06z"/>
	<path class="st0" d="M32.76,80.73c-0.5,1.67-1.53,3.32-2.52,4.56c-0.59,0.74-1.57,1.6-2.68,1.73c-0.09-0.23-0.25-0.38-0.47-0.47
		c0.05-1.1,0.9-1.41,1.57-1.89c0.78-1.58,1.97-2.75,2.83-4.25C32.1,80.34,32.51,80.46,32.76,80.73z"/>
	<path class="st0" d="M59.36,82.47c-0.03,0.18,0.03,0.28,0.16,0.31c-0.99,1.73-1.8,3.66-3.93,4.25c-0.98-1.76,1.91-3.19,2.68-4.72
		C58.68,82.31,59.16,82.25,59.36,82.47z"/>
	<path class="st0" d="M105.79,84.04c-0.47,0.95-0.91,1.92-2.36,1.89c-0.07-0.14-0.14-0.28-0.31-0.31
		C103.08,84.2,104.99,82.68,105.79,84.04z"/>
	<path class="st0" d="M148.92,121.97c5.86-2.22,9.72,2.45,13.38,5.82c2.84,2.62,5.57,5.62,7.24,8.03c1.67,2.41,4.03,7.68,1.89,11.33
		c-0.71,1.21-3.92,3.62-5.51,3.93c-5.69,1.13-11.58-1.73-14.32-4.41c-1.07-1.04-2.52-2.77-3.62-4.25
		c-2.56-3.45-6.93-7.97-5.19-14.64c0.58-2.25,2.6-3.71,4.56-5.19c-1.06-2.03-1.89-4.53-3.78-5.19c-1.52-0.54-3.16-0.05-4.56-0.47
		c-1.77-0.53-3.99-2.11-4.41-3.78c-0.8-3.25,0.56-5.16-1.73-6.45c-4.75-2.69-8.71,2.4-11.96,2.99c-0.91,0.16-1.99-0.13-2.83,0
		c-2.07-1.56-3.95-2.54-3.46-6.3c0.19-1.48,1.36-2.72,1.42-4.09c0.08-2.06-1.15-3.45-2.67-4.41c-4.82-0.15-7.54,2.38-13.22,1.89
		c-1.88-0.16-4.94-0.5-5.04-2.52c3.33,0.18,5.67,1.35,8.97,0.94c3.22-0.39,5.65-2.85,9.76-1.73c2.15,0.58,3.93,2.82,3.78,5.98
		c-0.1,2.09-1.82,3.05-1.42,5.67c0.2,1.27,1.55,2.76,2.52,2.99c2.85,0.67,5.16-2.17,7.55-2.99c4.19-1.44,9.2-0.16,9.92,3.78
		c0.2,1.1-0.35,2.17,0,3.62c0.33,1.34,1.9,2.39,3.15,2.83c1.23,0.44,2.54,0.01,4.09,0.31C146.52,116.29,147.38,119.48,148.92,121.97
		z M149.55,125.12c2.32,1.88,4.33,4.06,5.04,7.55c1.62-1.06,4.27-1.08,5.98-2.05C157.8,128.17,154.71,123.13,149.55,125.12z
		 M153.01,133.46c0.59-2.44-3.36-6.78-5.35-7.24c-3.46,2.24-1.75,9.81,0.94,11.49C149.21,136.03,152.64,134.99,153.01,133.46z
		 M168.75,145.42c1.21-6.77-3.88-9.83-6.93-13.38c-2.44,1.18-6.3,0.94-7.55,3.31c-2.28,0.55-3.4,2.27-4.72,3.78
		c0.94,1.11,1.59,2.5,2.83,3.3c0.26-1.57,0.09-3.58,1.73-3.78c1.38,1.32-1.91,5.97,1.1,6.61c0.24-1.91,0.03-4.28,1.73-4.72
		c1.27,1.52-0.7,3.5-0.16,5.82c0.44,0.29,0.95,0.51,1.42,0.79c-0.1-2.18,0.6-5.79,2.52-4.41c-0.16,1.64-1.44,2.95-0.79,4.88
		c0.29,0.34,1.29-0.03,1.57,0.31c0.18-1.65,0.44-3.23,1.42-4.09c2.02,0.53,0.06,2.66,0.16,4.09
		C166.26,148.39,167.13,146.53,168.75,145.42z"/>
	<path class="st0" d="M76.99,104.19c0.48,3.43-1.47,5.77-3.62,7.08c-0.16-0.21-0.42-0.31-0.63-0.47c0.7-2.39,2.99-3.2,2.99-6.3
		c-0.04-0.25,0.15-0.27,0.16-0.47C76.31,104.03,76.79,103.97,76.99,104.19z"/>
	<path class="st0" d="M121.37,153.61c-38.07,0.52-78.39,0.52-116.63,0c-0.75-0.71-0.32-1.74-0.47-2.83
		c-0.12-0.87-0.73-1.72-0.63-2.52c0.11-0.87,1.23-1.72,1.57-2.52c1.34-3.11,2.48-6.76,3.93-10.23c1.45-3.45,2.7-6.93,4.09-9.92
		c0.77-0.27,1.38-0.72,2.04-1.1c30.57-0.29,62.51-0.16,93.96-0.16c2.1,0,5.14-0.19,5.82,0.31c0.61,0.45,1.45,3.75,1.89,5.19
		c1.27,4.17,2.16,6.7,3.15,11.02c0.47,2.04,1.57,4.01,1.73,5.35c0.07,0.56-0.17,1.09-0.16,1.73
		C121.72,149.55,122.35,152.08,121.37,153.61z M8.21,146.52c36.78,0,73.56,0,110.33,0c-1.88-6.41-3.46-13.12-5.82-19.04
		c-32.21,0-64.43,0-96.64,0C13.09,133.46,10.63,139.97,8.21,146.52z M7.27,150.3c0.75,0.86,2.04,0.47,2.99,0.47
		c35.07,0,70.62,0,105.45,0c0.99,0,2.95,0.48,2.99-0.63c-0.41-0.87-2.12-0.47-2.99-0.47c-36.07,0-72.42,0-108.29,0
		C7.19,149.7,7.28,150.05,7.27,150.3z"/>
	<path class="st0" d="M18.75,128.58c18.68,0.94,39.55-0.31,58.23,0.63c0.62,1,0.33,2.93,1.42,3.46c-0.06,4,2.7,7.22,2.52,11.33
		c-18.25,0.31-41.31,0.16-61.7,0.16c-2.25,0-4.6,0.47-6.61-0.47c0.48-1.61,0.99-3.26,1.57-4.88c0.77-2.11,2.21-3.87,1.73-6.14
		c1.54-0.45,2.15-1.84,2.36-3.62C18.37,128.83,18.53,128.67,18.75,128.58z M19.07,132.2c0.73,0,1.47,0,2.2,0
		c0.08-0.6,0.33-1.04,0.47-1.57C20.31,130,19.04,130.84,19.07,132.2z M23,132.2c0.94,0,1.89,0,2.83,0c0.05-0.73-0.12-1.24-0.32-1.73
		c-0.68,0-1.36,0-2.04,0C23.51,131.24,23.05,131.52,23,132.2z M27.41,132.2c0.89,0,1.78,0,2.68,0c-0.05-0.58,0.13-1.39-0.16-1.73
		C28.41,130.36,26.84,130.21,27.41,132.2z M31.66,132.2c1.21,0,2.41,0,3.62,0c-0.05-0.58,0.13-1.39-0.16-1.73
		C33.53,130.61,30.92,129.73,31.66,132.2z M36.85,132.2c1.05,0,2.1,0,3.15,0c-0.27-0.41-0.02-1.35-0.31-1.73c-0.94,0-1.89,0-2.83,0
		C36.85,131.05,36.85,131.63,36.85,132.2z M41.58,132.2c0.74,0,1.47,0,2.2,0c-0.05-0.58,0.13-1.39-0.16-1.73c-0.74,0-1.47,0-2.2,0
		C41.12,130.88,41.72,131.45,41.58,132.2z M45.35,132.2c0.63,0,1.26,0,1.89,0c-0.17-0.73,0.29-1.36,0-1.73c-0.58,0-1.15,0-1.73,0
		C45.22,130.81,45.41,131.62,45.35,132.2z M48.82,130.63c-0.05,0.63,0.28,0.87,0.16,1.57c1.31-0.1,3.04,0.21,4.09-0.16
		c-0.37-0.36-0.27-1.2-0.63-1.57C51.27,130.56,49.73,130.28,48.82,130.63z M54.8,132.2c0.58,0,1.15,0,1.73,0
		c-0.09-0.6-0.38-0.98-0.32-1.73c-0.63,0-1.26,0-1.89,0C54.31,131.22,54.62,131.65,54.8,132.2z M58.1,132.2c0.89,0,1.78,0,2.67,0
		c0-0.68-0.36-1-0.31-1.73c-0.84,0-1.68,0-2.52,0C57.65,130.88,58.25,131.45,58.1,132.2z M62.67,132.2c0.63,0,1.26,0,1.89,0
		c0.05-0.73,0-1.36-0.31-1.73c-0.68,0-1.36,0-2.05,0C62.13,131.27,62.44,131.7,62.67,132.2z M66.13,130.63c0,0.52,0,1.05,0,1.57
		c0.53,0,1.05,0,1.57,0c-0.33-0.52-0.25-1.32-0.31-1.73C66.94,130.49,66.36,130.38,66.13,130.63z M69.43,132.2c0.47,0,0.94,0,1.42,0
		c-0.14-0.59-0.45-1.02-0.47-1.73c-0.47,0-0.94,0-1.42,0C68.78,130.85,69.36,131.58,69.43,132.2z M72.58,132.2c1.15,0,2.31,0,3.46,0
		c0.03-0.66-0.24-1.02-0.32-1.57c-1.1-0.16-2.33-0.19-3.62-0.16C72.04,131.28,72.54,131.51,72.58,132.2z M17.34,135.82
		c1.1,0,2.2,0,3.31,0c0.05-0.44,0.18-1.14,0.16-2.05C18.55,133.27,17.24,134.5,17.34,135.82z M22.53,133.78
		c0.05,0.83-0.27,1.3-0.32,2.05c1.1,0,2.2,0,3.31,0c-0.06-0.67,0.15-1.62-0.16-2.05C24.42,133.78,23.48,133.78,22.53,133.78z
		 M27.1,135.66c0.4,0.25,1.64,0.25,2.05,0c0.06-0.79-0.1-1.37-0.31-1.89c-0.53,0-1.05,0-1.57,0
		C27.26,134.46,27.31,135.19,27.1,135.66z M30.87,135.82c0.94,0,1.89,0,2.83,0c0.25-0.4,0.25-1.64,0-2.05c-1,0-1.99,0-2.99,0
		C30.64,134.05,30.65,135.35,30.87,135.82z M35.6,135.82c0.79,0,1.57,0,2.36,0c0.25-0.4,0.25-1.64,0-2.05
		C36.15,133.36,34.72,134.08,35.6,135.82z M39.85,135.82c0.94,0,1.89,0,2.83,0c-0.04-0.69-0.25-1.22-0.16-2.05
		C40.7,133.44,38.85,133.86,39.85,135.82z M45.98,133.93c0.11,0.57,0.22,1.14,0.16,1.89c0.68,0,1.36,0,2.05,0
		c-0.14-0.7-0.16-1.52-0.47-2.05C47.14,133.83,46.32,133.64,45.98,133.93z M50.08,135.82c0.94,0,1.89,0,2.83,0
		c-0.06-0.89-0.51-1.38-0.79-2.05c-0.84,0-1.68,0-2.52,0C49.49,134.73,49.76,135.3,50.08,135.82z M54.8,135.82c0.74,0,1.47,0,2.21,0
		c-0.06-0.67,0.15-1.62-0.16-2.05c-0.89,0-1.78,0-2.68,0C53.98,134.29,54.48,135.31,54.8,135.82z M58.89,135.82
		c0.79,0,1.57,0,2.36,0c-0.05-0.84-0.25-1.54-0.63-2.05C58.74,133.19,58.04,134.62,58.89,135.82z M62.51,133.93
		c0.11,0.63,0.4,1.07,0.31,1.89c1.05,0,2.1,0,3.15,0c-0.02-0.87-0.44-1.34-0.63-2.05C64.43,133.86,63.17,133.6,62.51,133.93z
		 M67.07,134.09c0.45,0.39,0.41,1.26,0.79,1.73c0.58,0,1.15,0,1.73,0c-0.04-0.75-0.36-1.21-0.32-2.05
		C68.57,133.9,67.3,133.47,67.07,134.09z M71.32,135.82c0.84,0,1.68,0,2.52,0c0.22,1.35,0.41,2.73,0.79,3.93c1.26,0,2.52,0,3.78,0
		c-0.39-2.24-1.26-3.99-1.89-5.98c-1.84,0-3.67,0-5.51,0C71.01,134.57,71.13,135.23,71.32,135.82z M44.41,135.51
		c-0.05-0.38,0.13-1.8-0.16-1.42C44.3,134.47,44.12,135.89,44.41,135.51z M15.61,139.76c0.89,0,1.78,0,2.68,0
		c0.17-0.66,0.18-1.5,0.16-2.36C16.18,136.87,16.03,138.45,15.61,139.76z M19.86,139.76c1.21,0,2.41,0,3.62,0c0-0.79,0-1.57,0-2.36
		c-1.1,0-2.2,0-3.31,0C20.26,138.38,19.92,138.93,19.86,139.76z M25.05,139.76c1.52,0,3.04,0,4.56,0c0-0.79,0-1.57,0-2.36
		c-1.52,0-3.04,0-4.56,0C25.05,138.18,25.05,138.97,25.05,139.76z M31.19,139.76c1.1,0,2.2,0,3.31,0c0-0.79,0-1.57,0-2.36
		c-1.1,0-2.2,0-3.31,0C31.19,138.18,31.19,138.97,31.19,139.76z M36.22,139.76c0.68,0,1.36,0,2.05,0c0-0.79,0-1.57,0-2.36
		c-0.68,0-1.36,0-2.05,0C36.32,138.23,36.09,139.38,36.22,139.76z M40,139.76c0.53,0,1.05,0,1.57,0c0.03-0.81-0.1-1.78,0.16-2.36
		c-0.58,0-1.15,0-1.73,0C40,138.18,40,138.97,40,139.76z M43.31,139.76c0.63,0,1.26,0,1.89,0c0-0.79,0-1.57,0-2.36
		c-0.68,0-1.36,0-2.05,0C43.32,138.06,43.33,138.89,43.31,139.76z M46.77,139.76c0.58,0,1.15,0,1.73,0c0-0.79,0-1.57,0-2.36
		c-0.58,0-1.15,0-1.73,0C46.77,138.18,46.77,138.97,46.77,139.76z M50.08,139.76c0.73,0,1.47,0,2.2,0c0-0.79,0-1.57,0-2.36
		c-0.74,0-1.47,0-2.2,0C50.08,138.18,50.08,138.97,50.08,139.76z M53.85,139.76c1.31,0,2.62,0,3.93,0
		c-0.04-0.82-0.49-1.63-0.16-2.36c-1.26,0-2.52,0-3.78,0C53.85,138.18,53.85,138.97,53.85,139.76z M59.52,139.76
		c0.84,0,1.68,0,2.52,0c-0.07-0.82-0.41-1.38-0.32-2.36c-0.94,0-1.89,0-2.83,0C59.25,138.04,59.31,138.97,59.52,139.76z
		 M63.77,139.76c0.94,0,1.89,0,2.83,0c-0.13-0.82-0.13-1.76-0.47-2.36c-0.94,0-1.89,0-2.83,0
		C63.39,138.25,63.54,139.04,63.77,139.76z M68.33,139.76c0.69-0.1,1.78,0.21,2.2-0.16c-0.48-0.51-0.6-1.39-0.79-2.2
		c-0.63,0-1.26,0-1.89,0C68.09,138.11,68.02,139.13,68.33,139.76z M71.32,139.76c0.47,0,0.94,0,1.42,0
		c-0.03-0.81,0.1-1.78-0.16-2.36c-0.37,0-0.73,0-1.1,0C71.55,138.38,72.07,139.17,71.32,139.76z M14.82,142.59
		c1.02-0.09,2.39,0.18,3.15-0.16c0-0.31,0-0.63,0-0.94C16.9,141.24,14.54,140.98,14.82,142.59z M19.54,142.59c0.89,0,1.78,0,2.68,0
		c0-0.42,0-0.84,0-1.26C20.87,141.3,19.35,141.09,19.54,142.59z M23.95,142.59c0.63-0.1,1.67,0.2,2.05-0.16
		c-0.37-0.1,0.03-0.97-0.31-1.1c-0.58,0-1.15,0-1.73,0C23.95,141.75,23.95,142.17,23.95,142.59z M27.25,142.59
		c0.51-0.01,0.79-1.23,0.31-1.26C27.35,141.64,27.42,142.23,27.25,142.59z M29.46,141.8c0.03,0.3-0.18,0.35-0.16,0.63
		c7.7,0.29,16.75,0.16,24.55,0.16c1.09,0,2.8,0.38,3.15-0.47c-0.08-1.34-1.9-0.79-2.68-0.79c-8.09,0-16.76,0-24.55,0
		C29.57,141.4,29.45,141.53,29.46,141.8z M58.57,142.59c0.95-0.1,2.31,0.21,2.99-0.16c-0.4-0.13-0.22-0.83-0.47-1.1
		C59.92,141.42,58.06,140.82,58.57,142.59z M62.51,142.59c1.1,0,2.2,0,3.31,0c0.04-0.61-0.34-0.82-0.47-1.26
		C63.84,141.19,62.52,141.24,62.51,142.59z M67.55,142.59c0.74,0,1.47,0,2.2,0c-0.08-0.44-0.23-0.82-0.32-1.26c-0.73,0-1.47,0-2.2,0
		C67.13,141.96,67.65,141.96,67.55,142.59z M71.32,142.59c1.05,0,2.1,0,3.15,0c-0.04-0.49-0.16-0.89-0.32-1.26c-1,0-1.99,0-2.99,0
		C71.05,141.91,71.43,142.01,71.32,142.59z M76.2,142.59c1,0,1.99,0,2.99,0c-0.08-0.44-0.23-0.82-0.31-1.26
		c-0.86,0.39-1.72-0.17-2.83,0C75.85,141.54,76.06,142.24,76.2,142.59z"/>
	<path class="st0" d="M115.08,144.16c-3.62,1.43-8.25-0.03-12.28,0.79c-1.35-1.43-1.64-3.94-2.2-6.14c-0.57-2.24-1.43-4.38-2.2-6.14
		c-0.26-0.58-0.96-1.17-0.79-1.89c0.32-1.34,8.99-1.23,11.49-1.42c0.25-0.02,0.37-0.22,0.63-0.16c1.48,0.34,2.44,4.22,3.15,6.14
		C114.19,138.91,115.4,141.11,115.08,144.16z M110.04,135.66c0.14,0.38,0.37,0.68,0.32,1.26c0.62-0.04,1.09,0.06,1.26,0.47
		c0.29,1.03-0.6,0.87-0.79,1.42c0.47,1.42,0.68,3.1,1.42,4.25c0.37-0.21,1.09-0.07,1.42-0.31c-0.55-2.09-1.29-4.22-2.05-6.3
		c-0.71-1.95-1.21-4.33-2.83-5.51c-0.18,0.75,0.57,1.81,0.63,2.83C110.79,133.7,110.95,135.08,110.04,135.66z M105.01,131.57
		c0.5,0.5,0.57,1.42,1.1,1.89c0.67-0.09,1.04,0.11,1.57,0.16c0.06-1.47-1.08-1.75-1.89-2.36
		C105.4,131.23,105.03,131.23,105.01,131.57z M101.23,135.04c-0.14-1.61,1.37-1.57,2.83-1.57c-0.25-0.67-0.31-1.54-0.31-2.05
		c-1.31,0-2.62,0-3.93,0C100.05,132.86,100.5,134.09,101.23,135.04z M103.27,143.06c0.92,0.05,2.98-0.04,4.41,0
		c-0.28-1.51-0.77-2.8-1.1-4.25c-1.49-0.24-4.14,0.68-4.25-0.94c0.18-1.13,2.18-0.44,3.31-0.63c0.25-0.67-0.42-1.64-0.79-2.2
		c-1.64-0.21-2.84,0.56-3.62,0.31C102.07,137.76,102.82,140.26,103.27,143.06z M107.37,137.08c0.59,0.01,1.09-0.07,1.42-0.31
		c-0.31-0.37-0.4-0.97-0.63-1.42c-0.38-0.1-0.72-0.23-1.26-0.16C107.03,135.84,107.32,136.34,107.37,137.08z M108.31,138.65
		c-0.19,0.03-0.1,0.17,0,0.31c0.72,1.43,0.25,4.05,2.05,4.41c-0.56-1.54-0.65-3.55-1.42-4.88
		C108.67,138.49,108.45,138.53,108.31,138.65z"/>
	<path class="st0" d="M95.4,130.16c0.26,2.57,1.73,3.94,1.89,6.61c-0.94,1.23-2.65,0.29-4.25,0.16c-3.12-0.26-6.96,0.45-9.6-0.31
		c-0.52-1.89-0.54-4.28-1.1-6.14c0.81-0.7,1.97-0.25,3.15-0.31C88.67,129.98,92.66,129.04,95.4,130.16z M88.01,131.41
		c-0.33,0.35,0.25,0.68,0.16,1.26c0.84-0.1,2.1,0.21,2.68-0.16c-0.36-0.16-0.33-0.72-0.32-1.26
		C89.83,131.45,88.91,131.43,88.01,131.41z M92.57,132.52c0.74,0.1,1.01-0.25,1.57-0.31c0.11-0.48-0.27-0.46-0.16-0.94
		c-0.63,0-1.26,0-1.89,0C92.06,131.87,92.44,132.07,92.57,132.52z M84.54,132.67c0.63-0.35,1.13,0.05,1.89,0
		c-0.05-0.48-0.61-0.44-0.63-0.94c-0.47,0-0.94,0-1.42,0C84.37,132.12,84.36,132.49,84.54,132.67z M92.89,134.09
		c0.08,0.44,0.23,0.82,0.31,1.26c0.77,0.07,1.47,0.21,2.2,0.31C95.41,133.88,94.51,133.59,92.89,134.09z M84.86,135.35
		c0.74,0,1.47,0,2.2,0c0.23-0.22-0.03-0.76-0.16-1.1c-0.96,0.22-1.98-0.32-2.36-0.16C84.93,134.23,84.5,135.19,84.86,135.35z
		 M88.95,135.35c0.84,0,1.68,0,2.52,0c0.11-0.48-0.16-0.57-0.16-0.94c-0.56-0.33-1.7-0.08-2.52-0.16
		C88.57,134.47,88.83,135.01,88.95,135.35z"/>
	<path class="st0" d="M92.89,139.13c0.28,0.56,0.25,1.43,0.47,2.05c2.76-1.54,5.48,0.01,4.72,3.15c-2.12,0.51-6.05,1.34-8.18,0.31
		c-0.71,0.38-2.02,0.7-2.99,0.31c-0.29-1.02-0.77-1.86-0.79-3.15c0.44-0.55,1.77-0.23,2.68-0.31c0.12-0.91-0.23-1.35-0.16-2.2
		C89.36,138.52,91.92,138.7,92.89,139.13z M90.37,140.54c-0.11,0.48,0.27,0.46,0.16,0.94c0.37,0,0.74,0,1.1,0c0-0.32,0-0.63,0-0.94
		C91.4,140.31,90.6,140.31,90.37,140.54z M94.15,142.9c0.35,0.89,1.43,0.21,2.2,0.16c0-0.26,0-0.52,0-0.79
		C95.43,142.3,94.57,142.38,94.15,142.9z M88.01,143.38c0.28,0.23,0.94-0.1,1.26-0.32C88.79,143.11,88.04,142.89,88.01,143.38z
		 M92.41,143.22c-0.19-0.18-0.56-0.18-0.94-0.16C91.39,143.77,92.19,143.48,92.41,143.22z"/>
	<path class="st0" d="M87.38,35.25c1.42-0.66,3.76-0.29,3.93,1.26c1.04,0.12,1.59,0.72,1.89,1.57c0.7-0.06,1.22,0.04,1.57,0.31
		c1.05,0.95-0.19,2.46-0.16,3.15c0.03,0.72,0.75,1.23,0.79,1.89c0.06,1.06-0.59,1.96-1.26,2.83c2.07,0.23,2.48,3.56,0.79,4.56
		c0.28,0.83,0.26,2.37-0.32,2.83c1.47,0.43,2.01,3.75,0.63,4.72c1.12,0.81,0.04,2.88,1.1,3.62c0.05,1.64-0.7,1.89,0,3.15
		c-0.43,1.3-1.21,2.25-2.2,2.99c-1.73-0.65-2.47,1.21-3.78,1.26c-0.93,0.04-1.56-1.01-2.83-0.31c-0.66,0.36-0.45,1.19-1.42,1.73
		c0.11,0.96,5.47,3.01,5.35,4.41c-0.12,1.39-2.49,0.83-4.41,0.94c-0.47,1.42-0.17,3.63-1.42,3.78c-0.87,0.11-3.51-3.51-4.41-4.56
		c-1.46,0.81-3.17-0.09-3.46-1.42c-0.48,1.53-4.06,1.49-4.57,0c-2.52,1.07-5.11-0.29-4.41-3.46c-2.01-0.86-2.35-2.98-5.35-2.52
		c-0.71,0.74-2.86,1.83-3.78,0.47c-2.06,0.99-5.64,2.33-7.4,0.16c-1.19,0.45-3.15,0.49-3.62-0.63c-0.66,0.53-2.22,0.68-2.83,0
		c-0.75,0.46-1.62,0.79-2.99,0.63c-0.89,0.64-1.85,1.19-3.62,0.94c-0.71-0.76-1.49-1.45-2.52-1.89c-0.07-0.54,0.06-0.88,0.16-1.26
		c-0.39-0.34-0.98-0.48-1.1-1.1c-0.05-1.04,0.4-1.59,0.79-2.2c-0.45-0.63-0.96-1.85-0.32-2.68c-1.28-0.96-1.78-3.86-0.31-5.04
		c-0.36-1.42-0.03-3.34,0.79-4.09c-1.54-0.82-1.55-3.83-0.32-5.04c-1.48-0.58-1.97-3.6-0.47-4.56c-0.65-1.16-0.32-2.58,0.63-3.62
		c0.56-0.61,1.81-1.71,2.2-1.89c1.08-0.49,2.28-0.01,3.3-0.16c0.54-0.08,1.14-0.63,1.73-0.63c0.73,0,1.4,0.77,2.05,0.79
		c1.14,0.03,1.65-0.94,2.52-0.94c0.56,0.22,0.84,0.74,1.42,0.94c1.41-0.14,1.72-1.25,3.15-1.1c0.91,0.1,1.39,1.08,2.2,1.1
		c1.42,0.04,3.33-2.7,4.56-0.47c0.9-0.41,1.45-1.17,2.99-0.94c0.59,0.36,0.89,1,1.42,1.42c1.56-0.65,3.14-1,4.56,0
		c1.12-0.83,4-2.14,5.04-0.31c1.14-1.09,3.42-2.05,4.72-0.47c1.14-0.85,3.51-0.46,4.25,0.47C83.7,35.09,86.36,33.25,87.38,35.25z
		 M40.63,39.66c-0.65,7.56-0.67,16.8-0.16,24.55c9.32-0.59,19.2-0.63,28.33-1.42c1.42-5.46,10.78-4.66,14.64-2.2
		c1.33,0.85,1.81,2.66,3.15,3.15c1.85,0.67,3.97,0.21,5.82,0.47c-2.08-7.11-0.97-17.39-2.52-25.03c-16.32,0-32.63,0-48.95,0
		C40.75,39.25,40.62,39.39,40.63,39.66z M37.17,44.53c-0.28-0.69,0.61-1.58-0.16-1.73C36.67,43,36.36,44.6,37.17,44.53z
		 M93.99,49.26c0.72-0.02,0.58-1.38-0.16-1.26C93.93,48.37,94.06,48.71,93.99,49.26z M37.01,58.7c0.15-0.34,0.46-1.96-0.16-2.05
		C36.73,57.11,36.42,58.51,37.01,58.7z M74.31,64.05c-0.89,1.25-0.61,2.62-1.1,4.41c0.57,0.64,2.04,1.21,3.15,0.79
		c-2.12-0.72-1.43-4.25,0.47-4.72c2.23-0.55,3.95,0.93,3.46,3.94c-0.32,0.89-1.46,0.96-2.21,1.42c2.95,1.38,5.09-1.87,4.72-5.35
		C81.31,62.43,76.06,61.61,74.31,64.05z M64.4,66.41c0.38,0.33,1.14,0.09,1.26-0.31C65.18,66.15,64.43,65.92,64.4,66.41z
		 M60.94,67.51c0.87-0.02,1.16-0.63,1.57-1.1c-0.58,0-1.15,0-1.73,0C60.7,66.91,61.06,66.97,60.94,67.51z M53.54,66.88
		c0.11,2.03,3.76,1.71,3.62-0.31C55.9,66.62,54.93,66.97,53.54,66.88z M58.73,67.2c0.08-0.23,0.23-0.4,0.31-0.63
		c-0.21,0-0.42,0-0.63,0C58.44,66.86,58.52,67.1,58.73,67.2z M76.83,67.83c0.44,0.16,1.47,0.3,1.89,0c0.03-1.09-0.73-1.37-1.89-1.26
		C76.72,67.2,76.72,67.2,76.83,67.83z M51.65,66.88c-0.53,0.1-1.46-0.2-1.73,0.16C50.25,67.53,51.38,67.36,51.65,66.88z
		 M88.32,67.04c-0.31,0-0.63,0-0.94,0C87.24,67.74,88.4,67.6,88.32,67.04z M41.42,67.36c-0.63,0-1.26,0-1.89,0
		C39.52,68.36,41.36,68.08,41.42,67.36z M69.12,68.62c-0.07-0.4-0.22-0.72-0.47-0.94C68.36,67.98,68.41,68.83,69.12,68.62z
		 M85.33,69.4c0.2-0.28,0.84-1.03,0.16-1.26C85.57,68.61,85.04,69.25,85.33,69.4z M70.85,72.71c0.38-0.1,1.14,0.2,1.26-0.16
		c-0.75-0.36-1.19-1.02-1.73-1.57C70.27,71.82,70.5,72.32,70.85,72.71z M79.98,74.12c0-0.21,0-0.42,0-0.63
		c-0.24,0.03-0.58-0.06-0.63,0.16C79.56,73.81,79.66,74.08,79.98,74.12z"/>
</g>
</svg>
