<svg id="s" xmlns="http://www.w3.org/2000/svg" viewBox="0 0 175 175"><defs><style>.cls-1{fill:#1371b6;fill-rule:evenodd;}</style></defs><title>3642 [Converted]</title><path class="cls-1" d="M93.05,89.84c.12,1.51.26,3.76.36,5.59,2,.37,4,0,5.59.54a12.19,12.19,0,0,1,3.33,2.26c-.15,1.41.77,2.64.37,4.14-.22.8-2.31,1.72-3.34,2.07a25.63,25.63,0,0,1-4.15,1.18,41.28,41.28,0,0,1-10.18,0c-1-.11-2.17-.52-3.24-.72a24.66,24.66,0,0,1-3.16-.82c-.38-1.65-.64-4,0-5.31,1.23-2.41,6.11-2.46,9-3.43a30.63,30.63,0,0,0-.72-5.5H77c-3.4,0-6.9.36-9.92,0A27,27,0,0,1,64.48,89a13,13,0,0,1-2.61-.63c-.78-.4-.93-.83-1.45-1.62-.38-.6-1.06-1.23-1.17-1.8a27.28,27.28,0,0,1,.09-3.52V63.71c0-3.06-.53-7,.45-9.11a5.7,5.7,0,0,1,3.88-3.15,45.42,45.42,0,0,1,5.77.09h34.79c1.76,0,4.9.19,6-.27,1.2.56,2.7-.33,4.23,0,1.23.26,2.89,2.31,3.25,3.88.43,1.88.09,4.3.09,6.57v13.7a68,68,0,0,1,0,6.85,21.49,21.49,0,0,1-.54,2.35c-.35,1.4-.4,2.64-1.09,3.51-2,2.57-8.4,1.71-13.24,1.71ZM75.66,53.34c-.16,1.13-.93,2.53-2,2.17-.11-.88,1-1.3,1.18-2.17H73.76A29.4,29.4,0,0,0,70.61,57c-.27.43-.41,1.2-1.08,1.26-.65-.31-.12-1,.09-1.35a12.93,12.93,0,0,1,1.89-2.44c.36-.4.78-.82.72-1.17-1-.09-1.52,1-2,1.62-1,1.44-2,2.75-3,4.24-.37.59-.73,2.09-1.81,1.53a21.25,21.25,0,0,1,2.26-3.87c.59-.93,1.3-1.88,1.89-2.71.16-.22.64-.48.45-.81-2.18.28-4.11-.31-5.68-.18A3.93,3.93,0,0,0,61.06,57c-.32,7.44.43,18.34.09,25.77.92-.24,1.09-2,2.43-2.16,0,.1.1.14.18.18-.38,1.81-2.15,2.24-2.61,4,1.07-.61,1.27-2.29,2.61-2.53.34,1.45-1.47,2.23-2,3.43a2.29,2.29,0,0,0,2.43,1.53c1.42-1.85,2.79-3.83,4.15-5.68.43-.59.84-1.54,1.71-1.62.36.77-.42,1.52-.81,2.07-1.32,1.87-3.05,3.73-4,5.59.36-.06.52.09.81.09.55-.75,1-1.61,1.54-2.43s.89-1.84,1.89-2.08c.34.92-.53,1.73-1,2.44A14.71,14.71,0,0,0,67.09,88c4.51.21,9.41,0,14.06.09a2.24,2.24,0,0,1,1.63-2c.69.8-1,1.58-.63,2h3.78c.76-.91,1.41-1.91,2.16-2.88s1.25-2.24,2.53-2.62c.48.54-.17,1.09-.45,1.45a28.46,28.46,0,0,0-3,4.05h1.54c.71-.83,1.4-1.69,2.07-2.61s1.17-2,2.34-2.35c.48.89-.76,1.74-1.35,2.53-.31.41-.62.87-.9,1.26s-.84.76-.72,1.17h.63c.43-.58,1-1.4,1.53-2.16s1-2,2-1.26C93.68,85.9,92.58,86.73,92,88H93.5c.58-.78,1.49-3.09,2.71-2.34-.18,1-1.64,1.6-1.45,2.34,1.61-.05,1.28-2,2.71-2.25.83.79-1,1.74-.72,2.25.76.25.55-.46.81-.72.42-.23,1-1.31,1.62-.54.13.69-1.08.94-.72,1.26h5a54.29,54.29,0,0,1,3.87-4.32c.37-.35,1-1.33,1.62-.64-.12.86-1,1.23-1.62,1.81-.73.73-1.38,1.71-2,2.43-.18.21-.64.41-.45.72h1.53a38.27,38.27,0,0,1,4.42-5.5c.52-.55,1-1.31,1.71-1.62.83.64-.26,1.4-.63,1.8A49.83,49.83,0,0,0,107.47,88h1.26a9,9,0,0,1,2.35-3.42c.67-.79,1.33-1.78,2.34-2.08,0,.13.15.16.18.27-.22,1-1.3,1.69-2,2.53a17.7,17.7,0,0,0-2,2.7,8.68,8.68,0,0,0,4.87-.81c.25-.3.35-.74.63-1,0-1.43.63-2.74.81-4.24.38-3,0-7,0-11s-.14-7.75,0-11c.14-3,.24-5.74-1.89-6.94C101.74,53.65,88.41,53.2,75.66,53.34ZM90.08,97.23c.42.06.58-.14.9-.18-.29-2.47-.83-4.69-1.08-7.21H88.82C89.41,92.13,89,95.41,90.08,97.23ZM89.36,99c-.8-.27-1.31-1.19-1.72-1.81-1.12.65-2.63.49-4.23.91-1,.25-3.23,1-3.25,2,0,.64.89,1.35,1.45,1.62,1.46.71,3.86.78,6.21,1a26.89,26.89,0,0,0,7.85-.45c1-1,2.26-3,2-4.6-.77-.34-2.11-.11-3.16-.18a5.12,5.12,0,0,1,0,2c-.3.94-1.62,2.16-2.34,1.62.24-1.3,2.08-1.36,1.44-3.25C92.43,98.14,90.94,99.48,89.36,99Zm7.93,2.88c1-.12,3.32-1.56,3.06-2.79-.14-.69-1.28-.75-1.8-1.27C98.72,99.72,97.87,100.64,97.29,101.83Zm-14,2.16A7.5,7.5,0,0,1,80,102.64c-.21-.15-.47-.44-.72-.36,0,.37.16.57.09,1,6.34,2.21,17.71,2.69,22.44-1.26,0-.43.06-1-.27-1.17C99.2,105.21,89.46,104.8,83.32,104Z"/><path class="cls-1" d="M114.86,54c0,.93-.9,1.41-1.44,2a44.27,44.27,0,0,0-3,3.78c-.4.53-.89,1.59-1.81,1.35-.14-.83.67-1.34,1.08-1.89l1.36-1.8c1-1.3,2.1-2.36,3.06-3.61A.81.81,0,0,1,114.86,54Z"/><path class="cls-1" d="M114.68,56.05c-.07,1.33-1.45,2.23-2.25,3.24-.41.52-.83,1.13-1.26,1.62s-.82,1.17-1.45,1.17c-.62-.47.15-1.26.46-1.62a52.41,52.41,0,0,1,3.6-4c0-.28.19-.35.27-.54C114.29,56,114.57,55.92,114.68,56.05Z"/><path class="cls-1" d="M115.76,58.21a3.13,3.13,0,0,1-2.16,2.61.45.45,0,0,0-.27-.27c.35-1.06,1.32-1.5,1.8-2.43C115.37,58.12,115.65,58.09,115.76,58.21Z"/><path class="cls-1" d="M101.07,64.43c-.33,1.55-1.7.2-2.7.18a7.54,7.54,0,0,0-.9.18c-.93.09-1.87-.18-2.89-.18-1.51,0-3.1.32-4.59.18-.53-.05-1-.38-1.53-.45a15.75,15.75,0,0,0-3.07,0,14.3,14.3,0,0,1-2.07.27c-.3,0-.56-.23-.9-.27-1.11-.15-2.53.66-3.52,0,.21-.93,1.7-.84,2.61-.9a12.72,12.72,0,0,1,2.08.27,8.35,8.35,0,0,0,1.26-.27,20,20,0,0,1,3.61-.09c.66.06,1.22.51,1.8.54.4,0,.84-.18,1.26-.18,1.12,0,2.3.47,3.24-.09C96.76,64.28,99.49,63.25,101.07,64.43Z"/><path class="cls-1" d="M82.33,66.23s0-.09.09-.09a17.12,17.12,0,0,1,3.51.45,11.19,11.19,0,0,0,2.44-.18c2.17-.19,4.92.09,7.12-.09a11.8,11.8,0,0,1,2.16-.18c.48.06.77.35,1.53.45,1.14.16,2.72-.59,2.79.27s-2.38.69-2.88.63-1.15-.4-1.8-.45a11.35,11.35,0,0,0-1.54.18c-2.57.17-5.45.08-7.93.27-2.32.19-3.55-.51-5.76-.36-.65.05-2.31.3-2.26-.45S81.45,66.3,82.33,66.23Z"/><path class="cls-1" d="M102.7,69.84c-.07,1.22-1.3.67-2,.72-2,.12-4.2.59-6.31.27-.71-.11-1.3-.74-2.16-.81-1.1-.11-2.4.27-3.7.18-2.68-.19-6-.06-8.56-.45,0-.39,0-.72.27-.82,2.52.16,5.82.25,8.57.36,1.49.07,2.74-.4,4.05-.09a18.27,18.27,0,0,0,1.8.73,21.87,21.87,0,0,0,4.87-.09C100.55,69.75,101.68,69.25,102.7,69.84Z"/><path class="cls-1" d="M80.79,71.46c3.61-.09,7.46.07,10.55.27.33,0,1-.15.9.45s-1.75.51-2.61.45c-2.19-.17-6.61-.28-9.11-.45C80.49,71.82,80.53,71.52,80.79,71.46Z"/><path class="cls-1" d="M106.75,82.72a8,8,0,0,1-2,2.62,10.85,10.85,0,0,0-1.08,1.17c-.28.4-.47,1.22-1.18.9-.18-.79.64-1.82,1.36-2.61S105.84,82.29,106.75,82.72Z"/><path class="cls-1" d="M71.06,84.26a8.08,8.08,0,0,1-1.44,2.61,2.54,2.54,0,0,1-1.53,1,.45.45,0,0,0-.27-.27c0-.63.51-.81.9-1.08.45-.9,1.13-1.58,1.62-2.43A.76.76,0,0,1,71.06,84.26Z"/><path class="cls-1" d="M86.29,85.25q0,.15.09.18c-.57,1-1,2.09-2.25,2.43-.56-1,1.09-1.82,1.53-2.7C85.9,85.16,86.18,85.12,86.29,85.25Z"/><path class="cls-1" d="M112.88,86.15c-.27.54-.52,1.1-1.35,1.08,0-.08-.08-.16-.18-.18C111.32,86.24,112.42,85.37,112.88,86.15Z"/><path class="cls-1" d="M137.57,107.87c3.36-1.27,5.57,1.4,7.67,3.33a31.57,31.57,0,0,1,4.14,4.6c1,1.38,2.31,4.4,1.08,6.49a7.15,7.15,0,0,1-3.15,2.25,9.92,9.92,0,0,1-8.2-2.52,23.12,23.12,0,0,1-2.08-2.43c-1.46-2-4-4.57-3-8.39.33-1.28,1.49-2.12,2.61-3-.61-1.16-1.08-2.6-2.16-3-.87-.31-1.81,0-2.61-.27a3.91,3.91,0,0,1-2.53-2.17c-.46-1.86.32-2.95-1-3.69-2.72-1.54-5,1.37-6.85,1.71-.52.09-1.14-.07-1.62,0-1.19-.89-2.26-1.45-2-3.61.11-.85.78-1.55.81-2.34a2.83,2.83,0,0,0-1.53-2.52c-2.77-.09-4.32,1.36-7.58,1.08-1.07-.09-2.83-.28-2.88-1.44,1.91.1,3.25.77,5.14.54s3.23-1.63,5.59-1A3.21,3.21,0,0,1,119.64,95c-.06,1.2-1,1.75-.81,3.25a2.43,2.43,0,0,0,1.44,1.71c1.63.38,3-1.24,4.33-1.71,2.39-.83,5.26-.1,5.67,2.16.12.63-.2,1.24,0,2.07a2.79,2.79,0,0,0,1.81,1.62,19.41,19.41,0,0,0,2.34.18C136.2,104.62,136.7,106.44,137.57,107.87Zm.36,1.8a7.27,7.27,0,0,1,2.89,4.33c.92-.61,2.44-.62,3.42-1.17C142.66,111.42,140.89,108.54,137.93,109.67Zm2,4.78c.34-1.4-1.92-3.89-3.07-4.15-2,1.29-1,5.62.54,6.58C137.74,115.92,139.71,115.33,139.92,114.45Zm9,6.85c.69-3.88-2.22-5.63-4-7.66-1.39.67-3.6.54-4.32,1.89-1.31.32-1.95,1.3-2.71,2.16a8.76,8.76,0,0,0,1.63,1.9c.15-.9.05-2,1-2.17.79.76-1.1,3.42.63,3.79.14-1.1,0-2.45,1-2.71.73.88-.4,2-.09,3.34.25.17.55.29.81.45-.06-1.25.35-3.32,1.44-2.52-.08.94-.82,1.69-.45,2.79.17.2.74,0,.9.18a3.64,3.64,0,0,1,.82-2.34c1.15.3,0,1.52.09,2.34C147.5,123,148,121.94,148.93,121.3Z"/><path class="cls-1" d="M96.39,97.69a4,4,0,0,1-2.08,4,1.61,1.61,0,0,0-.36-.27c.41-1.37,1.71-1.83,1.72-3.6,0-.15.08-.16.08-.28C96,97.6,96.27,97.56,96.39,97.69Z"/><path class="cls-1" d="M121.8,126c-21.8.3-44.89.31-66.78,0-.43-.4-.18-1-.27-1.62s-.42-1-.36-1.44.7-1,.9-1.44c.77-1.78,1.42-3.87,2.25-5.86s1.55-4,2.34-5.68a6.64,6.64,0,0,0,1.18-.63c17.5-.16,35.79-.09,53.8-.09,1.21,0,3-.11,3.34.18a11.51,11.51,0,0,1,1.08,3c.72,2.39,1.23,3.83,1.8,6.3.27,1.17.9,2.3,1,3.07,0,.32-.1.63-.09,1C122,123.66,122.36,125.11,121.8,126Zm-64.8-4h63.18c-1.07-3.67-2-7.52-3.34-10.91H61.51A108.81,108.81,0,0,0,57,121.93Zm-.54,2.16c.43.5,1.17.27,1.71.27h60.39c.57,0,1.69.27,1.71-.36-.24-.49-1.21-.27-1.71-.27h-62C56.42,123.75,56.47,124,56.46,124.09Z"/><path class="cls-1" d="M63,111.65c10.7.54,22.65-.17,33.35.37.35.57.18,1.67.81,2,0,2.29,1.54,4.13,1.44,6.49-10.45.17-23.66.09-35.33.09-1.29,0-2.63.26-3.79-.27.28-.92.57-1.87.9-2.8.44-1.21,1.27-2.21,1-3.51.88-.26,1.23-1.06,1.35-2.07A.49.49,0,0,1,63,111.65Zm.18,2.08h1.26a6.83,6.83,0,0,1,.27-.9A1,1,0,0,0,63.22,113.73Zm2.25,0h1.62a2.09,2.09,0,0,0-.18-1H65.74C65.76,113.18,65.5,113.33,65.47,113.73Zm2.53,0h1.53c0-.33.08-.8-.09-1C68.57,112.68,67.67,112.59,68,113.73Zm2.43,0H72.5c0-.33.08-.8-.09-1C71.5,112.81,70,112.31,70.43,113.73Zm3,0h1.81c-.16-.24,0-.77-.18-1H73.4Zm2.71,0h1.26c0-.33.08-.8-.09-1H76C75.85,113,76.19,113.29,76.11,113.73Zm2.16,0h1.08c-.09-.42.17-.78,0-1h-1C78.19,112.93,78.3,113.4,78.27,113.73Zm2-.9c0,.36.16.5.09.9a11.88,11.88,0,0,0,2.35-.09c-.22-.21-.16-.69-.36-.9A9.27,9.27,0,0,0,80.25,112.83Zm3.43.9h1a3.29,3.29,0,0,1-.18-1H83.41A2.62,2.62,0,0,0,83.68,113.73Zm1.89,0H87.1c0-.39-.21-.57-.18-1H85.48C85.31,113,85.66,113.29,85.57,113.73Zm2.61,0h1.09a1.46,1.46,0,0,0-.18-1H87.91A1.79,1.79,0,0,0,88.18,113.73Zm2-.9v.9h.9a2.51,2.51,0,0,1-.18-1C90.63,112.75,90.3,112.69,90.17,112.83Zm1.89.9h.81a4.09,4.09,0,0,1-.27-1h-.81C91.69,113,92,113.37,92.06,113.73Zm1.8,0h2a4,4,0,0,0-.18-.9,11.6,11.6,0,0,0-2.08-.09C93.55,113.2,93.84,113.33,93.86,113.73ZM62.23,115.8h1.89a7.37,7.37,0,0,0,.09-1.17C62.92,114.34,62.17,115.05,62.23,115.8Zm3-1.17A7,7,0,0,1,65,115.8h1.89c0-.38.09-.93-.09-1.17Zm2.62,1.08a1.68,1.68,0,0,0,1.17,0,2.31,2.31,0,0,0-.18-1.08h-.9A3,3,0,0,1,67.82,115.71Zm2.16.09H71.6a1.68,1.68,0,0,0,0-1.17H69.89A2.87,2.87,0,0,0,70,115.8Zm2.7,0H74a1.58,1.58,0,0,0,0-1.17C73,114.39,72.18,114.8,72.68,115.8Zm2.44,0h1.62a4.84,4.84,0,0,1-.09-1.17C75.61,114.44,74.55,114.68,75.12,115.8Zm3.51-1.08a3.63,3.63,0,0,1,.09,1.08h1.17a4,4,0,0,0-.27-1.17C79.29,114.66,78.82,114.55,78.63,114.72ZM81,115.8H82.6a3.32,3.32,0,0,0-.45-1.17H80.7A1.69,1.69,0,0,0,81,115.8Zm2.71,0h1.26c0-.38.09-.93-.09-1.17H83.32C83.21,114.92,83.5,115.51,83.68,115.8Zm2.34,0h1.35a2.14,2.14,0,0,0-.36-1.17C85.94,114.3,85.54,115.11,86,115.8Zm2.07-1.08a2.94,2.94,0,0,1,.18,1.08h1.81a4.34,4.34,0,0,0-.36-1.17A6,6,0,0,0,88.09,114.72Zm2.62.09c.25.22.24.72.45,1h1a8.2,8.2,0,0,1-.18-1.17C91.56,114.7,90.83,114.46,90.71,114.81Zm2.43,1h1.44a17.9,17.9,0,0,0,.45,2.25H97.2a24.43,24.43,0,0,0-1.08-3.42H93A3.73,3.73,0,0,0,93.14,115.8Zm-15.41-.18c0-.22.08-1-.09-.81C77.67,115,77.56,115.84,77.73,115.62Zm-16.49,2.43h1.53a5.18,5.18,0,0,0,.09-1.35C61.56,116.4,61.48,117.31,61.24,118.05Zm2.43,0h2.07V116.7H63.85A6.12,6.12,0,0,1,63.67,118.05Zm3,0h2.62V116.7H66.64Zm3.52,0h1.89V116.7H70.16Zm2.88,0h1.17V116.7H73C73.09,117.18,73,117.84,73,118.05Zm2.17,0h.9a4.14,4.14,0,0,1,.09-1.35h-1Zm1.89,0h1.08V116.7H77A5.22,5.22,0,0,1,77.1,118.05Zm2,0h1V116.7h-1Zm1.89,0h1.27V116.7H81Zm2.17,0h2.25c0-.47-.28-.93-.09-1.35H83.14Zm3.24,0h1.44a6.12,6.12,0,0,1-.18-1.35H86A6.06,6.06,0,0,1,86.38,118.05Zm2.44,0h1.62a4.55,4.55,0,0,0-.27-1.35H88.54A7.48,7.48,0,0,0,88.82,118.05Zm2.61,0c.39,0,1,.12,1.26-.09a2.74,2.74,0,0,1-.45-1.26H91.16A10.74,10.74,0,0,0,91.43,118.05Zm1.71,0H94a4.14,4.14,0,0,0-.09-1.35h-.63C93.27,117.26,93.57,117.72,93.14,118.05Zm-32.35,1.63a7.38,7.38,0,0,0,1.8-.09v-.54C62,118.9,60.63,118.75,60.79,119.68Zm2.7,0H65V119C64.25,118.94,63.38,118.81,63.49,119.68Zm2.52,0c.37-.06,1,.11,1.17-.09-.21-.06,0-.56-.18-.63H66Zm1.9,0c.29,0,.45-.71.18-.72C68,119.13,68,119.47,67.91,119.68Zm1.26-.45c0,.17-.1.19-.09.36,4.41.16,9.59.09,14.06.09.62,0,1.6.22,1.8-.27,0-.77-1.09-.45-1.53-.45H69.35A.23.23,0,0,0,69.17,119.23Zm16.67.45c.54-.06,1.32.11,1.71-.09-.22-.08-.12-.48-.27-.63C86.61,119,85.55,118.66,85.84,119.68Zm2.25,0H90c0-.36-.2-.47-.27-.72C88.86,118.88,88.1,118.9,88.09,119.68Zm2.89,0h1.26c0-.26-.13-.47-.18-.72H90.8C90.74,119.31,91,119.32,91,119.68Zm2.16,0h1.8a2.17,2.17,0,0,0-.18-.72H93.05C93,119.29,93.21,119.34,93.14,119.68Zm2.8,0h1.71c-.05-.26-.13-.47-.18-.72-.49.22-1-.1-1.62,0C95.74,119.08,95.85,119.48,95.94,119.68Z"/><path class="cls-1" d="M118.2,120.58c-2.08.81-4.72,0-7,.45-.78-.82-.94-2.26-1.26-3.52a22.68,22.68,0,0,0-1.27-3.51c-.14-.34-.55-.67-.45-1.08.19-.77,5.15-.71,6.58-.81.15,0,.21-.13.36-.09.85.19,1.4,2.41,1.81,3.51C117.69,117.57,118.38,118.83,118.2,120.58Zm-2.89-4.87a1.39,1.39,0,0,1,.18.72c.36,0,.63,0,.72.27.17.59-.34.5-.45.81a10.93,10.93,0,0,0,.82,2.44c.21-.12.62,0,.81-.18-.32-1.2-.74-2.42-1.18-3.61s-.69-2.48-1.62-3.15c-.1.42.33,1,.36,1.62C115.74,114.59,115.83,115.37,115.31,115.71Zm-2.88-2.34c.29.28.33.81.63,1.08a3.12,3.12,0,0,1,.9.09c0-.84-.62-1-1.08-1.35C112.66,113.17,112.44,113.17,112.43,113.37Zm-2.16,2c-.09-.92.78-.9,1.62-.9a3.48,3.48,0,0,1-.18-1.17h-2.25A4.48,4.48,0,0,0,110.27,115.35Zm1.17,4.6c.52,0,1.71,0,2.52,0-.16-.87-.44-1.61-.63-2.44-.85-.14-2.37.39-2.43-.54.1-.64,1.24-.25,1.89-.36.14-.38-.24-.94-.45-1.26-.94-.12-1.63.32-2.07.18A25.7,25.7,0,0,1,111.44,120Zm2.34-3.43a1.3,1.3,0,0,0,.81-.18,4.61,4.61,0,0,1-.36-.81,1.73,1.73,0,0,0-.72-.09A6.82,6.82,0,0,1,113.78,116.52Zm.54.9c-.11,0,0,.1,0,.18.42.82.15,2.32,1.17,2.53a19.44,19.44,0,0,0-.81-2.8A.55.55,0,0,0,114.32,117.42Z"/><path class="cls-1" d="M106.93,112.56c.15,1.47,1,2.25,1.08,3.78-.54.7-1.51.17-2.43.09-1.79-.15-4,.26-5.5-.18-.3-1.08-.31-2.45-.63-3.51.47-.41,1.13-.15,1.8-.18C103.07,112.46,105.36,111.92,106.93,112.56Zm-4.23.72c-.19.2.14.38.09.72.48-.06,1.2.12,1.53-.09-.21-.09-.19-.42-.18-.72A6,6,0,0,1,102.7,113.28Zm2.61.63c.42.06.58-.14.9-.18.07-.28-.16-.27-.09-.54H105C105,113.54,105.23,113.65,105.31,113.91Zm-4.6.09c.36-.2.65,0,1.08,0,0-.27-.34-.25-.36-.54h-.81A.8.8,0,0,0,100.71,114Zm4.78.81c.05.25.13.47.18.72.44,0,.84.12,1.26.18C106.93,114.69,106.42,114.52,105.49,114.81Zm-4.6.72h1.26c.13-.13,0-.44-.09-.63-.54.12-1.13-.18-1.35-.09C100.94,114.89,100.69,115.44,100.89,115.53Zm2.35,0h1.44c.06-.28-.09-.33-.09-.54-.33-.19-1,0-1.44-.09C103,115,103.17,115.34,103.24,115.53Z"/><path class="cls-1" d="M105.49,117.69c.16.32.14.82.27,1.17,1.58-.88,3.14,0,2.7,1.81-1.21.29-3.46.77-4.68.18a2.33,2.33,0,0,1-1.72.18,6.78,6.78,0,0,1-.45-1.8c.26-.32,1-.14,1.54-.18.07-.53-.14-.78-.09-1.27C103.47,117.35,104.94,117.45,105.49,117.69Zm-1.44.81c-.07.28.15.27.09.55h.63v-.55A.71.71,0,0,0,104.05,118.5Zm2.16,1.36c.2.5.82.12,1.26.09v-.45A1.66,1.66,0,0,0,106.21,119.86Zm-3.51.27c.15.13.54-.06.72-.18C103.14,120,102.71,119.85,102.7,120.13Zm2.52-.09a.7.7,0,0,0-.54-.09C104.63,120.35,105.09,120.18,105.22,120Z"/><path class="cls-1" d="M102.33,58.21c.82-.38,2.16-.17,2.26.72a1.22,1.22,0,0,1,1.08.9,1.27,1.27,0,0,1,.9.18c.6.54-.11,1.41-.09,1.8s.43.71.45,1.09a2.55,2.55,0,0,1-.72,1.62c1.18.13,1.42,2,.45,2.61.16.48.15,1.36-.18,1.62.84.25,1.15,2.15.36,2.71.64.46,0,1.65.63,2.07,0,.94-.4,1.08,0,1.8a3.47,3.47,0,0,1-1.26,1.72c-1-.38-1.41.69-2.16.72-.54,0-.9-.58-1.63-.18-.37.2-.25.68-.81,1,.06.55,3.14,1.72,3.07,2.52s-1.43.48-2.53.54c-.26.81-.1,2.08-.81,2.17-.5.06-2-2-2.52-2.62a1.35,1.35,0,0,1-2-.81c-.28.88-2.33.85-2.62,0-1.44.62-2.92-.16-2.52-2-1.15-.49-1.35-1.71-3.07-1.44-.4.42-1.63,1.05-2.16.27-1.18.56-3.23,1.33-4.23.09-.68.25-1.81.28-2.08-.36a1.4,1.4,0,0,1-1.62,0,2.5,2.5,0,0,1-1.71.36,2.58,2.58,0,0,1-2.07.54,4,4,0,0,0-1.45-1.08,1.8,1.8,0,0,1,.09-.73c-.22-.19-.56-.27-.63-.63a2,2,0,0,1,.45-1.26c-.26-.36-.55-1.06-.18-1.53a2.07,2.07,0,0,1-.18-2.88,2.76,2.76,0,0,1,.45-2.35c-.88-.47-.88-2.19-.18-2.88a1.68,1.68,0,0,1-.27-2.62,1.79,1.79,0,0,1,.36-2.07,7,7,0,0,1,1.27-1.08c.61-.28,1.3,0,1.89-.09.31,0,.65-.36,1-.36s.8.44,1.17.45c.66,0,.95-.54,1.44-.54.33.13.48.42.81.54.81-.08,1-.72,1.81-.63.52.05.79.62,1.26.63.81,0,1.9-1.55,2.61-.27.52-.24.83-.67,1.71-.54.34.2.52.57.82.81a2.59,2.59,0,0,1,2.61,0c.64-.48,2.29-1.23,2.88-.18.65-.62,2-1.18,2.71-.27a2.11,2.11,0,0,1,2.43.27C100.23,58.12,101.75,57.06,102.33,58.21ZM75.57,60.73a96.93,96.93,0,0,0-.09,14.06c5.33-.34,11-.36,16.22-.81.81-3.13,6.18-2.67,8.38-1.26.76.49,1,1.52,1.8,1.8,1.06.39,2.28.12,3.34.27-1.19-4.07-.56-10-1.44-14.33h-28A.24.24,0,0,0,75.57,60.73Zm-2,2.8c-.16-.4.35-.91-.09-1C73.3,62.65,73.12,63.57,73.58,63.53Zm32.54,2.7c.42,0,.33-.79-.09-.72A1.75,1.75,0,0,1,106.12,66.23ZM73.49,71.64c.09-.2.26-1.13-.09-1.17C73.33,70.73,73.16,71.53,73.49,71.64ZM94.85,74.7c-.51.72-.35,1.5-.63,2.53a1.88,1.88,0,0,0,1.81.45c-1.22-.42-.82-2.44.27-2.71,1.27-.31,2.26.54,2,2.26-.18.51-.83.54-1.26.81,1.69.79,2.91-1.07,2.7-3.07C98.86,73.78,95.85,73.3,94.85,74.7Zm-5.67,1.35a.49.49,0,0,0,.72-.18C89.62,75.9,89.2,75.77,89.18,76.05Zm-2,.64c.5,0,.67-.36.9-.64h-1C87.06,76.34,87.27,76.37,87.19,76.69ZM83,76.32c.06,1.17,2.15,1,2.07-.18A16.62,16.62,0,0,1,83,76.32Zm3,.18c0-.13.13-.22.18-.36h-.36C85.76,76.31,85.81,76.45,85.93,76.5Zm10.37.37a1.54,1.54,0,0,0,1.08,0c0-.63-.42-.79-1.08-.73A1.3,1.3,0,0,0,96.3,76.87Zm-14.42-.55c-.31.06-.84-.11-1,.09A.7.7,0,0,0,81.88,76.32Zm21,.09h-.55C102.26,76.81,102.92,76.73,102.88,76.41ZM76,76.6H74.94C74.93,77.17,76,77,76,76.6Zm15.86.72a.9.9,0,0,0-.27-.54C91.44,77,91.48,77.44,91.88,77.32Zm9.28.45c.12-.17.48-.6.09-.72C101.3,77.31,101,77.68,101.16,77.77Zm-8.29,1.89c.22-.06.66.11.72-.09a3.7,3.7,0,0,1-1-.9A1.14,1.14,0,0,0,92.87,79.66Zm5.23.81v-.36c-.14,0-.33,0-.36.09C97.86,80.29,97.92,80.44,98.1,80.47Z"/></svg>