<?xml version="1.0" encoding="utf-8"?>
<!-- Generator: Adobe Illustrator 23.1.0, SVG Export Plug-In . SVG Version: 6.00 Build 0)  -->
<svg version="1.1" id="Layer_1" xmlns="http://www.w3.org/2000/svg" xmlns:xlink="http://www.w3.org/1999/xlink" x="0px" y="0px"
	 viewBox="0 0 794.96 307.42" style="enable-background:new 0 0 794.96 307.42;" xml:space="preserve">
<style type="text/css">
	.st0{fill:#1371B6;}
</style>
<path class="st0" d="M184.24,175.14c-2.43-1.75-3.67-4.8-3.92-8.04c-0.43-5.62,0.17-11.16,1.66-16.7c1.78-6.61,8.19-9.61,14.23-8.97
	c5.23,0.55,9.82,2.77,13.71,6.29c3.34,3.02,4.04,9.14,1.75,13.77c-0.43,0.86-1.1,1.82-1.03,2.68c0.54,6.74-2.47,11.15-8.81,12.24
	c5.7,6.57,6.12,14.76,7.61,22.68c1.23,6.57,0.01,12.84-0.9,19.24c-0.79,5.57-0.49,11.14,0.58,16.77c1.56,8.16,2.05,16.54,3.67,24.69
	c0.98,4.93,3.24,9.61,4.47,13.11c3.87,2.22,6.47,3.7,9.75,5.58c0.45-3.86,0.39-7.15-0.06-10.45c-0.14-1.01-0.44-2-0.59-3.01
	c-1.07-7.14-0.91-7.12,5.82-10.18c3.03-1.38,6.2-3.08,8.41-5.47c4.73-5.11,9.5-10.15,14.97-14.45c3.55-2.79,4.58-6.47,4.68-10.71
	c0.05-2.01,0.45-4.01,0.62-6.03c0.15-1.82,0.19-3.64,0.29-5.64c-6.73-0.53-11.17-4.67-15.77-8.31c-1.39-1.1-2.43-3.49-2.45-5.31
	c-0.06-6.62,0.07-13.28,0.7-19.87c0.74-7.61,2.02-15.18,3.21-22.74c0.42-2.64,1.26-5.21,1.79-7.36c0.91-0.49,1.2-0.76,1.51-0.79
	c7.97-0.84,14.15-5.1,19.83-10.34c0.88-0.81,1.72-1.77,2.77-2.24c2.49-1.11,4.44-2.53,4.17-5.59c1.81-0.33,3.11-0.57,4.98-0.92
	c0.16-1.32,0.71-2.83,0.44-4.17c-1.59-7.93,1.85-14.12,6.54-19.94c1.7-2.11,3.97-3.09,6.69-3.23c5.85-0.29,11.85-0.15,15.21,5.44
	c2.94,4.89,6.52,10.18,3.38,16.4c-1.04,2.07-2.57,4.27-4.48,5.44c-2.87,1.76-4.37,4.07-4.91,7.1c-3.52,1.93-6.9,3.79-10.42,5.72
	c0.66,3.35,2.61,5.55,5.44,6.9c3.82,1.81,6.8,6.53,5.25,10.22c-2.21,5.23-2.32,11.36-6.72,15.72c-0.76,0.75-0.95,2.67-0.61,3.8
	c1.12,3.68,1.12,7.32,0.79,11.09c-0.2,2.28,0.32,4.62,0.57,7.5c-2.71-1.91-1.84-4.45-2.33-6.99c-1.98,3.2-1.84,6.56-2.29,9.71
	c-0.67,4.67-0.88,9.31-2.72,13.86c-1.07,2.64-0.71,6.12-0.22,9.09c2.01,12.06-0.97,22.95-6.9,33.34c-0.77,1.34-0.8,3.14-1.02,4.75
	c-0.54,3.96,0.47,8.23-2.31,11.29c1.21,5.69,5.55,6.27,9.81,6.96c4.22,0.69,5.61,1.61,5.74,3.85c0.13,2.21-2.02,4-5.87,4.66
	c-1.67,0.29-3.42,0.49-5.1,0.31c-6.06-0.62-12.12-1.29-18.13-2.24c-1.24-0.2-3.09-1.5-3.28-2.55c-0.58-3.27-0.18-6.72-0.76-10
	c-1.06-6.05,1.56-11.52,2.66-17.33c-6.68,3.81-13.17,7.17-19.29,11.11c-4.77,3.07-8.11,7.34-7.03,13.67
	c0.23,1.34,0.43,2.71,0.4,4.07c-0.09,4.1-3.18,5.81-6.61,3.66c-0.99-0.62-1.78-1.55-2.94-2.58c-5.93,2.8-12.24,1.36-18.47,0.97
	c-3.03-0.19-4.2-1.4-4.31-4.64c-0.14-3.78-1.5-6.95-3.61-9.93c-2.27-3.19-3.26-6.7-2.83-10.62c0.11-1.01,0.14-2.06,0-3.07
	c-0.9-6.39-7.28-6.78-10.77-4.3c-2.16,1.54-4.76,2.44-6.98,3.9c-5.93,3.89-9.26,9.82-12.46,16.26c2.58,1.76,3.92,4.76,7.49,5.45
	c1.95,0.38,1.92,2.6,1.06,4.31c-1.2,2.35-3.38,3.44-5.84,3.59c-5.18,0.32-10.24-0.45-14.85-2.94c-4.78-2.59-4.83-8.45-0.31-11.49
	c1.18-0.79,2.25-1.96,2.95-3.19c1.17-2.07,1.88-4.39,3.03-6.48c1.05-1.92,2.03-4.22,3.71-5.4c7.11-4.98,6.52-12.44,6.65-19.58
	c0.29-16.07-2.05-32.3,2.43-48.1C179.22,185.32,181.93,180.52,184.24,175.14z"/>
<path class="st0" d="M366.04,245.74c-7.02,3.97-11.18,11-19.42,12.85c0,2,0.05,4-0.02,6.01c-0.05,1.53,0.01,3.13-0.43,4.55
	c-1,3.21-4.35,4.19-6.28,1.51c-2.12-2.95-4.14-6.51-4.58-10.01c-0.63-4.97-1.8-9.67-3.36-14.37c-1.83-5.53-0.45-7.59,5.28-8.24
	c1.85-0.21,3.72-0.19,5.58-0.38c1.86-0.19,3.71-0.51,5.47-0.77c6.43-6.59,12.8-13.12,19-19.47c-0.41-3.39-0.76-6.19-1.1-9
	c-0.22,0.01-0.44,0.02-0.66,0.02c-0.19,0.85-0.37,1.69-0.56,2.54c-0.32,0.04-0.63,0.09-0.95,0.13c-0.44-2.7-0.8-5.41-1.34-8.09
	c-0.9-4.49-1.62-9.04-2.98-13.39c-0.81-2.59-2.69-4.84-4.9-6.86c-0.29-1.8-0.58-3.61-0.88-5.42c-4.18,0.79-4.54,1.1-4.34,4.24
	c0.07,1.17,0.48,2.32,0.78,3.46c1.51,5.73,3.03,11.45,4.62,17.44c-1.19,0.39-1.92,0.63-3.38,1.11c-1.7-8.11-3.32-15.88-4.93-23.55
	c-1.81,0.52-3.93,1.75-5.91,1.56c-3.07-0.3-5.93-1.71-6.94-5.18c-1.38-4.71-2.63-9.47-4.21-14.11c-0.91-2.68-2.34-5.19-4.53-7.64
	c0,2.4-0.33,4.86,0.09,7.17c0.45,2.47,1.5,4.86,2.51,7.18c1.01,2.31,2.31,4.49,3.63,7.01c-2.8,3.03-5.41,5.86-8.08,8.75
	c0.67,1.65,1.23,3.01,1.83,4.48c-1.58,1.25-2.86,1.16-3.11-0.62c-0.28-1.97-0.17-4.08,0.19-6.06c1.18-6.56,2.2-13.02,0.83-19.76
	c-0.99-4.89-0.11-9.87,1.68-14.57c0.38-1,1.29-1.79,2.08-2.84c0-3.56,0.3-7.31-0.08-11c-0.44-4.28,3.59-6.33,4.08-10.22
	c2.37-0.31,4.64-0.27,6.65-0.98c2.02-0.71,3.78-2.17,5.96-3.48c-3.01-2.78-2.3-6.12-0.42-9.31c1.4-2.37,3.59-1.06,5.61-0.61
	c4.92-7.23,12.76-10.78,20.25-15.8c-0.13-1.14-0.06-2.67-0.5-4.03c-0.63-1.93-1.7-3.72-2.47-5.61c-0.83-2.05-1.77-4.09-2.24-6.23
	c-2.31-10.67,5.63-19.9,16.67-19.61c4.04,0.11,7.7,1.15,10.77,3.86c2.24,1.98,2.88,4.16,3.13,7.42c0.31,4.18-0.99,8.66,1.16,12.73
	c0.34,0.65,0.18,1.68-0.02,2.46c-1.01,3.93-2.11,7.83-3.22,11.91c-1.52,0.5-2.95,0.97-4.45,1.46c5.79,4.4,10.9,8.89,12.88,16.88
	c2.94,11.86,7.45,23.35,11.58,34.9c2.66,7.42,4.55,14.93,5.3,22.77c0.35,3.7,1.2,7.35,1.62,11.05c0.27,2.36,0.39,4.78,0.18,7.14
	c-0.27,3.02-4.21,6.27-7.16,6.26c-1.79-0.01-2.82-1.71-1.76-3.18c1.06-1.48,2.43-2.73,3.65-4.06c-7.04-8.53-8.89-19.44-15.2-27.94
	c-0.26,0.16-0.5,0.24-0.5,0.33c-0.56,8.3-1.68,16.61-1.48,24.89c0.18,7.34-0.7,14.36-3.29,21.06c-2.41,6.22-3.2,12.49-2.92,19.03
	c0.27,6.25-0.65,12.11-4.03,17.65c-2.42,3.98-0.78,8.68-0.63,13.06c0.06,1.86,0.49,3.71,0.67,5.58c0.27,2.79-0.19,5.33-1.94,7.72
	c-1.89,2.58-1.7,4.25,0.72,6.15c2.26,1.77,4.8,3.26,7.4,4.5c2.31,1.1,4.3,2.12,4.02,5.14c-0.28,2.99-2.53,3.86-4.88,4.5
	c-5.07,1.38-10.1,1.34-15.07-0.6c-3.49-1.36-7.01-2.67-10.55-3.89c-4.97-1.71-6.48-4.01-5.51-9.29c0.52-2.84,0.94-5.9,2.36-8.3
	c1.44-2.42,1.41-4.75,1.58-7.27C365.01,257.06,365.54,251.64,366.04,245.74z"/>
<path class="st0" d="M124.85,274.62c-2.6,2.42-4.33,4.04-6.72,6.27c-0.06,0.97-0.18,2.96-0.3,4.95c-2.66,1.73-4.49,0.69-5.61-1.51
	c-2.64-5.19-3.48-10.91-4.97-16.86c5.11-2.49,9.9-4.81,14.59-7.09c-1.2-4.74-2.13-8.87-3.31-12.93c-1.1-3.8-1.85-7.31-0.03-11.32
	c2.25-4.97,0.81-10.3-0.21-15.78c-5.14,2.21-10.14,5.02-16.2,3.61c-1.44-2.5-1.07-5.04,0.19-7.9c7.77,0.12,12.13-5.33,16.94-10.33
	c3.01-3.13,6.73-5.58,10.67-8.77c0.32-2.23,0.78-5.24,1.17-8.27c0.76-6,4.84-9.15,9.84-11.44c2.53-1.16,5.08-0.66,7.27,0.96
	c4.31,3.18,6.88,7.55,7.79,12.78c0.28,1.6,0.25,3.72-0.59,4.95c-3.34,4.88-4.76,11.4-11.33,13.41c2.83,8.3,1.14,22.24-4.2,33.71
	c3.4,3.4,4.48,7.39,3.18,12.39c-1.35,5.18-1.8,10.6-2.85,17.2c1.72,1.68,4.31,4.21,6.9,6.74c1.42,1.82,0.45,3.32-1.58,4.01
	c-4.8,1.64-9.66,3.1-14.33,4.58c-2.96-2.65-2.72-5.92-3.47-8.81C127.14,277.01,126.91,274.62,124.85,274.62z"/>
<path class="st0" d="M86.97,287.62c-4.55,3.76-8.03,0.77-12.09,0.91c-1.58-4.54-3.13-8.99-4.76-13.7c-3.15,0.31-6.44,0.64-9.94,0.99
	c-0.13,0.77-0.33,1.4-0.34,2.04c-0.1,5.78-0.1,5.75-5.8,7.51c-0.92,0.28-1.81,0.81-2.57,1.42c-2.47,1.97-6.3,2.54-8.13,0.24
	c-2.96-3.71-6.21-2.48-9.62-1.62c-1.31,0.33-2.56,0.99-3.88,1.22c-2.01,0.34-2.4-0.01-4.4-3.19c2.49-2.28,5.07-4.64,7.17-6.57
	c4.44,0,8.24,0,11.84,0c-0.85-2.63-2.09-4.9-2.26-7.26c-0.38-5.19,2.08-8.14,7.33-9.18c6.82-1.36,13.69-2.44,20.51-3.76
	c1.57-0.3,3.04-1.1,4.32-1.59c-0.28-3.1-0.77-5.61-0.69-8.11c0.15-4.47,3.43-7.55,7.86-7.79c6.37-0.34,11.4,3.26,12.28,8.94
	c0.19,1.26-0.07,2.64-0.34,3.91c-0.2,0.97-0.91,1.83-1.12,2.8c-1.34,6.04-3.2,7.79-9.83,8.2c2.98,2.87,5.74,5.07,7.93,7.75
	c2.66,3.26,6.58,2.05,9.56,2.86c0.92,2.46,0.03,3.59-1.8,3.72c-3.37,0.23-6.79,0.71-9.94-1.26c-2.87-1.79-5.85-3.41-9.19-5.34
	c-0.29,0.84-0.95,1.84-0.93,2.82c0.06,2.37,0.47,4.73,0.68,7.1c0.25,2.7,1.36,4.4,4.35,4.73C84.3,285.55,85.31,286.62,86.97,287.62z
	"/>
<path class="st0" d="M659.03,105.99c-1.42-8.36-3.11-16.71-5.25-24.91c-1.28-4.91-3.55-9.51-3.1-14.82c0.15-1.78-0.64-3.64-1-5.46
	c-0.26,0.18-0.52,0.35-0.78,0.53c-3.03-2.98-6.05-5.95-9.13-8.98c0.77-3.13,1.53-6.21,2.36-9.58c2.72-0.36,3.2-2.48,2.91-5.76
	c-2.61-2.6-5.37-5.89-8.66-8.53c-5.03-4.04-10.52-6.62-16.57-1.59c-0.24,0.2-0.65,0.19-0.97,0.31c-5.66,2.09-8.12,6.95-8.88,12.18
	c-0.76,5.27-1.09,10.82,1.03,15.9c-1.93,2.19-3.37,4.83-5.59,6.12c-3.02,1.74-6.6,3.27-10,3.42c-6.77,0.3-9.65,5.27-12.79,9.66
	c-3.86,5.38-6.95,11.32-10.33,17.05c-5.02,8.49-11.08,16.6-11.29,27.02c-0.09,4.36,0.58,8.74,0.93,13.12
	c0.55,6.78,1.12,13.56,1.69,20.34c0.24,2.88-0.64,5.28-3.2,7.68c-4.64-6.7-11.05-6.37-17.89-5.02
	c-4.19,11.17-8.28,22.19-12.46,33.18c-0.93,2.44-0.3,4.19,1.48,5.94c9.26,9.08,18.57,18.05,28.77,26.14c3.79,3,7.19,3.82,11.61,3.27
	c3.39-0.42,5.42-1.65,6.63-5.16c3.09-9,6.68-17.82,10.34-27.41c0.49,2.02,0.85,3.32,1.11,4.64c0.93,4.85,1.55,9.77,2.82,14.53
	c1.08,4.05-0.31,6.86-3,9.6c-4.14,4.23-8.26,8.49-12.13,12.96c-3.62,4.18-7.47,7.18-13.26,8.53c-9.57,2.24-9.34,4.98-5.32,13.1
	c0.08,0.15,0.12,0.37,0.24,0.44c3.73,2.27,3.84,6.04,4.17,9.78c0.56,6.38,3.93,11.17,8.91,14.9c2.27,1.7,4.77,2.56,7.75,0
	c-3.26-7.06-8.7-14.18-1.33-21.74c2.41,1.11,4.82,2.22,7.22,3.33c2.43-2.65,4.52-4.93,7.44-8.12c0,11.73,0,22.22,0,33.29
	c2.92,0.27,5.39,0.52,7.88,0.74c0.97,0.09,2.05-0.14,2.89,0.22c7.51,3.19,15.28,3.1,23.11,1.9c1.54-0.24,2.97-1.17,5.64-2.27
	c-2.21-1.48-3.32-2.39-4.57-3.01c-1.21-0.59-2.6-0.81-3.86-1.31c-4.36-1.74-7.24-5.27-9.36-9.12c-1.19-2.17-1.14-5.2-1.11-7.83
	c0.05-3.57,0.73-7.12,0.93-10.69c0.44-8,0.72-16,1.13-24c0.26-5.08,0.69-9.98,4.22-14.29c1.7-2.08,2.4-5.26,2.81-8.05
	c1.31-8.76,2.25-17.57,3.36-26.35c1.43-11.32,3.32-22.61,1.76-34.09c-0.11-0.84-0.27-1.83,0.05-2.54c3.15-6.92,4-14.28,4.55-21.75
	c0.22-3.03,1.03-6.03,1.79-8.99c0.7-2.72,1.7-5.37,2.86-8.95c1.98,1.82,3.4,2.75,4.32,4.04c2.16,3.03,5.15,4.41,8.64,4.87
	C656.21,115.17,659.99,111.69,659.03,105.99z M641.18,78.37c-2.89-2.18-5.89-4.1-8.45-6.5c-1.51-1.42-2.31-3.59-3.76-5.98
	c2.2-0.19,3.64-0.31,5.54-0.47C635.61,70.41,641.89,72.52,641.18,78.37z"/>
<path class="st0" d="M773.2,276.99c-0.95-0.36-2.01-0.47-2.91-0.91c-2.71-1.34-5.49-2.61-8-4.27c-1.42-0.94-1.87-2.59-1.44-4.56
	c0.38-1.73,0.33-3.71-0.09-5.44c-3.52-14.4-7.21-28.75-10.71-43.15c-0.45-1.87-0.52-4.09,0.03-5.91
	c3.52-11.76,7.24-23.46,10.95-35.17c0.46-1.45,0.83-3.19,1.85-4.15c2.98-2.8,3.14-6.69,4.44-10.14c0.89-2.35,0.15-4.21-1.72-5.93
	c-2-1.84-4.06-3.77-5.48-6.04c-5.41-8.66-10.61-17.46-15.79-26.27c-0.64-1.1-1.13-2.66-0.89-3.84c0.85-4.09,0.23-8.52,2.67-12.27
	c0.14-0.22-0.06-0.65-0.14-1.36c-0.86-0.6-1.97-1.37-2.91-2.02c1.15-6.48,1.89-12.41,3.35-18.17c0.73-2.91,0.56-5.31-0.73-7.84
	c-0.54-1.05-1-2.13-1.5-3.2c2.6-3.91,6.76-4.47,9.76-5.2c2.26-4.01,4.12-7.32,5.85-10.38c0.24-3.19,0.48-6.32,0.72-9.45
	c0.26-3.32-1.01-6.64,0.54-10.01c0.74-1.61-0.28-3.37-2.19-4.06c-6.25-2.25-12.39-4.89-19.21-4.91c-4.21-0.01-7.56,1.78-10.01,5.03
	c-3.18,4.21-3.85,8.93-2.2,14.02c1.73,5.36,1.77,10.4-1.96,13.1c-5.08,1.82-8.92,2.51-11.99,4.44
	c-8.85,5.54-13.45,14.14-15.86,24.09c-0.59,2.44-1.19,5.04-2.52,7.1c-2.46,3.84-5.46,7.33-7.7,10.27c-0.64,2.6-1.11,4.45-1.54,6.32
	c-0.22,0.99-0.54,2-0.5,2.99c0.18,4.6,0.28,9.21,0.77,13.78c0.49,4.56,2.03,9.07,2.01,13.6c-0.02,5.88,0.57,11.89-1.36,17.69
	c-0.52,1.56-0.38,3.37-0.37,5.07c0.02,3.28,1.52,5.44,4.85,6.29c1.59,0.41,3.07,1.22,5.1,2.06c1.82-1.07,3.93-2.32,6.41-3.78
	c-0.66,4.1-1.41,7.77-1.79,11.47c-0.4,3.84-1.63,7.24-3.81,10.43c-1.33,1.95-2.44,4.14-3.17,6.38c-2.2,6.78-4.19,13.64-6.23,20.47
	c-3.21,10.78-6.46,21.54-9.56,32.35c-1.07,3.74-1.83,7.58-2.54,11.4c-0.8,4.29-1.29,8.64-2.12,12.92c-0.63,3.25-0.09,4.34,3.37,4.77
	c3.21,0.4,6.45,0.56,9.68,0.78c6.12,0.4,12.24,0.91,18.37,1.08c3.37,0.1,6.81-0.14,10.12-0.77c1.1-0.21,2.37-2,2.63-3.26
	c0.18-0.89-1-2.79-1.93-3.07c-5.8-1.71-10.73-4.88-15.63-9.05c-0.05-0.47-0.46-1.54-0.24-2.47c3.3-14.08,6.69-28.14,10.21-42.85
	c7.08-4.41,7.68-13.29,11.25-20.77c1.98,2.96,3.86,5.76,5.59,8.33c-0.19,2.94-0.61,5.65-0.44,8.33c0.1,1.59,1.37,3.08,1.69,4.7
	c1.4,7.17,2.79,14.35,3.88,21.58c0.37,2.44,0.34,5.17-0.36,7.51c-1.8,6.02-4.12,11.88-6.14,17.84c-0.63,1.86-0.98,3.83-1.62,6.42
	c2.2,0.21,3.74,0.36,5.39,0.52c2.16-6.14,2.36-12.4,5.3-17.46c1.76,3.46,3.48,6.85,5.65,11.13c-2.47,5.98,1.54,12.52,1.66,20
	c1.73,0,2.75,0.16,3.7-0.03c5.01-0.97,10.09-1.75,14.99-3.15c4.41-1.26,8.62-3.21,12.89-4.91c1.87-0.75,3.15-2.03,3.14-4.22
	C776.73,278.44,774.98,277.68,773.2,276.99z M740.54,195.67c-1.09-4.23-3.39-7.74-4.8-11.71c-0.22-0.61-0.49-1.2-1.09-2.68
	c4.62,1.7,8.52,3.14,12.79,4.71c0.23-0.99,0.71-1.93,0.6-2.79c-0.8-6.88-1.13-13.83-4.39-20.24c-1.6-3.15-2.64-6.64-3.56-10.07
	c-0.86-3.21-0.32-6.39,1.76-9.65c4.12,3.6,8.77,6.42,11.4,11.73c-3.47,3.03-6.26,6.43-5.92,11.23c0.06,0.79,1.38,1.5,2.17,2.29
	c3.03-2.37,1.51-6.94,5.57-8.33c2.49,3.42,3.18,7.45,2.27,11.38c-1.72,7.44-3.98,14.75-6.11,22.09c-1.09,3.75-2.37,7.45-3.68,11.54
	C743.16,203.1,741.42,199.07,740.54,195.67z"/>
<path class="st0" d="M556.73,263.05c-0.21-1.97-2.07-2.65-3.88-2.56c-1.51,0.07-3.03,0.47-4.49,0.9c-7.06,2.07-13.4-0.5-18.5-4.56
	c-3.86-3.07-6.16-8.14-8.99-12.43c-1.38-2.09-2.64-4.35-3.5-6.69c-1.64-4.47-3.1-9.01-4.35-13.61c-1.02-3.75-2.21-7.6-2.25-11.42
	c-0.03-2.98,0.12-5.57-1.66-8.19c-1.48-2.18-2.56-4.69-3.47-7.18c-1.91-5.26-3.62-10.6-5.34-15.93c-0.41-1.27-0.94-2.71-0.72-3.96
	c1.09-6.25-0.61-12.09-4.16-16.78c-3.85-5.08-6.16-10.23-6.1-16.52c0-0.5-0.24-1.01-0.25-1.51c-0.03-2.52-0.01-5.04-0.01-7.88
	c7.05-2.22,13.83-4.35,20.61-6.48c0.12-1.17,0.21-1.99,0.32-3.02c1.27-0.59,2.64-1.22,3.84-1.78c2.13-4.2,4.16-8.19,6.68-13.16
	c-2.53,0.12-3.97,0.13-5.39,0.25c-8.98,0.77-17.83,0.78-25.98-3.99c-2.73-1.6-4.19-3.68-4.19-6.94c0-2.53-0.26-5.1-0.71-7.6
	c-0.96-5.33-2.12-10.62-3.22-15.99c1.44-3.2,3.75-4.99,7.56-4.64c2.98,0.27,4.55-1.33,5.52-4.2c0.86-2.56,2.51-4.86,4.24-8.08
	c-2.29-6.36-3.38-13.88-1.76-21.62c-6.54-4.62-13.86-6.09-21.71-5.25c-3.63,0.39-7.27,1.33-9.55,4.31
	c-4.35,5.7-6.66,11.7-2.39,19.95c1.24,2.4,2.51,4.78,3.89,7.41c-1.12,0.71-2.01,1.6-3.08,1.89c-3.5,0.96-6.2,2.98-7.87,6.11
	c-1.9,3.57-3.99,7.18-5.09,11.03c-1.72,6.04-2.66,12.31-3.96,18.47c-2.18,10.33-4.3,20.68-6.61,30.99
	c-0.96,4.3-1.69,8.86-3.75,12.64c-1.49,2.74-2.6,4.95-1.27,7.85c-3.49,2.79-4.33,6.24-3.98,10.24c0.16,1.83-0.49,3.71-0.54,5.58
	c-0.08,2.88-0.22,5.79,0.13,8.63c0.59,4.71,1.54,9.37,2.35,14.05c0.26,1.51,0.53,3.01,0.82,4.51c0.7,3.57,2.68,5.71,6.45,6.23
	c2.26,0.31,4.47,1.06,6.57,1.58c-0.92,2.78-1.64,5.05-2.42,7.29c-1.06,3.03-1.77,6.26-3.34,9.01c-2.83,4.96-4.63,10.18-5.89,15.73
	c-1.27,5.63-2.97,11.17-4.54,16.74c-0.64,2.26-1.78,4.44-2.07,6.74c-0.6,4.81-1.74,9.47-3.05,14.12c-1.09,3.86-2.81,7.65-2.1,12.22
	c1.98,0.61,3.86,1.45,5.82,1.76c8.79,1.38,17.65,1.84,26.53,1.16c3.38-0.26,6.81-0.72,10.06-1.65c3.42-0.98,3.93-4.52,1.03-6.57
	c-1.46-1.03-3.35-1.5-5.09-2.1c-5.75-1.96-11.84-3.31-15.56-8.54c0.2-3.06,0.24-5.94,0.62-8.77c1.16-8.86,5.06-16.87,7.97-25.18
	c0.05-0.16,0.19-0.28,0.29-0.42c2.85-3.98,5.66-7.95,9.52-11.11c1.51-1.24,2.62-3.14,3.48-4.95c2.27-4.75,4.29-9.62,6.45-14.43
	c0.47-1.04,1.09-2.01,1.81-3.31c3.98,3.98,8.05,7.39,11.24,11.48c1.99,2.56,2.64,6.15,3.89,9.28c2.4,5.99,4.5,12.13,7.27,17.95
	c3.28,6.88,7.68,13.19,10.33,20.43c1.15,3.14,3.58,5.83,4.63,8.99c1.31,3.97,1.8,8.21,2.69,12.54c3.35,1.3,5.94,0.17,8.41-0.82
	c7.74-3.13,15.45-6.33,23.07-9.73c2.6-1.16,5.07-2.78,7.27-4.59C556.27,266.18,556.86,264.32,556.73,263.05z M441.15,150.95
	c2.01-12.91,4.01-25.71,5.86-37.57c1.33,8.21,2.75,17.22,4.25,26.22C452.32,145.97,448.4,150.75,441.15,150.95z"/>
</svg>
