<svg id="s" xmlns="http://www.w3.org/2000/svg" viewBox="0 0 450 276"><defs><style>.cls-1{fill:#1371b6;fill-rule:evenodd;}</style></defs><title>3642 [Converted]</title><path class="cls-1" d="M339.66,214.6a16.59,16.59,0,0,1-.89,3.88c3.83,1.07,6.18,2.81,7.29,5.24-.6,1.29-.1,2.75-.95,4.05-.42.65-2.68.94-3.73,1a26.75,26.75,0,0,1-7.21-.85,20.26,20.26,0,0,1-3-1c-1.34-.55-2.71-1-3.85-1.55-.92-.42-1.91-1.16-2.86-1.7a24.6,24.6,0,0,1-2.75-1.75c.16-1.69.66-4.06,1.66-5.05,1.92-1.91,6.57-.43,9.63-.45a16.58,16.58,0,0,0,.67-3.77l-9.42-3.08c-3.24-1.07-6.67-1.81-9.43-3.09a26.84,26.84,0,0,1-2.23-1.59,12.39,12.39,0,0,1-2.46-1.47,4.74,4.74,0,0,1-.77-2,7.09,7.09,0,0,1-.47-2.05,28.5,28.5,0,0,1,1.18-3.31l5.53-16.87c.92-2.82,1.6-6.63,3.12-8.37a5.77,5.77,0,0,1,4.81-1.93,42.16,42.16,0,0,1,5.45,1.88l35.8,11.74c1.13.36,2.35.92,3,.69,1,.91,2.66.53,4,1.32,1.14.66,2,3.15,1.88,4.7-.18,1.94-1.28,4.18-2,6.36l-4.27,13a63.78,63.78,0,0,1-2.13,6.51c-.24.5-.77,1.3-1.25,2.06-.76,1.2-1.17,2.3-2.09,2.91-2.73,1.81-8.67-1-13-2.47Zm-5.33-40.16a2.55,2.55,0,0,1-2.44,1.66c0-.18-.18-.24-.15-.42.54-.64,1.31-.81,1.82-1.49l-1-.34a27,27,0,0,0-4.15,2.53c-.39.32-.76,1-1.42.86-.52-.5.19-1,.51-1.26a13.83,13.83,0,0,1,2.56-1.72c.46-.27,1-.54,1.05-.89-.9-.36-1.75.39-2.36.84-1.4,1-2.77,2-4,3-.62.52-1.2,1.59-2.21,1.27a.29.29,0,0,0-.12-.23,21.69,21.69,0,0,1,3.35-3c.86-.7,1.82-1.39,2.64-2,.24-.17.75-.26.68-.63-2.15-.42-3.8-1.58-5.34-1.94a4,4,0,0,0-4.35,2.56c-2.62,7-5.3,17.56-7.94,24.52.95,0,1.67-1.59,3-1.3a.26.26,0,0,0,.11.23c-.93,1.6-2.74,1.46-3.72,2.95,1.23-.25,1.83-1.74,3.27-1.58-.13,1.48-2.09,1.65-3,2.64a2.28,2.28,0,0,0,1.84,2.21c1.92-1.32,3.84-2.77,5.7-4.1.6-.43,1.28-1.21,2.14-1,.1.84-.88,1.31-1.42,1.72-1.83,1.36-4.06,2.58-5.51,4.07a1.15,1.15,0,0,1,.72.42c.67-.65,1.45-1.21,2.21-1.83s1.4-1.59,2.47-1.47c0,1-1,1.48-1.7,2a14.64,14.64,0,0,0-2.13,1.86c4.22,1.6,8.93,3,13.34,4.47a2.23,2.23,0,0,1,2.16-1.38c.41,1-1.39,1.21-1.22,1.68l3.59,1.18c1-.63,1.94-1.38,3-2.06s1.88-1.74,3.21-1.7c.29.65-.49,1-.88,1.23a27.75,27.75,0,0,0-4.09,2.93l1.46.47c.94-.56,1.86-1.17,2.78-1.83s1.75-1.56,3-1.5c.18,1-1.26,1.41-2.07,2-.43.3-.86.64-1.25.91s-1,.46-1.05.89l.6.2c.58-.42,1.38-1,2.13-1.58s1.6-1.53,2.28-.58c-1,1-2.3,1.47-3.3,2.52l1.46.48c.79-.56,2.37-2.47,3.3-1.38-.47.87-2.06,1-2.1,1.78,1.54.45,1.85-1.53,3.27-1.3.54,1-1.5,1.34-1.39,1.91.65.48.68-.27,1-.43s1.4-.91,1.71,0c-.09.69-1.32.56-1.08,1l4.71,1.54a55.24,55.24,0,0,1,5-2.9c.45-.21,1.38-.95,1.74-.1-.38.78-1.38.84-2.11,1.21-.92.47-1.84,1.2-2.64,1.69-.23.15-.74.19-.65.55l1.46.48a37.34,37.34,0,0,1,5.91-3.85,5.51,5.51,0,0,1,2.13-1c.73.74-.95,1.46-1.53,1.78a41.68,41.68,0,0,0-5.49,3.41l1.2.4a9,9,0,0,1,3.3-2.53,5.63,5.63,0,0,1,2.87-1.24c0,.13.09.19.09.32-.53.93-1.76,1.19-2.67,1.78a16.85,16.85,0,0,0-2.73,1.95,8.73,8.73,0,0,0,4.88.74c.32-.2.55-.59.91-.74.44-1.37,1.44-2.41,2.09-3.78,1.29-2.74,2.19-6.69,3.42-10.44s2.27-7.41,3.43-10.45c1.06-2.82,2-5.38.36-7.19C359,182.85,346.49,178.28,334.33,174.44Zm.25,44.37c.29.31.7.23,1.06.26.47-1.94.49-3.64.85-5.51l-1-.34C335.33,215,334.47,217.16,334.58,218.81Zm-1.08,1.55c-.37-.28-.48-.8-.83-1.22-.25-.26.19-.86-.23-1-1.27.27-2.66-.35-4.31-.46-1-.07-3.36-.1-3.7.87-.21.61.42,1.56.87,2,1.16,1.13,3.44,2,5.6,2.88a27,27,0,0,0,7.59,2c1.28-.64,3.08-2.1,3.31-3.75-.62-.57-2-.77-2.94-1.16a5,5,0,0,1-.62,1.89c-.57.8-2.21,1.55-2.73.81.63-1.16,2.41-.64,2.38-2.63C336.87,220.51,334.87,221.38,333.5,220.36Zm6.64,5.21c1,.2,3.64-.41,3.78-1.7.08-.7-1-1.11-1.32-1.76C342.16,224,341.06,224.62,340.14,225.57Zm-13.95-2.3a7.43,7.43,0,0,1-2.74-2.32c-.16-.22-.32-.57-.58-.57-.12.35,0,.59-.22,1,5.34,4.07,16,8.08,21.72,5.8.09-.43.37-1,.11-1.2C340.9,229.38,331.78,226,326.19,223.27Z"/><path class="cls-1" d="M359,186.12c-.9,4.38-.91,8.41-1.71,13a61.2,61.2,0,0,1-1.5,6.34c-.28,1-.49,2.76-1.36,3.25-.92-.27-1.16-1.5-2.65-1.72-.08.28,1.18.37.77,1.11s-2.08-1-2.71-1.27a51.13,51.13,0,0,0-9.65-3c-.61.92-2.86.72-2.83-.64-2.91-.92-5.72-3.57-8.82-3.75-.7,0-1.34.58-2-.07.28-.82,1-.77,1.68-.78-1.23-.93-2.14,0-3.25-.21a66.68,66.68,0,0,1,2.48-17.68c.17-.65.2-1.67.9-1.89,3.48,1.57,9.33,1.22,12.39,3.59a7.87,7.87,0,0,1,2.35,3.23c3.61-1.54,8.92-1.76,13.85-.58A3.53,3.53,0,0,1,359,186.12Zm-3-.24c-4.58-.78-8.9-1-12.23.54-1.51,5.46-2.59,10.69-4.28,16.24,4.36,0,11.1,2.12,14.79,4.66,2.8-7.75,2.65-14,3.71-20.88A10.64,10.64,0,0,0,355.91,185.88Zm-13.39.92c-.41-.51-.31-1-.55-1.51-1.81-3.7-9-4.17-13.37-5.24-2,6.29-2.37,11.73-2.79,17.2,4.33-.34,8.21,3.62,12.59,5C340.23,196.86,341.25,191.89,342.52,186.8Z"/><path class="cls-1" d="M355,188.22c-.63.67-1.69.07-2.45-.05a16.54,16.54,0,0,0-4.9-.09c-.63.09-1.66.69-2-.19.27-.56,1.19-.63,1.85-.72a17.71,17.71,0,0,1,6.61.37C354.43,187.65,355,187.59,355,188.22Z"/><path class="cls-1" d="M341.06,186.6c-.66.38-1.27-.43-1.83-.78a17.66,17.66,0,0,0-5.22-2.29c-.87-.21-1.36-.14-2.37-.3-.47-.07-2.11-.34-1.94-1s1.11-.12,1.88,0a29.84,29.84,0,0,1,5.73,1.31A16.13,16.13,0,0,1,339.6,185C340.24,185.4,341.42,185.8,341.06,186.6Z"/><path class="cls-1" d="M344.84,190.12c.37-.7,1.37-.58,2.11-.64a20.92,20.92,0,0,1,7.44.45c.44.14,1,.16.83.65-.19.74-2.17.06-2.65,0a22.23,22.23,0,0,0-5.36-.15C346.45,190.48,345.33,190.87,344.84,190.12Z"/><path class="cls-1" d="M339.73,188.35c-.83.21-1.14-.64-1.77-1a17.69,17.69,0,0,0-3.34-1.09c-1.23-.32-2.43-.2-3.2-.39-.56-.14-2.33-.84-2.2-1.38.23-.95,1.89.34,2.77.52,1.26.27,4,.41,5.93,1.29C338.78,186.72,340,187.41,339.73,188.35Z"/><path class="cls-1" d="M354.57,193.12c-.29.74-1.1.16-1.62,0a24,24,0,0,0-6.47-.51c-.59,0-1.41.35-1.83-.22.72-1.12,2.53-.72,4-.68a25.51,25.51,0,0,1,4.56.55C353.69,192.41,354.62,192.39,354.57,193.12Z"/><path class="cls-1" d="M339,190.21c-.88.43-1.56-.6-2.26-.93-1.74-.83-3.49-.74-5.14-1.12-.61-.14-2.84-.7-2.68-1.35.21-.9,2.72.39,3.34.52a19.56,19.56,0,0,1,4.28.84C337.66,188.62,339,189.33,339,190.21Z"/><path class="cls-1" d="M344.66,194.71c.15-.9,1.14-.6,1.82-.64a21.81,21.81,0,0,1,6.59.74c.48.14,1,.19.92.68-.17.66-1.79.08-2.37,0a27,27,0,0,0-4.85-.54C346.07,194.94,345.21,195.25,344.66,194.71Z"/><path class="cls-1" d="M338.7,192.66c-.69.52-1.07-.43-1.75-.76-2-1-4.87-.89-6.59-1.31-.8-.19-1.95-.56-1.82-1.07.2-.86,1.66,0,2.48.24,1.34.33,4.07.29,5.9,1.08C337.72,191.19,338.94,191.83,338.7,192.66Z"/><path class="cls-1" d="M354.71,198.19c-.56.78-2-.11-2.73-.32a23,23,0,0,0-6.05-.94c-.62,0-1.27.2-1.77-.11.17-1.32,2.42-.88,3.56-.73a42.38,42.38,0,0,1,4.54.92C353.1,197.22,354.51,197.28,354.71,198.19Z"/><path class="cls-1" d="M338.14,195.23c-1.35-.08-2.16-1.15-3.94-1.58-1-.23-2.11-.22-3.25-.5-.6-.14-2.75-.7-2.6-1.32.2-.87,2.57.33,3.25.49a22,22,0,0,1,3.85.7C336.49,193.41,338.56,194.41,338.14,195.23Z"/><path class="cls-1" d="M354.5,200.59c-.35.74-1.32.11-1.88-.05-1.4-.39-3-.71-4.51-1s-3-.24-4-.75c.61-1.09,2.69-.45,4-.19,1.58.3,3.29.73,4.68,1.06C353.44,199.81,354.44,199.79,354.5,200.59Z"/><path class="cls-1" d="M337.24,197.11c-.71.17-1.28-.54-2.09-.87a30.17,30.17,0,0,0-5.85-1.82c-.46-.08-1,.2-1.23-.31.25-1.25,2.11-.42,3.11-.22a28.33,28.33,0,0,1,3.6,1.18C336,195.55,337.59,196.19,337.24,197.11Z"/><path class="cls-1" d="M343.44,201.33c.63-1.1,2.55-.66,4.08-.28s3,.95,4.22,1.29c.65.18,2.11.34,1.94,1s-2.26-.13-2.85-.27c-1.73-.42-3.76-1.33-5.39-1.49C344.72,201.53,343.85,201.92,343.44,201.33Z"/><path class="cls-1" d="M337.45,199.08c-1,.37-2.27-.73-3.57-1.27a23.16,23.16,0,0,0-3.51-1.15c-.83-.18-1.61.17-2.14-.41.31-1,1.8-.65,2.87-.39a26.07,26.07,0,0,1,4.77,1.94C336.57,198.12,337.86,198.28,337.45,199.08Z"/><path class="cls-1" d="M320.33,202.38a8.17,8.17,0,0,1-2.18,2c-.51.33-1.48.87-1.94.12.13-.61.79-.51,1.19-.75.82-.47,1.47-1.31,2.3-1.8A.79.79,0,0,1,320.33,202.38Z"/><path class="cls-1" d="M334.5,208.07c-.05.1,0,.16,0,.2-.85.77-1.63,1.67-2.9,1.61-.22-1.13,1.61-1.39,2.3-2.09C334.15,207.86,334.43,207.92,334.5,208.07Z"/><path class="cls-1" d="M340.58,221.35a4,4,0,0,1-3.24,3.21,1.51,1.51,0,0,0-.25-.37c.81-1.18,2.19-1.21,2.75-2.89,0-.15.12-.12.17-.23C340.23,221.14,340.51,221.2,340.58,221.35Z"/><path class="cls-1" d="M136.25,203.2c2.81-.86,5.2,1.45,7.1,2.87A33.87,33.87,0,0,1,148,210.2c1.08,1.23,2.7,4.15,1.76,6.34a7.58,7.58,0,0,1-2.89,2.57,9.79,9.79,0,0,1-8.53-1.72,43.29,43.29,0,0,1-3.15-3.2c-1.4-1.42-3.4-3.67-2.91-6.94.27-1.79,2.08-3.11,3.74-4C136.05,203.19,136.18,203.22,136.25,203.2Zm-.32,2.12a7.25,7.25,0,0,1,3.33,4c.85-.7,2.36-.87,3.28-1.52C140.82,206.55,138.75,203.87,135.93,205.32Zm2.48,4.54c.19-1.41-2.3-3.65-3.49-3.8-1.83,1.49-.4,5.69,1.24,6.48C136.4,211.56,138.29,210.74,138.41,209.86Zm9.69,5.85c.27-3.92-2.81-5.36-4.76-7.19-1.32.82-3.53.92-4.1,2.34-1.26.45-1.8,1.49-2.46,2.43.55.44,1.29,1.71,1.8,1.53.14-.78-.15-1.91.77-2.07.77.67-.58,3.75,1,3.7,0-1.1-.19-2.34.61-2.79,1,.63-.13,2.05.35,3.32.27.14.58.23.86.36-.15-1.32-.07-2.45.77-3,.09.15.34.11.39.32,0,.94-.64,1.77-.15,2.82.18.18.73-.09.92.09a3.65,3.65,0,0,1,.55-2.42c1.18.18.2,1.51.34,2.32C146.86,217.56,147.24,216.45,148.1,215.71Z"/><path class="cls-1" d="M136.42,230.23a10.69,10.69,0,0,1-3.92.69c-20.59,2.19-42.12,4.63-62.57,6.47-.47-.35-.29-1-.44-1.58s-.52-.93-.52-1.39.6-1.06.75-1.53c.57-1.86,1-4,1.62-6.07s1.12-4.11,1.73-5.89a8.85,8.85,0,0,0,1.1-.75c17.39-2,35.58-3.88,53.49-5.78,1.2-.13,2.92-.42,3.34-.18s1.05,2.05,1.39,2.85c1,2.32,1.63,3.67,2.46,6.08.39,1.14,1.13,2.19,1.31,2.94.08.34-.12.62-.08,1C136.17,227.83,136.83,229.3,136.42,230.23Zm-64.95,2.92,62.82-6.68c-1.45-3.54-2.76-7.26-4.47-10.49l-55,5.85A106.32,106.32,0,0,0,71.47,233.15Zm-.31,2.21c.48.45,1.19.15,1.73.09l60.05-6.39c.56-.06,1.71.09,1.66-.54-.29-.47-1.23-.14-1.73-.08L71.21,235C71.08,235,71.15,235.22,71.16,235.36Z"/><path class="cls-1" d="M76.39,222.3c10.69-.6,22.5-2.57,33.2-3.17.41.53.36,1.65,1,1.88.21,2.29,2,3.94,2.12,6.31-10.35,1.27-23.51,2.58-35.12,3.82-1.26.14-2.6.55-3.79.13.17-.94.36-1.92.6-2.87.31-1.25,1-2.34.61-3.6.85-.36,1.11-1.19,1.13-2.21A.41.41,0,0,1,76.39,222.3Zm.4,2,1.25-.13a6.67,6.67,0,0,1,.17-.93A1,1,0,0,0,76.79,224.34ZM79,224.1l1.61-.17a2.18,2.18,0,0,0-.29-1l-1.16.13A4.45,4.45,0,0,1,79,224.1Zm2.51-.27,1.52-.16c-.07-.32,0-.8-.2-1C82,222.73,81.09,222.73,81.54,223.83Zm2.42-.25,2.06-.22c-.07-.33,0-.8-.2-1C84.92,222.56,83.39,222.21,84,223.58Zm3-.32,1.79-.19a6.87,6.87,0,0,0-.28-1l-1.61.18ZM89.6,223l1.26-.14c-.07-.32,0-.8-.2-1l-1.25.13C89.26,222.25,89.64,222.54,89.6,223Zm2.15-.23,1.08-.12c-.11-.38,0-.84-.11-1l-1,.1C91.59,222,91.75,222.41,91.75,222.75Zm1.88-1.11a2.86,2.86,0,0,1,.18.89,12,12,0,0,0,2.32-.34c-.23-.18-.22-.66-.45-.86A9.4,9.4,0,0,0,93.63,221.64Zm3.5.54,1-.11a3.26,3.26,0,0,1-.29-1l-1.07.12A2.44,2.44,0,0,0,97.13,222.18ZM99,222l1.53-.17c-.05-.38-.27-.54-.29-1l-1.43.15C98.69,221.23,99,221.58,99,222Zm2.6-.28,1.08-.12a1.45,1.45,0,0,0-.29-1l-1.16.12A1.72,1.72,0,0,0,101.61,221.7Zm1.88-1.11.09.9.9-.1a2.55,2.55,0,0,1-.29-1C103.94,220.47,103.6,220.44,103.49,220.59Zm2,.7.81-.09a3.84,3.84,0,0,1-.37-.95l-.81.08C105,220.56,105.39,220.94,105.46,221.29Zm1.8-.19,2-.21A3.63,3.63,0,0,0,109,220a12.7,12.7,0,0,0-2.07.13C106.89,220.6,107.19,220.71,107.26,221.1ZM76,226.51l1.88-.2a8.47,8.47,0,0,0,0-1.18C76.56,225,75.88,225.76,76,226.51ZM78.85,225a7.55,7.55,0,0,1,0,1.18l1.88-.2c-.08-.38,0-.93-.21-1.16Zm2.72.79a1.61,1.61,0,0,0,1.16-.12,2.42,2.42,0,0,0-.29-1.06l-.9.1A3.07,3.07,0,0,1,81.57,225.82Zm2.16-.13,1.61-.18a1.66,1.66,0,0,0-.12-1.16l-1.71.18A3,3,0,0,0,83.73,225.69Zm2.68-.29,1.35-.14a1.64,1.64,0,0,0-.13-1.17C86.58,224,85.81,224.46,86.41,225.4Zm2.42-.26,1.62-.17a5.46,5.46,0,0,1-.22-1.15C89.18,223.74,88.15,224.09,88.83,225.14Zm3.39-1.45a6.57,6.57,0,0,1,.2,1.07l1.16-.12a4,4,0,0,0-.39-1.14C92.87,223.56,92.39,223.51,92.22,223.69Zm2.44.83,1.61-.17a3.2,3.2,0,0,0-.57-1.12l-1.43.16A1.63,1.63,0,0,0,94.66,224.52Zm2.69-.28,1.25-.14c-.07-.38,0-.93-.21-1.15l-1.52.16C96.79,223.41,97.14,224,97.35,224.24Zm2.33-.25,1.34-.14a2.14,2.14,0,0,0-.48-1.13C99.44,222.5,99.12,223.35,99.68,224Zm1.95-1.3a3.15,3.15,0,0,1,.29,1.06l1.79-.19a4,4,0,0,0-.48-1.13A5.63,5.63,0,0,0,101.63,222.69Zm2.6-.18c.28.19.32.69.56.94l1-.11a7.42,7.42,0,0,1-.3-1.15C105.07,222.31,104.32,222.14,104.23,222.51Zm2.53.73,1.43-.16a16.69,16.69,0,0,0,.69,2.2l2.15-.23a23.49,23.49,0,0,0-1.44-3.29l-3.13.33A3.46,3.46,0,0,0,106.76,223.24Zm-15.57,1c.24,1,.3,0,0-.46A.62.62,0,0,1,91.19,224.26Zm-15.92,4.59,1.52-.16a4.83,4.83,0,0,0-.05-1.35C75.42,227.17,75.43,228.08,75.27,228.85Zm2.42-.26,2.06-.22L79.61,227l-1.88.2A6,6,0,0,1,77.69,228.59Zm3-.31,2.6-.28-.15-1.34-2.59.28Zm3.49-.37,1.89-.2-.15-1.35-1.88.2ZM87,227.6l1.17-.12L88,226.13l-1.16.13C87,226.72,86.91,227.4,87,227.6Zm2.15-.23.9-.09a4.25,4.25,0,0,1,0-1.36L89,226Zm1.88-.2,1.08-.11L92,225.72l-1.17.12A5.75,5.75,0,0,1,91,227.17Zm2-.21,1-.1-.14-1.35-1,.11Zm1.88-.2,1.25-.13L96,225.29l-1.25.13Zm2.15-.23,2.24-.23c-.08-.47-.38-.9-.23-1.34l-2.15.23Zm3.23-.34,1.43-.15a5.64,5.64,0,0,1-.32-1.33l-1.62.18A6.07,6.07,0,0,1,100.28,226.19Zm2.42-.26,1.61-.17a4.29,4.29,0,0,0-.41-1.31l-1.62.17A8,8,0,0,0,102.7,225.93Zm2.59-.27c.39-.1,1,0,1.25-.22a2.74,2.74,0,0,1-.58-1.21l-1.08.11C105.06,224.73,105.08,225.32,105.29,225.66Zm1.71-.18.8-.09a4.23,4.23,0,0,0-.23-1.33l-.63.06C107,224.68,107.39,225.1,107,225.48Zm-32,5a7.15,7.15,0,0,0,1.79-.28l-.06-.54C76.1,229.62,74.74,229.61,75,230.51Zm2.69-.29,1.53-.16-.08-.71C78.36,229.41,77.48,229.38,77.68,230.22Zm2.51-.26c.36-.1,1,0,1.16-.22-.22,0,0-.55-.25-.6l-1,.1Zm1.88-.2c.29,0,.38-.75.11-.74C82.07,229.21,82.15,229.54,82.07,229.76Zm1.21-.58c0,.16-.08.2,0,.36,4.4-.3,9.55-.92,14-1.39.62-.07,1.62,0,1.77-.46-.13-.76-1.13-.34-1.58-.29l-14,1.49A.24.24,0,0,0,83.28,229.18Zm16.63-1.32c.53-.11,1.33,0,1.69-.27-.23-.05-.17-.46-.33-.6C100.61,227.12,99.51,226.88,99.91,227.86Zm2.24-.24,1.88-.2c0-.35-.24-.44-.34-.69C102.83,226.76,102.06,226.84,102.15,227.62Zm2.87-.3,1.25-.14c-.07-.24-.18-.45-.25-.69l-1.26.13C104.74,227,105,227,105,227.32Zm2.15-.23,1.79-.19a2.22,2.22,0,0,0-.25-.7l-1.71.18C107,226.72,107.2,226.75,107.17,227.09Zm2.78-.3,1.7-.18c-.07-.24-.18-.45-.26-.7-.46.28-1,0-1.61.18C109.68,226.22,109.84,226.6,110,226.79Z"/><path class="cls-1" d="M132.18,225.34c-2,1-4.7.48-6.94,1.19-1.18-1.06-1.34-3.19-2.14-4.76-.37-.72-.78-1.38-1.12-2-.18-.31-.61-.6-.56-1,.1-.79,5-1.25,6.46-1.51.14,0,.19-.14.35-.12.91.11,1.62,2.3,2.17,3.39C131.36,222.44,132.21,223.6,132.18,225.34Zm-3.38-4.54a1.39,1.39,0,0,1,.25.7c.35-.06.63,0,.75.19.23.57-.29.53-.36.86a11.07,11.07,0,0,0,1.06,2.33c.2-.14.61-.1.79-.27-.44-1.15-1-2.32-1.55-3.46s-1-2.39-2-3c0,.42.41,1,.53,1.57A.58.58,0,0,1,128.8,220.8Zm-3.12-2c.32.25.41.77.74,1,.39-.11.55.07.91,0-.06-.84-.72-.93-1.22-1.23C125.89,218.56,125.67,218.58,125.68,218.78Zm-1.94,2.2c-.18-.91.68-1,1.52-1.07a3.74,3.74,0,0,1-.31-1.15l-2.24.24A4.72,4.72,0,0,0,123.74,221Zm1.65,4.44c.53,0,1.7-.2,2.51-.26-.25-.84-.61-1.55-.88-2.36-.87-.05-2.32.64-2.48-.28.07-.62,1.19-.4,1.84-.56.1-.39-.34-.9-.58-1.2-.94,0-1.59.49-2,.4A26.38,26.38,0,0,1,125.39,225.42Zm2-3.65a1.31,1.31,0,0,0,.79-.27,4.35,4.35,0,0,1-.45-.76,1.7,1.7,0,0,0-.72,0A7.61,7.61,0,0,1,127.36,221.77Zm.66,1.11c.53.7.38,2.23,1.42,2.29a18.66,18.66,0,0,0-1.1-2.69l-.27,0C128.06,222.63,128,222.7,128,222.88Z"/><path class="cls-1" d="M120.13,218.55c.3,1.45,1.23,2.13,1.47,3.65-.46.76-1.49.33-2.41.35-1.79,0-3.93.67-5.48.4-.41-1-.57-2.41-1-3.43.42-.45,1.1-.26,1.77-.37C116.28,218.86,118.5,218.08,120.13,218.55ZM116,219.72c-.16.21.18.37.17.7.47-.11,1.2,0,1.51-.25-.21-.07-.23-.39-.25-.7A5.81,5.81,0,0,1,116,219.72Zm2.67.35c.42,0,.56-.21.87-.28,0-.28-.18-.25-.14-.53l-1.08.12C118.33,219.73,118.56,219.82,118.66,220.07Zm-4.56.57c.33-.23.64,0,1.07-.11,0-.27-.37-.22-.41-.5l-.81.08C114,220.34,114,220.55,114.1,220.64Zm4.83.3c.08.25.18.46.26.7.44,0,.85,0,1.27.05C120.36,220.67,119.82,220.56,118.93,220.94Zm-4.49,1.21,1.25-.14c.12-.14-.06-.43-.15-.61a2.68,2.68,0,0,1-1.37,0C114.31,221.56,114.28,222,114.44,222.15Zm2.33-.25,1.43-.15c0-.28-.12-.32-.14-.53-.35-.15-1,.06-1.45.06C116.5,221.42,116.68,221.71,116.77,221.9Z"/><path class="cls-1" d="M119.14,223.73a4.51,4.51,0,0,1,.49,1.22c1.48-1,3.12-.33,2.88,1.51-1.18.42-3.36,1.13-4.64.67a2.28,2.28,0,0,1-1.69.36,6.36,6.36,0,0,1-.63-1.74c.21-.35,1-.24,1.5-.35,0-.52-.21-.75-.22-1.24C117.17,223.68,118.48,223.7,119.14,223.73Zm-1.25,1c0,.28.18.25.15.53l.62-.07,0-.54A.74.74,0,0,0,117.89,224.77Zm2.29,1.12c.25.48.83,0,1.27,0l0-.45C120.88,225.47,120.39,225.56,120.18,225.89Zm-3.46.64c.17.11.53-.12.69-.26C117.15,226.33,116.71,226.25,116.72,226.53Zm2.5-.36a.76.76,0,0,0-.55,0C118.67,226.55,119.11,226.33,119.22,226.17Z"/><path class="cls-1" d="M238.49,54c2.2.68,5,2,7.41,2.92a57,57,0,0,1,6.86,3.27A20.57,20.57,0,0,1,255.83,62c.78.66,1.44,1.35,2.2,2.13s1.15,1.59,1.76,2.37c2.19,2.75,2.2,6,1.63,10.08a28.4,28.4,0,0,1-1.68,6.59c-1.88,4.72-3.32,9.44-5.14,13.95-.94,2.31-1.65,4.47-2.38,6.89-1.33,4.44-3.31,9-4.65,13.74-.32,1.12-.59,2.22-1,3.38-.89,2.33-1.23,4.11-2.79,5.48a5.3,5.3,0,0,1-2,1.19c-1.6.26-3.67-.74-5.56-1.17-1.05-.24-2-.59-2.84-.74a31.23,31.23,0,0,1-5.66-1.54c-.94-.35-1.93-.48-2.81-.81-2.09-.78-4.08-1.65-5.75-2.33-1.94-.78-4-1.28-5.94-2.07a54.27,54.27,0,0,1-5.54-2.65c-3.34-1.82-6.43-3.94-7.78-6.71-1.7-3.45-1.1-8.12.46-13.2.75-2.44,1.55-5,2.39-7.54,1.83-5.5,4.41-10.45,5.85-15.49.68-2.34,1-4.72,1.57-7.13A42.46,42.46,0,0,1,212,59.16c1.08-2.67,1.93-4.94,3.58-6.81,3.21-3.63,7.71-2.21,12.9-1.23A94.55,94.55,0,0,1,238.49,54Zm-16.16,67.11a50.6,50.6,0,0,0,5.08,1.55c.59.19,1.13.52,1.7.69,2.64.81,5.35,1.09,7.85,1.85a18.61,18.61,0,0,0,4.35,1.1c1.86-.77,2.7-2.28,3.42-4.56.24-.78.71-1.58,1-2.42.32-1,.44-2.08.75-3.08,1-3.14,2-5.59,2.85-8.27,1.23-4,2.91-8.39,4.38-12.86s3.62-8.86,4.89-12.9A34.11,34.11,0,0,0,260,74.84c.13-1.94.4-4-.13-5.42a14.43,14.43,0,0,0-1.79-2.71c-.27-.4-.54-.94-.86-1.34-2-2.49-5.36-4.15-8.93-5.92a12.77,12.77,0,0,0-2-.81c-2.26-.65-5.08-2.31-7.74-3.13-1.27-.39-2.64-.85-4-1.29-2.76-.9-5.63-1.4-8.35-2.06a21.6,21.6,0,0,0-5.83-.7c-3.48.2-6,4.78-7.49,9.53-.64,2-.91,4.28-1.37,6.47a63.31,63.31,0,0,1-1.38,6.46c-1.78,5.5-4.28,10.67-6,16.09-.84,2.62-1.53,4.91-2.28,7.26-.85,2.66-1.61,5-1.52,7.23,0,.74.23,1.56.32,2.28a3.8,3.8,0,0,0,.67,2c.79-.82-.88-1.22-.09-2,.63-.07.58.6.9.86.23-.19.4-.52.84-.24,0,.74-.68,1.26.1,1.78.53-.37.85-1.24,1.69-.89.14.81-.92.92-1.22,1.57.27.16.13.5.49.61.49-.54,1.13-1.08,1.69-1.71s1-1.56,1.86-1.32c-.29,1.22-1.68,2-2.58,3.09-.5.59-.73,1.32-1.33,1.45.48.25.8.88,1.28.93-.2-.09,0-.35.06-.55a39.67,39.67,0,0,0,2.8-2.84c.57-.54,1.45-1.5,2.29-1.38.16.67-.62,1-1,1.31s-.87.89-1.28,1.31a12.64,12.64,0,0,1-2.69,2.38c.47.39,1.09.71,1.63,1.07.89-1.76,2.7-3,4-4.26.32-.34.65-1.1,1.27-.9.1,1.09-1,1.7-1.68,2.3a26.81,26.81,0,0,0-3,3.24c.4.12.53.36,1,.47,1.15-1.34,2.61-2.48,3.77-3.6.39-.37.73-1.14,1.4-1,.39.61-.37,1-.71,1.37-1.28,1.23-2.61,2.47-3.77,3.6A6.18,6.18,0,0,0,210,116a21.08,21.08,0,0,1,4-3.93c.4-.34.9-1,1.55-.77.11.62-.59,1-.95,1.34a23.75,23.75,0,0,0-3.88,3.64c.43.31,1,.56,1.48.85,0-.9.68-1.24,1.33-1.86.37-.35.69-.78,1-1.08.7-.64,1.6-1.47,2.36-1.35-.16,1-1.32,1.47-2,2.15a19.41,19.41,0,0,0-2.18,2.34C216,118.5,219.18,119.73,222.33,121.11Zm-20.89-11.68a6.46,6.46,0,0,0,1.92,2.18c0-.17,0-.31.14-.52a7.52,7.52,0,0,1-1.51-2C201.86,109.32,201.63,109.32,201.44,109.43Z"/><path class="cls-1" d="M216.74,56.69c-.67-.59-.12-1.92.35-2.5.77-.95,2.85-2,3.66-1.91.39.07.7.27.6.58s-.76.26-1.14.36a5.17,5.17,0,0,0-2.5,1.47C217.18,55.51,217.54,56.26,216.74,56.69Z"/><path class="cls-1" d="M255.37,79.68c.11.19.39-.39.76,0a13.7,13.7,0,0,1-.72,3,1.16,1.16,0,0,1-.57.18c-.08.78-.33,1.63-.5,2.44.08.21.57.24.46.52-.47,2.08-1.09,4.43-1.84,6.78-.37,1.19-1,2.25-1.38,3.41-.22.69-.21,1.64-.79,2.15-.82-.25-.21-1.71.1-2.68.7-2.23,1.9-4.51,2.3-6.51a59.45,59.45,0,0,0-3,8.94c-.23.77-.67,1.49-.92,2.27-1.31,4.11-2.56,8.24-3.74,12.12-.7,2.3-1.57,4.6-3.45,5,0,.23.09.4-.12.7a8,8,0,0,0-1.24,1.23c-.34.4-.68,1.14-1.3,1-.18-1.06,1.15-1.83,1.69-2.54-1,0-1.87,1.42-2.7,2.38-.28.33-.6.9-.94.7-.61-.38.53-1.41.76-1.68a9.16,9.16,0,0,1,1.33-1.44c-1.09-.16-1.77,1-2.51,1.71-.37.37-.74.82-1.07,1.22s-.62,1.09-1.2.92c-.2-1,.75-1.63,1.3-2.2s1.24-1.24,1.74-1.86a7.57,7.57,0,0,0-2.71-.85c-.6.68-1.75,1.23-2.38,2-.28.35-.56,1.39-1,1.32-.89-.13.38-1.8.69-2.12.59-.62,1.27-.87,1.74-1.44-.42,0-.9-.19-1.32-.21-.11.39-.45,1.27-1,.94s0-.67.29-1.12a52.81,52.81,0,0,1-11.82-3.88c-1.14-.57-2.18-1.27-3.31-1.83s-2.29-.83-3.41-1.38c-2.12-1-5-2.69-6.17-4.15-1.3-1.66-.51-4.43.3-7.07A45.16,45.16,0,0,0,209.21,90c.14-1.06,0-2.08.27-3.11a124.6,124.6,0,0,1,3.19-12.18c.84-2.67,2.23-5.22,3.08-8a8,8,0,0,1,.69-1.71c.93-1.78.79-4.06,1.95-6.07,1.61-2.76,5.88-2.75,9.2-2.31a20.57,20.57,0,0,1,3.16.78c5.25,1.63,11,4.13,16.73,6.44,2.66,1.08,4.87,1.73,6.08,3.37a10.29,10.29,0,0,1,2.24,5.7c0,.41-.1.86-.1,1.28s.12.68.1,1c0,.83-.23,1.51-.26,2.29S255.36,78.86,255.37,79.68ZM230.77,59c-2.81-.87-6.89-1.38-9.23-.67-3,.89-2.56,5.26-4,8.22a37.75,37.75,0,0,0-2,4.9c-.39,1.22-1,2.31-1.35,3.34-1.3,4.33-2.49,8.64-3.26,12.56-.19.93-.11,1.84-.23,2.8s-.38,2.18-.49,3.27c-.31,2.93-1.6,5.77-2.06,8.76,1.12-.64,2.08-1.68,3.18-2.35.18,0,.32,0,.53.13.3-1.28.57-2.56.8-3.81,1.07-.34,2.43.68,3.83,1.14s2.63.55,3.06,1.23c-1.07,1.28-1.38,3.22-1.78,4.82.61-.52,1.34-1,2-1.5s1.28-1.26,2.18-1.1c0,.91-1.06,1.17-1.63,1.57-2,1.41-3.82,3-5.82,4.17.16.6-.71.72-.52.87a20.79,20.79,0,0,0,3.57,1.61,1.59,1.59,0,0,1,.33-.61c.79-.51,1.74-1.18,2.64-1.83.72-.53,1.84-1.85,2.69-1.14a19.25,19.25,0,0,1-2.55,2,13.85,13.85,0,0,0-2.5,1.88,48.25,48.25,0,0,0,12.87,5c1.53-2.12,3.24-3.83,4.87-5.72l-1.49-.6c-1.35,1.5-3.41,3-4.6,4.42-.31.36-.32.87-.77.68-.71-.3.39-1.42.56-1.59,1.36-1.37,2.79-2.61,4-3.83l-1.92-.77c-1.18,1.28-2.49,2.92-3.61,4.24-.35.41-.73,1.21-1.4,1-.27-.57.43-1.06.74-1.43,1.16-1.35,2.33-2.78,3.39-4.09-2.84-1-5.56-1.83-8.37-2.8-.81.57-1.75,1-2.62,1.58A24.89,24.89,0,0,0,217.3,107c-.44.38-.62,1.25-1.43,1.08-.18-.67.56-1.37.93-1.69,1.28-1.11,3.22-1.78,4.45-2.83-.17-.18-.46-.32-.22-.67a3.17,3.17,0,0,1,2,.15c2.59.82,5.72,1.93,8.44,2.84.42,0,.52-.73,1.07-.4.4.15-.24.69,0,.76l1.78.72c.76-.57,1.25-1.78,2.31-1.63.07,1-1.09,1.26-1.53,1.94l1.42.58c.59-.51,1.13-1.18,1.72-1.79s1.08-1.49,1.91-1.46c.16.77-.67,1.38-1.19,1.92s-1.16,1.16-1.66,1.64l1.78.72c.84-.42,1.26-1.84,2.38-1.6.05.92-1.09,1.25-1.53,2,.44.2,1.07.33,1.22.65a.68.68,0,0,1-.4.59c.7.71-.54,1.14-1.1,1.7a17.36,17.36,0,0,0-1.2,1.33c-.33.42-.29,1-.93.86-.47-.82.59-1.63,1.16-2.25.31-.34.65-.65,1-.94s.76-.55.83-.82l-1.28-.52c-1.52,1.78-3.22,3.15-4.69,5,1.27,0,3,1.14,4.15,1.18,1.85.08,3.12.33,4.18-1.12a7.78,7.78,0,0,0,.5-1.45c.88-2.28,1.41-4.47,2.09-6.59.29-.92.8-1.77,1.09-2.7.41-1.34.72-2.7,1.15-4.08.67-2.09,1.45-3.78,2-5.65.68-2.48,2-5.23,2.79-7.72A42.74,42.74,0,0,0,254,77.38c-.15-.11-.44.62-.91.21-.23-.73.67-1,.94-1.52a5.77,5.77,0,0,0,.13-2.34c-1.19,1.08-2.5,2.26-3.64,3.48-.34.36-.64,1.15-1.3,1-.3-.69.51-1.16.87-1.54a34.32,34.32,0,0,1,4.06-3.9,5.15,5.15,0,0,0-.54-2.36,10.92,10.92,0,0,1-1.67,1.88c1.5.56-.12,1.82-1.08,1A20.08,20.08,0,0,0,249,75.37c-.57.69-1.16,1.89-2,1.84-.33-.5.26-.93.52-1.28.95-1.25,1.95-2.37,2.86-3.38-.67-.15-1.27-.14-1.95-.3A34.82,34.82,0,0,0,244.88,76c-.29.37-.58,1.42-1.23,1,0-1,.95-1.87,1.64-2.64s1.49-1.65,2.19-2.34a8.48,8.48,0,0,0-1.86-.92A34,34,0,0,0,242.05,75c-.29.38-.67,1.36-1.37.94.74-2.11,2.76-3.57,4.09-5.21-2-1-2.28,2-3.82,2.09-.34-1.08,1.31-1.64,1.78-2.58-2.16-.91-4.8-2-7.12-3.22-.7-.35-1.52-.5-2.13-.86s-1.15-1-1.88-1.09-1.69.59-2.15-.2c.45-.67,1.65-.66,2.3-.56a6.07,6.07,0,0,1,2,1.07c2.16,1.2,5.14,2,7.2,3.24.59-.71,1.42-2,2.49-2.05.16,1-1.31,1.57-1.85,2.31l1.78.72c1.33-1.3,2.46-3.09,3.81-4.32C241.65,63.07,235.83,60.55,230.77,59ZM248,65.62a44.64,44.64,0,0,0-3.58,4.17,5.54,5.54,0,0,1,1.09.36c1.37-1.39,2.83-2.57,4.27-3.81ZM250.25,67a48.47,48.47,0,0,0-4,3.44c.78.25,1.12.7,1.93.94,1.22-1.21,2.31-2.69,3.55-3.85a3.28,3.28,0,0,0-1.49-1A1.38,1.38,0,0,0,250.25,67Zm-1.09,4.51a12.53,12.53,0,0,1,2,.4c.8-.66,1.39-1.82,2.34-2.11-.45-.56-.79-1.16-1.2-1.73C251.22,69.17,250.23,70.47,249.16,71.54ZM213.37,96.9c-.2,1.3-.65,2.71-.89,4,.88-.06,1.34-1.11,2.3-1,.23,1.07-1.36,1.17-1.89,1.8l1.64.66c1.18-1.27,3.08-1.53,3.79-3.67C216.62,98,215.11,97.72,213.37,96.9Zm23.35,11.93a68,68,0,0,0-4.71,5.53c.71.24,1.34.31,2,.49.24-1.36,1.35-2.21,2.26-3.13.73-.76,1.52-1.43,2.13-2.2Zm-21.34-6.08a5.79,5.79,0,0,1,1.43.75c.14-.74.69-1.66.61-2.32C216.75,101.73,216,102.2,215.38,102.75Zm-7,.56c.17.12.05.37.31.46.77-1.3,3.13-1.42,2.94-3.19A17.58,17.58,0,0,0,208.38,103.31Zm3.56-1a18.12,18.12,0,0,0-2.73,2,5,5,0,0,0,1.42,1c1.05-.72,2-1.58,3.08-2.31Zm2.62,1.07c-1.07.84-2.19,1.57-3.23,2.49.69.37,1.3.78,2,1.14.31-1.45,2.35-1.83,3-2.82A11.42,11.42,0,0,0,214.56,103.34Z"/><path class="cls-1" d="M227.53,62.3c-.15,1.23.05,2.83-.78,4a16.73,16.73,0,0,1-5.23-1.79c.16-1.33.15-2.87.4-4a14.16,14.16,0,0,1,2,.29c.15,0,.09-.58.4-.58.5.12.48.46.6.74.84.34,2,0,2.52.52,1.31-.56,2.61-1.15,3.92-1.71,1,.83-1,1.3-1.73,1.61A17.46,17.46,0,0,0,227.53,62.3Zm-2.37-.47c.19.31,0,.78.32,1,.25-.41.66-.46.93-.86C226,62,225.48,61.68,225.16,61.83Zm-.2,2.32c-.73-.27-.05-2-.79-2.55-.46,0-1-.27-1.53-.29-.23.73-.06,1.79-.37,2.75,1.37.48,2.71.92,4.07,1.39a8.67,8.67,0,0,0,.3-2.6C226,63.05,225.63,64.4,225,64.15Z"/><path class="cls-1" d="M256.64,75.73c-.67-.25-.15-1.19-.12-2s-.28-1.5,0-1.92a.48.48,0,0,1,.6-.25c.41.2.15,1.69.14,2.11C257.19,74.45,257.32,75.44,256.64,75.73Z"/><path class="cls-1" d="M215.66,60c.2.42,0,1.79-.68,1.46C214.61,61.25,214.73,59.51,215.66,60Z"/><path class="cls-1" d="M256.12,78.66c-.7-.32-.3-1.44.25-1.22S256.7,78.61,256.12,78.66Z"/><path class="cls-1" d="M228.32,67.91c-.45,1.57-2.45,1.15-3.13,2.2s-.21,2.71-.76,3.74c-1.39.17-3.15-.58-4.88-1.23-.37-.94.06-2.37.54-4,.18-.6.37-1.18.79-1.34,0-.27-.31-.37,0-.75.4-.19.7.12,1.1.36.06,0,0-.6.33-.61.72.18.72.67.88,1.1,1,.45,2.44.69,2.32,1.6a16.31,16.31,0,0,0,2.47-1.4C228.19,67.65,228.19,67.81,228.32,67.91Zm-8.14,4a14.19,14.19,0,0,0,3.64,1.22,24.57,24.57,0,0,0,.38-2.57c-.46.26-.79.78-1.3.55-.78-.36-.19-2.38-.49-3.09a3.66,3.66,0,0,1-1-.5A39.5,39.5,0,0,0,220.18,71.89Zm3.16-1.7c.41-.47,1.23-.43,1.28-1.3l-1.35-.55C223.32,69,223.23,69.61,223.34,70.19Z"/><path class="cls-1" d="M212,72.2c-.7-.15-.24-1-.12-1.54a22.84,22.84,0,0,1,1.57-4.9.38.38,0,0,1,.3-.13c.65.31,0,1.79-.25,2.46-.15.49-.46,1-.63,1.56C212.49,70.69,212.62,72,212,72.2Z"/><path class="cls-1" d="M249.08,80.93c-.56.58-1.39-.06-2-.29a68.69,68.69,0,0,0-6.39-2.58c-.88-.26-1.78-.3-2.66-.58a25,25,0,0,1-4.53-1.67c-.39-.22-.63-.67-1-.92a7.87,7.87,0,0,0-1.92-.77c-.68-.18-1.69.18-2-.64.46-.53,1.81-.26,2.58,0a8.15,8.15,0,0,1,1.35.55c.44.23.74.7,1.18,1,2.26,1.37,5.42,1.77,7.47,2.36s4.26,1.73,6.32,2.56C248.1,80.12,249,80.24,249.08,80.93Z"/><path class="cls-1" d="M227.33,76.68c-.8.89-2.69.89-3.45,2-.64.94-.16,2.34-1.18,3.33-1.69-.24-3.6-1-5.29-1.23-.19-.49.2-.92.31-1.37.37-1.51.27-3.13.71-4.42A17,17,0,0,1,221,76c.37-.7-.64-1.14.07-1.63.94.13.81,1.18.71,1.94.78.4,2,.62,2.43,1.15C225.16,77.13,226.45,75.72,227.33,76.68Zm-9,3.56a10.74,10.74,0,0,1,3.82,1,2.51,2.51,0,0,0,.51-1.86c-.51.28-.88.94-1.43.67-.74-.39,0-2.31-.14-3.12a13.34,13.34,0,0,0-2.16-.79C218.91,77.43,218.57,78.87,218.37,80.24ZM221.84,79c.46-.5,1.21-.31,1.49-1.22l-1.42-.58A6.91,6.91,0,0,0,221.84,79Z"/><path class="cls-1" d="M243.91,87.6c.49.15,4.7,1.49,4.5,2.15s-1.6-.15-2.16-.38a91.28,91.28,0,0,0-9.05-3.16c-.7-.2-1.58-.21-2.38-.47-2.48-.78-5-2.34-7.19-3.07-.51-.17-1.58-.27-1.4-.81s1.29-.13,1.44-.08c2.65.76,5.43,2.57,7.75,3.3.65.2,1.61.23,2.31.43C239.71,86.1,241.74,87,243.91,87.6Z"/><path class="cls-1" d="M210.76,75.35c.88.22-.51,2.48-.79,3.4-.75,2.38-1.28,4.68-2,7-.22.72-.18,1.82-1,2-.57-.43,0-1.1.15-1.59.73-2.5,1.34-5.13,2.13-7.73a20.68,20.68,0,0,1,1.25-2.88A.38.38,0,0,1,210.76,75.35Z"/><path class="cls-1" d="M222.36,84.67c-.59,1.37-.21,2.64-1,3.9-.6.38-1.25-.09-1.88-.27-1.31-.38-2.81-.21-4-.85.39-1.64.16-3.33.91-4.92C218.31,83.18,220.94,83.69,222.36,84.67ZM217,83.48c-.5,1.29-.16,2.22-.59,3.49,1.48.34,2.77.23,4.41,1,.54-1.13.18-1.88.62-3C219.93,84.44,218.53,84.15,217,83.48Z"/><path class="cls-1" d="M244.45,94.43c.29.07,1.49.27,1.2.9s-1,0-1.42-.16-1-.09-1.39-.23c-.58-.22-1-.63-1.65-.83a23.42,23.42,0,0,0-2.5-.35c-2.57-.65-6-2.82-8.68-3.68-1.16-.38-3.26-.56-4.68-.9.6.14-1.32-.05-1.12-.7.1-.31.13-.27.81-.17a5.48,5.48,0,0,1,1,.23c1.69.36,3.93.42,5.89,1.39A45.41,45.41,0,0,0,239,93a26.77,26.77,0,0,1,2.71.44A21.22,21.22,0,0,0,244.45,94.43Z"/><path class="cls-1" d="M250.16,100.54c-.13.64-.71,4.12-1.41,3.9s.46-2.93.72-3.84C249.67,100.5,249.83,100.32,250.16,100.54Z"/><path class="cls-1" d="M220.73,91c-.86,1.61-.51,3.66-1.58,5.15-1.79-.42-4.07-.66-5.7-1.65.72-1.94.51-3.78,1.54-5.65a42,42,0,0,1,5.12,1.65A1,1,0,0,1,220.73,91Zm-1.08.23a25.83,25.83,0,0,1-4.18-1.53c-.78,1.65-.37,2.79-1.13,4.42,1.53.54,2.89.71,4.4,1.2A30.33,30.33,0,0,0,219.65,91.18Z"/><path class="cls-1" d="M242.61,102.45c-.82.23-1.41-.5-2.54-.86-.95-.31-2-.55-3.06-.83s-1.95-.32-2.9-.59c-2.74-.78-5.43-2.24-7.94-3A11.94,11.94,0,0,0,224,96.5c-.46,0-.81.31-1.29.14,0-1.81,2.71-.61,4.11-.16,2.34.76,5.26,2.28,7.73,3,2.13.59,4.11.85,5.88,1.39C241.47,101.15,242.59,101.5,242.61,102.45Z"/><path class="cls-1" d="M248,107.59a10,10,0,0,1-.8,3c-.08.26-.12,1.23-.67,1-.72-.25.58-3.39.88-4,.07-.08.17-.06.23-.15Z"/><path class="cls-1" d="M205.36,90.94a.42.42,0,0,1,.31-.13c.76.17,0,1.52-.43,2.47s-.74,2.29-1.27,2.13C203.14,95.16,205.16,91.53,205.36,90.94Z"/><path class="cls-1" d="M245.87,114c.13.69-.63,2.71-1.26,2.3s.43-1.47.57-2.24C245.37,114,245.54,113.79,245.87,114Z"/><path class="cls-1" d="M201.11,106.57c-.76-.7-.34-2.91.1-4.34.25-.81.69-1.55.92-2.27.17-.54.15-1.18.53-1.52a.38.38,0,0,1,.3-.13c.62.07.1,1.45-.08,2a35.3,35.3,0,0,0-1.23,3.47C201.43,105,201.77,106.14,201.11,106.57Z"/><path class="cls-1" d="M223.61,108.15a7.37,7.37,0,0,1-1.72,1.79l-.35-.15C221.62,109,222.85,107.35,223.61,108.15Z"/><path class="cls-1" d="M243.89,117.68c-.45.67-1.13,2.15-1.75,1.85s.85-1.82,1.31-2.2A.57.57,0,0,1,243.89,117.68Z"/><path class="cls-1" d="M236.74,117.76a13.8,13.8,0,0,1-2.21,2c-.39.37-.73,1.29-1.47,1,.42-1.59,2.11-2.51,3.25-3.32A.58.58,0,0,1,236.74,117.76Z"/><path class="cls-1" d="M218.27,113.59c-.74,1.14-1.61,2-2.53,3.19-.25.33-.58,1-.93.87-.81-.25.67-1.85,1-2.24a13.72,13.72,0,0,1,1.8-2c.06-.09.17-.07.23-.16A.6.6,0,0,1,218.27,113.59Z"/><path class="cls-1" d="M220.79,116.35l.26-.64c.86-.5,2.9.92,4.4,1.37.66.2,2.11.17,2,1.12-.25,1.44-2.22.34-3.35-.12C222.63,117.51,221.09,117.2,220.79,116.35Z"/><path class="cls-1" d="M218.63,115.56a6.77,6.77,0,0,1-1.29,1.54c-.25.28-1,1.53-1.41,1.25-.81-.5,1.83-2.77,2-3s.17-.06.23-.16A.59.59,0,0,1,218.63,115.56Z"/><path class="cls-1" d="M218.25,117.72c-.13.51-.43.64-.9.38C217.09,117.55,218,117.1,218.25,117.72Z"/><path class="cls-1" d="M250.09,168.86c-.3-1,.78-1.84,1.35-2.6,1.66-2.19,3.92-4.81,5.59-6.64.25-.28.86-.47,1.05.1s-1.37,2-1.83,2.5A48.56,48.56,0,0,0,252.4,167C251.86,167.77,251.2,169,250.09,168.86Z"/><path class="cls-1" d="M257.89,162.41c.06,1.08-.84,1.66-1.35,2.21-1.06,1.16-2.1,2.53-3.27,3.85-.39.44-1.23,1.82-1.73,1.74-1.31-.22.22-1.73.38-1.93,1.67-2,3.44-4.25,5-6,.09-.19.37-.2.67-.19A.49.49,0,0,0,257.89,162.41Z"/><path class="cls-1" d="M259.33,165.3c0,.8-.76,1.47-1.25,2s-1.06,1.51-1.92,1c.08-1.47,1.71-2.18,2.41-3.37A.73.73,0,0,1,259.33,165.3Z"/><path class="cls-1" d="M256.93,182.24c-.45,1.17-1.69,1.75-2.6,2.5-2.25,1.87-4.42,3.82-6.74,5.78-.41.35-.83,1.14-1.54.77-.37-.7.49-1,.87-1.35,2.74-2.37,6.3-5.39,9.05-7.7C256.16,182.07,256.63,181.63,256.93,182.24Z"/><path class="cls-1" d="M251.73,183.59c-.3,1.06-1.43,1.55-2.21,2.21-1.56,1.32-3.14,2.52-4.72,3.95-.7.64-1.49,1.66-2.6,1.54-.11-1.09,1.16-1.53,1.83-2.12,2.17-1.92,4.78-3.85,6.93-5.87C251.35,183.26,251.66,183.3,251.73,183.59Z"/><path class="cls-1" d="M247.69,183.78c0,.79-.92,1.1-1.45,1.54-1.06.9-2,1.9-3.08,2.89-.43.38-1.16,1.16-1.83.67.42-1.25,1.73-1.9,2.6-2.69s2-1.83,3-2.7C247.3,183.46,247.62,183.49,247.69,183.78Z"/><path class="cls-1" d="M257.51,185.61c-.29,1.1-1.5,1.59-2.31,2.21a55.77,55.77,0,0,0-4.91,4.14c-.66.64-1.43,1.85-2.51,1.54,0-1,1.13-1.56,1.83-2.21a86,86,0,0,1,6.93-5.59C256.77,185.54,257,185.16,257.51,185.61Z"/><path class="cls-1" d="M200.33,186.57c0,.86-.88,1.32-1.44,1.83-1.14,1-2.09,2-3.37,3-.5.39-1.3,1.27-2,.77-.13-.78.78-1.1,1.35-1.53,1.48-1.12,3.3-2.94,4.62-4.05A.59.59,0,0,1,200.33,186.57Z"/><path class="cls-1" d="M206.1,186.86c-.29,1.07-1.43,1.52-2.21,2.21-1.52,1.36-3,2.84-4.52,4.34-.63.61-1.41,1.87-2.51,1.44.24-1,1.24-1.55,1.93-2.21,2.11-2,4.28-4.15,6.64-6.07C205.8,186.52,206,186.61,206.1,186.86Z"/><path class="cls-1" d="M209,187c-.25,1.21-1.47,1.85-2.31,2.6-1.68,1.48-3.38,3-5,4.61-.79.79-1.39,1.88-2.51,2.32-.57-1.05.81-1.93,1.54-2.7,2.1-2.17,5.31-5.08,7.42-6.83A.57.57,0,0,1,209,187Z"/><path class="cls-1" d="M257.89,187.34c.12.84-.83,1.13-1.35,1.54-1.09.85-2,1.75-3.08,2.7-.45.39-1.14,1.18-1.83.67.4-1.23,1.71-1.84,2.6-2.6s1.92-1.75,3-2.5A.72.72,0,0,1,257.89,187.34Z"/><path class="cls-1" d="M212.07,187.82c-.26,1-1.24,1.46-1.92,2-1.38,1.15-2.8,2.29-4.14,3.57-.64.6-1.2,1.49-2.12,1.73-.52-1,.59-1.69,1.16-2.21,1.95-1.81,4.32-3.63,6.25-5.4C211.69,187.5,212,187.54,212.07,187.82Z"/><path class="cls-1" d="M201.29,189c-.12.82-1,1.23-1.54,1.73-1.11,1-2.18,2.1-3.27,3.27-.45.49-1,1.45-1.83,1.16-.26-.79.6-1.37,1.06-1.83,1.53-1.53,3.16-3.15,4.81-4.62C200.91,188.66,201.23,188.69,201.29,189Z"/><path class="cls-1" d="M213.42,189.36c-.12.69-.84,1.2-1.35,1.64a41.17,41.17,0,0,0-3.08,2.89c-.39.41-1,1.34-1.73.77,0-.76.74-1.09,1.15-1.54a54.57,54.57,0,0,1,4.24-4.05C213,189,213.35,189.07,213.42,189.36Z"/><path class="cls-1" d="M257.31,189.84c.11.7-.54,1.14-1,1.54-.87.85-1.59,2-3,2.31-.66-.73.29-1,.67-1.34.85-.73,1.76-2,2.6-2.7A.75.75,0,0,1,257.31,189.84Z"/><path class="cls-1" d="M211.11,194.27a.5.5,0,0,1-.87.48A.5.5,0,0,1,211.11,194.27Z"/><path class="cls-1" d="M247.59,197.16c-.57,1.3-2.74,2.85-3.75,4.23-.48.66-1.2,2.62-2,1.26,1-1.84,3.16-4.88,4.91-6C247,196.5,247.42,196.87,247.59,197.16Z"/><path class="cls-1" d="M242.39,233.26c.34,1.46-1.35,2.18-2.4,2.79s-2.63,1.58-3.76,1c.4-1,1.73-1,2.6-1.44a26.25,26.25,0,0,0,2.5-1.54,5.61,5.61,0,0,1,.49-.87C242.05,233.15,242.28,233.14,242.39,233.26Z"/><path class="cls-1" d="M265.5,236.14c-1.46.83-3.36,2-5,3-.36,0-.45-.19-.67-.29-1.31.48-2.19,2.35-3.66,2-.15-1.31,1.52-1.62,2.12-2.5-1.07,0-1.4,1.27-2.51,1-.42-1.07.94-1.09,1.06-1.92-.48.37-1.84.9-2.5,0,.11-1.33,1.41-1.48,1.83-2.51-.81,0-.86,1.44-2,1.35-.59,1,.27,4.18-1.64,3.95-.76-.09-.67-.8-.77-2-.18-2.17-.77-5.7-1-8.57-.13-1.95,0-3.92.77-4.81s1.88-1,3.08-1.26c.92-.21,2.09-.61,3.37-.86a4.3,4.3,0,0,0,.86-3.08,45.88,45.88,0,0,0-7.6-.1c-1.67-2.89-1.94-9.29-1-13.28-3.12-.23-6.64,0-9.92-.1-.51,1-.67,2.41-2.12,2.51-.66,4-2.24,7.12-5.29,8.75a8.63,8.63,0,0,0,0,3.47c3,1.63,7.41-.36,9.53,2.21,1.85,2.25,2.4,6.55,2,11.27-.11,1.37-.32,3.09-1.25,3.17s-1.45-1-1.35-1.92c.06-.48.5-.62.68-1.16.3-.9,0-1.79.09-2.79-1.47,1.07-3.63,2.39-5.39,3.66-.49.36-1.3,1.2-1.92.58-.24-.72.69-1,1.15-1.35a29.62,29.62,0,0,0,4.62-3.18c-1.65.8-3.37,1.8-5,2.79-.44.27-1.08,1-1.64.39.17-1.18,1.51-1.5,2.31-2s1.78-1.16,2.6-1.74a31.65,31.65,0,0,0-3.37,1.74c-.94.58-1.88,1.86-3.18,1.44,0-.78.86-1.12,1.35-1.44,1.6-1.05,3.37-2.15,4.91-3.37a32.9,32.9,0,0,0-5.2,2.79c-.43.3-.92,1.15-1.54.48.45-1.7,2.44-1.86,3.47-3a26,26,0,0,0-3.08,1.82c-.35-.07-.65-.19-.58-.67-1.22,1-2.95,2.81-4.72,4-.41.29-1.75,1.05-1.92.2-.14-.69.61-.48,1-.77,2.27-1.78,4.66-3.43,6.26-5.87a38.1,38.1,0,0,0-9.24,6.93c-.34.32-.7,1.07-1.35.67-.13-1,.95-1.72,1.54-2.31,2-2,4.33-3.81,6.35-5.78a67.84,67.84,0,0,0-8.28,7c-.78.72-1.44,2.15-2.69,1.93,0-1.26,1.28-2,2-2.7,2.35-2.35,4.9-4.77,7.22-7.22-3.1,2.47-6.74,4.85-9.14,7.89-.46.58-.59,1.47-1.64,1.16a.69.69,0,0,1,0-1,.59.59,0,0,1-.87-.29c.92-2,2.74-3.13,4.24-4.53a50.55,50.55,0,0,0,4.33-4.33c-.92-.22-1.83,1-2.5,1.64-2.16,2.11-4.89,4.13-6.74,6.54.46.91.42,2.09,1,2.89.28.41.85.43,1,.87.22.78-.67,2.39-1.82,2-.63-.2-1.14-2.73-1.45-3.56a18.9,18.9,0,0,1-1.06-8.47c.53-5.23,5.37-5.26,9.63-6.74-.22-1.62-.07-2.93-.77-4a17.53,17.53,0,0,0-1.83-1.73,10.22,10.22,0,0,1-2.5-5.1c-2.5,0-3-2.05-3.66-3.95h-2.7c-.35,1.37,1.07,2.1.29,3-.11,0-.17,0-.19.09-.76-.2-.8-1.13-1.16-1.73-1-1.94-4.61-1.23-7.41-1.35.09,2.28.7,4.33.39,6.55-.39,2.73-2.9,4.61-4.81,5.77a10.37,10.37,0,0,1,.38,2.22,14.73,14.73,0,0,0,2.7.09,7.73,7.73,0,0,0,2.5,1.26c.21.29,0,.88.09,1.05,1.84,3.2,1.28,9.31,1.54,13.77-.6.92-2.32,0-2.4-1.06,0-.63.88-1.75.48-2.89-.49.35-.12,1.38-.87,1.25s-.18-1.52,0-2.21c-.79.27-1.23,1.72-2,2.31-.47.08-.54-.22-.67-.48-.47.24-.44,1-1.25.86-.31-.29-.3-.56-.1-1-.26-.15-.6-.23-.48-.77-.24,0-.56.85-1.06,1-.59-1-.84.2-1.73-.28.07-1.25,1-1.6,1.54-2.41-1.09.42-1.71,2.15-3,2.69a3.65,3.65,0,0,0-.48-.38c0-.88.72-1.08,1.06-1.64-.69.23-1,1.33-1.83,1.06-.51.35-.79.94-1.44,1.16-.45-.3-1.39-.1-1.45-.77-.28,0-.61.54-1,.19.06.56-.06,1.3-.58,1.44-1.24.35-1.37-1.15-1.63-2.4-.43-2-1.48-3.84-1-6.45.57-2.86,4.39-4.52,7.71-4.72a6.58,6.58,0,0,1-.2-1.73c-3.3-.71-6.41-4.12-7.6-7.12a18.26,18.26,0,0,1-.87-5.88c-.43-.14-1.06-.09-1.25-.48-1.15.47-.17,3.77-1.73,3.66s-.42-3.42.29-4c-1.48.9-1.34,4.5-4,3.37-.38-.35-.27-.95-.19-1.54-1-.82-1.11.61-2,.68-.21.53-.24,1.24-1,1.25-1-1.33,0-2.79.29-4.14a4.29,4.29,0,0,1,1.35-2.79c1.44-1.25,4.28-2.37,6.35-1.83a7,7,0,0,1,2.51,1.73,15.41,15.41,0,0,1,.57-1.44c-.91-.88-.65-1.81-.57-3.37.22-4.93,0-10.64,0-16.37,0-6.1,0-12.38-.2-17.42a8.22,8.22,0,0,1,3.76-6.93c1.55-.82,3.06-.77,5.2-.58,4.56.4,9.52,0,14.15,0h35.23c2.85,0,6.09.27,8.08-.38,1.93.68,3.7-.45,5.49.09,2,.62,3.92,3.68,4.14,6.16.07.79,0,1.59,0,2.41.42,9.6-.32,22.29,0,31.67,1,.27,2.62-.11,3.56.29a11.42,11.42,0,0,1,3,2.6,12.69,12.69,0,0,1,2.6,2.79c.21.34.28.8.48,1.15s.68.81.87,1.16a17.6,17.6,0,0,1,1.54,4.81c.47,3.7-.48,7.16-.58,10.59-1.17.15-2.09-.63-3.17-.77s-2.2.2-3.28-.19c-.75,0-.41.88-.48,1.54-.1.9-.55,1.92.1,2.69,2.28.74,4.56,1.34,5,4.62a20.39,20.39,0,0,1-1,8.09c-.28,1.06-.48,2.24-1.25,2.31-1.35.11-1.19-1.65-1.54-2.6-1.43,1.2-3.19,3-4.91,4.33-.5.4-1.25,1.1-1.92.77,0-1.06,1.24-1.58,2-2.21s1.66-1.38,2.4-2c0-.08.1-.1.1-.2ZM259.14,197c.09-.3.12-.66.39-.77-.11-9.55.09-20.87.09-30.32,0-3.29-.49-7.87-3.75-7.51a143.06,143.06,0,0,1-14.92.38H207.16c-.1,1.25-1.18,3.27-2.6,2.89-.17-1.28,1.33-1.67,1.54-2.89h-1.34a38.42,38.42,0,0,0-4,4.53c-.19.3-.71,2.17-1.54,1.92s0-1.45.2-1.83a17.44,17.44,0,0,1,2.4-3.17c.44-.49,1.06-1,1-1.45-1.36-.06-2,1.22-2.6,2-1.29,1.77-2.58,3.57-3.76,5.49-.43.71-1.29,2.69-2.12,2.31s.55-2,.87-2.5c1.37-2.22,2.82-4.24,4.24-6.16.24-.33.69-.8.57-1.16-2.13-.11-3.94.15-5.68,0a9.14,9.14,0,0,0-1.82-.19,5,5,0,0,0-4.24,4.81c-.15,4.47.1,10,.1,15.6,0,6.41-.26,13.8.48,19.05,1-.11,1.79-.81,2.89-1,5.59-.74,8.06,1.78,10,4.53,1.22-1.17,3-2.76,5-3.08,1.15-.19,2,.35,3.18.58a2.72,2.72,0,0,1,.48.77c.3.36.52-.51.67,0a10.17,10.17,0,0,1,.58,3.94h2.6c.65-1.34,1-3,3.08-2.89-.09-5.39,2.38-9.47,5.58-11.45a11,11,0,0,1,5.68-1.54c2,.07,3.06.9,4.43,1.73a14.06,14.06,0,0,1,2.21,1.35c1.85,1.83,2.92,6.13,3.18,9.72,1.64.19,2.26,1.4,2.41,3.08h2.5a71.77,71.77,0,0,1,4.91-5.58c.48-.45,1.33-1.62,2.12-.87.13.77-.71,1.23-1.16,1.64a34.86,34.86,0,0,0-4.23,4.81h2.21a45.06,45.06,0,0,1,5.68-7.12,8.9,8.9,0,0,1,2.21-2.12c1.09.81-.31,1.87-.77,2.41-1.92,2.25-4.29,4.36-5.68,6.83h1.64a2.19,2.19,0,0,1,.58-1.63c.7-1,1.7-1.91,2.5-2.89s1.63-2.25,2.89-2.6c1,.69-.68,1.58-.39,1.83A13.7,13.7,0,0,0,259.14,197Zm-30,.67a38.08,38.08,0,0,1,.87-4.81c.28-1,1-1.94.77-3C228.66,190.45,229.39,195.22,229.11,197.64Zm-5.39-6.45c.12.17,0,.56.19.67.13-.71.93-1.27,1.54-.67-.11-.33.48-.78,0-.86C225,190.7,224.19,190.8,223.72,191.19Zm4.14,2.6c.15-1,.64-2.19.29-3.37A5.75,5.75,0,0,0,227.86,193.79Zm-2.5,2.41a15.28,15.28,0,0,0,1.25-5.49A17.68,17.68,0,0,0,225.36,196.2Zm4.91,3c.88-.65.63-2.73.77-4.23a4.11,4.11,0,0,0-.1-1.93A18.51,18.51,0,0,0,230.27,199.18Zm-8.48-.77a15.88,15.88,0,0,0,1.16-5.29C222,194.28,222.12,197,221.79,198.41Zm13-1.92c0-.21.34-.05.48-.1a5.74,5.74,0,0,0-.87-3C234.58,194.38,234.39,195.73,234.79,196.49Zm-10.69-1.64c-.1-.39.3-.79,0-1.06C224.21,194.18,223.81,194.58,224.1,194.85Zm-4.71,4c.46-1.68,1.42-3.39,1.63-5C220.36,195.38,219.21,196.89,219.39,198.89Zm14.24-.67c0-.68.12-2.11-.09-2.31C233.59,196.59,233.42,198,233.63,198.22ZM232,196.87c0,1-.41,2.09-.1,3.08C232,199.07,232.28,197.46,232,196.87Zm2.79,3.28c.72-.25.32-1.92,0-2.32A5.85,5.85,0,0,0,234.79,200.15Zm27.34-1c.44-.06.55.22,1,.19a1.35,1.35,0,0,1,1.25-.48c0-.18.11-.21.1-.38A1.73,1.73,0,0,0,262.13,199.18ZM189.36,201c.12.2.15.49.48.48a13.8,13.8,0,0,1,1.83-2.6C190.38,199.09,189.91,200.09,189.36,201Zm39.56-.48c.47.05.31-1,.19-1.25A2.06,2.06,0,0,0,228.92,200.53Zm-34.17.86c.8-.28,1.23-1.45,1.44-2C195.74,200.08,195.17,200.66,194.75,201.39Zm62.95-.67a4.1,4.1,0,0,0,.58.67,1.72,1.72,0,0,0,.09-1.34C257.92,200.05,257.79,200.36,257.7,200.72ZM196,203.61a5.87,5.87,0,0,0,1.54-2.6C197,201.87,196.53,202.76,196,203.61Zm28.2.19c.06-.8.41-2.09-.1-2.6A14.42,14.42,0,0,0,224.2,203.8Zm3.18-1.63c0,.19-.24.71,0,.86.14-.4.8-.79.58-1.25C228,202.1,227.68,202.15,227.38,202.17Zm-6.74.67a.48.48,0,0,1,.38.1,2.35,2.35,0,0,0-.38-1Zm-29-.29c.36.08.37-.2.48-.38C191.92,202.23,191.7,202.29,191.67,202.55Zm5.87,1.25h1.06c.14-.45,1-1.15.57-1.54C198.86,203,198.05,203.25,197.54,203.8Zm24.83,0h.68a2.26,2.26,0,0,0-.29-1C222.62,203.15,222.29,203.26,222.37,203.8Zm-34.55.19c.13-.23.65-.54.09-.67C188,203.58,187.52,203.81,187.82,204Zm37.92-.19h.48v-.38C225.94,203.42,225.86,203.64,225.74,203.8Zm-37.06,1.64c-.21.75-1.09,1.34-.86,2.21a13.4,13.4,0,0,0,1.54-1.15c-.51-.89.92-1.44.57-1.83C189.67,205.08,189.46,205.55,188.68,205.44Zm75.95,3.08c.06-1.41.75-2.71.77-3.85C265.07,205.77,264.15,207.25,264.63,208.52Zm-77.3-2.6c0-.21.44-.52.2-.67C187.38,205.33,187.05,205.73,187.33,205.92ZM191,208c-.47.11-.32-.39-.67-.39a5.69,5.69,0,0,0-1.45,3,23,23,0,0,0,3.66-3.85c.35-.41,1-.84.87-1.35C192.37,206.08,192.14,207.52,191,208Zm40-.77c0-.5.45-1,.19-1.35C231.19,206.33,230.84,206.94,231,207.27Zm-35.91-.68c.48.24.77.11.87-.48C195.47,206,195.28,206.15,195.13,206.59Zm24.93,1.06c-.09-.54,0-1.28-.38-1.54A5.35,5.35,0,0,0,220.06,207.65Zm14.63.39c.07-.67.31-1.17.39-1.83-.12,0-.14-.12-.29-.1C234.67,206.7,234.14,207.64,234.69,208Zm27.24,1.15c0-1,.92-1.84.39-2.69C262.22,207.37,261.59,208.2,261.93,209.19Zm-30.32-.09a2.23,2.23,0,0,0,.39-1.93C232,207.9,231.6,208.31,231.61,209.1Zm1.64-.87c0-.27.34-1-.1-1.06C233.21,207.49,233,208.07,233.25,208.23Zm-41.2,2.21c.72-1,2-1.42,2.5-2.59A5,5,0,0,0,192.05,210.44Zm-4.72-1.63c.07.25,0,.6.2.77,0-.35.6-.68.38-1C187.87,208.83,187.4,208.62,187.33,208.81Zm38.12.48c-.19-.75-.12-.1-.09.29a10.51,10.51,0,0,0,.38,1.92C225.68,210.85,225.53,209.61,225.45,209.29Zm-25.8,1.44c.86-.08,1.13-.74,1.35-1.44,0-.08-.08-.11-.19-.1C200.43,209.71,200,210.22,199.65,210.73Zm33.7,1.83a12.05,12.05,0,0,0,1-2.79c-.16-.16-.21-.43-.39-.58C233.74,210.32,232.8,211.28,233.35,212.56Zm25.22-1c0,.16.1.24.09,0V210c0-.18.25-.64,0-.77A12.47,12.47,0,0,0,258.57,211.6Zm-69.12,1.15a14.41,14.41,0,0,0,1.35-2.5C190.45,211.05,187.94,211.91,189.45,212.75Zm77.59.1a6.13,6.13,0,0,0-.2-2C267.06,211.56,266.42,212.64,267,212.85Zm-9.34,2.69c-.31-1.29-.07-3.14-.29-4.52C257,212.69,256.38,214.45,257.7,215.54Zm-66.23-1.34a5.67,5.67,0,0,0,2-2.51C192.75,212.41,190.92,212.34,191.47,214.2Zm8.38-1.16c.26-.37,1.11-.68.86-1.25C200.53,212.25,199.78,212.65,199.85,213Zm-4.62,4.53a7.27,7.27,0,0,0,6.25-4.72A15.39,15.39,0,0,1,195.23,217.57Zm36.57-3.76a.74.74,0,0,0,.87.1,2.91,2.91,0,0,0-.38-.77C232.2,213.43,231.82,213.44,231.8,213.81Zm-41.67.68c.21,0,.3-.65.09-.78C190.14,213.87,189.86,214.3,190.13,214.49Zm70.26,0c-.05-.23.13-.7-.09-.78C260.14,213.91,260,214.45,260.39,214.49Zm5.68,1c.35-.49.88-.79,1-1.54a.66.66,0,0,0-.49-.1C266.6,214.5,265.86,214.91,266.07,215.45Zm-32.92-.68c.32.21,1-.9,1-.76C233.8,214.27,233.46,214.51,233.15,214.77Zm-40.43.77a1.42,1.42,0,0,0,1.74-1.34C194,214.79,192.72,214.52,192.72,215.54Zm36.87-.38c.14-.38.23-.52-.09-.77C229.55,214.62,229.37,215.09,229.59,215.16Zm1.16-.1c.24-.07.54-.09.67-.29-.23,0-.18-.33-.48-.28C231,214.77,230.72,214.78,230.75,215.06Zm39.65.68a1.81,1.81,0,0,0,.39.77c-.06-.39.13-1-.1-1.25C270.66,215.48,270.36,215.44,270.4,215.74Zm-77.1,1.63c.07-.35-.16-.41-.09-.77a2.24,2.24,0,0,1-1.06-.19C192.36,216.91,192.85,217.12,193.3,217.37Zm75.37-.19c.36,0,.69.46,1,.19-.33-.12-.34-.56-.68-.67A2.55,2.55,0,0,0,268.67,217.18Zm-15.78,1.06c.05-.3.51-.19.38-.67h-.48C252.85,217.77,252.67,218.2,252.89,218.24Zm-23.68,4c.12-.19.46-.17.38-.57h-.38C229.13,221.77,229,222.24,229.21,222.28Zm2,2.22c.52-.13,1.34-.95,1.15-1.16C232.08,223.79,231,223.87,231.23,224.5Zm-12.71.57c.31.09,1.09-.62,1.06-.86C219.23,224.5,218.76,224.67,218.52,225.07Zm15,.78c.42-.45,1.65-1.1,1.73-1.26A3.06,3.06,0,0,0,233.54,225.85Zm-45,3.36c-.71-1.5.34-3.08.67-4.23A3.64,3.64,0,0,0,188.49,229.21Zm14.73-2.11c.26.11.24.37.57.19a4.72,4.72,0,0,0-.38-1.83C203.2,225.93,203.59,226.66,203.22,227.1Zm13.47-.1c.2-.35.79-.82.68-1.15C217.14,226.17,216.59,226.67,216.69,227Zm24.74.29a1.1,1.1,0,0,1-.1,1.54c.43-.08.79-.24,1.26-.29a3.1,3.1,0,0,0-.49-1.83A1.32,1.32,0,0,1,241.43,227.29Zm26.76.1c.13-.3-.27-.55-.38-.29C268,227.14,267.88,227.47,268.19,227.39ZM223.62,229c.47-.63,1.55-1.14,1.74-1.73C224.87,227.89,223.8,228.43,223.62,229Zm29.27,1.64a5.7,5.7,0,0,0,.28-2.6c-.08.26-.3-.13-.57,0A11.55,11.55,0,0,0,252.89,230.66Zm-49.48-1.45H204v-.57C203.63,228.67,203.63,229.05,203.41,229.21Zm57.47,1.45c.51-.64,1.36-.94,1.73-1.74C262,229,260.77,229.85,260.88,230.66Zm-59.3,1.54c.2-.51.68-.73.87-1.25-.13,0-.14-.13-.29-.1C202.09,231.34,201.16,231.84,201.58,232.2Zm14.15.19c.4-.32-.19-.67-.19-1.16A1.78,1.78,0,0,0,215.73,232.39Zm43.7,3.27c.84-.82,2.66-1.19,2.5-2.69C261.19,234,259.61,234.11,259.43,235.66Zm-5-.67c.26-.45.76-.65.86-1.25C254.7,233.13,254.24,234.53,254.43,235Zm9.43-.58a1.92,1.92,0,0,0,1.15-.58C264.66,233.46,264,234,263.86,234.41ZM259,238c.72-.95,2-1.31,2.7-2.31C260.66,236.28,259.25,237,259,238Z"/><path class="cls-1" d="M146.46,166.24c.46.35.49,1.76-.22,1.85C145.33,168.13,145.27,165.93,146.46,166.24Z"/><path class="cls-1" d="M143.41,166.68c.47.34.5,1.75-.22,1.84C142.28,168.56,142.22,166.37,143.41,166.68Z"/><path class="cls-1" d="M159.74,176.14c-.44,1.38-3.91,1.05-5.56,1.2-4.05.36-8.84,0-13.71.22-1.74.08-5.17.72-7.29.87-.66,0-2,.2-2.07-.55s1.43-.58,2.4-.65c1.43-.09,3.92-.53,6.53-.76,5.85-.52,12.72,0,18.39-.54C158.67,175.9,159.64,175.57,159.74,176.14Z"/><path class="cls-1" d="M118,183a1.59,1.59,0,0,1,0-1.63c1.38-.47,3.6-.1,5.33-.22a8.55,8.55,0,0,1-1-3.92c-.52-.28-1.65.05-2.18-.22a8.26,8.26,0,0,1-.87-5.87c1.68-.16,3.85-.42,6-.44a29.24,29.24,0,0,0,.11-3.92c-2.35-.2-5.3.51-7.73.22-1.15-.67-1.26-2.67-1.42-4.35a16.37,16.37,0,0,1,0-5.23c4-1,9-1.13,13.83-1.3-.53-1.33-1.64-2.52-1.85-4.24a13,13,0,0,1,1-7c.93-1.85,2.89-3.74,4.36-4.13a9.36,9.36,0,0,1,8.6,2.17c1.16-2.58,2.32-5.53,4.24-7.4a3.14,3.14,0,0,1,2.5-1c1.43,1.15-.13,1.82-1,2.61-1.61,1.5-3,4.76-3.81,6.75.91,0,2.67,0,3.92,0,1.54,1,3.84,1.87,4.25,3.92a10.56,10.56,0,0,1-3.27,9.57,26.41,26.41,0,0,1,1.09,5.34,21.38,21.38,0,0,1,2.5-.11c1.71-.14,3.73-.94,4.9-.66,1.76.44,1.51,4.1,1.52,6.53-.74,1.07-2.81.82-4.46,1a6.55,6.55,0,0,0,0,2.61,27.76,27.76,0,0,0,4.25.11c.8-.06,2.34-.75,3-.33.54.32.36,1.25.44,2.18.15,1.8.63,4.91.76,7m-26.45-38.31a6.57,6.57,0,0,0-2.5.11,9.79,9.79,0,0,0-2.94,2.83c-1.61,3-1,7.83,1.42,9.8.88.71,2.15.53,3.48.87,0-.34-1.41-3.07,0-2.94.88.08.43,2.26,1.52,2.94.44.27.9.13,1.64.21-.24-.73-1.7-3.71-.33-3.59.95.09.74,2.83,1.63,3.49.52.28,1.67-.08,2.18.21.11-.32-.46-.89-.76-1.41a3.69,3.69,0,0,1-.77-1.85c1.81-1.05,2.28,5.09,5.34,3-.23-.68-.94-.94-1.53-1.53s-1.93-2.39-.76-2.61c.78-.15,1,1.59,1.63,2,.87.17,1.35,1.9,2.29,1-.51-.66-1.23-1-1.85-1.85-.28-.39-1.32-2-.33-2.18.7-.13.78,1,1.09,1.42a5.67,5.67,0,0,0,1.85,1.52c1.76-1.5-.81-2.3-1-3.81.16,0,.19-.18.33-.22,1-.1,1.16,1.22,1.85,1.09,0-1.44.34-2.18,0-3-.45-1.15-3-2.61-5.12-2.18-1.38.27-2,1.95-2.82,2.06-1.76.25-1.31-1.66-.88-2.28C140.76,143.94,138.71,142.94,136.55,142.73Zm-18.5,16.44c.3,1.92.32,4.11.77,5.87,9.77-.57,19-1.68,29.16-1.85,0-.83-.32-1.42-.32-2.28-2.12,1.13-5.66.48-8.93.76-3,.25-6,.87-8.92,1.31-2.39.36-4.82.27-6.86.76-.51.12-1.36.77-1.85.11.46-1.58,2.54-1.39,3.81-1.53,4.91-.55,9.63-1.49,14.37-1.85,3.09-.23,6.13.29,8.05-.54a2.43,2.43,0,0,0-.11-1c-1.83.08-3.19,1-5.22,1.2-1.88.19-4,.5-6.1.65-4,.29-8.23.11-11.53.65-.65.11-3.38,1.38-3.27,0,.05-.53,2.77-1,3.27-1.09,4.19-.67,8.76-.57,12.84-1C132.07,157.23,123.92,158.52,118.05,159.17ZM154,164.61c.2.95-.54,2.85.65,2.83-.29-.8.17-2.36-.33-2.94C154.28,164.63,154.12,164.62,154,164.61ZM152.66,167a9.22,9.22,0,0,0,.11-2.28h-.33C152.58,165.42,152.17,166.66,152.66,167Zm-2.5-2a12.89,12.89,0,0,1,.11,2.61h1C151.12,166.48,151.79,164.11,150.16,165Zm-9.25.55a22.84,22.84,0,0,1-.11,3.26c2.31-.12,4.37-.48,6.53-.76-.11-.87-.42-1.93,0-2.72A44.31,44.31,0,0,0,140.91,165.59Zm7.94,2.28c.47-.43.1-1.71.22-2.5a1.28,1.28,0,0,1-1,0C148.56,166,147.93,167.71,148.85,167.87Zm-10.45,1.2c.63.09.94-.16,1.53-.11-.37-.82-.17-2.23-.22-3.37H138.3C138.23,166.85,138.37,167.9,138.4,169.07Zm-2.5.11h1.42c0-1.23-.31-2.09-.22-3.37C135.43,165.66,137,168.77,135.9,169.18Zm-1.74,0c.46-.09,1.29.2,1.42-.22-.81-.32-.29-2-.44-2.94h-1Zm-2.07,0H133v-2.94h-1A16.38,16.38,0,0,0,132.09,169.18Zm-3.48.33v-3h-.54A7.12,7.12,0,0,0,128.61,169.51Zm1.31.11a6.12,6.12,0,0,0-.11-2C129.88,168.27,129.66,169.18,129.92,169.62Zm17.19,1.73c.34,0,.94.05,1.31,0,.68-.08,3.7-1.17,3.59.22-.07.77-1.55.47-2.18.55-1.18.14-2.4.54-3.81.65-.68.06-1.43-.06-2.17,0-1.23.1-2.43.56-3.7.65-2.57.19-5.19.11-7,.76,6-.25,11.84-.63,17.63-1.08.47-.3.8-.73,1.52-.77-.07-.87.19-2.07-.21-2.61C151.47,171.29,148.77,170.8,147.11,171.35Zm-18.61.88c3.48-.74,8.31-.12,11.54-1.09C136.12,171.43,131.35,170.87,128.5,172.23Zm17.09-.66a2.33,2.33,0,0,0,1.41-.22A4.54,4.54,0,0,0,145.59,171.57ZM121.32,173c0,.47,0,1.73.43,2.06a8.26,8.26,0,0,1,1.75-.32c.21-.19-.48-.39-.33-.87.5-.88,2.17-.59,3-1.09C124.37,172.63,123.17,173.13,121.32,173Zm11.1,0c-.51.07-1.3-.15-1.63.11C131.3,173,132.09,173.24,132.42,173Zm22.42,1.3c-.52.1-1,.55-1.53.66a34.8,34.8,0,0,1-3.48.21c-.78.08-1.54.38-2.28.44-1,.08-2.1-.08-3.16,0-6.49.46-13.3.7-19.81,1.2-.32,1.71.65,3.95,2,4.35,1,.29,2.93,0,4.25,0,9.9,0,20.92.09,30-.11-.2-2.3-.36-4.65-.76-6.75C158.81,174.54,156.63,174,154.84,174.29Z"/><path class="cls-1" d="M346,68.75c-.54-.66-2.31-1.73-1-2.65,1.29,0,1.69,2.32,3.5,1.38.31-.16.43-.68.88-.74.65-.08,1.18.25,1.23.68.11,1-1.83,1.7-2.56,1.7S346.7,68.78,346,68.75Z"/><path class="cls-1" d="M333.26,64c1,0,.8,1.1,1.7,1.36a3.7,3.7,0,0,0,1.68-.14c.38-.11.75-.8,1.5-.4a.94.94,0,0,1,.33.66c-.06,1.06-2.59,1.83-4.26,1.17a3.86,3.86,0,0,1-1.77-1.82C332.38,64.16,332.76,63.94,333.26,64Z"/><path class="cls-1" d="M340.86,70.81c.27.23,1,.15,1.28.38a.88.88,0,0,1-.23,1.24,10.64,10.64,0,0,1-2.68-.49c-.59-.78.17-1.31.51-2a9.4,9.4,0,0,0,.7-3c0-.36-.08-.72,0-1,.4-.9,1.45-.18,1.48.5A12.8,12.8,0,0,1,340.86,70.81Z"/><path class="cls-1" d="M334.34,70c1.22-.32,1.66.81,2.58,1.44,2.3,1.58,6.52,1.87,8.78,1.15a6.26,6.26,0,0,0,1.32-.66.78.78,0,0,1,1.11.51c.1.91-1.23,1.25-1.84,1.46a9.75,9.75,0,0,1-2.43.6,16.87,16.87,0,0,1-7.7-1.77c-.23-.15-2.09-1.63-2.11-2S334.2,70.24,334.34,70Z"/><path class="cls-1" d="M339.1,94a1,1,0,0,1,1.76.62c0,.88-.65,2-1.64,1.2C339.25,95.19,338.92,94.78,339.1,94Z"/><path class="cls-1" d="M340.63,98.35a1.74,1.74,0,0,1-.26,1.45C338.39,100.45,339,97,340.63,98.35Z"/><path class="cls-1" d="M330.13,119.37c-.33-.18,0-.47,0-.68-.16-.5-.69-.59-.53-1.22s1.67-1.15,2.82-1.06a30.66,30.66,0,0,1,4.54,1c1.36.36,3.79,1.14,3.45,2.43-.11.45-.55.48-.88.73-1.92.28-4.83-.42-7.37-.67A3.18,3.18,0,0,1,330.13,119.37Zm6.88-1.15c-2.29-.6-5.55-1.63-6.66-.46.5.29.73.77,1.41.93.19,0,.07-.51.25-.55,1.33-.44,4.27.13,5.19,1.09.07.25,0,.33-.1.58.78-.18,2,.25,2.52-.28A4.65,4.65,0,0,0,337,118.22Zm-4.3.57a14.45,14.45,0,0,0,3.19.58A7.78,7.78,0,0,0,332.71,118.79Z"/><path class="cls-1" d="M351.07,131.13a5.3,5.3,0,0,1-1,3.79c-1-.49.49-2.22.36-3.61C350.6,131.18,350.72,131,351.07,131.13Z"/><path class="cls-1" d="M373.13,50c-.93,4.79-1.57,9.37-2.08,13.86.2.18.69.16.83.38.33.64.32,2.39-.44,2.84a8.21,8.21,0,0,1,.45,3.68c-.05.6-.13,1.3-.65,1.53-1.1,0-.82-.67-.78-1.49a8.78,8.78,0,0,0-.25-2.74c-.71,1.43-.12,3.82-1.25,4.41-.49,0-.85-.17-.88-.53-1.12.91-1.58-.68-1.55-1.78a7.4,7.4,0,0,1,1.7-4.41,1.75,1.75,0,0,1,1.39-1.85c.46-4.35,1.12-8.84,2-13.5-3.28.62-6.74,1.27-10.38,1.86a21.67,21.67,0,0,0-3.33.59c.15,1.11-.37,2.12-.46,3.36-.13,1.61.17,5.6-1.48,6.48a33.15,33.15,0,0,1-1.31,4.71c2.23,1.39.51,5.88-2.06,5.54-1.34,2.28-3,4.15-5.5,4.69.84,1,2.21.85,3.25,1.5.67.41,1.07,1.21,1.62,1.79a16.28,16.28,0,0,1,1.55,1.78c.73.26,1,.84,2,.89,2.4,1.79,5.52,3,8.11,4.85a6.23,6.23,0,0,1,2.1,2c.45,1.1.22,3.17,0,4.8-.5,4.19-1.49,8.6-2.2,12.86,2,.56,3.63,1.87,2.79,4.41-.16.5-.55,1-.81,1.58a45,45,0,0,0-2.05,5.09c-.3,1-.44,2.07-.73,3.17-.94,3.55-2.08,6.8-3.19,10.13a14.78,14.78,0,0,1-1.18,3.16,9.65,9.65,0,0,1-1.64,1.2c-1.51.54-3.41-.1-5.41-.31-3.09-.33-6.69-.92-10.36-1.59-3.41-.62-6.69-1.27-9.52-2-1.3-.36-2.69-.39-4-.73a171.37,171.37,0,0,0-17.32-4.06c-1-.82-1-2.16-1-3.41-.07-7.74-.14-16-.75-23.44,0-1.71.51-3.4,2.1-3.29,0-5.51.64-13.07,2.78-18.53,2.17.15,3.89-.81,6-1a11.38,11.38,0,0,0,3.06-.34c.54-.25,1.06-.55,1.73-.81s1.15-.37,1.76-.65c1.1-.49,2.64-1.4,3.54-1.3.31,0,.54.26.84.3a15.67,15.67,0,0,0,2.31-.33c-.36-2.18-2.43-3.24-3.27-5.09-.21-.47-.27-1-.47-1.51-2-.07-3.74-1.52-3.75-3.31,0-2.15,1-4.14,2.93-3.74-.14-4.67,1.12-9.93,2.17-15.19-.71-.72-1.95-.92-3.1-1.47a32.2,32.2,0,0,0-4.34-2.13c-1.05-.3-1.67-.3-1.29-1.51a17.78,17.78,0,0,1,4-.77c2.5-.34,5-1.15,7.6-1.39,1.29-.11,2.62-.08,3.94-.25a36.19,36.19,0,0,1,3.77-.51,60.11,60.11,0,0,0,7.8-.46c1.51-.23,3.1-.54,4.51-.9a.65.65,0,0,1,.31,0c2,.66,3.62,2,5.44,3s3.67,1.94,5.53,3c2.6,1.4,5.15,3,8.34,4.44.69.3,2.48.84,2.13,1.88C374.5,50.11,373.73,49.7,373.13,50Zm-16.61-9.62c-.93-.58-2.57-1.71-3.45-1.61-3.49.43-7.74,1.29-11.48,1.29a15,15,0,0,0-2.43.15c-2.66.34-5.46.45-7.87.82-2.18.33-4.33.86-6.35,1.16,1.47.9,3,1.54,4.66,2.35,2.07,1,4.39,1.8,6.63,2.71,4.17,1.69,7.29,4.62,12,5.78a14.44,14.44,0,0,0-2.19-2c-.45-.28-1.33-.29-1.23-1,.92-.29,1.82.57,2.36,1,1,.87,2,2,3.36,2.11a14.55,14.55,0,0,0-1.89-1.54c-.6-.5-1.55-.9-1.72-1.67.62-.43,1.14.29,1.54.58,1,.76,2.06,1.54,2.95,2.34.28-.07.74.1.92-.13-1.12-.76-2.57-2.09-3.55-2.75-.23-.16-.81-.21-.7-.65.18-.74,1.43.29,1.64.45,1.3,1,2.36,1.86,3.62,2.76a6.6,6.6,0,0,0,1.44-.49c-1.28-.52-1.91-1.46-2.83-2.16-.54-.42-1.42-.61-1.47-1.4.48-.55.86.17,1.27.46.2.15.5.21.68.35a22.06,22.06,0,0,0,1.94,1.7c.57.34,1,.35,1.1,1,.27-.23.78-.1,1-.42a20.49,20.49,0,0,1-2.39-1.71c-.74-.55-1.89-1-2.12-2,.57-.46,1.05.31,1.4.56,1.44,1,2.83,2,4.17,3,.19-.13.53,0,.65-.25-.69-.48-1.38-1-2-1.57s-1.41-1-1.6-1.87c.5-.51.88.23,1.18.52s.79.65,1.17,1c1.24,1,2.32,2.42,3.83,1.6-.78-.59-1.8-1.61-2.68-2.14-.24-.14-1-.21-.85-.68.15-.66,1.23.07,1.65.38s1.19.78,1.6,1.11c.83.69,1.37,1.7,2.5,1.06a10.34,10.34,0,0,0-1.7-1.74c-.61-.53-1.54-1-1.61-1.87.9,0,1.58.78,2.29,1.4,1.16,1,1.75,2.42,3.49,1.83-.84-.82-1.77-1.47-2.67-2.21-.58-.47-1.61-.88-1.48-1.77.11,0,.15-.09.25-.1,1.76,1.21,3.14,2.68,5.08,3.77a4.14,4.14,0,0,0,1.09-.25c-.69-.53-1.38-1.16-2.15-1.74s-1.9-.85-2-1.86c1,0,1.8.79,2.72,1.47s2.27,2.49,3.3,1.65a13.57,13.57,0,0,1-3.87-3c-.12-.13.08-.47,0-.6C362.5,43.83,359.43,42.19,356.52,40.39Zm14.23,8.66c.25-.22.71-.13,1-.35-1.78-.71-3.52-1.79-5-2.48A37.81,37.81,0,0,0,370.75,49.05Zm-18.19,5.23c-.3,0-.66,0-1,0-.93.17-2,.79-2.91.74-.26,0-.52-.26-.84-.3s-.36.1-.54,0a7.75,7.75,0,0,1-1.83-1c-1.54-1-3.22-1.53-4.88-2.46-.9-.51-1.69-1.21-2.61-1.68a66.42,66.42,0,0,0-6.43-2.59c0-.09-.07-.06-.14,0a20.24,20.24,0,0,0-.42,2.7,3.75,3.75,0,0,1,1.17-.24c1.07-.06,3-.25,2.89,1-1.4-.15-3.28-.4-4.44.09l-.17.94a18.47,18.47,0,0,1,3.06-.34c.7,0,1.79-.26,1.92.58-.31.53-1,.13-1.44.11-1.28-.07-2.7.39-3.67.38-.11.26,0,.36,0,.59a4.36,4.36,0,0,0,2-.16c.95-.17,2.84-.62,3,.55-.29.47-.74.05-1.13,0-1.3-.11-2.68.68-4,.33l-.16.87a20,20,0,0,1,2.82-.24c.5,0,2.92-.15,2.65.64-.18.54-1.53.1-2,.08a29.22,29.22,0,0,0-3,.21c-.22.24-.67-.41-.63.18.33.32.76,0,1.13,0a23.12,23.12,0,0,1,3.76-.06c2.36.22,4.87,1.08,7.42,1.2,5,.24,10.71,1.69,13.37,4.38.7-2.56.39-5,.87-7.63C355.13,53.38,354,54.05,352.56,54.28Zm-23,2.78-.16.87a8.19,8.19,0,0,1,4.15-1,7.7,7.7,0,0,0,2.71,0A19.27,19.27,0,0,0,329.57,57.06Zm23.62,6.11c-2.09-.89-3.33-3.18-5.63-3.65a19.46,19.46,0,0,0-2.31-.05,27.64,27.64,0,0,0-2.8-.66,23.22,23.22,0,0,0-2.6.27c-3.57.35-8.08.12-10.46,1.85-.27,1.1.19,2.93-.9,2.9-.75,0-.58-.69-1.23-.67a2.35,2.35,0,0,0,1.2,4.12c.34,0,.65-.17,1-.12a1.06,1.06,0,0,1,.81,1.72,11.08,11.08,0,0,0,1,1.91,15.34,15.34,0,0,0,2,2.38,17,17,0,0,0,5.5,2.72,18.86,18.86,0,0,0,6.07.43c.42,0,.82.1,1.19.07a7,7,0,0,0,4.86-3.23c.25-.39.31-.94.6-1.24.46-.49,1.29-.27,1.91-.63a2.17,2.17,0,0,0,.86-2.24c-.55-.51-1.35-.41-1.45-1.09s.24-.69.53-1.25.48-1.51.74-2A6.69,6.69,0,0,0,353.19,63.17ZM354.6,62c-.59-.56-1.24-1.42-2.19-1.53A5,5,0,0,0,354.6,62Zm-2.42-.67a3,3,0,0,0-.71-.65C351.39,61.08,352,61.31,352.18,61.33ZM332,58.48a6.37,6.37,0,0,0-1.79.8c-.28.13-.82.11-.85.52a26.32,26.32,0,0,1,7.13-1.25C335.06,58.66,333.38,58.25,332,58.48Zm37.7,7c-.2.45.68.43.9.39,0-.18.08-.35-.08-.39C370.36,65.65,370,65.56,369.71,65.5ZM354.42,63c.08-.26-.71-.53-.6-.41A4.23,4.23,0,0,0,354.42,63Zm13.81,7.69c.09-1,.62-2.28.41-3.07C368.39,68.53,367.66,70,368.23,70.7Zm-36.39,9.71c1.51,2.54,3.09,5,6.67,6.16,2.7-1.36,5.65-2.34,7.67-4.67a2,2,0,0,1-.74-.06,5.76,5.76,0,0,1-1.22-4c-3.28.21-8.06-.86-10.26-2.55C333.59,77.11,333.7,80.77,331.84,80.41Zm14.8,1c.32-.46,1-.85.93-1.41s-1.27-1-1.85-1.38C345.72,79.81,346.46,80.44,346.64,81.46Zm-16.33-4.18a12.55,12.55,0,0,0,1.21,2.4c.26-.78.91-1.9.66-2.81A12.14,12.14,0,0,0,330.31,77.28Zm18.94,3c-2.19,4-6,5.73-9.75,7.44,1.43,2.55,3.06,5,3.45,8.2,2.38-1.17,4-3.55,5.82-5.61,1.55-1.76,3.35-3.3,4-6.24A27.24,27.24,0,0,0,349.25,80.28Zm-25.58-1.14a31.41,31.41,0,0,0,3.5,7.16c1.77,2.57,2.4,5.32,4.6,7.21,1.53-1.18,2.72-3.11,4-4.59.44-.52,1-.84,1.31-1.41-.72-.06-.93-.46-1.55-.58a17.21,17.21,0,0,1-5.33-6.52A9,9,0,0,1,328.86,77l-.15,0C327.06,77.74,325.28,78.32,323.67,79.14ZM354.09,85C353,88,351,90.31,349,92.45c-.89,1-1.8,2.09-3,3.13-.54.49-2.67,2.44-3.62,2.19-.65-.17-.82-1.28-1-2a15.68,15.68,0,0,0-2.1-5.33c-.21-.33-.28-.85-.53-.77-.47,1.7-.2,3.44-.34,5.11-.21,2.66-.75,5.25-.76,7.88,7,1.39,14.52,2.38,21.07,4.07.82-5.19,1.78-10.44,3.72-14.24.38-.74,1.27-1.63,1-2.29-.17-.42-1.52-1.2-2.05-1.5-.82-.46-1.74-.88-2.47-1.27-1.83-1-3.07-2.21-4.76-2.67C354.11,84.78,354.1,84.88,354.09,85Zm-26.63,4.66c-1.3-2.75-3.56-5.21-4.57-8.25-.2-.61-.34-1.82-.88-1.73-2.3.36-4.93.68-7.28,1.29-1.39,6.92-.29,12.12.9,17.25,6.26.81,11.31,3.05,17.33,3.61a1.79,1.79,0,0,1,.29-.77c.78-1,3.17-1,3.31-2.54a17.6,17.6,0,0,0-1.95,1.22c-.59.4-1.33,1.43-2,.75a8.11,8.11,0,0,1,1.95-1.66,19.23,19.23,0,0,0,2.13-1.42,3.66,3.66,0,0,0,.13-1.1,12.63,12.63,0,0,0-2.72,1.76c-.41.36-.71,1.19-1.37,1,0-1.07,1.09-1.62,1.82-2.15s1.64-1.23,2.41-1.73c-.07-.38.13-.94-.08-1.21a12.8,12.8,0,0,1-1.62,1.5c-.56.43-1.1,1.16-1.93,1.15,0-.91,1-1.39,1.7-1.94,1-.79,2.33-1.73,2-3.32a28.17,28.17,0,0,1-3.6,3.32c-.27,0-.32-.23-.51-.1-1.28,2-2.67-.79-3.68-1.57C328.58,91.93,328,90.84,327.46,89.65Zm35.83,4.88c.42-.72,1.55-1.19,1.1-2.34A5.68,5.68,0,0,0,363.29,94.53Zm-27.91-2.68c.72-.36.95-1.43,1.85-1.54a1.65,1.65,0,0,0,0-.83A20.73,20.73,0,0,0,335.38,91.85Zm26.85,5.64c.66-.95,2.28-1.35,2-3C363.61,95.46,362.22,95.85,362.23,97.49Zm-.76,2.48c1-.42,1.39-1.73,2.41-2.1,0-.3.33-.87,0-1C363.05,97.85,362,98.51,361.47,100ZM312,93.73c.45-.3.6-1,1-1.47-.33-1.09-.15-2.52-.39-3.67C312.46,90.26,312.16,92.06,312,93.73Zm48.78,9.12c1-.65,1.71-1.74,2.75-2.35a4.13,4.13,0,0,0,.15-1.62C362.87,100.4,361,100.45,360.8,102.85Zm-.52,2.83A21.24,21.24,0,0,0,363,103.4c0-.53.44-1.35.16-1.69C362.23,103.05,360.52,103.31,360.28,105.68ZM312,97c.49-1,1.77-2.16,1.14-3.39C312.64,94.66,311.52,95.58,312,97Zm48.26,10.29c.2,0,.42.05.5.17.57-.86,2.18-1.18,1.91-2.65C361.86,105.64,360.78,106.06,360.22,107.24ZM312,97.84c.23.22.62,0,1,.19.25-.77,1-1.27.45-2C313,96.66,312.66,97.56,312,97.84Zm23.44,3.38c.48-.34,1.29-.38.87-1-.86.63-2,.86-2.65,1.77C334.55,102.29,334.77,101.64,335.39,101.22Zm0,1,.66.12s.22-.62,0-.68C335.88,102,335.54,102,335.42,102.27ZM313.79,98l.29,0c0-.18-.07-.25-.17-.33C313.9,97.89,313.8,97.9,313.79,98Zm47.86,9.62c.23,0,.19.16.42.15s.45-.68.15-.8C362.11,107.34,361.77,107.34,361.65,107.65Zm-.17,14.06c.14-.51.15-1,.28-1.52.71-2.54,1.83-4.7,2.62-7a7.32,7.32,0,0,1,.21-.78c.22-.43.5-.51.55-.95.07-.6-.35-.94-.56-1.45-3-.8-5.61-1.84-8.59-2.62-3.48-.91-7.59-1.38-11.61-2.11-8.2-1.5-15.79-2.49-22.94-4.48-3.85-1.08-8.18-1.7-11.31-1.24-.36,2.67.08,5.46.18,8,0,1.12-.05,2.25,0,3.37.1,3.34.31,6.54.3,9.87,0,1-.09,2-.09,3s.11,2.3.9,2.86c.3-.56-.49-3,.31-2.94s.43,2.77.45,3.3l.8.15c.23-.84-.06-2.87.47-3.44,1.15.46.12,2.42.34,3.51a7.46,7.46,0,0,0,1.51.35c.17-.48-.46-3.16.35-3.16s.17,3,.45,3.3a4.27,4.27,0,0,1,1.07.28c.08-.48-.09-3.85.81-3.61s-.47,3.37,0,3.75a3.49,3.49,0,0,0,1.07.27c.4-.72.08-3.44.89-3.21s0,2.31-.1,3.43a2.32,2.32,0,0,0,.78.22c.41-.78.06-3.59.92-3.36.61.17,0,2.66-.12,3.5.46,0,.83.36,1.16.21.17-.8.15-3.42,1-3.19s-.29,2.43-.25,3.4a9.56,9.56,0,0,0,1.34.47c.07-.76.17-3.86,1-3.65s-.43,3.06-.24,3.78a2.43,2.43,0,0,0,.91.32c.15-.59.23-3.85,1-3.64s-.6,3.32-.16,3.8l.65.11c.42-.76.06-3.58.91-3.35s-.17,2.87-.06,3.59c.2.18.68.16,1,.25a11.2,11.2,0,0,0,.24-2.13c.06-.55.14-1.82.75-1.66s.05,1.42,0,2.17a7.14,7.14,0,0,1-.17,1.77l1.08.2c.3-.68.24-3.55,1.06-3.33s-.31,2.48-.26,3.47a4.51,4.51,0,0,0,.92.32c0-.74.16-3.86,1-3.65s-.6,3.39-.18,3.87a7.4,7.4,0,0,0,1.08.27c.3-.69.28-3.85,1.11-3.62s-.42,3.14-.31,3.76l1.08.2c.42-.83,0-3.75.94-3.5.7.2-.23,3-.14,3.65l1.09.2c.29-.68.24-3.56,1.06-3.33s-.31,2.48-.26,3.47l.94.17c.29-.67.24-3.55,1.06-3.33s-.3,2.49-.26,3.48l.8.14c.3-.69.25-3.69,1.08-3.47s-.38,3-.29,3.62l1.38.25c.32-.69.37-4.43,1.22-4.2s-.54,3.68-.42,4.35l.94.17c.32-.7.35-4.28,1.19-4.06s-.51,3.55-.39,4.2l.8.15a2.31,2.31,0,0,1,0-1c.18-.92.42-2.27,1-2.43.66.76-.3,2.52-.55,3.42,1.11.14,2.2.25,3.3.38.31-.65.22-3.56,1.06-3.33s-.52,2.64-.11,3.5c1.18.25.5-3.52,1.56-3.24.7.19-.21,3-.46,3.36.28.08.42,0,.74.06.7-.35.5-3.65,1.37-3.42s-.31,3-.46,3.36c.18.15.61,0,.89,0,.5-.85.77-2,1.27-2.84.19-.24.57.3.61,0C359.12,129.46,360.45,125.56,361.48,121.71Z"/><path class="cls-1" d="M284.89,117.42c-1.45-.3-1.08-1.53-1.4-2.53-1.19-3.69-3.83-8.54-5.76-12.37-.53-1-3-4.19-1.55-4.49,1-.2,2.62,3.26,3.09,4.21.8,1.59,1.86,3.27,2.53,4.64.83,1.67,1.41,3.54,2.11,5.2S285.75,115.73,284.89,117.42Z"/><path class="cls-1" d="M288.4,117.84c-1.1.17-1.35-1.13-1.68-1.83-1.71-3.6-3.6-7.7-5.62-11.52-.5-.95-3.14-5-1.55-5.34.82-.15,2.27,3.57,2.67,4.36,1.65,3.21,3.13,6.14,4.64,9.41C287.57,114.46,288.9,116.09,288.4,117.84Z"/><path class="cls-1" d="M291.22,116.15c-1.55-.13-2-2.26-2.68-3.51-1.39-2.65-2.74-5.32-4.07-8.29a18.77,18.77,0,0,1-1.83-4.5.71.71,0,0,1,.43-.42c1.1,0,2,2.71,2.53,3.94,1.36,3.06,2.55,5.7,4.07,8.57C290.39,113.29,291.84,114.63,291.22,116.15Z"/><path class="cls-1" d="M292.9,110.67c-1.45.18-1.69-1.37-2.25-2.24-1.09-1.74-2.17-3.35-3.37-5.34-.27-.45-2.35-3.38-.7-3.66.74-.12,1.49,2.24,1.82,2.81,1.16,2,2.36,3.61,3.52,5.48C292.45,108.59,293.29,109.67,292.9,110.67Z"/><path class="cls-1" d="M191.73,120h.19c.23.8-.91,1.21-1.33,1.78a27.23,27.23,0,0,0-3.11,3.24c-2.9,3.35-5.93,6.63-9.09,9.79-1.06,1.06-2.12,2.08-3.11,3.17s-1.8,2.37-2.8,3.5c-1.5,1.68-2.82,3.41-4.26,5.21-.43.54-.84,1.31-1.59,1.52-.2-.87.71-1.41,1.15-2,1.45-1.85,2.91-3.7,4.45-5.52a68.3,68.3,0,0,1,6.29-7.06c4.67-4.24,8.35-9.46,13-13.66C191.63,120.09,191.72,119.84,191.73,120Z"/><path class="cls-1" d="M101.71,187.67v.24c-1,.34-1.55-1-2.27-1.48a33.6,33.6,0,0,0-4.19-3.53c-4.31-3.25-8.55-6.68-12.65-10.27-1.38-1.21-2.71-2.41-4.12-3.53s-3-2-4.48-3.12c-2.17-1.69-4.39-3.16-6.69-4.76-.69-.49-1.66-.93-2-1.81,1-.33,1.78.74,2.49,1.23,2.37,1.62,4.74,3.25,7.08,5a85.15,85.15,0,0,1,9.1,7.08c5.55,5.35,12.2,9.4,17.68,14.68C101.59,187.55,101.91,187.64,101.71,187.67Z"/><path class="cls-1" d="M269.81,141.56l-.09-.16c.57-.61,1.5.16,2.21.24a29.5,29.5,0,0,0,4.37,1c4.36.78,8.73,1.71,13.06,2.81,1.46.37,2.87.76,4.32,1.06s3,.33,4.43.62c2.21.42,4.38.67,6.66,1a3.7,3.7,0,0,1,2.12.59c-.65.63-1.58.11-2.28,0-2.33-.3-4.67-.61-7-1a70.11,70.11,0,0,1-9.28-1.8c-6-1.85-12.4-2.35-18.37-4.17C269.94,141.61,269.68,141.66,269.81,141.56Z"/><path class="cls-1" d="M59.48,116.55c1-.1,1.41,1.76,1.8,2.5a134.94,134.94,0,0,1,6.31,13.44c.37.94.75,1.88,1.16,2.76s1.24,1.7.9,2.58c-1.65-.09-1.72-1.46-2.06-2.17-2.19-4.55-3.57-9-6.05-13.6-.83-1.53-2.32-3.92-2.45-5.26A.65.65,0,0,1,59.48,116.55Z"/><path class="cls-1" d="M178.52,59.17c.17-.73.64-.2,1.08,0,1.11.51,2.74.7,3.56,1.4.91,0,1.22.72,1.84,1.14a9.09,9.09,0,0,0,1.27.51c.63.32.94,1,1.46,1.21s2.14.47,2.16.89c0,.65-1,.19-1.14.12a11.1,11.1,0,0,1-1.34-.44c-.63-.33-.76-.81-1.33-1.14s-1-.36-1.4-.64-.68-.7-1.08-.89c-.19-.09-.41,0-.64-.13s-.38-.33-.63-.44C181.08,60.19,179.4,60.12,178.52,59.17Z"/><path class="cls-1" d="M176.61,62c0-.29.15-.49.38-.44a20.15,20.15,0,0,1,2.48.76c.83.28,1.76.4,2.54.7.33.12.52.41.83.57.46.23,1,.28,1.46.51.84.43,1.63,1.39,2.48,1.84.4.08.71.47,1.2.7s1,.12,1,.57-.51.47-.89.38-.48-.48-.82-.7-.56-.18-.77-.31-.39-.41-.63-.58-.69-.29-1-.5-.51-.61-1-.83-.77-.28-1.14-.45-.73-.45-1-.57C180,62.92,178.11,62.9,176.61,62Z"/><path class="cls-1" d="M186.78,70.29c-.49.32-.69-.16-1.08-.32A10.15,10.15,0,0,1,183,68.83c-.32-.24-.52-.7-.95-.89s-.63-.15-.89-.25a9.78,9.78,0,0,1-1.85-1.34A15.93,15.93,0,0,0,175.66,65c-.4-.14-1.35-.28-1-.83.61-.17,1.74.35,2.73.64a9.32,9.32,0,0,1,2.29,1c.51.33.84.75,1.33,1,1,.52,2,.68,2.55,1.58.39.05.54.37,1,.58C185.34,69.38,186.84,69.21,186.78,70.29Z"/><path class="cls-1" d="M182.9,72.9a2.91,2.91,0,0,1-2-.64c-.51-.31-.83-.9-1.27-1.08a15,15,0,0,0-1.72-.19,15.46,15.46,0,0,1-1.77-.76,12.76,12.76,0,0,1-3.44-1.59c-.4-.28-1.36-.88-1.33-1.15,0-.43.49-.23.44-.25.87.34,1.68,1.31,2.8,1.84.48.23,1.17.34,1.78.57a12,12,0,0,0,1.59.71,13.65,13.65,0,0,1,2,.25c.42.17.67.65,1.08,1C181.7,72,182.84,72.07,182.9,72.9Z"/><path class="cls-1" d="M297.52,219.17c.17-.73.64-.2,1.08,0,1.11.51,2.74.7,3.56,1.4.91,0,1.22.72,1.84,1.14a9.09,9.09,0,0,0,1.27.51c.63.32.94,1,1.46,1.21s2.14.47,2.16.89c0,.65-1,.19-1.14.12a11.1,11.1,0,0,1-1.34-.44c-.63-.33-.76-.81-1.33-1.14s-1-.36-1.4-.64-.68-.7-1.08-.89c-.19-.09-.41,0-.64-.13s-.38-.33-.63-.44C300.08,220.19,298.4,220.12,297.52,219.17Z"/><path class="cls-1" d="M295.61,222c0-.29.15-.49.38-.44a20.15,20.15,0,0,1,2.48.76c.83.28,1.76.4,2.54.7.33.12.52.41.83.57.46.23,1,.28,1.46.51.84.43,1.63,1.39,2.48,1.84.4.08.71.47,1.2.7s1,.12,1,.57-.51.47-.89.38-.48-.48-.82-.7-.56-.18-.77-.31-.39-.41-.63-.58-.69-.29-1-.5-.51-.61-.95-.83-.77-.28-1.14-.45-.73-.45-1-.57C299,222.92,297.11,222.9,295.61,222Z"/><path class="cls-1" d="M305.78,230.29c-.49.32-.69-.16-1.08-.32a10.15,10.15,0,0,1-2.67-1.14c-.32-.24-.52-.7-.95-.89s-.63-.15-.89-.25a9.78,9.78,0,0,1-1.85-1.34,15.93,15.93,0,0,0-3.68-1.33c-.4-.14-1.35-.28-1-.83.61-.17,1.74.35,2.73.64a9.32,9.32,0,0,1,2.29.95c.51.33.84.75,1.33,1,1,.52,2,.68,2.55,1.58.39.05.54.37.95.58C304.34,229.38,305.84,229.21,305.78,230.29Z"/><path class="cls-1" d="M301.9,232.9a2.91,2.91,0,0,1-2-.64c-.51-.31-.83-.9-1.27-1.08a15,15,0,0,0-1.72-.19,15.46,15.46,0,0,1-1.77-.76,12.76,12.76,0,0,1-3.44-1.59c-.4-.28-1.36-.88-1.33-1.15,0-.43.49-.23.44-.25.87.34,1.68,1.31,2.8,1.84.48.23,1.17.34,1.78.57a12,12,0,0,0,1.59.71,13.65,13.65,0,0,1,2,.25c.42.17.67.65,1.08.95C300.7,232,301.84,232.07,301.9,232.9Z"/><path class="cls-1" d="M73,136.92c-1.14-.07-1.1-1-1.29-1.51-1.17-2.91-2.56-5.75-4.12-8.76-.66-1.29-1.46-2.5-1.29-3.67a.58.58,0,0,1,.39-.25c1-.16.92,1,1.16,1.66.62,1.76,1.8,3.72,2.57,5.35.87,1.83,1.81,3.51,2.58,5.34C73.22,135.61,73.77,136.44,73,136.92Z"/><path class="cls-1" d="M76.6,134.58c-1.38-.12-1.5-1.32-1.93-2.09-1.3-2.32-3.13-5.5-3.47-8.34a.61.61,0,0,1,.38-.26c1.26,0,1.21,1.84,1.55,2.67a48,48,0,0,0,2.57,5.52C76.17,132.93,77.42,133.8,76.6,134.58Z"/><path class="cls-1" d="M78.79,133.33c-1.13-.32-1-1.33-1.16-2-.59-2-2.45-4.6-2.31-6.67a.58.58,0,0,1,.38-.26c1.13-.16,1,1.51,1.29,2.26.6,1.75,1.42,2.79,1.93,4.42C79.15,131.81,79.79,132.83,78.79,133.33Z"/><path class="cls-1" d="M81.36,131c-1.07-.1-.61-.64-.77-1.17-.4-1.34-1.86-3-1.16-4.09,1.2-.16,1,.71,1.29,1.42s1,1.8,1.16,2.34S82.15,130.86,81.36,131Z"/><path class="cls-1" d="M63,134.33c-1.14-.09-1.24-1.32-1.68-2.17-.36-.7-1.91-2.62-.64-2.76.89-.1,1.56,1.89,1.8,2.34C62.94,132.66,63.77,133.63,63,134.33Z"/><path class="cls-1" d="M369.71,145.72c.12.75-1.21,1.11-1.74,1.43a99.35,99.35,0,0,1-9.49,5.26c-.67.31-1.33.63-2,1s-1.18,1-1.84.78c0-1.21,1-1.33,1.48-1.61,3.22-1.82,6.42-3,9.64-5.07,1.07-.68,2.74-1.89,3.71-2A.44.44,0,0,1,369.71,145.72Z"/><path class="cls-1" d="M355.51,156.56c0-.83.71-.85,1-1,2.06-1,4.07-2.14,6.19-3.43a5,5,0,0,1,2.61-1.11.4.4,0,0,1,.21.27c.16.75-.69.72-1.16.92-1.25.54-2.62,1.5-3.78,2.14s-2.47,1.48-3.77,2.14C356.47,156.66,355.9,157.11,355.51,156.56Z"/><path class="cls-1" d="M357.39,159.08c0-1,.89-1.16,1.43-1.51,1.63-1.06,3.86-2.55,5.92-2.94a.44.44,0,0,1,.2.27c.1.92-1.28,1-1.87,1.26a34.89,34.89,0,0,0-3.9,2.14C358.57,158.69,358,159.64,357.39,159.08Z"/><path class="cls-1" d="M358.41,160.62c.18-.84.92-.77,1.4-1,1.42-.53,3.25-2,4.76-2a.5.5,0,0,1,.21.27c.17.82-1,.82-1.59,1-1.25.52-2,1.17-3.13,1.62C359.54,160.81,358.82,161.32,358.41,160.62Z"/><path class="cls-1" d="M360.24,162.38c0-.79.44-.48.81-.62,1-.36,2.13-1.51,2.93-1,.18.86-.46.78-1,1s-1.26.82-1.65,1S360.37,163,360.24,162.38Z"/><path class="cls-1" d="M356.91,149.11c0-.83.9-1,1.51-1.32s1.81-1.52,2-.6c.12.64-1.3,1.23-1.61,1.42C358.13,149,357.46,149.67,356.91,149.11Z"/><path class="cls-1" d="M137.52,64.24c.12.71-.62.84-1.35,1.18a33.84,33.84,0,0,0-6.22,4.3,40.4,40.4,0,0,0-3.77,3.13,18.66,18.66,0,0,0-3,3.42,40.38,40.38,0,0,1-2.35,3.64c-.37.5-.43,1.31-1.32,1.4-.1-1,.76-1.74,1.31-2.44a19.67,19.67,0,0,0,1.5-2.37,19.86,19.86,0,0,1,3.79-4.41,48.9,48.9,0,0,1,10.55-7.68c.25-.12-.16-.48.12-.58,1.13-.38,2.16-1.69,2.91-2,.38-.17.53-.21.67,0,.32.48-.91,1-1.22,1.28A12.83,12.83,0,0,1,137.52,64.24Z"/><path class="cls-1" d="M140.05,63.57c.22-.08.43-.29.61,0s-1.12,1.16-1.7,1.56-1.88,1.34-2.17.81.77-.72,1.27-1C138.72,64.59,139.27,63.86,140.05,63.57Z"/><path class="cls-1" d="M141.39,64.92c.25-.1.61-.43.76,0s-2.71,2-3,1.47S140.86,65.13,141.39,64.92Z"/><path class="cls-1" d="M138.09,67.93c.25.77-.65.91-1.31,1.25a31.71,31.71,0,0,0-4.69,3.39A44.51,44.51,0,0,0,124.63,80a24.81,24.81,0,0,0-1.5,2c-.39.61-.62,1.67-1.53,1.79-.27-.48.24-.88.43-1.23A35.42,35.42,0,0,1,128,75.36a37.79,37.79,0,0,1,9.34-7.23C137.46,68.05,137.81,67.63,138.09,67.93Z"/><path class="cls-1" d="M89,91.19c-.21-.59.62-1,1.19-1.35s1.45-.88,2-1.18c5-2.61,9.65-2.79,14.31-3.67a27.87,27.87,0,0,1,3.38-.44c.77,0,1.51.56.36.81-.14,0-.71,0-.89,0-.47,0-1.26,0-1.74.09-1.54.22-2.61.62-3.76.76A32.2,32.2,0,0,0,92.1,89.52a19.25,19.25,0,0,0-1.64,1C90,90.83,89.49,91.4,89,91.19Z"/><path class="cls-1" d="M91.14,92.92A54.81,54.81,0,0,1,99.6,89.8a67,67,0,0,1,7.72-1.75,36.87,36.87,0,0,1,3.81-.63c.28,0,.89,0,.9.35s-1.73.56-2.32.65l-2.65.41a65.7,65.7,0,0,0-9.51,2.24c-1.44.48-2.93,1.13-4.33,1.68C92.79,92.91,90.7,94.14,91.14,92.92Z"/><path class="cls-1" d="M140.73,72.06c.06.69-.94.86-1.59,1.14-5.82,2.55-8.9,6.51-12.38,10.12-.5.51-1,1.05-1.46,1.61s-.78,1.32-1.56,1.35c-.2-.81.7-1.3,1.13-1.83,1.35-1.68,3-3.26,4.61-4.93,2.74-2.79,5.18-5.17,9.48-7.06C139.56,72.2,140.28,71.66,140.73,72.06Z"/><path class="cls-1" d="M92.8,96.36A88.14,88.14,0,0,1,107,91.91c1.64-.37,3.63-.9,5.47-1.28.09,0,1.48-.49,1.65,0s-1.23.59-1.44.63c-1.68.35-4,1-5.53,1.31a81,81,0,0,0-12.21,3.72C94.23,96.59,92.39,97.65,92.8,96.36Z"/><path class="cls-1" d="M144.55,74.85c0,.77-1.4,1-2.14,1.38-4,2-7.13,4.66-10.22,7.09a34.4,34.4,0,0,0-5.26,5c-.44.54-.82,1.41-1.66,1.47-.13-.69.56-1.27.94-1.75,2.79-3.44,7.54-7,11.86-10a40.75,40.75,0,0,1,4.35-2.65C143,75.12,144.07,74.47,144.55,74.85Z"/><path class="cls-1" d="M115.43,94.32c0,.85-1.12.75-1.63.87-2,.44-4.18,1-6.28,1.63-3.86,1.09-7.38,1.73-11.46,3.76-.4.2-.8.64-1.17.37-.22-.5.32-.77.62-1a26.87,26.87,0,0,1,5.23-2c3.2-1.06,6.63-1.83,9.91-2.71,1.26-.33,2.48-.67,3.68-.94C114.66,94.28,115.13,94,115.43,94.32Z"/><path class="cls-1" d="M146.46,79.37c.09.7-1.1.89-1.71,1.2-2.25,1.15-4.48,2.62-6.67,4a70.59,70.59,0,0,0-9.67,7.15c-.31.28-.7,1-1.28.64-.15-.57.56-.92.88-1.21,4.45-4,10.51-7.68,16.53-11.2C144.88,79.71,146,78.92,146.46,79.37Z"/><path class="cls-1" d="M150.61,80.16c.13.62-.62,1.17-1.07,1.65s-1,1.31-1.67,1.11c-.27-.46.33-.7.66-1s.48-.57.75-.85C149.73,80.56,150,80,150.61,80.16Z"/><path class="cls-1" d="M118.77,98.21c.13.64-.64.73-1,.84-4.8,1.24-9.11,1.13-14.22,3-1.31.48-3.62,1.54-5.16,2.33-.39.2-1.24.8-1.48.35s2.37-1.58,2.72-1.78a31.76,31.76,0,0,1,7-2.58,48.06,48.06,0,0,1,6.47-1c.39-.06.73-.25,1.11-.34,1.09-.23,2.22-.31,3.3-.62C117.9,98.28,118.31,97.79,118.77,98.21Z"/><path class="cls-1" d="M151.69,81.62c0,1-1,1.72-1.74,2.47-.34.36-.68.78-1.07,1.14s-.67,1-1.23.76c-.24-.8.8-1.1,1.22-1.65-.56.08-.89.57-1.29.79-1.24.71-2.67,1.1-3.94,1.73a83.88,83.88,0,0,0-11.61,7,21.77,21.77,0,0,0-2.45,1.9c-.38.38-.49,1-1.24,1.06-.23-.71.49-1.33.94-1.75a39.16,39.16,0,0,1,5.79-4.1c2.75-1.71,5.87-3.53,8.9-5,1.69-.84,3.42-1.33,4.63-2.33a.43.43,0,0,1,.43.48,19.86,19.86,0,0,0,2-2.22C151.13,81.7,151.36,81.33,151.69,81.62Z"/><path class="cls-1" d="M98.61,111.15c-.23-.73.73-1.52,1.43-2.19a17.63,17.63,0,0,1,2.17-1.84c.27-.18.93-.55,1.07-.1s-.87.88-1.15,1.1a18.19,18.19,0,0,0-2.4,2.17C99.43,110.63,99.19,111.25,98.61,111.15Z"/><path class="cls-1" d="M103.89,108.24c.24.72-.89.86-1.31,1.1a10.48,10.48,0,0,0-3,2.78c-.21.3-.32.95-.86.75-.15-.74.55-1.6,1.12-2.2a11.87,11.87,0,0,1,2.61-2C102.89,108.41,103.42,108,103.89,108.24Z"/><path class="cls-1" d="M154.53,87.07c.07.82-.88,1.31-1.43,1.82a37,37,0,0,1-5,4c-.32.21-.65.67-1,.32.11-.77,1-1.12,1.63-1.54A35,35,0,0,0,154,87.1C154,87,154.36,86.87,154.53,87.07Z"/><path class="cls-1" d="M104.37,109.67c.06.78-1.22,1.23-1.86,1.71s-1.27,1.46-2.05,1.27c-.11-.58.67-1.08,1.21-1.5a14,14,0,0,1,1.77-1.22C103.7,109.78,104,109.4,104.37,109.67Z"/><path class="cls-1" d="M103.62,111.71c.18-.06.45-.28.61,0s-.93,1-1.44,1.3-1.47,1.1-1.74.62.29-.5.78-.79A9.52,9.52,0,0,1,103.62,111.71Z"/><path class="cls-1" d="M97.53,115.64c0,.78-.38,1.54-.4,2.49a15.07,15.07,0,0,0,.84,5.14,6.7,6.7,0,0,0,.63,1.43c.21.31.5.27.67.68-.68.93-1.36-.27-1.71-1.19-1.08-2.84-1.53-6.44-.61-8.51C97.19,115.54,97.41,115.48,97.53,115.64Z"/><path class="cls-1" d="M103.88,113.31c0,.08.06.1.12.1.18.66-1.35,1.73-1.65,1.16S103.37,113.46,103.88,113.31Z"/><path class="cls-1" d="M103.56,115.31c-.26-.71,1.22-1.21,1.45-.79S104,115.6,103.56,115.31Z"/><path class="cls-1" d="M99.11,117c.49.66.14,1.51.13,2.32a8.32,8.32,0,0,0,1.25,4.22c.23.33.58.25.64.76-.83.8-1.52-.77-1.82-1.58a11,11,0,0,1-.64-5.38.35.35,0,0,1,.1-.27A.46.46,0,0,1,99.11,117Z"/><path class="cls-1" d="M100.4,116.92c.44,1,.13,2.07.57,3.32.19.55,1.41,2.36.66,2.54S100.1,120,100,119.4a14.06,14.06,0,0,1,0-2.14.35.35,0,0,1,.1-.27A.46.46,0,0,1,100.4,116.92Z"/><path class="cls-1" d="M157.85,92.61c.06.75-.92,1.4-1.53,1.94a69,69,0,0,1-5.58,4.08c-.26.19-.81.82-1.05.32s1.38-1.32,1.82-1.62a44.29,44.29,0,0,0,5.76-4.69A.41.41,0,0,1,157.85,92.61Z"/><path class="cls-1" d="M105.32,115.58c1.38-.89,3.39-1.4,4.31-.7a8.49,8.49,0,0,1,2,3.46,4.69,4.69,0,0,1-.59,2.71,3.32,3.32,0,0,1-2.2,1.79,4.42,4.42,0,0,1-4.23-1.35C102.86,119,103.7,117.23,105.32,115.58Zm-.34,3.64a2.9,2.9,0,0,0,4,2.13,3.22,3.22,0,0,0,1.29-2.65,6.44,6.44,0,0,0-1.6-2.8A3.4,3.4,0,0,0,105,119.22Z"/><path class="cls-1" d="M101.7,117.84c.39.45.2,1,.43,1.67.17.52.87,1.43.37,1.7-.88.48-1.27-2.88-1.25-3a.93.93,0,0,0,0-.24A.54.54,0,0,1,101.7,117.84Z"/><path class="cls-1" d="M103.31,118.47c.32.28.4.86-.08,1,0-.06-.09,0-.15,0C102.72,119.16,102.75,118.41,103.31,118.47Z"/><path class="cls-1" d="M157.77,94.81c.11,0,.34-.19.49.08s-1.11,1.32-1.52,1.63a38.12,38.12,0,0,1-4,2.89c-.63.37-2.08,1.32-2.3.7s1.34-.94,1.49-1c1.91-1,4.23-3.25,5.74-4.23Z"/><path class="cls-1" d="M106.29,123.72a.94.94,0,0,0-.08.33c-.59.24-2.44-.14-2.53-.83.39-.49.73-.1,1.07,0C105.25,123.51,106.07,123.28,106.29,123.72Z"/><path class="cls-1" d="M105.78,126c-.29.64-.88.15-1.44,0-.25-.09-2.26-.58-1.2-1C103.63,124.66,105.43,125.56,105.78,126Z"/><path class="cls-1" d="M106.61,128.19c-.92-.26-1.53-.64-2.6-1-.23-.07-2.18-.54-1.36-1,.37-.23,1.91.43,2.35.61C105.75,127,106.94,127.47,106.61,128.19Z"/><path class="cls-1" d="M106.71,129.26c-.14.64-.89.28-1.29.12a14.12,14.12,0,0,1-2.56-1.26c-.36-.22-1.62-.75-1-1.18.39-.29,1.66.75,2,.93a15.37,15.37,0,0,0,2,.92C106.13,128.92,106.59,128.79,106.71,129.26Z"/><path class="cls-1" d="M143.17,59.3c.17.31.68-.24.85.07a17.08,17.08,0,0,1,1.44,3.47c.38.19,1-.35,1.38-.09.51,1.38,1.4,3.37,2.21,5.21.59,1.34,1,2.82,1.6,4,.45.83,1.06,1.55,1.5,2.39,1.38,2.66,2.59,5.45,4,8.08.28.54.68,1,1,1.51.52,1,.94,2,1.47,3,.69,1.28,1.54,2.44,2.22,3.71.24.45.37.93.6,1.38,1.08,2,2.44,3.89,3.53,5.82-.22.49-1.18.68-1.8,1,.39,1.37,1.48,2,2.21,3-1.73,2.17-6.48,3.24-9.13,3.63-1.29.2-2.36.22-3.78.39-.55.07-1.13,0-1.62,0a26.16,26.16,0,0,0-8.32,2.76c-2.21,1.15-4.64,2-6,3.45-.34.37-.23.91-.71,1.28a2.61,2.61,0,0,1-3.33,0c-3.68,1.45-7.81,3.16-10,5.36a14.65,14.65,0,0,1-18,13.53A13.92,13.92,0,0,1,94.86,125a14.22,14.22,0,0,1-1.08-11.29,4.6,4.6,0,0,0,.44-1.38c-.1-.46-.74-1-1.13-1.73-1.12-2-2.36-3.47-3.44-5.12-2-3-3.42-5.67-5.39-7.54-.31-.29-.92-.55-1-.81-.26-.66.61-1.28.65-1.92-.29-.27-.5-.61-.78-.93s-.68-.58-.75-.86c-.14-.61.73-1,.85-1.64-1.45-1.92,0-2.69,1.32-3.78a16.55,16.55,0,0,1,2.65-1.75,73.22,73.22,0,0,1,9.06-4.13,41,41,0,0,1,5.48-1.43A33,33,0,0,1,106.9,80c3.35-.17,6.44.91,9.35,1.11.7-3,2.46-5.6,4.44-8.2a38,38,0,0,1,2.6-3.07c.94-1,1.78-2.11,2.71-3,3-2.84,7.44-5.15,11.71-7.59a11.2,11.2,0,0,0,3.52-2.66c0-.06.06-.17.13-.21C142.88,55.49,142.67,58.35,143.17,59.3Zm-1.85-1a36.11,36.11,0,0,1-6.08,3.94,33.19,33.19,0,0,0-9.6,7c-.81.91-1.67,1.76-2.43,2.63-1,1.18-1.89,2.63-2.88,3.94a17.76,17.76,0,0,0-3.09,6.72c1.82,3.09,3.92,6,5.8,9.14s3.69,6.4,5.73,9.33c.08.86.9,1.74,1.3,2.63a19.86,19.86,0,0,1,1-2.3c.37-.73.68-1.88,1.57-2,.23.57-.3,1.06-.53,1.5s-.49,1-.72,1.43c-.45.93-1,2-.37,3.21.61-.9.86-2.51,1.46-3.62.43-.77.94-.94,2-1.48,5.19-2.57,11.18-5.83,16.17-8.28.45-.23,1-.36,1.37-.61,1.39-.81,2.22-2.2,3.59-2.84-.62-1-1.08-2.34-1.76-3.17a43.32,43.32,0,0,1-5.69,5c-.55.46-1.31,1.55-2.09,1,0-.42.55-.64.87-.9,1.08-.9,2.38-1.85,3.4-2.76-5,2.67-10.21,5.52-15.06,8.25-1.49.83-2.72,2.08-4.26,2.68a.83.83,0,0,1,.12.62,5,5,0,0,0-.62,1.46c-.16.46-.15,1.2-.77,1.31-.46-.55,0-1.24.21-1.73s.28-1.31.84-1.64c-.13-.24-.2-.46,0-.58,4.57-3.27,10.4-6.05,15.6-9.08.14-.13-.28-.49,0-.58,2.71-1.65,4.3-3.74,6.3-5.66-2.25-3.78-3.74-8.44-5.84-12.63-.72-1.45-1.66-2.74-2.41-4.15a44.53,44.53,0,0,1-2.94-7.72s0-.07-.09,0Zm5.2,8.44c-1.27-2-1.86-4.41-2.93-6.68l-.19.09C144.26,62.37,145.18,65.11,146.52,66.76ZM107.23,81.24a27.66,27.66,0,0,0-6.71,1.16c-1.37.38-2.82.61-4.21,1.1-4.5,1.6-9.75,4.31-12.34,6.83,1.69,3.76,3.78,6.26,5.77,9.23,2.13,3.2,4.31,6.36,6.25,9.69a15.94,15.94,0,0,1,5-4.15,14.84,14.84,0,0,1,11.35-.95c-.26-.67.6-1,1.25-1.22a32.06,32.06,0,0,1,3.91-.75c.69-.12,1.36-.27,2-.42s1.43-.62,1.93-.18c-.34.91-1.52.75-2.27.93-2.17.5-4.38.65-6.47,1.72a19,19,0,0,1,3.74,2.08c1.81-.72,3.77-1.14,5.46-1.65.45-.14,1.06-.58,1.27.19-1.71,1-4,1.09-6,2a18.26,18.26,0,0,1,2.66,3,11.32,11.32,0,0,1,3.57-1.2c.77-.18,1.73-.65,2.16,0-.06.56-.68.32-1,.38a19.53,19.53,0,0,0-4.31,1.37c.32.76.71,1.34,1,2.16.14.08.13-.33.44-.35.66-.15,3.18-1.57,3.4-.9s-2.58,1-3.16,1.62c-.19.21-.57-.18-.46.12a13.06,13.06,0,0,0,.53,1.56c3.61-1.8,7-2.19,10.11-3.25-.32,0-.53-.16-1-.08s-1,.59-1.16.06c-.24-.69,1.44-.85,2-.78l-.3-.69c-.64.05-1.49.64-1.86,0,.13-.62,1.05-.38,1.56-.69-.47-.59-1.36.63-1.62-.11-.15-.45.53-.58,1.08-.77-.19-.35-.31-.89-.55-1.09-.61.18-1.07.87-1.33.36s1-.72,1-1.26c-.59-.16-1.42.81-1.65.12-.15-.44.56-.58,1.17-.88l-.3-.69c-.71.16-1.57,1.19-1.79.49s1.11-.72,1.44-1.3c-.85.61-1.75-.34-.46-.7l-.22-.49c-.66-.07-1.31.94-1.67.43s.54-.93,1.25-1.07a2.39,2.39,0,0,0-.45-.84c-.68.25-1.47.85-1.66.28s.88-.66,1.3-.94c-.06-.21-.21-.17-.26-.41-.67-.17-1.83,1.08-2.09.32-.18-.55,1-.8,1.64-1,0-.11-.18-.42-.31-.53-.61.06-1.3.72-1.5.14s.84-.55,1.08-.93c-.5-1-1.86.54-2.22,0-.49-.71,1.22-1,1.58-1.15-.62-1.08-2.12,1.25-2.42.25-.18-.56,1.2-1,1.83-1.25-.11-.31-.3-.38-.39-.73-.71.25-1.53.9-1.73.32s.68-.63,1.3-1c-.09-.33-.3-.39-.39-.72-.68,0-1.7,1-1.94.33-.18-.52.91-.76,1.51-1a3.37,3.37,0,0,0-.5-.82c-.61.16-1.17,1.15-1.53.6s.7-.89,1.16-1.26a2.38,2.38,0,0,0-.42-.63c-.65-.12-1.91,1.07-2.16.35s1.2-.85,1.79-1c-.13-.15-.24-.36-.37-.51-.79.07-1.5,1.36-1.9.76s.79-1,1.48-1.39c-.08-.29-.27-.31-.34-.6-.59-.08-1.48.66-1.68.07s.81-.5,1.2-.82c-.25-.16-.37-.65-.64-.77-.69.25-1.52.9-1.72.31s.74-.73,1.33-.88a1.4,1.4,0,0,0-.43-.63c-.65,0-1.54.89-1.75.25-.16-.48.79-.72,1.39-.91l-.2-.44c-.58-.41-1.92.87-2.17.14s1.18-.77,1.69-.89c-.08-.26-.26-.3-.33-.6-.55-.48-2.1.63-2.32,0s1.33-.71,1.81-.8c-.13-.21-.26-.32-.25-.56C113,82.24,110.25,81.19,107.23,81.24Zm38.56-17.65.08.18c1.16,2.7,2.56,4.76,3.65,7.63.34.63,0,.07-.05-.27a41.16,41.16,0,0,0-1.79-4.43c-.54-1.24-1-2.42-1.4-3.18A.89.89,0,0,0,145.79,63.59ZM83.18,93.28q1.66,2,3.31,4c-1-1.53-2-2.86-2.91-4.6A.93.93,0,0,0,83.18,93.28Zm7.35,12.34a52.77,52.77,0,0,1,3.9,5.65c-.52-.9-1.08-2.39-1.74-3.62-.83-1.55-2.09-2.81-2.93-4.3a57.4,57.4,0,0,0-5.3-7.5,1.76,1.76,0,0,0-.45,1C86.54,98.79,88.21,102.24,90.53,105.62Zm69.58-12.29c-1.3-2.77-3.26-5.66-4.85-8.66-.58-1.1-.92-2.34-1.51-3.44-1.47-2.74-3.19-5.81-4.46-8.83A132.29,132.29,0,0,0,160.11,93.33Zm-5.56-12.15c.61,1.14.95,2.4,1.56,3.56.23.43.59.78.83,1.2,2.06,3.7,4.21,7.49,6.05,11.27-.12.37-.51.13-.72.39-.63,1.15-2.2,1.93-3.53,2.81,2.21-.78,3.44-1.94,5.31-2.85a39.39,39.39,0,0,1-4-6.79c-1-1.82-2.15-3.53-3.11-5.41-.59-1.13-1.11-2-1.57-2.89-1.75-3.31-3.35-7.14-5.15-9.87C151.49,75.64,153.06,78.37,154.55,81.18ZM95.13,110.67c.31-.26-.22-.48-.42-.78a12.34,12.34,0,0,0-1-1.73A8.87,8.87,0,0,0,95.13,110.67Zm53.21-22.6c1.23-.41,2.31-1.87,3.44-1.5q.91-.91,1.89-1.8a5.46,5.46,0,0,0-.79-1.29A50.3,50.3,0,0,1,148.34,88.07Zm-31.9,20.1A13.39,13.39,0,0,0,103,105.72a12.92,12.92,0,0,0-7.68,8.14c.77-.85.79.76.23,1a12.9,12.9,0,0,0,.2,7.43c.4,1.24,1.07,3.16,1.83,3.82.47,1.32,1.66,1.91,2.52,2.69.14-.08.19-.2.41-.25,2.14,1.44,5,1.13,7.45,1.71.44-.18.72-.28.85.08.37,1-2.23.22-2.14.71.27.27.82.22,1.21.22s1-.09,1.5-.14c4.33-.49,8.56-3.66,9.86-6.71-.17-.18-.4-.2-.52-.51a1.34,1.34,0,0,1,.81-.88c.53-1,.46-2.16,1.28-3a12.28,12.28,0,0,0,0-3.48c-.07.64.18,1.41-.28,1.91-.23.11-.3-.21-.51-.15a21,21,0,0,1-1.42,5.09,4,4,0,0,1-1.52,2.3c-.12-.12-.32,0-.38-.35,1.58-2.14,1.62-4.89,2.27-7.4.43,0,.44-.23.42-.55l-.62.27c0,.36,0,.73-.32,1-.27,3.37-1.06,7.08-4.46,9.18-.32.19-1.44.94-1.64.34-.14-.42.68-.62,1.11-.86a7.43,7.43,0,0,0,3.38-4,10.61,10.61,0,0,0,.62-2.66,8.06,8.06,0,0,0,.29-2.73c-.36,2.05-.31,4.26-1.73,5.9-.27.17-.33-.23-.5-.3-.58.79-.74,2-1.95,2.34-.07.3-2.13,2.16-2.39,1.35-.13-.42,1-.89,1.44-1.31.7-.66.86-1.12,1.57-1.5.64-.59.76-1.79,1-2-.27.25-.25,1-.84.45.35-1.49,1.12-2.81,1.11-4.43a3.66,3.66,0,0,1-.77.11,8.82,8.82,0,0,1-.46,3.55c-.78,0-.42,1-1.2,1,.52.77-2.21,2.07-2.43,1.43s.82-.65,1.43-1c.43-.25.48-.51.88-.53.1-1.43,1-2.55,1-4-.25,0-.38-.33-.69-.22a9.33,9.33,0,0,0-.48,1.63c-.11.31-.46,1.44-.81,1.54-1,.29-.17-.9-.1-1.07a3.92,3.92,0,0,0,.34-3,.58.58,0,0,1,.44-.34c0-1.55-1.4-2.35-2.16-3.22.09-.06.07-.15.14-.21,1-.18,1.52.95,2.2,1.64-.15-.32.31-.4.31-.66a5.18,5.18,0,0,0-1.25-1.16c-.25-.17-1.48-.77-.89-1.18.33-.22,1.3.56,1.61.79a15.5,15.5,0,0,1,1.39,1.47c-.22-.56-.63-1.11-.12-1.29.74-.25.89,2,1.56,2.37.41-.18,0-.68-.1-1.07-.68.09-.81-1-1.17-1.65a4.1,4.1,0,0,0-2.53-1.71c-.27-.1-1.08-.25-.6-.86a5.09,5.09,0,0,1,4,2.71c.2-.15,0-.43.46-.5.63.41.89,1.77,1.36,2.6.32-.19.54-.14.84-.29-1.5-3.37-3.49-5.24-5.86-6.06-.62-.22-1.42-.11-2-.71a.33.33,0,0,1,.11-.27,5.53,5.53,0,0,1,2.33.39,9,9,0,0,1,4,3.07c.48.19.78.84,1.16,1.28,0-.27-.23-.64.1-.79s.5.23.4-.1c-.14-.12-.39,0-.51-.15a16,16,0,0,0-5.74-4.25,6.72,6.72,0,0,1-2.08-1,.33.33,0,0,1,.1-.27,3.6,3.6,0,0,1,2.23.66,16.85,16.85,0,0,1,4,2.4c.61.53,1.07,1.32,1.9,1.62a7.93,7.93,0,0,0-3.19-3.21c-.32-.22-1.06-.49-.77-1.08C114.9,106.73,115.68,108,116.44,108.17Zm37.25-17.23c0,.2.25.54,0,.67A12.86,12.86,0,0,0,149.82,94c-.4.29-.82.63-1.24.91s-.89.8-1.37.45c-.07-.75,1.18-1,1.64-1.53-5.12,2.64-10.34,5.24-15.54,7.85-.67,1.52-1.2,3.09-1.76,4.65.14.21.37.2.5.45s-.51.42-.14.88a8,8,0,0,0,.88-2.25c.23-.74.25-2,1.17-2.08a7.36,7.36,0,0,1-.75,2.87,4.6,4.6,0,0,0-.43,2.94c.36-.21.46-.81.59-1.23s.29-.91.43-1.38c.27-.88.16-2.25,1.22-2.47.29.58-.2,1.07-.35,1.57s-.4,1.64-.64,2.44c-.16.54-.83,2-.62,2.5a.7.7,0,0,0,.69.37c.44-.13.53-1.15.59-1.37a17.67,17.67,0,0,1,.88-2.92c.16-.41.28-1.14.88-1.21.46.37,0,.86-.15,1.19a23.23,23.23,0,0,0-1.07,3.67c.42-.27.82-.54,1.2-.83.16-.64.33-1.44.54-2.17s.25-1.69,1.09-1.74c.15,1.19-.66,2-.71,3.13,1.42-.73,1.62-1.74,2.1-2.85.25-.57.34-1.62,1.21-1.5.19.44-.23.88-.4,1.3s-.47.91-.33,1.11c3.53-2.46,9-4.77,13.29-7,1.67-.88,3.55-1.24,4.69-2.2a6.18,6.18,0,0,0,1.63-2.57,43.2,43.2,0,0,1-2.58-4c-1,1.08-2.25,2-3.33,3.1.55-.08,1.24-1,1.52-.45s-1.3,1.14-1.84,1.41c-2.83,1.42-5.4,3.1-8.71,5.08-1.49.89-2.66,1.48-4.4,2.53-.54.32-1.86,1.22-2,1.33s-1.61,1.5-1.94,1,2-1.86,2.11-2c6.5-4.29,14.06-7.67,18.2-12.66a5.46,5.46,0,0,0-.59-1.16l-.12.05C155.1,89.76,154.51,90.39,153.69,90.94ZM118.58,111c-.13.15-.2.25-.4.25a15.21,15.21,0,0,1,1.7,3.2,13.32,13.32,0,0,0-1.71-4.39A2.24,2.24,0,0,1,118.58,111Zm.07,5.4c.28-.13.63.09.77-.11-.37-1.18-.45-2.8-1.4-3.86A15.79,15.79,0,0,1,118.65,116.43ZM158.05,99c-2.35,1.29-5.72,2.36-8.07,3.84,4.11-1.8,10-2.86,12.09-6-.46-.45-.7-1.49-1.12-2A5.91,5.91,0,0,1,158.05,99ZM113,118a1.37,1.37,0,0,0,.53-.16,2.14,2.14,0,0,0-.07-.49,3,3,0,0,1-.71.24C112.78,117.77,112.9,117.82,113,118Zm1.64-.5.38-.16-.19-.44C114.4,117,114.43,117.25,114.59,117.54Zm1.09-.4c.19-.08.06-.29,0-.46-.08,0-.13,0-.22,0Zm1.58-.47a3.75,3.75,0,0,1,.62-.12,1.05,1.05,0,0,0-.12-.62,2.9,2.9,0,0,1-.72.24Zm-.81,1.54a18,18,0,0,1-.8,5,7.38,7.38,0,0,0,1.06-4.56c0-.18.21-.29.15-.51A.62.62,0,0,0,116.45,118.21Zm33.24-14.5c-.21.14-.65.19-.72.39C149.19,104,149.63,103.91,149.69,103.71Zm-27.41,12.17c0,.33,0,.89.19,1.11a22.2,22.2,0,0,1,4.78-2.84A18.59,18.59,0,0,0,122.28,115.88Zm37.44-14.26A7.59,7.59,0,0,0,161,101c.55-.31,1.69-1,1.45-1.6a5.28,5.28,0,0,0-1.25.7c-1.95,1-3.36,1-5,1.43a51.65,51.65,0,0,0-6.06,2.14C153.23,102.55,156.64,102.67,159.72,101.62Zm4.72.24c-.13-.28-.67-.57-.93-.93a12.36,12.36,0,0,1-3.77,2.09c-3.82,1.22-7.79,1-11.52,2.75C153.47,104.53,158.83,105.47,164.44,101.86Zm-30.15,10.69c.16,0,.59-.07.53-.31C134.59,112.21,134.32,112.26,134.29,112.55ZM105.77,131c-1-.1-2.09-.76-3-.7A9.41,9.41,0,0,0,105.77,131Z"/></svg>